
<svg xmlns="http://www.w3.org/2000/svg" version="1.1" xmlns:xlink="http://www.w3.org/1999/xlink" preserveAspectRatio="none" x="0px" y="0px" width="90px" height="83px" viewBox="0 0 90 83">
<defs>
<g id="Layer0_0_FILL">
<path fill="#35B0AB" stroke="none" d="
M 36.25 21
Q 33.8 21.2 30.95 22.85
L 5.75 37.4
Q -3.3 42.6 1.95 51.65
L 16.5 76.85
Q 21.7 85.85 30.75 80.7
L 56 66.1
Q 60.1 63.75 61.25 60.65 62.7 56.8 59.8 51.85
L 45.25 26.65
Q 41.65 20.45 36.25 21
M 40.9 29.45
Q 42 31.3 41.4 33.45 40.85 35.5 39.05 36.55 37.2 37.6 35.1 37.1 32.95 36.55 31.9 34.65 30.85 32.8 31.4 30.75 31.95 28.65 33.8 27.55 35.65 26.5 37.75 27.1 39.85 27.6 40.9 29.45
M 35.4 48.45
Q 35.55 48.65 35.65 48.85 36.35 50.6 35.95 52.45 35.35 54.5 33.55 55.55 31.65 56.65 29.6 56.1 27.45 55.55 26.4 53.65 26.35 53.6 26.35 53.55 25.3 51.75 25.9 49.75 26.45 47.65 28.25 46.6 30.1 45.55 32.25 46.1 34.3 46.6 35.4 48.45
M 22.25 65.2
Q 24.1 64.15 26.2 64.75 28.3 65.25 29.35 67.1 30.4 69 29.85 71.1 29.3 73.15 27.45 74.2 25.6 75.3 23.55 74.75 21.4 74.2 20.35 72.3 19.3 70.45 19.85 68.4 20.4 66.3 22.25 65.2 Z"/>

<path fill="#004C65" stroke="none" d="
M 26.2 64.75
Q 24.1 64.15 22.25 65.2 20.4 66.3 19.85 68.4 19.3 70.45 20.35 72.3 21.4 74.2 23.55 74.75 25.6 75.3 27.45 74.2 29.3 73.15 29.85 71.1 30.4 69 29.35 67.1 28.3 65.25 26.2 64.75
M 35.65 48.85
Q 35.55 48.65 35.4 48.45 34.3 46.6 32.25 46.1 30.1 45.55 28.25 46.6 26.45 47.65 25.9 49.75 25.3 51.75 26.35 53.55 26.35 53.6 26.4 53.65 27.45 55.55 29.6 56.1 31.65 56.65 33.55 55.55 35.35 54.5 35.95 52.45 36.35 50.6 35.65 48.85
M 41.4 33.45
Q 42 31.3 40.9 29.45 39.85 27.6 37.75 27.1 35.65 26.5 33.8 27.55 31.95 28.65 31.4 30.75 30.85 32.8 31.9 34.65 32.95 36.55 35.1 37.1 37.2 37.6 39.05 36.55 40.85 35.5 41.4 33.45
M 58.15 25.5
Q 56.05 26.05 54.95 27.9 53.9 29.75 54.5 31.85 55 33.95 56.9 35.05 58.75 36.1 60.85 35.5 62.9 34.95 64 33.1 65.1 31.25 64.55 29.15 63.95 27.05 62.1 26 60.2 24.95 58.15 25.5 Z"/>

<path fill="#B6E2DF" stroke="none" d="
M 88.3 30.75
Q 93.55 21.7 84.5 16.45
L 59.25 1.9
Q 50.25 -3.3 45 5.75
L 36.25 21
Q 41.65 20.45 45.25 26.65
L 59.8 51.85
Q 62.7 56.8 61.25 60.65 69.05 64.15 73.8 55.95
L 88.3 30.75
M 54.95 27.9
Q 56.05 26.05 58.15 25.5 60.2 24.95 62.1 26 63.95 27.05 64.55 29.15 65.1 31.25 64 33.1 62.9 34.95 60.85 35.5 58.75 36.1 56.9 35.05 55 33.95 54.5 31.85 53.9 29.75 54.95 27.9 Z"/>
</g>
</defs>

<g transform="matrix( 1, 0, 0, 1, 0,0) ">
<use xlink:href="#Layer0_0_FILL"/>
</g>
</svg>
