
<svg xmlns="http://www.w3.org/2000/svg" version="1.1" xmlns:xlink="http://www.w3.org/1999/xlink" preserveAspectRatio="none" x="0px" y="0px" width="280px" height="279px" viewBox="0 0 280 279">
<defs>
<g id="Layer13_0_FILL">
<path fill="#252525" stroke="none" d="
M 275 176.4
Q 289.9 120.55 260.8 70 231.9 20.2 176.3 5.05 120.4 -9.85 70.15 19.05 20.1 48.15 5.2 104 -9.95 160.1 19.15 209.7 47.55 259.95 103.9 274.85 159.75 289.75 209.8 260.65 259.85 232.05 275 176.4
M 210.05 99.8
Q 227.25 129.15 218.4 161.25 209.55 193.85 180.45 210.4 151.4 226.9 119.25 218.55 86.9 209.9 70.15 180.6 52.9 152.2 61.75 119.6 70.6 87.5 99.25 70 128.55 53.25 160.9 62.35 193.3 70.5 210.05 99.8
M 172.45 130.3
L 180.15 116.95 140.9 94.3 114.25 134.1
Q 122.25 137.5 128 140.85 143.55 149.8 137.15 160.8 134.15 166.1 128.75 167.15 123.35 168.05 116.85 164.35 108.3 159.35 103.35 150.35
L 95.3 164.3
Q 100.75 171.7 111.45 177.85 124.6 185.5 136.4 182.85 148.2 180.2 154.7 168.95 160.55 158.85 157.55 149.1 154.55 139.35 143.1 132.75 140.2 131.1 136.1 129.1
L 145.7 114.85 172.45 130.3 Z"/>

<path fill="#FAFAFA" stroke="none" d="
M 218.4 161.25
Q 227.25 129.15 210.05 99.8 193.3 70.5 160.9 62.35 128.55 53.25 99.25 70 70.6 87.5 61.75 119.6 52.9 152.2 70.15 180.6 86.9 209.9 119.25 218.55 151.4 226.9 180.45 210.4 209.55 193.85 218.4 161.25
M 180.15 116.95
L 172.45 130.3 145.7 114.85 136.1 129.1
Q 140.2 131.1 143.1 132.75 154.55 139.35 157.55 149.1 160.55 158.85 154.7 168.95 148.2 180.2 136.4 182.85 124.6 185.5 111.45 177.85 100.75 171.7 95.3 164.3
L 103.35 150.35
Q 108.3 159.35 116.85 164.35 123.35 168.05 128.75 167.15 134.15 166.1 137.15 160.8 143.55 149.8 128 140.85 122.25 137.5 114.25 134.1
L 140.9 94.3 180.15 116.95 Z"/>
</g>
</defs>

<g transform="matrix( 1, 0, 0, 1, 0,0) ">
<use xlink:href="#Layer13_0_FILL"/>
</g>
</svg>
