
<svg xmlns="http://www.w3.org/2000/svg" version="1.1" xmlns:xlink="http://www.w3.org/1999/xlink" preserveAspectRatio="none" x="0px" y="0px" width="1024px" height="334px" viewBox="0 0 1024 334">
<defs>
<g id="Layer0_0_FILL">
<path fill="#2A2A2A" stroke="none" d="
M 140.3 112.05
L 131.2 106.55 121.3 116.45 143.25 124.85 140.3 112.05
M 130.35 135.3
L 127.4 129.45 112.8 124.7 107.3 133.5 121.2 141.5 130.35 135.3
M 115.95 90.35
L 97.7 93.65 96.6 117.4 106.85 112 118.9 100.3 115.95 90.35
M 168.7 129.2
L 183.9 147.5 187.8 136.5 188.85 119.7 179.95 114.4 168.7 129.2
M 664.95 143.1
L 650.3 138.3 644.8 147.05 658.7 155.15 667.85 148.95 664.95 143.1
M 661.9 131.65
L 679.2 147.5 681.15 134.5 674.65 126.1 661.9 131.65
M 827.7 126.2
L 841.6 134.2 850.7 128 847.8 122.15 833.15 117.4 827.7 126.2
M 860.7 104.75
L 851.5 99.25 841.7 109.15 863.65 117.55 860.7 104.75
M 839.3 93
L 836.35 83.05 818.05 86.35 816.9 110.1 827.1 104.7 839.3 93
M 1024 370.6
L 1024 133.6 903.8 183 812.45 158.1 682 197 602.9 186.75 562.8 194.1 397.85 160.8 291.95 193.25 164.95 181.25 113.65 185.8 0 82.65 0 370.6 1024 370.6 Z"/>

<path fill="#010101" stroke="none" d="
M 223.4 121.55
L 212.55 114 202.15 116.1 201.55 130.05 223.4 121.55
M 220.9 137.9
L 214.8 135.55 200.8 141.9 202.65 152.05 218.35 148.6 220.9 137.9 Z"/>
</g>
</defs>

<g transform="matrix( 1, 0, 0, 1, 0,0) ">
<use xlink:href="#Layer0_0_FILL"/>
</g>
</svg>
