
<svg xmlns="http://www.w3.org/2000/svg" version="1.1" xmlns:xlink="http://www.w3.org/1999/xlink" preserveAspectRatio="none" x="0px" y="0px" width="100px" height="150px" viewBox="0 0 100 150">
<defs>
<g id="Layer0_0_FILL">
<path fill="#246B81" stroke="none" d="
M 54.1 0.2
Q 23.1 18.6 19.3 52.3 34.55 50.7 49.1 57.6
L 54.1 0.2
M 99.5 54.3
Q 101.3 33.7 88.05 17.85 74.75 2 54.1 0.2 78.65 22.4 79.75 57.3 89.85 52.1 99.5 54.3 Z"/>

<path fill="#35B0AB" stroke="none" d="
M 49.1 57.6
Q 63.45 53.2 79.75 57.3 78.65 22.4 54.1 0.2
L 49.1 57.6
M 17.65 11.7
Q 1.8 25 0 45.6 11.5 45.45 19.3 52.3 23.1 18.6 54.1 0.2 33.5 -1.6 17.65 11.7 Z"/>
</g>

<g id="Layer0_1_FILL">
<path fill="#004C65" stroke="none" d="
M 362.25 -33.2
L 360.5 -13.3 390.15 -10.7 391.9 -30.6 362.25 -33.2 Z"/>
</g>

<path id="Layer0_0_1_STROKES" stroke="#CCCCCC" stroke-width="2" stroke-linejoin="round" stroke-linecap="round" fill="none" d="
M 45.35 129
L 99.5 54.3
M 79.75 57.3
L 44.45 128.95
M 49.1 57.6
L 42.85 128.8
M 0 45.6
L 40.4 128.6
M 19.3 52.3
L 41.3 128.65"/>
</defs>

<g transform="matrix( 1, 0, 0, 1, 0,0) ">
<use xlink:href="#Layer0_0_FILL"/>

<use xlink:href="#Layer0_0_1_STROKES"/>
</g>

<g transform="matrix( 1, 0, 0, 1, -334.1,160.7) ">
<use xlink:href="#Layer0_1_FILL"/>
</g>
</svg>
