<?xml version="1.0" encoding="UTF-8"?>
<svg width="24.091" height="23.946" preserveAspectRatio="none" version="1.1" viewBox="0 0 24.091 23.946" xmlns="http://www.w3.org/2000/svg" xmlns:xlink="http://www.w3.org/1999/xlink">
 <defs>
  <g id="Layer1_0_FILL">
   <path d="m18.85 1.2q-1.2-1.2-2.85-1.2h-12q-1.7 0-2.85 1.2-1.15 1.15-1.15 2.8v12q0 1.7 1.15 2.85t2.85 1.15h12q1.65 0 2.85-1.15 1.15-1.15 1.15-2.85v-12q0-1.65-1.15-2.8m-2.85 0.8q0.85 0 1.4 0.6 0.6 0.6 0.6 1.4v12q0 0.85-0.6 1.45-0.55 0.55-1.4 0.55h-12q-0.85 0-1.45-0.55-0.55-0.6-0.55-1.45v-12q0-0.85 0.55-1.4 0.6-0.6 1.45-0.6h12m-4.3 3.75h-0.1l-0.1 0.15q1.65 0.5 2.4 1.2-1.45-0.75-2.95-0.9-1.2-0.1-2 0.05h-0.25q-1.1 0.15-2.2 0.65l-0.15 0.05-0.4 0.2h-0.05q0.85-0.75 2.6-1.3h0.05l-0.1-0.1h-0.05q-1.35 0-2.75 1.05l-0.05 0.1q-1.4 2.5-1.4 5.7v0.05q1.05 1.4 3.05 1.5l0.65-0.85q-0.85-0.25-1.75-1.15h0.05l0.25 0.15h0.05l0.05 0.1 0.75 0.3q0.6 0.3 1.5 0.45 1.25 0.25 2.5 0h0.05q0.9-0.2 1.45-0.45 0.5-0.15 1.15-0.55-0.55 0.85-1.8 1.15l0.15 0.25 0.5 0.6q1.4-0.05 2.35-0.8 0.5-0.4 0.7-0.75 0-3.2-1.4-5.8-1.4-1.05-2.75-1.05m0.1 3.7q0.45 0 0.75 0.35 0.3 0.3 0.3 0.75 0 0.5-0.3 0.8-0.3 0.35-0.75 0.35-0.4 0-0.7-0.35-0.3-0.3-0.3-0.8 0-0.45 0.3-0.75 0.3-0.35 0.7-0.35m-4.65 1.1q0-0.45 0.3-0.75 0.3-0.35 0.7-0.35 0.45 0 0.75 0.35 0.3 0.3 0.3 0.75 0 0.5-0.3 0.8-0.3 0.35-0.75 0.35-0.4 0-0.7-0.35-0.3-0.3-0.3-0.8z" fill="#010101"/>
  </g>
 </defs>
 <g transform="matrix(.99388 0 0 1.0028 2.0329 1.9688)" stroke-width="1.0017">
  <use width="100%" height="100%" stroke-width="1.0017" xlink:href="#Layer1_0_FILL"/>
 </g>
</svg>
