<?xml version="1.0" encoding="UTF-8" standalone="no"?>
<!-- Created with Inkscape (http://www.inkscape.org/) -->

<svg
   width="3253.9971mm"
   height="2254.5464mm"
   viewBox="0 0 3253.9971 2254.5464"
   version="1.1"
   id="svg2346"
   xmlns="http://www.w3.org/2000/svg"
   xmlns:svg="http://www.w3.org/2000/svg">
  <defs
     id="defs2343">
    <rect
       x="10306.25"
       y="14368.75"
       width="1225"
       height="756.25"
       id="rect133066" />
  </defs>
  <g
     id="layer1"
     transform="translate(1501.4025,1064.8964)">
    <g
       id="g4847">
      <rect
         style="fill:#efefef;fill-opacity:1;stroke-width:6.6;stroke-linecap:square"
         id="rect2134"
         width="3253.9966"
         height="598.97607"
         x="-1501.4023"
         y="590.67401" />
      <rect
         style="fill:#c06d85;fill-opacity:1;stroke-width:6.59997;stroke-linecap:square"
         id="rect2490"
         width="3253.9968"
         height="29.981735"
         x="-1501.4023"
         y="1159.6681" />
      <rect
         style="fill:#d5d5d5;fill-opacity:1;stroke-width:6.59997;stroke-linecap:square"
         id="rect2785"
         width="3253.9968"
         height="29.981735"
         x="-1501.4023"
         y="560.69257" />
      <rect
         style="fill:#33b2ab;fill-opacity:0.956863;stroke-width:6.59998;stroke-linecap:square"
         id="rect2787"
         width="3253.9966"
         height="118.78249"
         x="-1501.4023"
         y="441.91132" />
      <rect
         style="fill:#f27180;fill-opacity:0.937255;stroke-width:6.59998;stroke-linecap:square"
         id="rect2789"
         width="3253.9966"
         height="64.8283"
         x="-1501.4023"
         y="377.08319" />
      <rect
         style="fill:#34b1ab;fill-opacity:0.956863;stroke-width:35.665;stroke-linecap:square;stroke-miterlimit:4;stroke-dasharray:213.99, 35.665;stroke-dashoffset:0"
         id="rect2849"
         width="819.82904"
         height="1031.875"
         x="-1501.4023"
         y="-654.79181" />
      <rect
         style="fill:#f27180;fill-opacity:1;stroke-width:35.6649;stroke-linecap:square;stroke-miterlimit:4;stroke-dasharray:213.99, 35.6649;stroke-dashoffset:0"
         id="rect2953"
         width="714.375"
         height="1441.9792"
         x="-583.45703"
         y="-1064.8964" />
      <rect
         style="fill:#c06d85;fill-opacity:1;stroke-width:35.665;stroke-linecap:square;stroke-miterlimit:4;stroke-dasharray:213.99, 35.665;stroke-dashoffset:0"
         id="rect2973"
         width="697.83856"
         height="727.60419"
         x="229.03342"
         y="-350.5213" />
      <rect
         style="fill:#6f5980;fill-opacity:1;stroke-width:35.6649;stroke-linecap:square;stroke-miterlimit:4;stroke-dasharray:213.989, 35.6649;stroke-dashoffset:0"
         id="rect2993"
         width="727.60419"
         height="1236.9272"
         x="1024.9885"
         y="-859.84357" />
      <rect
         style="fill:#241c1c;stroke-width:35.665;stroke-linecap:square;stroke-miterlimit:4;stroke-dasharray:213.99, 35.665;stroke-dashoffset:0"
         id="rect3137"
         width="78.573235"
         height="1446.8411"
         x="-101.30081"
         y="-886.14923" />
      <g
         id="g3602"
         transform="matrix(1.244381,0,0,1.244381,-14046.596,-11379.77)"
         style="stroke-width:0.803612">
        <rect
           style="fill:#241c1c;stroke-width:28.6608;stroke-linecap:square;stroke-miterlimit:4;stroke-dasharray:171.965, 28.6608;stroke-dashoffset:0"
           id="rect3263"
           width="184.11923"
           height="108.74529"
           x="11269.753"
           y="8706.6387" />
        <path
           style="fill:#241c1c;stroke-width:111.961;stroke-linecap:square;stroke-miterlimit:4;stroke-dasharray:671.759, 111.961;stroke-dashoffset:0"
           id="path3320"
           transform="matrix(0.22292696,-0.00161854,0.00122746,0.29395218,1710.0693,-576.66347)"
           d="m 43531.25,32190.625 2.045,-369.931 319.347,186.737 z" />
      </g>
      <rect
         style="fill:#241c1c;stroke-width:35.665;stroke-linecap:square;stroke-miterlimit:4;stroke-dasharray:213.99, 35.665;stroke-dashoffset:0"
         id="rect3584"
         width="229.11447"
         height="135.32057"
         x="101.30081"
         y="-355.25372"
         transform="scale(-1,1)" />
      <path
         style="fill:#241c1c;stroke-width:111.961;stroke-linecap:square;stroke-miterlimit:4;stroke-dasharray:671.759, 111.961;stroke-dashoffset:0"
         id="path3586"
         transform="matrix(-0.27740608,-0.00201408,-0.00152743,0.36578852,11794.588,-11907.219)"
         d="m 43531.25,32190.625 2.045,-369.931 319.347,186.737 z" />
      <rect
         style="fill:#241c1c;stroke-width:35.665;stroke-linecap:square;stroke-miterlimit:4;stroke-dasharray:213.99, 35.665;stroke-dashoffset:0"
         id="rect3588"
         width="229.11447"
         height="135.32057"
         x="-22.729521"
         y="-165.11409" />
      <path
         style="fill:#241c1c;stroke-width:111.961;stroke-linecap:square;stroke-miterlimit:4;stroke-dasharray:671.759, 111.961;stroke-dashoffset:0"
         id="path3590"
         transform="matrix(0.27740608,-0.00201408,0.00152743,0.36578852,-11918.618,-11717.079)"
         d="m 43531.25,32190.625 2.045,-369.931 319.347,186.737 z" />
      <rect
         style="fill:#241c1c;stroke-width:35.665;stroke-linecap:square;stroke-miterlimit:4;stroke-dasharray:213.99, 35.665;stroke-dashoffset:0"
         id="rect3604"
         width="229.11447"
         height="135.32057"
         x="-22.729521"
         y="-735.534" />
      <path
         style="fill:#241c1c;stroke-width:111.961;stroke-linecap:square;stroke-miterlimit:4;stroke-dasharray:671.759, 111.961;stroke-dashoffset:0"
         id="path3606"
         transform="matrix(0.27740608,-0.00201408,0.00152743,0.36578852,-11918.618,-12287.499)"
         d="m 43531.25,32190.625 2.045,-369.931 319.347,186.737 z" />
      <g
         id="g3751"
         transform="translate(-11224.841,-8979.5824)">
        <rect
           style="fill:#241c1c;stroke-width:35.665;stroke-linecap:square;stroke-miterlimit:4;stroke-dasharray:213.99, 35.665;stroke-dashoffset:0"
           id="rect3632"
           width="332.57748"
           height="55.55867"
           x="9723.4385"
           y="9841.9648" />
        <rect
           style="fill:#241c1c;stroke-width:35.665;stroke-linecap:square;stroke-miterlimit:4;stroke-dasharray:213.99, 35.665;stroke-dashoffset:0"
           id="rect3714"
           width="332.57748"
           height="55.55867"
           x="10210.341"
           y="9841.9648" />
        <rect
           style="fill:#241c1c;stroke-width:35.665;stroke-linecap:square;stroke-miterlimit:4;stroke-dasharray:213.99, 35.665;stroke-dashoffset:0"
           id="rect3716"
           width="332.57748"
           height="55.55867"
           x="10697.244"
           y="9841.9648" />
        <rect
           style="fill:#241c1c;stroke-width:35.665;stroke-linecap:square;stroke-miterlimit:4;stroke-dasharray:213.99, 35.665;stroke-dashoffset:0"
           id="rect3718"
           width="332.57748"
           height="55.55867"
           x="11184.146"
           y="9841.9648" />
        <rect
           style="fill:#241c1c;stroke-width:35.665;stroke-linecap:square;stroke-miterlimit:4;stroke-dasharray:213.99, 35.665;stroke-dashoffset:0"
           id="rect3720"
           width="332.57748"
           height="55.55867"
           x="11671.049"
           y="9841.9648" />
        <rect
           style="fill:#241c1c;stroke-width:35.665;stroke-linecap:square;stroke-miterlimit:4;stroke-dasharray:213.99, 35.665;stroke-dashoffset:0"
           id="rect3722"
           width="332.57748"
           height="55.55867"
           x="12157.951"
           y="9841.9648" />
        <rect
           style="fill:#241c1c;stroke-width:35.665;stroke-linecap:square;stroke-miterlimit:4;stroke-dasharray:213.99, 35.665;stroke-dashoffset:0"
           id="rect3724"
           width="332.57748"
           height="55.55867"
           x="12644.854"
           y="9841.9648" />
      </g>
      <g
         id="g7301"
         style="fill:#35b0ab;fill-opacity:1;stroke-width:0.803612"
         transform="matrix(1.244381,0,0,1.244381,-14046.596,-11357.96)">
        <g
           id="g6337"
           transform="matrix(0.80100876,0,0,0.80100876,2256.0067,1712.264)"
           style="fill:#35b0ab;fill-opacity:1;stroke-width:1.00325">
          <rect
             style="fill:#35b0ab;fill-opacity:1;stroke-width:35.7809;stroke-linecap:square;stroke-miterlimit:4;stroke-dasharray:214.686, 35.7809;stroke-dashoffset:0"
             id="rect3881"
             width="60.771484"
             height="11.988933"
             x="14080.485"
             y="-1996.1503"
             transform="rotate(45)" />
          <rect
             style="fill:#35b0ab;fill-opacity:1;stroke-width:35.7809;stroke-linecap:square;stroke-miterlimit:4;stroke-dasharray:214.686, 35.7809;stroke-dashoffset:0"
             id="rect3963"
             width="60.771484"
             height="11.988933"
             x="-1996.1847"
             y="14080.52"
             transform="matrix(-0.70710678,0.70710678,0.70710678,0.70710678,0,0)" />
        </g>
        <rect
           style="fill:#35b0ab;fill-opacity:1;stroke:none;stroke-width:28.6608;stroke-linecap:square;stroke-miterlimit:4;stroke-dasharray:171.966, 28.6608;stroke-dashoffset:0"
           id="rect4179"
           width="44.856487"
           height="44.856487"
           x="11339.384"
           y="8579.7002" />
        <path
           style="fill:#35b0ab;fill-opacity:1;stroke:none;stroke-width:149.394;stroke-linecap:square;stroke-miterlimit:4;stroke-dasharray:896.357, 149.394;stroke-dashoffset:0"
           id="path6361"
           transform="matrix(0.23745488,0,0,0.1550008,1159.2709,3561.0439)"
           d="m 43012.255,32388.254 -95.184,-0.288 47.842,-82.288 z" />
      </g>
      <rect
         style="fill:#f27180;fill-opacity:1;stroke:none;stroke-width:3.19338;stroke-miterlimit:4;stroke-dasharray:none;stroke-opacity:1"
         id="rect157801"
         width="64.203644"
         height="84.295609"
         x="59.725803"
         y="-519.88165"
         ry="5.327086"
         rx="5.327086" />
      <rect
         style="fill:#f7aab4;fill-opacity:1;stroke:none;stroke-width:3.19338;stroke-miterlimit:4;stroke-dasharray:none;stroke-opacity:1"
         id="rect157803"
         width="54.38427"
         height="15.711012"
         x="64.635956"
         y="-513.99005"
         ry="4.0039959"
         rx="4.0039959" />
      <g
         id="g14948"
         transform="matrix(1.244381,0,0,1.244381,-14047.087,-11357.96)"
         style="stroke-width:0.803612">
        <circle
           style="fill:#ffffff;fill-opacity:1;stroke:none;stroke-width:2.56625;stroke-miterlimit:4;stroke-dasharray:none;stroke-opacity:1"
           id="circle157805"
           cx="11347.215"
           cy="8752.7168"
           r="5.2514334" />
        <circle
           style="fill:#ffffff;fill-opacity:1;stroke:none;stroke-width:2.56625;stroke-miterlimit:4;stroke-dasharray:none;stroke-opacity:1"
           id="circle157807"
           cx="11362.461"
           cy="8752.7168"
           r="5.2514334" />
        <circle
           style="fill:#ffffff;fill-opacity:1;stroke:none;stroke-width:2.56625;stroke-miterlimit:4;stroke-dasharray:none;stroke-opacity:1"
           id="circle157809"
           cx="11377.198"
           cy="8752.7168"
           r="5.2514334" />
        <circle
           style="fill:#ffffff;fill-opacity:1;stroke:none;stroke-width:2.56625;stroke-miterlimit:4;stroke-dasharray:none;stroke-opacity:1"
           id="circle157813"
           cx="11347.215"
           cy="8767.2852"
           r="5.2514334" />
        <circle
           style="fill:#ffffff;fill-opacity:1;stroke:none;stroke-width:2.56625;stroke-miterlimit:4;stroke-dasharray:none;stroke-opacity:1"
           id="circle157815"
           cx="11362.461"
           cy="8767.2852"
           r="5.2514334" />
        <circle
           style="fill:#ffffff;fill-opacity:1;stroke:none;stroke-width:2.56625;stroke-miterlimit:4;stroke-dasharray:none;stroke-opacity:1"
           id="circle157817"
           cx="11377.198"
           cy="8767.2852"
           r="5.2514334" />
        <circle
           style="fill:#ffffff;fill-opacity:1;stroke:none;stroke-width:2.56625;stroke-miterlimit:4;stroke-dasharray:none;stroke-opacity:1"
           id="circle157829"
           cx="11347.215"
           cy="8737.8105"
           r="5.2514334" />
        <circle
           style="fill:#ffffff;fill-opacity:1;stroke:none;stroke-width:2.56625;stroke-miterlimit:4;stroke-dasharray:none;stroke-opacity:1"
           id="circle157831"
           cx="11362.461"
           cy="8737.8105"
           r="5.2514334" />
        <circle
           style="fill:#ffffff;fill-opacity:1;stroke:none;stroke-width:2.56625;stroke-miterlimit:4;stroke-dasharray:none;stroke-opacity:1"
           id="circle157833"
           cx="11377.198"
           cy="8737.8105"
           r="5.2514334" />
      </g>
      <path
         id="path7649"
         style="fill:#944058;fill-opacity:1;stroke:none;stroke-width:0.763;stroke-linecap:square;stroke-miterlimit:4;stroke-dasharray:none;stroke-dashoffset:0"
         d="m -175.9058,-272.234 -7.424,-2.171 -5.457,7.457 -6.73,-5.456 -8.912,0.182 -10.55,2.91 -9.457,2.546 1.637,12.55 -4.007,7.992 a 42.808575,42.808575 0 0 0 10.947,1.44 42.808575,42.808575 0 0 0 39.953,-27.45 z" />
      <path
         id="path7852"
         style="fill:#c06d85;fill-opacity:1;stroke:none;stroke-width:0.763;stroke-linecap:square;stroke-miterlimit:4;stroke-dasharray:none;stroke-dashoffset:0"
         d="m -235.3428,-249.517 a 42.808575,42.808575 0 0 0 8.537,3.293 l 4.007,-7.992 -1.637,-12.55 9.457,-2.546 10.55,-2.91 8.912,-0.182 6.73,5.456 5.457,-7.457 7.424,2.171 a 42.808575,42.808575 0 0 0 2.855,-15.359 42.808575,42.808575 0 0 0 -0.838,-8.419 l -13.443,-0.947 -9.822,4.366 -2.546,9.458 -5.275,2.546 -4.365,0.91 -6.549,-5.093 -2.182,-9.094 2.182,-4.911 -0.908,-7.094 1.818,-6.002 7.276,-6.912 13.095,1.82 4.805,-4.59 a 42.808575,42.808575 0 0 0 -26.056,-8.847 42.808575,42.808575 0 0 0 -17.467,3.757 l 10.345,6.042 -3.638,6.729 3.274,13.642 0.364,10.003 -6.365,6.366 -6.003,-0.727 -2.909,8.548 3.819,11.458 0.909,4.729 z" />
      <path
         id="path7858"
         style="fill:#944058;fill-opacity:1;stroke:none;stroke-width:0.763;stroke-linecap:square;stroke-miterlimit:4;stroke-dasharray:none;stroke-dashoffset:0"
         d="m -235.3428,-249.517 1.813,-10.338 -0.909,-4.729 -3.819,-11.458 2.909,-8.548 6.003,0.727 6.365,-6.366 -0.364,-10.003 -3.274,-13.642 3.638,-6.729 -10.345,-6.042 a 42.808575,42.808575 0 0 0 -25.342,39.052 42.808575,42.808575 0 0 0 23.325,38.076 z" />
      <path
         id="path7855"
         style="fill:#944058;fill-opacity:1;stroke:none;stroke-width:0.763;stroke-linecap:square;stroke-miterlimit:4;stroke-dasharray:none;stroke-dashoffset:0"
         d="m -189.8028,-321.555 -4.805,4.59 -13.095,-1.82 -7.276,6.912 -1.818,6.002 0.908,7.094 -2.182,4.911 2.182,9.094 6.549,5.093 4.365,-0.91 5.275,-2.546 2.546,-9.458 9.822,-4.366 13.443,0.947 a 42.808575,42.808575 0 0 0 -15.914,-25.543 z" />
      <ellipse
         style="fill:#c0b4ca;fill-opacity:1;stroke-width:78.4799;stroke-linecap:round;stroke-linejoin:round"
         id="ellipse7987"
         cx="63.559788"
         cy="-126.83479"
         rx="6.4443245"
         ry="4.8332434" />
      <ellipse
         style="fill:#c0b4ca;fill-opacity:1;stroke-width:78.4799;stroke-linecap:round;stroke-linejoin:round"
         id="ellipse7989"
         cx="119.60861"
         cy="-126.83479"
         rx="6.4443245"
         ry="4.8332434" />
      <g
         id="g7997"
         style="fill:#8f79a1;fill-opacity:1;stroke-width:72.5787"
         transform="matrix(0.01377812,0,0,0.01377812,-126.6928,-169.481)">
        <path
           id="path7991"
           style="fill:#8f79a1;fill-opacity:1;stroke-width:4571.26;stroke-linecap:round;stroke-linejoin:round"
           d="m 14456.125,2831.0424 c 140.025,83.7514 145.432,68.174 293.261,228.447 -1068.986,229.002 -822.751,573.4543 -1933.216,656.4232 67.453,-220.9834 60.909,-363.4991 259.394,-585.6249 25.879,6.1939 -159.967,-57.3157 1380.561,-299.2453 z" />
        <path
           id="path7993"
           style="fill:#8f79a1;fill-opacity:1;stroke-width:4571.26;stroke-linecap:round;stroke-linejoin:round"
           d="m 17189.914,2831.0424 c -140.025,83.7514 -145.432,68.174 -293.261,228.447 1068.986,229.002 822.751,573.4543 1933.216,656.4232 -67.453,-220.9834 -60.909,-363.4991 -259.394,-585.6249 -25.879,6.1939 159.967,-57.3157 -1380.561,-299.2453 z" />
        <path
           id="path7995"
           style="fill:#8f79a1;fill-opacity:1;stroke-width:7091.97;stroke-linecap:round;stroke-linejoin:round"
           d="m 15957.46,2899.0822 c -1069.432,-4.0219 -2170.572,122.2539 -2664.99,372.1002 -930.67,470.2993 -863.582,1960.5903 108.528,2410.841 10.779,4.9924 23.191,9.6022 34.483,14.4761 18.495,-7.104 36.099,-14.4094 55.642,-21.273 36.962,-12.9813 75.763,-25.532 116.273,-37.651 40.51,-12.119 82.729,-23.8067 126.529,-35.061 43.799,-11.2543 89.178,-22.0752 136.007,-32.462 46.828,-10.3867 95.107,-20.3396 144.705,-29.8561 49.597,-9.5165 100.514,-18.597 152.622,-27.2407 52.108,-8.6437 105.404,-16.8503 159.761,-24.6182 54.357,-7.7679 109.774,-15.0971 166.121,-21.9868 56.346,-6.8895 113.623,-13.3393 171.699,-19.3474 58.077,-6.0085 116.954,-11.5756 176.5,-16.7 59.546,-5.1245 119.762,-9.8057 180.518,-14.0436 60.757,-4.2378 122.053,-8.0317 183.759,-11.3802 61.707,-3.3483 123.823,-6.2511 186.22,-8.7075 62.396,-2.4561 125.073,-4.4656 187.899,-6.0269 62.828,-1.5613 125.805,-2.6744 188.802,-3.3382 62.997,-0.6639 126.015,-0.8785 188.922,-0.6419 62.909,0.2365 125.707,0.9242 188.265,2.064 62.559,1.1395 124.877,2.7315 186.827,4.777 61.948,2.0453 123.528,4.5445 184.608,7.4986 61.08,2.9541 121.66,6.363 181.612,10.2285 59.95,3.8653 119.272,8.1868 177.834,12.9659 58.562,4.7795 116.365,10.0166 173.278,15.7128 56.913,5.6963 112.937,11.8515 167.941,18.4672 55.005,6.6156 108.99,13.6919 161.826,21.2296 52.835,7.538 104.523,15.5377 154.929,24.0006 50.408,8.463 99.536,17.3887 147.255,26.7793 47.719,9.3906 94.029,19.246 138.799,29.5672 44.771,10.3211 88.003,21.1082 129.565,32.3625 41.562,11.254 81.454,22.9753 119.55,35.1658 38.093,12.1901 74.389,24.8491 108.756,37.978 22.172,8.4704 42.168,17.4601 62.7,26.3223 51.462,-19.7673 100.221,-40.1436 143.01,-61.7662 930.67,-470.2992 863.582,-1960.5902 -108.529,-2410.8409 -455.676,-211.055 -1374.608,-316.0464 -2318.226,-319.595 z" />
      </g>
      <path
         id="path7999"
         style="fill:#6f5980;fill-opacity:1;stroke-width:110.408;stroke-linecap:round;stroke-linejoin:round"
         d="m 98.8002,-121.611 c -0.558,0 -14.286,0.03 -14.846,0.03 -2.046,0.01 -3.855,-5.217 -5.884,-5.13 -12.796,0.551 -17.453,2.598 -23.41,6.077 -13.477,7.871 -12.506,32.813 1.571,40.349 0.157,0.08 0.336,0.16 0.501,0.242 0.267,-0.119 0.522,-0.241 0.805,-0.356 0.535,-0.217 1.097,-0.427 1.683,-0.63 0.588,-0.203 1.199,-0.399 1.833,-0.587 0.634,-0.188 1.292,-0.369 1.97,-0.543 0.677,-0.174 1.376,-0.341 2.096,-0.5 0.718,-0.159 1.454,-0.311 2.21,-0.456 0.754,-0.145 1.525,-0.282 2.313,-0.412 0.787,-0.13 1.589,-0.253 2.405,-0.368 0.817,-0.116 1.646,-0.223 2.487,-0.324 0.841,-0.1 1.693,-0.193 2.556,-0.279 0.862,-0.09 1.734,-0.164 2.614,-0.235 0.88,-0.07 1.767,-0.135 2.662,-0.191 0.893,-0.06 1.793,-0.104 2.696,-0.145 0.904,-0.04 1.811,-0.08 2.721,-0.101 0.911,-0.03 1.821,-0.05 2.735,-0.06 0.912,-0.01 1.824,-0.01 2.735,-0.01 0.911,0 1.82,0.01 2.726,0.03 0.906,0.02 1.808,0.05 2.706,0.08 0.897,0.03 1.789,0.08 2.674,0.125 0.885,0.05 1.761,0.107 2.629,0.171 0.869,0.06 1.727,0.137 2.576,0.217 0.848,0.08 1.685,0.168 2.509,0.263 0.825,0.1 1.636,0.199 2.433,0.31 0.796,0.11 1.577,0.229 2.343,0.355 0.765,0.126 1.513,0.26 2.243,0.401 0.731,0.142 1.441,0.292 2.133,0.449 0.691,0.157 1.362,0.322 2.01,0.494 0.648,0.173 1.274,0.354 1.876,0.542 0.601,0.189 1.18,0.385 1.731,0.589 0.552,0.204 1.078,0.416 1.576,0.635 0.321,0.142 0.609,0.293 0.907,0.441 0.745,-0.331 1.452,-0.672 2.072,-1.034 13.476,-7.871 12.506,-32.813 -1.572,-40.348 -5.954,-3.187 -9.76,-4.653 -21.972,-5.006 -1.323,-0.04 -4.717,4.91 -6.053,4.904 z" />
      <path
         id="path8001"
         style="fill:#6f5980;fill-opacity:1;stroke-width:51.8016;stroke-linecap:round;stroke-linejoin:round"
         d="m 51.7402,-119.957 c 7.762,-6.263 30.943,-9.889 33.162,4.663 2.372,15.548 -21.606,60.456 -35.864,50.046 -6.817,-4.976 -6.973,-32.051 -3.203,-46.184 1.137,-4.262 4.106,-7.074 5.905,-8.525 z" />
      <path
         id="path8003"
         style="fill:#6f5980;fill-opacity:1;stroke-width:51.8016;stroke-linecap:round;stroke-linejoin:round"
         d="m 131.4112,-120.296 c -7.762,-6.263 -28.456,-9.284 -33.163,4.663 -5.11,15.137 22.933,59.851 36.776,51.322 7.185,-4.426 6.06,-33.328 2.291,-47.46 -1.136,-4.262 -4.106,-7.074 -5.904,-8.525 z" />
      <circle
         style="fill:#dadada;fill-opacity:1;stroke-width:87.7111;stroke-linecap:round;stroke-linejoin:round"
         id="circle8005"
         cx="61.412327"
         cy="-108.94025"
         r="8.703536" />
      <circle
         style="fill:#cbcbcb;fill-opacity:1;stroke-width:68.5775;stroke-linecap:round;stroke-linejoin:round"
         id="circle8007"
         cx="61.412327"
         cy="-108.94025"
         r="6.8048687" />
      <circle
         style="fill:#8f79a1;fill-opacity:1;stroke-width:61.5227;stroke-linecap:round;stroke-linejoin:round"
         id="circle8009"
         cx="61.412327"
         cy="-108.94025"
         r="6.1048508" />
      <g
         id="g8015"
         transform="matrix(0.01408491,0,0,0.01408491,-83.4208,-154.726)"
         style="fill:#6f5980;fill-opacity:1;stroke-width:72.5787">
        <rect
           style="fill:#6f5980;fill-opacity:1;stroke-width:3144;stroke-linecap:round;stroke-linejoin:round"
           id="rect8011"
           width="128.18658"
           height="542.55719"
           x="10218.768"
           y="2979.3872"
           rx="185.16737"
           ry="185.16737" />
        <rect
           style="fill:#6f5980;fill-opacity:1;stroke-width:3144;stroke-linecap:round;stroke-linejoin:round"
           id="rect8013"
           width="128.18658"
           height="542.55719"
           x="-3314.7593"
           y="10011.582"
           rx="185.16737"
           ry="185.16737"
           transform="rotate(-90)" />
      </g>
      <circle
         style="fill:#dadada;fill-opacity:1;stroke-width:104.01;stroke-linecap:round;stroke-linejoin:round"
         id="circle8023"
         cx="81.09787"
         cy="-97.847481"
         r="5.9172435" />
      <ellipse
         style="fill:#cbcbcb;fill-opacity:1;stroke-width:86.9863;stroke-linecap:round;stroke-linejoin:round"
         id="ellipse8025"
         cx="81.09787"
         cy="-97.847481"
         rx="4.983017"
         ry="4.9146643" />
      <circle
         style="fill:#f27180;fill-opacity:1;stroke-width:78.378;stroke-linecap:round;stroke-linejoin:round"
         id="circle8027"
         cx="81.09787"
         cy="-97.847481"
         r="4.4589815" />
      <circle
         style="fill:#dadada;fill-opacity:1;stroke-width:104.01;stroke-linecap:round;stroke-linejoin:round"
         id="circle8029"
         cx="101.96115"
         cy="-97.847481"
         r="5.9172435" />
      <ellipse
         style="fill:#cbcbcb;fill-opacity:1;stroke-width:86.9863;stroke-linecap:round;stroke-linejoin:round"
         id="ellipse8031"
         cx="101.96115"
         cy="-97.847481"
         rx="4.983017"
         ry="4.9146643" />
      <circle
         style="fill:#c06d85;fill-opacity:1;stroke-width:78.378;stroke-linecap:round;stroke-linejoin:round"
         id="circle8033"
         cx="101.96115"
         cy="-97.847481"
         r="4.4589815" />
      <circle
         style="fill:#cbcbcb;fill-opacity:1;stroke-width:120.567;stroke-linecap:round;stroke-linejoin:round"
         id="circle8035"
         cx="150.33954"
         cy="-75.06295"
         r="3.3951154"
         transform="rotate(-14.501884)" />
      <circle
         style="fill:#f27180;fill-opacity:1;stroke-width:97.5692;stroke-linecap:round;stroke-linejoin:round"
         id="circle8037"
         cx="150.33954"
         cy="-75.06295"
         r="2.747519"
         transform="rotate(-14.501884)" />
      <circle
         style="fill:#cbcbcb;fill-opacity:1;stroke-width:120.567;stroke-linecap:round;stroke-linejoin:round"
         id="circle8039"
         cx="137.60321"
         cy="-78.356895"
         r="3.3951154"
         transform="rotate(-14.501884)" />
      <circle
         style="fill:#41344b;fill-opacity:1;stroke-width:97.5692;stroke-linecap:round;stroke-linejoin:round"
         id="circle8041"
         cx="137.60321"
         cy="-78.356895"
         r="2.747519"
         transform="rotate(-14.501884)" />
      <circle
         style="fill:#cbcbcb;fill-opacity:1;stroke-width:120.567;stroke-linecap:round;stroke-linejoin:round"
         id="circle8043"
         cx="145.237"
         cy="-82.71627"
         r="3.3951154"
         transform="rotate(-14.501884)" />
      <circle
         style="fill:#ff00ff;fill-opacity:1;stroke-width:97.5692;stroke-linecap:round;stroke-linejoin:round"
         id="circle8045"
         cx="145.237"
         cy="-82.71627"
         r="2.747519"
         transform="rotate(-14.501884)" />
      <circle
         style="fill:#8f79a1;fill-opacity:1;stroke-width:97.5692;stroke-linecap:round;stroke-linejoin:round"
         id="circle8047"
         cx="145.237"
         cy="-82.71627"
         r="2.747519"
         transform="rotate(-14.501884)" />
      <circle
         style="fill:#cbcbcb;fill-opacity:1;stroke-width:120.567;stroke-linecap:round;stroke-linejoin:round"
         id="circle8049"
         cx="142.16571"
         cy="-70.843224"
         r="3.3951154"
         transform="rotate(-14.501884)" />
      <circle
         style="fill:#c06d85;fill-opacity:1;stroke-width:97.5692;stroke-linecap:round;stroke-linejoin:round"
         id="circle8051"
         cx="142.16571"
         cy="-70.843224"
         r="2.747519"
         transform="rotate(-14.501884)" />
      <circle
         style="fill:#241c1c;fill-opacity:1;stroke:none;stroke-width:0.763;stroke-linecap:square;stroke-miterlimit:4;stroke-dasharray:none;stroke-dashoffset:0"
         id="path8215"
         cx="-62.014675"
         cy="-882.25665"
         r="57.47488" />
      <rect
         style="fill:#ffffff;fill-opacity:1;stroke:none;stroke-width:0.264999;stroke-linecap:round;stroke-linejoin:round;stroke-miterlimit:4;stroke-dasharray:none"
         id="rect11800"
         width="293.87766"
         height="401.17789"
         x="-1002.7509"
         y="110.91247"
         rx="92.604134"
         ry="80.044456"
         transform="matrix(0.9999997,7.7566726e-4,-7.5768983e-4,0.99999971,0,0)" />
      <rect
         style="fill:#000000;fill-opacity:1;stroke:none;stroke-width:0.264999;stroke-linecap:round;stroke-linejoin:round;stroke-miterlimit:4;stroke-dasharray:none"
         id="rect9946"
         width="293.87766"
         height="401.17789"
         x="-1009.3652"
         y="110.91735"
         rx="92.604134"
         ry="80.044456"
         transform="matrix(0.9999997,7.7566726e-4,-7.5768983e-4,0.99999971,0,0)" />
      <rect
         style="fill:#000000;fill-opacity:1;stroke:none;stroke-width:0.763;stroke-linecap:square;stroke-miterlimit:4;stroke-dasharray:none;stroke-dashoffset:0"
         id="rect9970"
         width="88.867119"
         height="383.53177"
         x="-962.09863"
         y="430.69354"
         rx="0"
         ry="0" />
      <rect
         style="fill:#000000;fill-opacity:1;stroke:none;stroke-width:0.763;stroke-linecap:square;stroke-miterlimit:4;stroke-dasharray:none;stroke-dashoffset:0"
         id="rect10052"
         width="88.867119"
         height="194.97583"
         x="-985.6145"
         y="-48.941425"
         rx="0"
         ry="0"
         transform="rotate(-30)" />
      <g
         id="g11468"
         transform="translate(-11101.617,-9122.8743)">
        <circle
           style="fill:#e8b29d;fill-opacity:1;stroke:none;stroke-width:0.264999;stroke-linecap:round;stroke-linejoin:round;stroke-miterlimit:4;stroke-dasharray:none"
           id="circle11462"
           r="112.14761"
           cy="9069.2119"
           cx="10245.91"
           transform="rotate(0.04392443)" />
        <path
           id="path11464"
           style="fill:#000000;fill-opacity:1;stroke:none;stroke-width:0.264999;stroke-linecap:round;stroke-linejoin:round;stroke-miterlimit:4;stroke-dasharray:none"
           d="m 10159.94,9156.4812 c 17.983,-36.3399 27.163,-76.6001 27.24,-120.9146 44.421,1.5627 87.53,-10.5451 128.99,-39.8244 -20.816,-19.768 -48.422,-30.8011 -77.129,-30.8251 -29.744,-0.021 -58.278,11.7708 -79.326,32.7863 -21.048,21.0155 -32.885,49.5317 -32.908,79.275 0.02,29.8547 11.947,58.4683 33.133,79.5028 z" />
      </g>
      <rect
         style="fill:#000000;fill-opacity:1;stroke:none;stroke-width:0.763;stroke-linecap:square;stroke-miterlimit:4;stroke-dasharray:none;stroke-dashoffset:0"
         id="rect11552"
         width="88.867119"
         height="221.04089"
         x="-792.45605"
         y="574.16718"
         rx="0"
         ry="0" />
      <path
         id="path11820"
         style="fill:#6f5980;fill-opacity:1;stroke-width:0.264999;stroke-linecap:round;stroke-linejoin:round"
         d="m -797.4208,110.264 c 2.61,0.09 8.9,0.594 11.436,1.007 13.249,2.156 25.555,6.203 36.108,12.55 l 0.871,2.772 -2.268,0.97 c -2.568,-2.484 -13.964,-7.738 -16.595,-9.224 -8.429,-3.607 -17.171,-5.437 -26.307,-6.98 -9.869,-0.959 -18.76,-1.265 -3.245,-1.095 z" />
    </g>
  </g>
</svg>
