<?xml version="1.0" encoding="UTF-8" standalone="no"?>
<!-- Created with Inkscape (http://www.inkscape.org/) -->

<svg
   width="223.60368mm"
   height="250.63551mm"
   viewBox="0 0 223.60368 250.63551"
   version="1.1"
   id="svg1543"
   xmlns="http://www.w3.org/2000/svg"
   xmlns:svg="http://www.w3.org/2000/svg">
  <defs
     id="defs1540">
    <filter
       style="color-interpolation-filters:sRGB"
       id="filter2736"
       x="-0.33168236"
       y="-0.2102212"
       width="1.6633647"
       height="1.4204424">
      <feGaussianBlur
         stdDeviation="5.74074"
         id="feGaussianBlur2738" />
    </filter>
  </defs>
  <g
     id="layer1"
     transform="translate(-7.0789772,-21.646565)">
    <path
       style="fill:#c06d85;fill-opacity:1;stroke:none;stroke-width:9.99997;stroke-linecap:butt;stroke-linejoin:miter;stroke-miterlimit:4;stroke-dasharray:none;stroke-opacity:1"
       d="m 85.812118,171.27472 c 16.526752,6.77938 33.053592,13.55879 43.400582,17.83303 10.34698,4.27424 14.51401,6.04326 18.38632,7.59611 3.87231,1.55286 7.4497,2.88947 10.77163,4.16714 3.32194,1.27767 6.38823,2.49632 10.12295,3.5381 3.73472,1.04178 8.13767,1.90664 13.22869,2.4177 5.09102,0.51106 10.86983,0.66831 16.09844,0.39311 5.2286,-0.27519 9.90667,-0.98279 14.38836,-2.18186 4.48168,-1.19906 8.7666,-2.88945 11.5971,-4.46197 2.83051,-1.57251 4.20642,-3.02704 5.13027,-4.344 0.92385,-1.31696 1.3956,-2.49634 1.59216,-3.73467 0.19657,-1.23834 0.11795,-2.53562 0.0983,-3.95088 -0.0197,-1.41526 0.0196,-2.94843 -0.55038,-4.73716 -0.57002,-1.78873 -1.74935,-3.83293 -3.34151,-5.64134 -1.59217,-1.80841 -3.59706,-3.38087 -5.95584,-4.85511 -2.35878,-1.47424 -5.07127,-2.85014 -8.45218,-4.403 -3.38091,-1.55286 -7.43004,-3.28259 -11.59721,-4.8158 -4.16716,-1.5332 -8.45216,-2.86981 -12.18439,-4.08962 -3.73223,-1.21982 -6.91161,-2.32282 -10.09097,-3.42581 0,0 -92.642302,14.69603 -92.642302,14.69603 z"
       id="path42927" />
    <path
       style="fill:#a44761;fill-opacity:1;stroke:none;stroke-width:8.00002;stroke-linecap:butt;stroke-linejoin:miter;stroke-miterlimit:4;stroke-dasharray:none;stroke-opacity:1"
       d="m 93.475588,170.33875 c 6.893922,2.9188 13.787932,5.83764 19.792372,8.3812 6.00445,2.54355 11.11919,4.71176 16.85956,7.03292 5.74038,2.32117 12.10602,4.79516 17.65178,7.01902 5.54577,2.22387 10.27136,4.1975 14.01026,5.57352 3.73891,1.37602 6.49082,2.15434 9.11777,2.8215 2.62694,0.66716 5.12877,1.22311 8.15879,1.61228 3.03001,0.38917 6.58811,0.61155 9.86832,0.66714 3.2802,0.0556 6.28231,-0.0556 9.59033,-0.27797 3.30802,-0.22239 6.9217,-0.55597 10.18801,-1.08415 3.26632,-0.52817 6.18503,-1.2509 8.93707,-2.23775 2.75204,-0.98686 5.33723,-2.23776 7.24139,-3.53038 1.90416,-1.29262 3.12726,-2.6269 4.0029,-3.76662 0.87564,-1.13972 1.40379,-2.08484 1.64008,-1.94582 0.23628,0.13903 0.18069,1.36213 -0.0973,2.36284 -0.27799,1.00072 -0.77834,1.77904 -1.04243,2.29333 -0.2641,0.5143 -0.2919,0.76448 -0.63938,1.20923 -0.34749,0.44476 -1.01463,1.0841 -1.98757,1.86245 -0.97294,0.77834 -2.25165,1.69568 -4.51721,2.76591 -2.26556,1.07023 -5.51787,2.29332 -8.4506,3.19677 -2.93274,0.90345 -5.5457,1.4872 -8.24212,1.94587 -2.69642,0.45868 -5.47619,0.79225 -8.72862,0.91734 -3.25243,0.12509 -6.97726,0.0417 -10.52156,-0.19459 -3.54429,-0.23629 -6.90783,-0.62545 -9.89613,-1.11192 -2.98831,-0.48647 -5.60129,-1.07022 -7.74176,-1.59839 -2.14047,-0.52816 -3.80836,-1.00073 -6.11561,-1.83468 -2.30724,-0.83394 -5.2538,-2.02924 -18.16607,-7.33869 -12.91228,-5.30946 -35.79015,-14.73302 -58.668027,-24.15659 0,0 7.755735,-0.58377 7.755735,-0.58377 0,0 2e-5,0 2e-5,0 z"
       id="path42933" />
    <path
       style="fill:#a44761;fill-opacity:1;stroke:none;stroke-width:10;stroke-linecap:butt;stroke-linejoin:miter;stroke-miterlimit:4;stroke-dasharray:none;stroke-opacity:1"
       d="m 96.944767,175.92719 v 96.35489 H 81.141133 V 169.32269 Z"
       id="path42911" />
    <path
       style="fill:#c06d85;fill-opacity:1;stroke:none;stroke-width:10;stroke-linecap:butt;stroke-linejoin:miter;stroke-miterlimit:4;stroke-dasharray:none;stroke-opacity:1"
       d="m 81.141133,169.44061 -7.901768,-3.65605 v 106.37962 h 7.901768 z"
       id="path42913" />
    <path
       style="fill:#c06d85;fill-opacity:1;stroke:none;stroke-width:10;stroke-linecap:butt;stroke-linejoin:miter;stroke-miterlimit:4;stroke-dasharray:none;stroke-opacity:1"
       d="m 178.45443,156.57869 c 0,0 -94.1834,14.052 -94.1834,14.052 0,0 -77.1920528,-31.64822 -77.1920528,-31.64822 0,0 0.5003625,-57.208553 0.5003625,-57.208553 0.3891808,-3.307977 0.7783529,-6.61588 1.5011136,-9.798816 0.7227607,-3.182935 1.7790627,-6.240667 3.1272877,-9.284598 1.348226,-3.043931 2.988286,-6.073861 4.656192,-8.659111 1.667906,-2.585249 3.363574,-4.725683 5.267767,-6.699366 1.904194,-1.973683 4.016818,-3.780526 6.226787,-5.17044 2.209969,-1.389915 4.51716,-2.362836 6.365779,-3.002203 1.848619,-0.639367 3.238471,-0.945134 5.253864,-1.05632 2.015393,-0.111186 4.656112,-0.0278 7.296932,0.0556 0,0 91.817238,6.421371 91.817238,6.421371 2.33503,0.472567 4.67013,0.945148 7.08859,1.709614 2.41846,0.764466 4.9203,1.820796 7.31093,3.085618 2.39064,1.264821 4.67005,2.738099 6.68543,4.447714 2.01539,1.709615 3.76662,3.655428 5.33723,5.476222 1.57061,1.820794 2.9605,3.516462 4.32262,5.670846 1.36211,2.154384 2.6964,4.767355 3.85002,7.491602 1.15362,2.724246 2.12651,5.559592 2.90486,8.492324 0.77834,2.932732 1.36211,5.962682 1.69569,8.978801 0.33357,3.016119 0.41694,6.018246 0.40304,17.123787 -0.0139,11.10555 -0.12509,30.31362 -0.23628,49.52213 z"
       id="path42915" />
    <path
       style="fill:none;stroke:none;stroke-width:10;stroke-linecap:butt;stroke-linejoin:miter;stroke-miterlimit:4;stroke-dasharray:none;stroke-opacity:1"
       d="m 93.361508,169.2744 c -0.04538,-22.38409 -0.09075,-44.76809 -0.03005,-57.16939 0.0607,-12.401299 0.227479,-14.819675 0.67225,-17.516128 0.444771,-2.696452 1.167512,-5.670794 2.098758,-8.75642 0.931246,-3.085625 2.07095,-6.282363 3.335779,-9.312392 1.264825,-3.030028 2.654715,-5.893177 4.197535,-8.506234 1.54282,-2.613056 3.23847,-4.975845 5.22605,-7.283103 1.98758,-2.307258 4.26699,-4.55887 6.71327,-6.560365 2.44627,-2.001495 5.05925,-3.752744 7.64451,-5.017569 2.58525,-1.264826 5.14265,-2.043165 7.65841,-2.390629 2.51576,-0.347465 4.98972,-0.264066 7.76957,0.139022 2.77986,0.403089 5.86541,1.125826 8.79814,2.209979 2.93274,1.084153 5.71248,2.529622 8.21434,4.225336 2.50185,1.695714 4.72564,3.641532 6.89391,6.060005 2.16828,2.418474 4.28089,5.309418 6.19897,8.659137 1.91808,3.349719 3.64153,7.157985 4.75345,10.132404 1.11192,2.97442 1.61229,5.114838 2.14047,7.783488 0.52817,2.668649 1.08413,5.865368 1.29261,10.340918 0.20847,4.475551 0.0695,10.229651 0.0207,20.523611 -0.0487,10.29396 -0.007,25.12701 0.0343,39.96041 0,0 -83.633032,12.47792 -83.633032,12.47792 z"
       id="path42921" />
    <path
       style="fill:#ffffff;fill-opacity:1;stroke:none;stroke-width:10;stroke-linecap:butt;stroke-linejoin:miter;stroke-miterlimit:4;stroke-dasharray:none;stroke-opacity:1"
       d="M 75.751047,96.927578 76.046129,37.658299 54.280159,32.90481 54.613794,21.646565 81.133205,22.063541 80.612586,97.304287 Z"
       id="path42939" />
    <ellipse
       style="fill:#a2a2a2;fill-opacity:1;stroke:none;stroke-width:45.2902;stroke-miterlimit:4;stroke-dasharray:none;stroke-opacity:1;filter:url(#filter2736)"
       id="ellipse42941"
       cx="3018.3533"
       cy="2180.4678"
       rx="20.769533"
       ry="32.769711"
       transform="matrix(0.22585648,0,0,0.21585348,-603.36794,-366.92019)" />
    <ellipse
       style="fill:#ffffff;fill-opacity:1;stroke:none;stroke-width:10;stroke-miterlimit:4;stroke-dasharray:none;stroke-opacity:1"
       id="ellipse42943"
       cx="77.9851"
       cy="103.43559"
       rx="4.6909337"
       ry="7.4012518" />
    <path
       style="fill:#c06d85;fill-opacity:1;stroke:none;stroke-width:0.264583px;stroke-linecap:butt;stroke-linejoin:miter;stroke-opacity:1"
       d="m 178.45569,156.36348 -32.33881,-12.35993 -5.71595,17.53048 -45.830575,-17.71815 -0.857169,25.57689 z"
       id="path42945" />
    <path
       style="fill:#a44761;fill-opacity:1;stroke:#e3bfca;stroke-width:6.365;stroke-linecap:butt;stroke-linejoin:miter;stroke-miterlimit:4;stroke-dasharray:none;stroke-opacity:1"
       d="m 94.407559,169.08866 c 0,0 1.694916,-83.256212 1.694916,-83.256212 1.336928,-3.263844 2.67384,-6.527646 4.237375,-9.839045 1.56353,-3.311399 3.3536,-6.670217 5.34458,-9.789802 1.99098,-3.119585 4.18274,-5.999749 6.15521,-8.192357 1.97246,-2.192607 3.72557,-3.6976 6.20431,-5.24363 2.47873,-1.54603 5.68293,-3.13302 8.38062,-4.232182 2.6977,-1.099162 4.88878,-1.710466 6.6479,-2.04142 1.75913,-0.330954 3.08624,-0.381567 4.85824,-0.207515 1.77201,0.174053 3.9888,0.572753 6.26393,1.153411 2.27513,0.580657 4.60843,1.343211 6.94678,2.343349 2.33835,1.000139 4.68159,2.237781 6.80804,3.708475 2.12644,1.470694 4.036,3.174342 5.89683,5.263673 1.86083,2.089332 3.67285,4.564199 5.16825,6.900763 1.4954,2.336563 2.67411,4.534672 3.89322,7.446599 1.21912,2.911928 2.47854,6.537435 3.42123,9.94653 0.94268,3.409095 1.56857,6.601576 1.86455,10.254992 0.29598,3.653416 0.26206,7.767561 0.30007,18.282501 0.038,10.51494 0.14795,27.42985 0.25789,44.34516 0,0 -84.343941,13.15671 -84.343941,13.15671 z"
       id="path42947" />
    <path
       style="fill:#fdfbfb;fill-opacity:1;stroke:none;stroke-width:9.80004;stroke-linecap:butt;stroke-linejoin:miter;stroke-miterlimit:4;stroke-dasharray:none;stroke-opacity:1"
       d="M 101.14548,82.614304 161.88994,96.40474 143.83883,153.5537 99.376412,135.68617 99.494373,90.751997 Z"
       id="path42953" />
    <path
       style="fill:none;stroke:#c06d85;stroke-width:1.2;stroke-linecap:butt;stroke-linejoin:miter;stroke-miterlimit:4;stroke-dasharray:none;stroke-opacity:1"
       d="m 161.88994,96.40474 -52.53844,13.50989 c 0,0 0.0556,-2.11261 0.0834,-3.16898 -0.47251,-0.72273 -0.94507,-1.44547 -1.4177,-2.16825 -0.6115,-0.25014 -1.22306,-0.50032 -1.8347,-0.75057 -0.83384,0.0835 -1.66777,0.16687 -2.50182,0.25019 -0.66706,0.80621 -2.16824,2.33503 -2.16824,2.33503 l -2.054544,-1.75097"
       id="path42955" />
    <ellipse
       style="fill:#a44761;fill-opacity:1;stroke:none;stroke-width:10.0415;stroke-miterlimit:4;stroke-dasharray:none;stroke-opacity:1"
       id="ellipse42957"
       cx="119.13387"
       cy="110.11157"
       rx="4.2225351"
       ry="5.1997943"
       transform="matrix(1,0,-0.12830412,0.99173487,0,0)" />
    <path
       style="opacity:0.28;fill:#070202;fill-opacity:1;stroke:none;stroke-width:0.264583px;stroke-linecap:butt;stroke-linejoin:miter;stroke-opacity:1"
       d="m 143.63421,154.21381 18.50971,-58.532492 -0.74669,45.991022 z"
       id="path42959" />
    <path
       style="opacity:0.157191;fill:#090405;fill-opacity:1;stroke:#000000;stroke-width:0.264583px;stroke-linecap:butt;stroke-linejoin:miter;stroke-opacity:1"
       d="m 73.252984,166.11338 7.888149,3.32775 15.803634,6.4976 v 5.62016 l -15.803634,1.42283 -7.901768,-6.21301 z"
       id="path42961" />
  </g>
</svg>
