
<svg xmlns="http://www.w3.org/2000/svg" version="1.1" xmlns:xlink="http://www.w3.org/1999/xlink" preserveAspectRatio="none" x="0px" y="0px" width="1404px" height="1464px" viewBox="0 0 1404 1464">
<defs>
<g id="Layer9_0_FILL">
<path fill="#EEEEEE" stroke="none" d="
M 257 327
Q 72.5 511.55 72.5 772.5 72.5 869.05 97.75 955.1 106.1 983.5 117.2 1010.8 163.3 1124.25 257 1217.95 283.8 1244.75 312.2 1267.65 474.7720703125 1398.7283203125 690.05 1402.4 696.2615234375 1402.5 702.5 1402.5 963.45 1402.5 1147.95 1217.95 1174.158203125 1191.7513671875 1196.65 1164 1291.2755859375 1047.2662109375 1320 903.2 1332.5 840.45 1332.5 772.5 1332.5 511.55 1147.95 327 963.45 142.5 702.5 142.5 441.55 142.5 257 327 Z"/>
</g>

<g id="Layer9_1_FILL">
<path fill="#2A2A2A" stroke="none" d="
M 633.65 933.75
L 610.15 846.2 40.9 998.75 71.2 1111.8 87.9 1174.2 118.2 1287.2 687.45 1134.65 664 1047 781.9 1089.05 714.95 838.45 633.65 933.75 Z"/>
</g>

<g id="Layer9_2_FILL">
<path fill="#38AFAA" stroke="none" d="
M 1399.65 164.2
Q 1390.3 144.65 1369.7 137.35
L 989.15 3.15
Q 968.55 -4.1 949 5.3 929.45 14.65 922.15 35.25
L 735.05 565.85
Q 727.8 586.45 737.2 606 746.55 625.55 767.1 632.85
L 1147.65 767.05
Q 1168.25 774.3 1187.85 764.9 1201.2619140625 758.485546875 1208.85 746.8 1212.373828125 741.451953125 1214.65 735
L 1401.75 204.35
Q 1409 183.75 1399.65 164.2
M 1329.8 172.75
Q 1345.25 178.25 1352.3 192.95 1359.35 207.65 1353.9 223.1
L 1338.75 266.05
Q 1333.3 281.5 1318.6 288.55 1303.9 295.6 1288.4 290.15
L 956.6 173.15
Q 941.15 167.7 934.1 152.95 927.05 138.25 932.5 122.8
L 947.65 79.85
Q 953.15 64.4 967.85 57.35 982.55 50.35 998 55.8
L 1329.8 172.75
M 1056.25 266.65
Q 1070.75 271.75 1077.4 285.6 1084 299.45 1078.9 313.95 1073.8 328.45 1059.95 335.05 1046.1 341.7 1031.6 336.6 1017.1 331.5 1010.45 317.65 1003.85 303.8 1008.95 289.3 1014.05 274.8 1027.9 268.15 1041.8 261.5 1056.25 266.65
M 975.8 249.8
Q 982.45 263.65 977.35 278.15 972.25 292.65 958.4 299.25 944.55 305.9 930.05 300.8 915.55 295.65 908.9 281.8 902.25 267.95 907.4 253.45 912.5 239 926.35 232.35 940.25 225.7 954.7 230.8 969.2 235.95 975.8 249.8
M 973.95 388.6
Q 979.05 374.1 992.9 367.45 1006.75 360.8 1021.25 365.95 1035.75 371.05 1042.35 384.9 1049 398.8 1043.9 413.25 1038.8 427.75 1024.95 434.35 1011.05 441 996.55 435.9 982.05 430.8 975.45 416.95 968.8 403.05 973.95 388.6
M 1107.1 323.9
Q 1112.25 309.4 1126.1 302.8 1139.95 296.15 1154.45 301.25 1168.95 306.35 1175.55 320.2 1182.2 334.1 1177.1 348.55 1171.95 363.05 1158.1 369.7 1144.25 376.35 1129.75 371.2 1115.3 366.1 1108.65 352.25 1102 338.4 1107.1 323.9
M 1207.95 387.25
Q 1201.3 373.4 1206.4 358.9 1211.55 344.4 1225.4 337.8 1239.25 331.15 1253.75 336.25 1268.25 341.4 1274.85 355.25 1281.5 369.1 1276.4 383.6 1271.25 398.1 1257.4 404.7 1243.55 411.35 1229.05 406.25 1214.55 401.1 1207.95 387.25
M 873.9 381.15
Q 867.25 367.25 872.35 352.75 877.5 338.25 891.35 331.65 905.2 325 919.7 330.1 934.2 335.25 940.8 349.1 947.45 362.95 942.35 377.45 937.2 391.95 923.35 398.55 909.5 405.2 895 400.1 880.5 395 873.9 381.15
M 906.6 446.15
Q 913.2 460 908.1 474.5 903 489 889.15 495.6 875.3 502.25 860.8 497.15 846.3 492 839.65 478.15 833.05 464.3 838.15 449.8 843.25 435.35 857.1 428.7 871 422.05 885.45 427.15 899.95 432.3 906.6 446.15
M 939.7 485.65
Q 944.8 471.15 958.65 464.5 972.55 457.85 987 463 1001.5 468.1 1008.15 481.95 1014.8 495.85 1009.65 510.3 1004.55 524.8 990.7 531.4 976.85 538.05 962.35 532.95 947.9 527.85 941.25 514 934.6 500.15 939.7 485.65
M 819.7 534.75
Q 833.55 528.15 848.05 533.25 862.55 538.35 869.2 552.2 875.8 566.05 870.7 580.55 865.6 595.05 851.75 601.7 837.9 608.3 823.4 603.2 808.9 598.1 802.25 584.25 795.65 570.4 800.75 555.9 805.85 541.4 819.7 534.75
M 902.3 591.7
Q 907.4 577.25 921.25 570.6 935.15 563.95 949.6 569.05 964.1 574.15 970.75 588 977.4 601.9 972.25 616.35 967.15 630.85 953.3 637.5 939.45 644.15 924.95 639 910.5 633.9 903.85 620.05 897.2 606.2 902.3 591.7
M 1239.85 454.55
Q 1246.5 468.4 1241.35 482.9 1236.25 497.4 1222.4 504 1208.55 510.65 1194.05 505.55 1179.55 500.4 1172.95 486.55 1166.3 472.7 1171.4 458.2 1176.5 443.75 1190.35 437.1 1204.25 430.45 1218.7 435.55 1233.2 440.7 1239.85 454.55
M 1140.55 419.5
Q 1147.2 433.4 1142.05 447.85 1136.95 462.35 1123.1 469 1109.25 475.65 1094.75 470.5 1080.3 465.4 1073.65 451.55 1067 437.7 1072.1 423.2 1077.2 408.75 1091.05 402.1 1104.95 395.45 1119.4 400.55 1133.9 405.65 1140.55 419.5
M 1138.7 583.6
Q 1132.05 569.75 1137.2 555.25 1142.3 540.8 1156.15 534.15 1170.05 527.5 1184.5 532.6 1199 537.75 1205.6 551.6 1212.25 565.45 1207.15 579.95 1202.05 594.45 1188.2 601.05 1174.35 607.7 1159.85 602.6 1145.35 597.45 1138.7 583.6
M 1039.4 548.6
Q 1032.75 534.75 1037.9 520.25 1043 505.8 1056.85 499.15 1070.75 492.5 1085.2 497.6 1099.7 502.7 1106.3 516.55 1112.95 530.45 1107.85 544.9 1102.75 559.4 1088.9 566.05 1075.05 572.7 1060.55 567.55 1046.05 562.45 1039.4 548.6
M 1101.3 689.7
Q 1094.65 675.85 1099.8 661.35 1104.9 646.85 1118.75 640.2 1132.6 633.6 1147.1 638.7 1161.6 643.8 1168.2 657.65 1174.85 671.55 1169.75 686 1164.65 700.5 1150.8 707.15 1136.95 713.75 1122.45 708.65 1107.95 703.55 1101.3 689.7
M 1068.9 622.65
Q 1075.55 636.5 1070.45 651 1065.35 665.5 1051.5 672.1 1037.65 678.75 1023.15 673.65 1008.65 668.55 1002 654.7 995.35 640.8 1000.5 626.3 1005.6 611.85 1019.45 605.2 1033.35 598.55 1047.8 603.65 1062.3 608.8 1068.9 622.65
M 1034 635.55
L 1025.15 632.45 1023.5 637.05 1032.35 640.2 1029.25 649 1033.85 650.6 1036.95 641.8 1045.75 644.9 1047.4 640.3 1038.6 637.2 1041.7 628.35 1037.1 626.7 1034 635.55
M 1126.2 662.45
L 1124.55 667.15 1146.8 675 1148.45 670.3 1126.2 662.45
M 1122.7 672.4
L 1121.05 677.05 1143.3 684.9 1144.95 680.25 1122.7 672.4
M 1065.8 542.6
Q 1062.05 541.3 1059.35 538.05
L 1057.2 544.2
Q 1059.9 546.75 1064.65 548.4 1070.5 550.5 1075 548.55 1079.55 546.6 1081.25 541.65 1082.85 537.15 1080.9 533.5 1078.95 529.85 1073.95 528.05
L 1070.85 527.15 1073.6 520.75 1085.45 524.9 1087.5 519 1070.2 512.9 1062.5 530.75
Q 1065.95 531.5 1068.5 532.4 1075.35 534.85 1073.65 539.7 1072.8 542.05 1070.75 542.85 1068.6 543.65 1065.8 542.6
M 1161.85 561.35
L 1160.25 566 1182.45 573.85 1184.1 569.2 1161.85 561.35
M 1108.15 431
Q 1106.95 430.55 1105.05 430.1
L 1107.85 423.7 1119.65 427.85 1121.75 421.95 1104.4 415.85 1096.75 433.7
Q 1100.05 434.4 1102.7 435.35 1109.55 437.8 1107.85 442.65 1107.1 444.95 1104.95 445.8 1102.8 446.6 1100 445.55 1096.2 444.2 1093.6 441
L 1091.4 447.15
Q 1094.2 449.75 1098.85 451.35 1104.7 453.45 1109.2 451.5 1113.75 449.55 1115.45 444.6 1117.05 440.1 1115.1 436.45 1113.25 432.85 1108.15 431
M 1206.3 480.9
Q 1206.85 479.45 1206.25 478.25 1205.85 477.05 1204.35 476.5 1202.9 475.95 1201.7 476.65 1200.5 477.2 1199.95 478.7 1199.5 480 1200.1 481.2 1200.75 482.45 1202.1 482.9 1203.45 483.4 1204.6 482.8 1205.85 482.25 1206.3 480.9
M 1210.9 458.25
Q 1209.5 457.75 1208.2 458.4 1206.95 459.05 1206.5 460.45 1206.05 461.75 1206.65 462.95 1207.25 464.25 1208.6 464.7 1209.85 465.15 1211.1 464.6 1212.4 464 1212.85 462.6 1213.4 461.15 1212.8 459.95 1212.3 458.8 1210.9 458.25
M 1216.7 476.8
L 1218.3 472.2 1196.05 464.35 1194.45 468.95 1216.7 476.8
M 951.95 590.45
L 934.6 584.35 926.95 602.2
Q 929.85 602.85 932.9 603.85 939.75 606.3 938.1 611.15 937.3 613.45 935.15 614.3 933 615.1 930.2 614.05 926.45 612.8 923.8 609.5
L 921.6 615.65
Q 924.35 618.2 929.05 619.9 934.95 621.95 939.4 620 943.95 618.05 945.65 613.1 947.25 608.6 945.3 604.95 943.45 601.35 938.35 599.5
L 935.25 598.6 938.05 592.2 949.85 596.35 951.95 590.45
M 839.95 569.7
Q 840.5 568.15 839.75 566.6 838.95 565.15 837.1 564.45 835.25 563.85 833.65 564.45 832.1 565.05 831.5 566.7 830.9 568.3 831.75 569.8 832.45 571.3 834.3 571.95 836.3 572.65 837.8 572 839.4 571.4 839.95 569.7
M 959 509.6
Q 961.8 512.2 966.45 513.8 972.3 515.85 976.8 513.95 981.35 511.9 983.05 507 984.65 502.5 982.7 498.9 980.85 495.3 975.75 493.45
L 972.65 492.5 975.45 486.1 987.25 490.3 989.35 484.4 972 478.3 964.35 496.1
Q 968.1 497 970.3 497.8 977.15 500.2 975.5 505.1 974.65 507.45 972.55 508.2 970.55 509 967.6 508 963.75 506.6 961.2 503.4
L 959 509.6
M 874.2 457.65
L 871.1 456.7 873.9 450.3 885.7 454.5 887.8 448.6 870.45 442.45 862.75 460.3
Q 866.4 461.2 868.75 462 875.65 464.4 873.9 469.3 873.1 471.6 871 472.4 868.95 473.2 866.05 472.2 862.3 470.85 859.65 467.6
L 857.45 473.75
Q 860.35 476.4 864.9 478 870.8 480.05 875.25 478.1 879.8 476.15 881.5 471.2 883.1 466.7 881.15 463.05 879.25 459.4 874.2 457.65
M 919.95 357.45
L 922 351.55 904.65 345.45 897 363.25
Q 900.65 364.15 903 364.95 909.9 367.35 908.15 372.25 907.3 374.6 905.2 375.35 903.25 376.15 900.3 375.15 896.5 373.8 893.85 370.55
L 891.7 376.75
Q 894.4 379.3 899.15 380.95 904.95 383 909.45 381.05 913.95 379.1 915.75 374.15 917.3 369.75 915.4 366.05 913.45 362.4 908.4 360.6
L 905.35 359.65 908.1 353.25 919.95 357.45
M 1253.15 362.95
L 1242.6 368 1237.45 357.45 1233.05 359.6 1238.1 370.1 1227.65 375.05 1229.75 379.55 1240.25 374.55 1245.25 385 1249.7 382.9 1244.7 372.45 1255.1 367.55 1253.15 362.95
M 1126.45 347.85
Q 1129.15 350.4 1133.9 352.05 1139.7 354.15 1144.2 352.2 1148.7 350.25 1150.5 345.3 1152.05 340.85 1150.15 337.15 1148.2 333.5 1143.15 331.7 1141.8 331.25 1140.1 330.8
L 1142.85 324.4 1154.7 328.55 1156.75 322.65 1139.4 316.55 1131.75 334.4
Q 1135.2 335.15 1137.75 336.05 1144.6 338.55 1142.9 343.35 1142.1 345.65 1139.95 346.5 1137.85 347.3 1135.05 346.25 1131.2 344.9 1128.6 341.7
L 1126.45 347.85
M 1006.9 395.45
L 1009.65 389.05 1021.5 393.25 1023.55 387.35 1006.25 381.25 998.55 399.1
Q 1002 399.85 1004.55 400.75 1011.45 403.15 1009.7 408.05 1008.85 410.4 1006.75 411.15 1004.8 411.95 1001.85 410.95 997.95 409.6 995.4 406.35
L 993.25 412.55
Q 995.95 415.1 1000.7 416.75 1006.5 418.75 1011 416.9 1015.5 415 1017.3 409.95 1018.85 405.6 1016.95 401.85 1015 398.2 1010 396.4
L 1006.9 395.45
M 928.85 271.25
L 926.7 277.4
Q 929.45 280 934.15 281.65 940 283.65 944.5 281.75 949.05 279.8 950.75 274.85 952.35 270.35 950.4 266.7 948.4 263 943.45 261.3 941.75 260.7 940.35 260.35
L 943.1 253.95 954.95 258.15 957 252.25 939.7 246.1 932 263.95
Q 935.65 264.85 938 265.65 944.9 268.05 943.15 272.95 942.35 275.25 940.25 276.05 938.2 276.85 935.3 275.85 931.6 274.55 928.85 271.25
M 1056.5 293.95
L 1058.6 288.05 1041.25 281.95 1033.55 299.75
Q 1037.2 300.65 1039.55 301.45 1046.45 303.85 1044.7 308.75 1043.85 311.1 1041.8 311.85 1039.75 312.65 1036.85 311.65 1033.1 310.3 1030.45 307.05
L 1028.25 313.25
Q 1030.95 315.8 1035.7 317.45 1041.55 319.5 1046.05 317.6 1050.6 315.55 1052.3 310.65 1053.9 306.15 1051.95 302.55 1050.1 298.95 1045 297.1
L 1041.9 296.15 1044.65 289.75 1056.5 293.95 Z"/>

<path fill="#FFFFFF" stroke="none" d="
M 1070.45 651
Q 1075.55 636.5 1068.9 622.65 1062.3 608.8 1047.8 603.65 1033.35 598.55 1019.45 605.2 1005.6 611.85 1000.5 626.3 995.35 640.8 1002 654.7 1008.65 668.55 1023.15 673.65 1037.65 678.75 1051.5 672.1 1065.35 665.5 1070.45 651
M 1025.15 632.45
L 1034 635.55 1037.1 626.7 1041.7 628.35 1038.6 637.2 1047.4 640.3 1045.75 644.9 1036.95 641.8 1033.85 650.6 1029.25 649 1032.35 640.2 1023.5 637.05 1025.15 632.45
M 1099.8 661.35
Q 1094.65 675.85 1101.3 689.7 1107.95 703.55 1122.45 708.65 1136.95 713.75 1150.8 707.15 1164.65 700.5 1169.75 686 1174.85 671.55 1168.2 657.65 1161.6 643.8 1147.1 638.7 1132.6 633.6 1118.75 640.2 1104.9 646.85 1099.8 661.35
M 1121.05 677.05
L 1122.7 672.4 1144.95 680.25 1143.3 684.9 1121.05 677.05
M 1124.55 667.15
L 1126.2 662.45 1148.45 670.3 1146.8 675 1124.55 667.15
M 1037.9 520.25
Q 1032.75 534.75 1039.4 548.6 1046.05 562.45 1060.55 567.55 1075.05 572.7 1088.9 566.05 1102.75 559.4 1107.85 544.9 1112.95 530.45 1106.3 516.55 1099.7 502.7 1085.2 497.6 1070.75 492.5 1056.85 499.15 1043 505.8 1037.9 520.25
M 1059.35 538.05
Q 1062.05 541.3 1065.8 542.6 1068.6 543.65 1070.75 542.85 1072.8 542.05 1073.65 539.7 1075.35 534.85 1068.5 532.4 1065.95 531.5 1062.5 530.75
L 1070.2 512.9 1087.5 519 1085.45 524.9 1073.6 520.75 1070.85 527.15 1073.95 528.05
Q 1078.95 529.85 1080.9 533.5 1082.85 537.15 1081.25 541.65 1079.55 546.6 1075 548.55 1070.5 550.5 1064.65 548.4 1059.9 546.75 1057.2 544.2
L 1059.35 538.05
M 1137.2 555.25
Q 1132.05 569.75 1138.7 583.6 1145.35 597.45 1159.85 602.6 1174.35 607.7 1188.2 601.05 1202.05 594.45 1207.15 579.95 1212.25 565.45 1205.6 551.6 1199 537.75 1184.5 532.6 1170.05 527.5 1156.15 534.15 1142.3 540.8 1137.2 555.25
M 1160.25 566
L 1161.85 561.35 1184.1 569.2 1182.45 573.85 1160.25 566
M 1142.05 447.85
Q 1147.2 433.4 1140.55 419.5 1133.9 405.65 1119.4 400.55 1104.95 395.45 1091.05 402.1 1077.2 408.75 1072.1 423.2 1067 437.7 1073.65 451.55 1080.3 465.4 1094.75 470.5 1109.25 475.65 1123.1 469 1136.95 462.35 1142.05 447.85
M 1105.05 430.1
Q 1106.95 430.55 1108.15 431 1113.25 432.85 1115.1 436.45 1117.05 440.1 1115.45 444.6 1113.75 449.55 1109.2 451.5 1104.7 453.45 1098.85 451.35 1094.2 449.75 1091.4 447.15
L 1093.6 441
Q 1096.2 444.2 1100 445.55 1102.8 446.6 1104.95 445.8 1107.1 444.95 1107.85 442.65 1109.55 437.8 1102.7 435.35 1100.05 434.4 1096.75 433.7
L 1104.4 415.85 1121.75 421.95 1119.65 427.85 1107.85 423.7 1105.05 430.1
M 1241.35 482.9
Q 1246.5 468.4 1239.85 454.55 1233.2 440.7 1218.7 435.55 1204.25 430.45 1190.35 437.1 1176.5 443.75 1171.4 458.2 1166.3 472.7 1172.95 486.55 1179.55 500.4 1194.05 505.55 1208.55 510.65 1222.4 504 1236.25 497.4 1241.35 482.9
M 1218.3 472.2
L 1216.7 476.8 1194.45 468.95 1196.05 464.35 1218.3 472.2
M 1208.2 458.4
Q 1209.5 457.75 1210.9 458.25 1212.3 458.8 1212.8 459.95 1213.4 461.15 1212.85 462.6 1212.4 464 1211.1 464.6 1209.85 465.15 1208.6 464.7 1207.25 464.25 1206.65 462.95 1206.05 461.75 1206.5 460.45 1206.95 459.05 1208.2 458.4
M 1206.25 478.25
Q 1206.85 479.45 1206.3 480.9 1205.85 482.25 1204.6 482.8 1203.45 483.4 1202.1 482.9 1200.75 482.45 1200.1 481.2 1199.5 480 1199.95 478.7 1200.5 477.2 1201.7 476.65 1202.9 475.95 1204.35 476.5 1205.85 477.05 1206.25 478.25
M 921.25 570.6
Q 907.4 577.25 902.3 591.7 897.2 606.2 903.85 620.05 910.5 633.9 924.95 639 939.45 644.15 953.3 637.5 967.15 630.85 972.25 616.35 977.4 601.9 970.75 588 964.1 574.15 949.6 569.05 935.15 563.95 921.25 570.6
M 934.6 584.35
L 951.95 590.45 949.85 596.35 938.05 592.2 935.25 598.6 938.35 599.5
Q 943.45 601.35 945.3 604.95 947.25 608.6 945.65 613.1 943.95 618.05 939.4 620 934.95 621.95 929.05 619.9 924.35 618.2 921.6 615.65
L 923.8 609.5
Q 926.45 612.8 930.2 614.05 933 615.1 935.15 614.3 937.3 613.45 938.1 611.15 939.75 606.3 932.9 603.85 929.85 602.85 926.95 602.2
L 934.6 584.35
M 848.05 533.25
Q 833.55 528.15 819.7 534.75 805.85 541.4 800.75 555.9 795.65 570.4 802.25 584.25 808.9 598.1 823.4 603.2 837.9 608.3 851.75 601.7 865.6 595.05 870.7 580.55 875.8 566.05 869.2 552.2 862.55 538.35 848.05 533.25
M 839.75 566.6
Q 840.5 568.15 839.95 569.7 839.4 571.4 837.8 572 836.3 572.65 834.3 571.95 832.45 571.3 831.75 569.8 830.9 568.3 831.5 566.7 832.1 565.05 833.65 564.45 835.25 563.85 837.1 564.45 838.95 565.15 839.75 566.6
M 958.65 464.5
Q 944.8 471.15 939.7 485.65 934.6 500.15 941.25 514 947.9 527.85 962.35 532.95 976.85 538.05 990.7 531.4 1004.55 524.8 1009.65 510.3 1014.8 495.85 1008.15 481.95 1001.5 468.1 987 463 972.55 457.85 958.65 464.5
M 966.45 513.8
Q 961.8 512.2 959 509.6
L 961.2 503.4
Q 963.75 506.6 967.6 508 970.55 509 972.55 508.2 974.65 507.45 975.5 505.1 977.15 500.2 970.3 497.8 968.1 497 964.35 496.1
L 972 478.3 989.35 484.4 987.25 490.3 975.45 486.1 972.65 492.5 975.75 493.45
Q 980.85 495.3 982.7 498.9 984.65 502.5 983.05 507 981.35 511.9 976.8 513.95 972.3 515.85 966.45 513.8
M 908.1 474.5
Q 913.2 460 906.6 446.15 899.95 432.3 885.45 427.15 871 422.05 857.1 428.7 843.25 435.35 838.15 449.8 833.05 464.3 839.65 478.15 846.3 492 860.8 497.15 875.3 502.25 889.15 495.6 903 489 908.1 474.5
M 871.1 456.7
L 874.2 457.65
Q 879.25 459.4 881.15 463.05 883.1 466.7 881.5 471.2 879.8 476.15 875.25 478.1 870.8 480.05 864.9 478 860.35 476.4 857.45 473.75
L 859.65 467.6
Q 862.3 470.85 866.05 472.2 868.95 473.2 871 472.4 873.1 471.6 873.9 469.3 875.65 464.4 868.75 462 866.4 461.2 862.75 460.3
L 870.45 442.45 887.8 448.6 885.7 454.5 873.9 450.3 871.1 456.7
M 872.35 352.75
Q 867.25 367.25 873.9 381.15 880.5 395 895 400.1 909.5 405.2 923.35 398.55 937.2 391.95 942.35 377.45 947.45 362.95 940.8 349.1 934.2 335.25 919.7 330.1 905.2 325 891.35 331.65 877.5 338.25 872.35 352.75
M 922 351.55
L 919.95 357.45 908.1 353.25 905.35 359.65 908.4 360.6
Q 913.45 362.4 915.4 366.05 917.3 369.75 915.75 374.15 913.95 379.1 909.45 381.05 904.95 383 899.15 380.95 894.4 379.3 891.7 376.75
L 893.85 370.55
Q 896.5 373.8 900.3 375.15 903.25 376.15 905.2 375.35 907.3 374.6 908.15 372.25 909.9 367.35 903 364.95 900.65 364.15 897 363.25
L 904.65 345.45 922 351.55
M 1206.4 358.9
Q 1201.3 373.4 1207.95 387.25 1214.55 401.1 1229.05 406.25 1243.55 411.35 1257.4 404.7 1271.25 398.1 1276.4 383.6 1281.5 369.1 1274.85 355.25 1268.25 341.4 1253.75 336.25 1239.25 331.15 1225.4 337.8 1211.55 344.4 1206.4 358.9
M 1242.6 368
L 1253.15 362.95 1255.1 367.55 1244.7 372.45 1249.7 382.9 1245.25 385 1240.25 374.55 1229.75 379.55 1227.65 375.05 1238.1 370.1 1233.05 359.6 1237.45 357.45 1242.6 368
M 1126.1 302.8
Q 1112.25 309.4 1107.1 323.9 1102 338.4 1108.65 352.25 1115.3 366.1 1129.75 371.2 1144.25 376.35 1158.1 369.7 1171.95 363.05 1177.1 348.55 1182.2 334.1 1175.55 320.2 1168.95 306.35 1154.45 301.25 1139.95 296.15 1126.1 302.8
M 1133.9 352.05
Q 1129.15 350.4 1126.45 347.85
L 1128.6 341.7
Q 1131.2 344.9 1135.05 346.25 1137.85 347.3 1139.95 346.5 1142.1 345.65 1142.9 343.35 1144.6 338.55 1137.75 336.05 1135.2 335.15 1131.75 334.4
L 1139.4 316.55 1156.75 322.65 1154.7 328.55 1142.85 324.4 1140.1 330.8
Q 1141.8 331.25 1143.15 331.7 1148.2 333.5 1150.15 337.15 1152.05 340.85 1150.5 345.3 1148.7 350.25 1144.2 352.2 1139.7 354.15 1133.9 352.05
M 992.9 367.45
Q 979.05 374.1 973.95 388.6 968.8 403.05 975.45 416.95 982.05 430.8 996.55 435.9 1011.05 441 1024.95 434.35 1038.8 427.75 1043.9 413.25 1049 398.8 1042.35 384.9 1035.75 371.05 1021.25 365.95 1006.75 360.8 992.9 367.45
M 1009.65 389.05
L 1006.9 395.45 1010 396.4
Q 1015 398.2 1016.95 401.85 1018.85 405.6 1017.3 409.95 1015.5 415 1011 416.9 1006.5 418.75 1000.7 416.75 995.95 415.1 993.25 412.55
L 995.4 406.35
Q 997.95 409.6 1001.85 410.95 1004.8 411.95 1006.75 411.15 1008.85 410.4 1009.7 408.05 1011.45 403.15 1004.55 400.75 1002 399.85 998.55 399.1
L 1006.25 381.25 1023.55 387.35 1021.5 393.25 1009.65 389.05
M 977.35 278.15
Q 982.45 263.65 975.8 249.8 969.2 235.95 954.7 230.8 940.25 225.7 926.35 232.35 912.5 239 907.4 253.45 902.25 267.95 908.9 281.8 915.55 295.65 930.05 300.8 944.55 305.9 958.4 299.25 972.25 292.65 977.35 278.15
M 926.7 277.4
L 928.85 271.25
Q 931.6 274.55 935.3 275.85 938.2 276.85 940.25 276.05 942.35 275.25 943.15 272.95 944.9 268.05 938 265.65 935.65 264.85 932 263.95
L 939.7 246.1 957 252.25 954.95 258.15 943.1 253.95 940.35 260.35
Q 941.75 260.7 943.45 261.3 948.4 263 950.4 266.7 952.35 270.35 950.75 274.85 949.05 279.8 944.5 281.75 940 283.65 934.15 281.65 929.45 280 926.7 277.4
M 1077.4 285.6
Q 1070.75 271.75 1056.25 266.65 1041.8 261.5 1027.9 268.15 1014.05 274.8 1008.95 289.3 1003.85 303.8 1010.45 317.65 1017.1 331.5 1031.6 336.6 1046.1 341.7 1059.95 335.05 1073.8 328.45 1078.9 313.95 1084 299.45 1077.4 285.6
M 1058.6 288.05
L 1056.5 293.95 1044.65 289.75 1041.9 296.15 1045 297.1
Q 1050.1 298.95 1051.95 302.55 1053.9 306.15 1052.3 310.65 1050.6 315.55 1046.05 317.6 1041.55 319.5 1035.7 317.45 1030.95 315.8 1028.25 313.25
L 1030.45 307.05
Q 1033.1 310.3 1036.85 311.65 1039.75 312.65 1041.8 311.85 1043.85 311.1 1044.7 308.75 1046.45 303.85 1039.55 301.45 1037.2 300.65 1033.55 299.75
L 1041.25 281.95 1058.6 288.05 Z"/>

<path fill="#91DDDA" stroke="none" d="
M 1352.3 192.95
Q 1345.25 178.25 1329.8 172.75
L 998 55.8
Q 982.55 50.35 967.85 57.35 953.15 64.4 947.65 79.85
L 932.5 122.8
Q 927.05 138.25 934.1 152.95 941.15 167.7 956.6 173.15
L 1288.4 290.15
Q 1303.9 295.6 1318.6 288.55 1333.3 281.5 1338.75 266.05
L 1353.9 223.1
Q 1359.35 207.65 1352.3 192.95
M 1295.4 226.6
L 1263.2 215.25 1295.4 226.6
M 1284.3 258.1
L 1252.1 246.75 1284.3 258.1
M 1271.8 185.25
L 1262.2 212.55 1271.8 185.25
M 1296.3 229.4
L 1286.65 256.7 1296.3 229.4
M 1306.55 195.15
L 1274.3 183.8 1306.55 195.15 Z"/>
</g>

<path id="Layer9_1_1_STROKES" stroke="#2A2A2A" stroke-width="41.35" stroke-linejoin="round" stroke-linecap="round" fill="none" d="
M 260.15 823.4
Q 265.9 844.9 262.85 866.7 259.9 887.8 249.2 906.3 238.55 924.8 221.75 937.9 204.35 951.45 182.9 957.2 165.3123046875 961.917578125 147.425 960.725 145.7916015625 960.6095703125 144.15 960.45 141.85 960.2 139.6 959.9 118.55 956.95 100.05 946.25 81.5 935.6 68.45 918.8 54.9 901.4 49.15 879.95 43.4 858.5 46.45 836.65 49.35 815.6 60.05 797.1 70.75 778.55 87.5 765.5 103.633203125 752.946484375 123.175 747.125 123.56484375 747.01171875 123.95 746.9 125.15 746.5 126.35 746.2 147.85 740.45 169.65 743.45 190.75 746.4 209.25 757.1 227.8 767.8 240.85 784.55 254.4 801.95 260.15 823.4 Z
M 527.5 709.7
Q 535.15 738.1 531.1 767 527.2 794.95 513.05 819.45 498.9 844 476.65 861.35 453.65 879.3 425.2 886.9 396.75 894.5 367.85 890.5 339.95 886.6 315.4 872.4 290.9 858.25 273.55 836 255.65 813 248 784.55 240.4 756.15 244.4 727.25 248.3 699.3 262.45 674.8 276.6 650.25 298.85 632.95 321.85 615 350.3 607.4 378.75 599.8 407.65 603.8 435.55 607.7 460.1 621.85 484.6 636 501.95 658.25 519.85 681.25 527.5 709.7 Z"/>

<path id="Layer9_1_2_STROKES" stroke="#2A2A2A" stroke-width="39.79" stroke-linejoin="round" stroke-linecap="round" fill="none" d="
M 449.4 724.6
Q 456.25 750.15 443 773.05 429.8 795.95 404.25 802.75 378.75 809.6 355.85 796.4 332.95 783.2 326.15 757.65 319.3 732.1 332.5 709.2 345.7 686.35 371.25 679.5 396.8 672.7 419.65 685.9 442.55 699.1 449.4 724.6 Z"/>

<path id="Layer9_1_3_STROKES" stroke="#2A2A2A" stroke-width="33.29" stroke-linejoin="round" stroke-linecap="round" fill="none" d="
M 197.25 840.25
Q 201.95 857.9 192.85 873.7 183.7 889.5 166.05 894.25 148.4 899 132.6 889.85 131.646484375 889.3017578125 130.725 888.725 129.71796875 888.0802734375 128.75 887.4 116.2 878.45 112.05 863.1 107.35 845.45 116.45 829.65 119.15 824.95 122.6 821.25 122.85078125 820.979296875 123.1 820.725 131.1806640625 812.2990234375 143.25 809.1 160.85 804.4 176.7 813.5 192.5 822.6 197.25 840.25 Z"/>

<path id="Layer9_1_4_STROKES" stroke="#2A2A2A" stroke-width="29.3" stroke-linejoin="round" stroke-linecap="round" fill="none" d="
M 87.9 1174.2
L 31.35 1189.35 14.65 1126.9 71.2 1111.8"/>

<path id="Layer9_1_5_STROKES" stroke="#2A2A2A" stroke-width="47.15" stroke-linejoin="round" stroke-linecap="round" fill="none" d="
M 290 1441.4
L 402.8 1215.25 613.6 1354.65"/>

<path id="Layer9_2_1_STROKES" stroke="#2A2A2A" stroke-width="4.7" stroke-linejoin="miter" stroke-linecap="butt" stroke-miterlimit="11" fill="none" d="
M 1295.4 226.6
L 1263.2 215.25
M 1284.3 258.1
L 1252.1 246.75
M 1271.8 185.25
L 1262.2 212.55
M 1296.3 229.4
L 1286.65 256.7
M 1306.55 195.15
L 1274.3 183.8"/>
</defs>

<g transform="matrix( 1, 0, 0, 1, 0,0) ">
<use xlink:href="#Layer9_0_FILL"/>
</g>

<g transform="matrix( 1, 0, 0, 1, 0,0) ">
<use xlink:href="#Layer9_1_FILL"/>

<use xlink:href="#Layer9_1_1_STROKES"/>

<use xlink:href="#Layer9_1_2_STROKES"/>

<use xlink:href="#Layer9_1_3_STROKES"/>

<use xlink:href="#Layer9_1_4_STROKES"/>

<use xlink:href="#Layer9_1_5_STROKES"/>
</g>

<g transform="matrix( 1, 0, 0, 1, 0,0) ">
<use xlink:href="#Layer9_2_FILL"/>

<use xlink:href="#Layer9_2_1_STROKES"/>
</g>
</svg>
