<svg xmlns="http://www.w3.org/2000/svg" viewBox="-2 -2 24 24" width="24" fill="currentColor"><path d="M10 18a8 8 0 1 0 0-16 8 8 0 0 0 0 16zm0 2C4.477 20 0 15.523 0 10S4.477 0 10 0s10 4.477 10 10-4.477 10-10 10z"></path><path d="M10 18c.448 0 1.119-.568 1.747-1.823C12.532 14.607 13 12.392 13 10c0-2.392-.468-4.607-1.253-6.177C11.119 2.568 10.447 2 10 2c-.448 0-1.119.568-1.747 1.823C7.468 5.393 7 7.608 7 10c0 2.392.468 4.607 1.253 6.177C8.881 17.432 9.553 18 10 18zm0 2c-2.761 0-5-4.477-5-10S7.239 0 10 0s5 4.477 5 10-2.239 10-5 10z"></path><path d="M2 12h16v2H2v-2zm0-6h16v2H2V6z"></path></svg>