
<svg xmlns="http://www.w3.org/2000/svg" version="1.1" xmlns:xlink="http://www.w3.org/1999/xlink" preserveAspectRatio="none" x="0px" y="0px" width="400px" height="909px" viewBox="0 0 400 909">
<defs>
<g id="Layer11_0_MEMBER_0_FILL">
<path fill="#F2707F" stroke="none" d="
M 0 758.35
L 0.15 790 528.1 786.95 527.9 755.35 0 758.35 Z"/>
</g>

<g id="Layer11_0_MEMBER_1_FILL">
<path fill="#F2707F" stroke="none" d="
M 392.35 787.75
L 143.6 789.3 143.85 828.7 392.6 827.25 392.35 787.75 Z"/>
</g>

<g id="Layer11_0_MEMBER_2_FILL">
<path fill="#F2707F" stroke="none" d="
M 109 789.1
L 73.75 789.35 0.1 1218.75 32.8 1219.4 109 789.1 Z"/>
</g>

<g id="Layer11_0_MEMBER_3_FILL">
<path fill="#F2707F" stroke="none" d="
M 465.75 787.2
L 425.05 787.4 505.5 1220 536.55 1218.05 465.75 787.2 Z"/>
</g>

<g id="Layer11_0_MEMBER_4_FILL">
<path fill="#F2707F" stroke="none" d="
M 471.5 1034.85
L 464.1 995.05 72.2 997.3 65.05 1037.2 471.5 1034.85 Z"/>
</g>

<g id="Layer11_0_MEMBER_5_FILL">
<path fill="#F2707F" stroke="none" d="
M 281.35 827.9
L 251.85 828.95 253.35 1093.2 282.9 1093.05 281.35 827.9 Z"/>
</g>

<g id="Layer11_0_MEMBER_6_FILL">
<path fill="#FFFFFF" stroke="none" d="
M 378.2 147.25
L 378.25 156.55 136.7 157.9 136.65 146 33.35 146.55 36.9 757.7 490.95 755.55 487.45 146.6 378.2 147.25 Z"/>
</g>

<g id="Layer11_0_MEMBER_7_FILL">
<path fill="#F2707F" stroke="none" d="
M 379.8 156.8
L 379.55 116.55 136.5 117.95 136.65 146 135.8 158.2 379.8 156.8 Z"/>
</g>

<g id="Layer11_0_MEMBER_8_FILL">
<path fill="#F2707F" stroke="none" d="
M 237.5 1.35
L 204.4 1.5
Q 200.4 29 196 57.1 187.25 113.3 185.4 116.45
L 218.5 116.85 237.5 1.35 Z"/>
</g>

<g id="Layer11_0_MEMBER_9_FILL">
<path fill="#F2707F" stroke="none" d="
M 312.95 0
L 282.85 0.15 304.4 116.1 334.2 116.8 312.95 0 Z"/>
</g>

<g id="Layer11_0_MEMBER_10_FILL">
<path fill="#F2707F" stroke="none" d="
M 274.2 0.5
L 248.55 0.65 249.2 115.8 274.85 117.15 274.2 0.5 Z"/>
</g>

<g id="Layer11_0_MEMBER_11_FILL">
<path fill="#F2707F" stroke="none" d="
M 150.3 652.35
L 184.1 652.1 182.8 512.4 149 512.65 150.3 652.35 Z"/>
</g>

<g id="Layer11_0_MEMBER_12_FILL">
<path fill="#BF6D84" stroke="none" d="
M 252.9 488.05
L 219.1 488.35 220.55 651.75 254.4 651.5 252.9 488.05 Z"/>
</g>

<g id="Layer11_0_MEMBER_13_FILL">
<path fill="#D5D5D5" stroke="none" d="
M 322.9 456.65
L 289.1 456.9 290.85 651.15 324.65 650.9 322.9 456.65 Z"/>
</g>

<g id="Layer11_0_MEMBER_14_FILL">
<path fill="#38AFAA" stroke="none" d="
M 392.6 381.65
L 358.8 381.9 361.1 650.55 394.95 650.3 392.6 381.65 Z"/>
</g>

<g id="Layer11_0_MEMBER_16_FILL">
<path fill="#F2707F" stroke="none" d="
M 165.55 443.7
Q 163.7 443.7 162.35 445.05 161 446.45 161.05 448.3 161.05 450.15 162.4 451.5 163.75 452.85 165.65 452.85 167.55 452.8 168.85 451.45 170.2 450.1 170.2 448.2 170.15 446.3 168.8 445 167.45 443.7 165.55 443.7 Z"/>
</g>

<g id="Layer11_0_MEMBER_17_FILL">
<path fill="#BF6D84" stroke="none" d="
M 238.95 426.4
Q 240.3 425.05 240.25 423.2 240.25 421.3 238.9 419.95 237.55 418.65 235.65 418.65 233.8 418.65 232.45 420 231.1 421.4 231.15 423.25 231.15 425.15 232.5 426.5 233.85 427.8 235.75 427.8 237.65 427.75 238.95 426.4 Z"/>
</g>

<g id="Layer11_0_MEMBER_18_FILL">
<path fill="#D5D5D5" stroke="none" d="
M 308.95 388.65
Q 310.25 387.35 310.25 385.45 310.25 383.55 308.9 382.2 307.55 380.9 305.65 380.9 303.8 380.9 302.45 382.25 301.1 383.6 301.1 385.5 301.15 387.4 302.5 388.75 303.85 390.05 305.75 390.05 307.65 390 308.95 388.65 Z"/>
</g>

<g id="Layer11_0_MEMBER_19_FILL">
<path fill="#38AFAA" stroke="none" d="
M 378.65 320.7
Q 380 319.35 380 317.45 379.95 315.55 378.6 314.25 377.25 312.9 375.35 312.95 373.5 312.95 372.15 314.3 370.85 315.65 370.85 317.55 370.85 319.45 372.2 320.75 373.6 322.1 375.45 322.05 377.35 322.05 378.65 320.7 Z"/>
</g>

<g id="Layer11_0_MEMBER_20_MEMBER_0_FILL">
<path fill="#010101" stroke="none" d="
M 149.45 239.8
L 149.45 236.6 140.5 236.65 140.35 216.9 136.55 216.95 136.75 239.9 149.45 239.8 Z"/>
</g>

<g id="Layer11_0_MEMBER_20_MEMBER_1_FILL">
<path fill="#010101" stroke="none" d="
M 159.9 222.9
Q 155.9 223 153.55 225.3 151.2 227.6 151.25 231.75 151.25 235.65 153.55 237.85 155.8 240.1 159.65 240.1 163.55 240.05 165.85 237.7 168.1 235.3 168.1 231.35 168.1 227.4 165.9 225.1 163.7 222.9 159.9 222.9
M 159.8 237.15
Q 157.6 237.15 156.35 235.7 155.05 234.15 155.05 231.65 155 228.95 156.25 227.45 157.5 225.9 159.7 225.9 161.9 225.85 163.05 227.35 164.2 228.75 164.3 231.5 164.3 234.2 163.15 235.65 161.95 237.15 159.8 237.15 Z"/>
</g>

<g id="Layer11_0_MEMBER_20_MEMBER_2_FILL">
<path fill="#010101" stroke="none" d="
M 175.7 239.6
L 179.75 239.55 185.95 223.1 182.05 223.1 178.3 234.7
Q 178.1 235.35 177.9 236.85
L 177.85 236.85
Q 177.65 235.6 177.3 234.65
L 173.6 223.2 169.55 223.2 175.7 239.6 Z"/>
</g>

<g id="Layer11_0_MEMBER_20_MEMBER_3_FILL">
<path fill="#010101" stroke="none" d="
M 202.2 232.15
L 202.15 230.75
Q 202.15 226.9 200.25 224.75 198.45 222.6 195.05 222.6 191.65 222.7 189.45 225.1 187.2 227.5 187.2 231.35 187.3 235.45 189.3 237.6 191.35 239.8 195.05 239.8 198.65 239.8 200.95 238.35
L 200.9 235.35
Q 198.7 236.95 196.1 236.95 193.75 236.95 192.4 235.75 191.1 234.6 191 232.25
L 202.2 232.15
M 195 225.35
Q 196.65 225.35 197.6 226.45 198.55 227.65 198.55 229.55
L 190.95 229.6
Q 191.25 227.75 192.3 226.55 193.45 225.35 195 225.35 Z"/>
</g>

<g id="Layer11_0_MEMBER_20_MEMBER_4_FILL">
<path fill="#010101" stroke="none" d="
M 223.9 217.9
L 223.85 214.8
Q 223.1 214.5 221.7 214.5 219.15 214.6 217.45 216.05 215.8 217.55 215.8 220.15
L 215.8 222.85 213 222.85 213.05 225.75 215.85 225.75 215.95 239.25 219.65 239.2 219.55 225.7 223.35 225.7 223.35 222.75 219.5 222.8 219.5 220.55
Q 219.5 217.5 222.2 217.5 223.25 217.5 223.9 217.9 Z"/>
</g>

<g id="Layer11_0_MEMBER_20_MEMBER_5_FILL">
<path fill="#010101" stroke="none" d="
M 241.85 230.75
Q 241.85 226.8 239.65 224.5 237.45 222.25 233.65 222.3 229.65 222.3 227.3 224.65 224.95 227.1 225 231.15 225 234.85 227.3 237.25 229.65 239.55 233.4 239.45 237.3 239.45 239.6 237.05 241.95 234.65 241.85 230.75
M 233.45 225.25
Q 235.65 225.25 236.85 226.7 238.05 228.2 238.05 230.9 238.05 233.6 236.9 235.05 235.75 236.5 233.55 236.5 231.4 236.6 230.1 235.1 228.8 233.55 228.8 231 228.75 228.45 230 226.8 231.3 225.25 233.45 225.25 Z"/>
</g>

<g id="Layer11_0_MEMBER_20_MEMBER_6_FILL">
<path fill="#010101" stroke="none" d="
M 255.1 222.5
Q 254.6 222.2 253.55 222.2 252.1 222.3 251.05 223.2 249.95 224.2 249.4 225.9
L 249.3 225.95 249.3 222.55 245.55 222.6 245.7 239 249.45 238.95 249.35 231.1
Q 249.35 228.5 250.45 227.05 251.5 225.6 253.2 225.5 254.4 225.5 255.1 226.05
L 255.1 222.5 Z"/>
</g>

<g id="Layer11_0_MEMBER_20_MEMBER_7_FILL">
<path fill="#010101" stroke="none" d="
M 280 238.7
L 280 235.45 271.1 235.55 270.9 215.8 267.1 215.8 267.3 238.8 280 238.7 Z"/>
</g>

<g id="Layer11_0_MEMBER_20_MEMBER_8_FILL">
<path fill="#010101" stroke="none" d="
M 299.8 218.35
Q 296.85 215.2 292 215.25 286.8 215.25 283.75 218.6 280.75 221.95 280.8 227.45 280.8 232.55 283.85 235.85 286.85 239 291.85 239 296.9 238.95 299.9 235.65 302.95 232.3 302.85 226.7 302.8 221.55 299.8 218.35
M 286.7 221
Q 288.65 218.6 291.85 218.6 295.05 218.55 296.95 220.8 298.85 223 298.85 227.15 298.95 231.1 297 233.4 295.05 235.65 291.8 235.65 288.7 235.65 286.75 233.35 284.8 231.05 284.8 227.2 284.75 223.35 286.7 221 Z"/>
</g>

<g id="Layer11_0_MEMBER_20_MEMBER_9_FILL">
<path fill="#010101" stroke="none" d="
M 320.35 218.6
L 320.3 215.35 303.3 215.5 303.35 218.75 309.9 218.7 310.1 238.45 313.9 238.4 313.75 218.65 320.35 218.6 Z"/>
</g>

<g id="Layer11_0_MEMBER_20_MEMBER_10_FILL">
<path fill="#010101" stroke="none" d="
M 338.8 221.4
Q 338.75 219.9 338.2 218.7 337.6 217.55 336.6 216.8 335.65 216.05 334.2 215.65 332.7 215.25 331.25 215.3
L 323.65 215.35 323.85 238.3 327.65 238.3 327.6 228.95 329.1 228.95
Q 329.9 228.95 330.4 229.1 331.1 229.35 331.5 229.65 332.05 230.1 332.45 230.65
L 337.15 238.2 341.6 238.15 336.55 230.45
Q 336.15 229.85 335.7 229.45
L 334.85 228.55
Q 333.9 227.9 333.75 227.8
L 333.75 227.75
Q 334.9 227.4 335.85 226.85 336.85 226.2 337.4 225.5 338.1 224.65 338.45 223.65 338.8 222.5 338.8 221.4
M 333.7 219.3
Q 334.75 220.2 334.75 221.85 334.75 222.75 334.45 223.5 334.15 224.25 333.65 224.75 332.95 225.4 332.35 225.55 331.6 225.85 330.75 225.85
L 327.55 225.85 327.5 218.4 330.7 218.4
Q 332.65 218.35 333.7 219.3 Z"/>
</g>

<g id="Layer11_0_MEMBER_20_MEMBER_11_FILL">
<path fill="#010101" stroke="none" d="
M 366.35 236
Q 368.65 233.65 368.65 229.7 368.6 225.6 366.45 223.45 364.3 221.2 360.45 221.2 356.45 221.3 354.05 223.6 351.75 225.9 351.75 230.1 351.85 233.95 354.1 236.15 356.3 238.4 360.15 238.4 364.1 238.4 366.35 236
M 360.25 224.2
Q 362.45 224.2 363.6 225.65 364.75 227.05 364.85 229.8 364.85 232.5 363.7 233.95 362.5 235.45 360.35 235.45 358.15 235.45 356.9 234 355.65 232.6 355.55 229.95 355.55 227.2 356.8 225.75 358.05 224.2 360.25 224.2 Z"/>
</g>

<g id="Layer11_0_MEMBER_20_MEMBER_12_FILL">
<path fill="#010101" stroke="none" d="
M 374.1 221.5
L 370.1 221.5 376.25 237.9 380.3 237.85 386.5 221.4 382.6 221.4 378.85 233
Q 378.5 234.1 378.45 235.15
L 378.4 235.15
Q 378.2 233.9 377.85 232.95
L 374.1 221.5 Z"/>
</g>

<g id="Layer11_0_MEMBER_20_MEMBER_13_FILL">
<path fill="#010101" stroke="none" d="
M 402.7 230.45
L 402.7 229.05
Q 402.7 225.25 400.8 223.05 398.95 220.9 395.6 220.9 392.15 221 389.95 223.4 387.75 225.75 387.75 229.65 387.85 233.75 389.85 235.9 391.9 238.1 395.55 238.1 399.2 238.1 401.5 236.65
L 401.45 233.65
Q 399.25 235.25 396.65 235.25 394.3 235.25 392.95 234.05 391.65 232.9 391.55 230.55
L 402.7 230.45
M 395.55 223.65
Q 397.2 223.65 398.15 224.75 399.1 225.95 399.1 227.85
L 391.5 227.95
Q 391.7 226.05 392.85 224.85 394 223.65 395.55 223.65 Z"/>
</g>

<g id="Layer11_0_MEMBER_20_MEMBER_14_FILL">
<path fill="#010101" stroke="none" d="
M 415.7 221.15
Q 415.2 220.85 414.15 220.85 412.8 220.85 411.65 221.85 410.55 222.85 410 224.55
L 409.95 224.55 409.9 221.2 406.2 221.2 406.3 237.65 410.05 237.6 409.95 229.75
Q 409.95 227.15 411.05 225.7 412.1 224.25 413.8 224.15 415.05 224.15 415.75 224.7
L 415.7 221.15 Z"/>
</g>

<g id="Layer11_0_MEMBER_20_MEMBER_15_FILL">
<path fill="#010101" stroke="none" d="
M 245.1 259.8
L 245.15 263.6 242.4 263.65 242.45 266.55 245.15 266.5 245.25 275.8
Q 245.25 280.35 250.05 280.35 251.85 280.35 252.9 279.75
L 252.9 276.8
Q 252.25 277.4 251.25 277.4 250 277.4 249.5 276.75 248.95 276.1 248.95 274.7
L 248.9 266.5 252.8 266.45 252.8 263.55 248.85 263.55 248.8 258.7 245.1 259.8 Z"/>
</g>

<g id="Layer11_0_MEMBER_20_MEMBER_16_FILL">
<path fill="#010101" stroke="none" d="
M 259.7 263.5
L 256 263.5 256.15 279.9 259.85 279.9 259.7 263.5
M 259.4 256.4
Q 258.75 255.8 257.8 255.8 256.8 255.9 256.25 256.45 255.6 257.05 255.6 257.95 255.6 258.9 256.25 259.45 256.95 260.05 257.85 260.05 258.8 260.05 259.45 259.45 260.1 258.7 260.1 257.95 260 256.95 259.4 256.4 Z"/>
</g>

<g id="Layer11_0_MEMBER_20_MEMBER_17_FILL">
<path fill="#010101" stroke="none" d="
M 268.35 270.95
Q 268.35 268.75 269.3 267.35 270.25 265.95 271.75 265.95 275 265.95 275 270.5
L 275.1 279.75 278.85 279.75 278.75 270.85
Q 278.75 268.9 279.75 267.35 280.65 265.95 282.2 265.85 283.95 265.85 284.65 267 285.45 268.2 285.45 270.75
L 285.5 279.65 289.25 279.65 289.15 269.55
Q 289.1 262.85 283.7 262.9 280.05 262.9 278.25 266.35 277.8 264.85 276.5 263.9 275.15 262.95 273.5 263 270.15 263 268.35 266
L 268.3 266 268.3 263.4 264.55 263.45 264.7 279.85 268.4 279.8 268.35 270.95 Z"/>
</g>

<g id="Layer11_0_MEMBER_20_MEMBER_18_FILL">
<path fill="#010101" stroke="none" d="
M 307.6 270.85
Q 307.55 266.95 305.7 264.85 303.85 262.75 300.45 262.75 297.15 262.75 294.85 265.2 292.6 267.7 292.65 271.45 292.65 275.5 294.75 277.75 296.8 279.95 300.45 279.95 304.2 279.9 306.35 278.45
L 306.35 275.45
Q 304.3 277 301.55 277.1 299.2 277.1 297.85 275.9 296.45 274.6 296.4 272.4
L 307.6 272.3 307.6 270.85
M 300.45 265.5
Q 302.1 265.5 303 266.6 303.9 267.6 304 269.7
L 296.4 269.75
Q 296.65 267.8 297.75 266.7 298.8 265.5 300.45 265.5 Z"/>
</g>

<path id="Layer11_0_MEMBER_6_1_STROKES" stroke="#010101" stroke-width="28.3" stroke-linejoin="miter" stroke-linecap="butt" stroke-miterlimit="5" fill="none" d="
M 27.508900451660157 564.8643325805664
L 24.86238021850586 109.25282821655274 101.87239151000976 108.84280395507812 101.90966644287109 117.71423797607422 281.98486709594727 116.70781478881837 281.9475921630859 109.77467727661133 363.39332046508787 109.29010314941407 366.00256576538084 563.2615104675293 27.508900451660157 564.8643325805664 Z"/>

<path id="Layer11_0_MEMBER_15_1_STROKES" stroke="#010101" stroke-width="2.15" stroke-linejoin="miter" stroke-linecap="butt" stroke-miterlimit="5" fill="none" d="
M 123.45457763671875 334.16977310180664
Q 141.12289581298828 328.05668411254885 149.58430557250978 325.0001396179199 164.12152938842775 319.78164901733396 175.7140335083008 315.1595573425293 191.18313064575196 309.00919342041016 201.80648651123047 303.52977828979493 216.00823593139648 296.2238914489746 227.8616645812988 287.2033576965332 239.45416870117188 278.36919860839845 253.87956771850585 263.98107452392577 262.6764518737793 255.2214653015137 279.8601959228516 236.6958236694336"/>
</defs>

<g transform="matrix( 0.7454986572265625, 0, 0, 0.7454986572265625, 0,0) ">
<use xlink:href="#Layer11_0_MEMBER_0_FILL"/>
</g>

<g transform="matrix( 0.7454986572265625, 0, 0, 0.7454986572265625, 0,0) ">
<use xlink:href="#Layer11_0_MEMBER_1_FILL"/>
</g>

<g transform="matrix( 0.7454986572265625, 0, 0, 0.7454986572265625, 0,0) ">
<use xlink:href="#Layer11_0_MEMBER_2_FILL"/>
</g>

<g transform="matrix( 0.7454986572265625, 0, 0, 0.7454986572265625, 0,0) ">
<use xlink:href="#Layer11_0_MEMBER_3_FILL"/>
</g>

<g transform="matrix( 0.7454986572265625, 0, 0, 0.7454986572265625, 0,0) ">
<use xlink:href="#Layer11_0_MEMBER_4_FILL"/>
</g>

<g transform="matrix( 0.7454986572265625, 0, 0, 0.7454986572265625, 0,0) ">
<use xlink:href="#Layer11_0_MEMBER_5_FILL"/>
</g>

<g transform="matrix( 0.7454986572265625, 0, 0, 0.7454986572265625, 0,0) ">
<use xlink:href="#Layer11_0_MEMBER_6_FILL"/>

<use xlink:href="#Layer11_0_MEMBER_6_1_STROKES" transform="matrix( 1.34136962890625, 0, 0, 1.34136962890625, 0,0) "/>
</g>

<g transform="matrix( 0.7454986572265625, 0, 0, 0.7454986572265625, 0,0) ">
<use xlink:href="#Layer11_0_MEMBER_7_FILL"/>
</g>

<g transform="matrix( 0.7454986572265625, 0, 0, 0.7454986572265625, 0,0) ">
<use xlink:href="#Layer11_0_MEMBER_8_FILL"/>
</g>

<g transform="matrix( 0.7454986572265625, 0, 0, 0.7454986572265625, 0,0) ">
<use xlink:href="#Layer11_0_MEMBER_9_FILL"/>
</g>

<g transform="matrix( 0.7454986572265625, 0, 0, 0.7454986572265625, 0,0) ">
<use xlink:href="#Layer11_0_MEMBER_10_FILL"/>
</g>

<g transform="matrix( 0.7454986572265625, 0, 0, 0.7454986572265625, 0,0) ">
<use xlink:href="#Layer11_0_MEMBER_11_FILL"/>
</g>

<g transform="matrix( 0.7454986572265625, 0, 0, 0.7454986572265625, 0,0) ">
<use xlink:href="#Layer11_0_MEMBER_12_FILL"/>
</g>

<g transform="matrix( 0.7454986572265625, 0, 0, 0.7454986572265625, 0,0) ">
<use xlink:href="#Layer11_0_MEMBER_13_FILL"/>
</g>

<g transform="matrix( 0.7454986572265625, 0, 0, 0.7454986572265625, 0,0) ">
<use xlink:href="#Layer11_0_MEMBER_14_FILL"/>
</g>

<g transform="matrix( 0.7454986572265625, 0, 0, 0.7454986572265625, 0,0) ">
<use xlink:href="#Layer11_0_MEMBER_15_1_STROKES" transform="matrix( 1.34136962890625, 0, 0, 1.34136962890625, 0,0) "/>
</g>

<g transform="matrix( 0.7454986572265625, 0, 0, 0.7454986572265625, 0,0) ">
<use xlink:href="#Layer11_0_MEMBER_16_FILL"/>
</g>

<g transform="matrix( 0.7454986572265625, 0, 0, 0.7454986572265625, 0,0) ">
<use xlink:href="#Layer11_0_MEMBER_17_FILL"/>
</g>

<g transform="matrix( 0.7454986572265625, 0, 0, 0.7454986572265625, 0,0) ">
<use xlink:href="#Layer11_0_MEMBER_18_FILL"/>
</g>

<g transform="matrix( 0.7454986572265625, 0, 0, 0.7454986572265625, 0,0) ">
<use xlink:href="#Layer11_0_MEMBER_19_FILL"/>
</g>

<g transform="matrix( 0.7454986572265625, 0, 0, 0.7454986572265625, 0,0) ">
<use xlink:href="#Layer11_0_MEMBER_20_MEMBER_0_FILL"/>
</g>

<g transform="matrix( 0.7454986572265625, 0, 0, 0.7454986572265625, 0,0) ">
<use xlink:href="#Layer11_0_MEMBER_20_MEMBER_1_FILL"/>
</g>

<g transform="matrix( 0.7454986572265625, 0, 0, 0.7454986572265625, 0,0) ">
<use xlink:href="#Layer11_0_MEMBER_20_MEMBER_2_FILL"/>
</g>

<g transform="matrix( 0.7454986572265625, 0, 0, 0.7454986572265625, 0,0) ">
<use xlink:href="#Layer11_0_MEMBER_20_MEMBER_3_FILL"/>
</g>

<g transform="matrix( 0.7454986572265625, 0, 0, 0.7454986572265625, 0,0) ">
<use xlink:href="#Layer11_0_MEMBER_20_MEMBER_4_FILL"/>
</g>

<g transform="matrix( 0.7454986572265625, 0, 0, 0.7454986572265625, 0,0) ">
<use xlink:href="#Layer11_0_MEMBER_20_MEMBER_5_FILL"/>
</g>

<g transform="matrix( 0.7454986572265625, 0, 0, 0.7454986572265625, 0,0) ">
<use xlink:href="#Layer11_0_MEMBER_20_MEMBER_6_FILL"/>
</g>

<g transform="matrix( 0.7454986572265625, 0, 0, 0.7454986572265625, 0,0) ">
<use xlink:href="#Layer11_0_MEMBER_20_MEMBER_7_FILL"/>
</g>

<g transform="matrix( 0.7454986572265625, 0, 0, 0.7454986572265625, 0,0) ">
<use xlink:href="#Layer11_0_MEMBER_20_MEMBER_8_FILL"/>
</g>

<g transform="matrix( 0.7454986572265625, 0, 0, 0.7454986572265625, 0,0) ">
<use xlink:href="#Layer11_0_MEMBER_20_MEMBER_9_FILL"/>
</g>

<g transform="matrix( 0.7454986572265625, 0, 0, 0.7454986572265625, 0,0) ">
<use xlink:href="#Layer11_0_MEMBER_20_MEMBER_10_FILL"/>
</g>

<g transform="matrix( 0.7454986572265625, 0, 0, 0.7454986572265625, 0,0) ">
<use xlink:href="#Layer11_0_MEMBER_20_MEMBER_11_FILL"/>
</g>

<g transform="matrix( 0.7454986572265625, 0, 0, 0.7454986572265625, 0,0) ">
<use xlink:href="#Layer11_0_MEMBER_20_MEMBER_12_FILL"/>
</g>

<g transform="matrix( 0.7454986572265625, 0, 0, 0.7454986572265625, 0,0) ">
<use xlink:href="#Layer11_0_MEMBER_20_MEMBER_13_FILL"/>
</g>

<g transform="matrix( 0.7454986572265625, 0, 0, 0.7454986572265625, 0,0) ">
<use xlink:href="#Layer11_0_MEMBER_20_MEMBER_14_FILL"/>
</g>

<g transform="matrix( 0.7454986572265625, 0, 0, 0.7454986572265625, 0,0) ">
<use xlink:href="#Layer11_0_MEMBER_20_MEMBER_15_FILL"/>
</g>

<g transform="matrix( 0.7454986572265625, 0, 0, 0.7454986572265625, 0,0) ">
<use xlink:href="#Layer11_0_MEMBER_20_MEMBER_16_FILL"/>
</g>

<g transform="matrix( 0.7454986572265625, 0, 0, 0.7454986572265625, 0,0) ">
<use xlink:href="#Layer11_0_MEMBER_20_MEMBER_17_FILL"/>
</g>

<g transform="matrix( 0.7454986572265625, 0, 0, 0.7454986572265625, 0,0) ">
<use xlink:href="#Layer11_0_MEMBER_20_MEMBER_18_FILL"/>
</g>
</svg>
