
<svg xmlns="http://www.w3.org/2000/svg" version="1.1" xmlns:xlink="http://www.w3.org/1999/xlink" preserveAspectRatio="none" x="0px" y="0px" width="399px" height="909px" viewBox="0 0 399 909">
<defs>
<filter id="Filter_1" x="-20%" y="-20%" width="140%" height="140%" color-interpolation-filters="sRGB">
<feColorMatrix in="SourceGraphic" type="matrix" values="1 0 0 0 0 0 1 0 0 0 0 0 1 0 0 0 0 0 0.68 0" result="result1"/>
</filter>

<g id="Layer10_0_MEMBER_0_FILL">
<path fill="#38AFAA" stroke="none" d="
M 0 576.2
L 0.1 600.2 401.2 597.85 401.05 573.8 0 576.2 Z"/>
</g>

<g id="Layer10_0_MEMBER_1_FILL">
<path fill="#38AFAA" stroke="none" d="
M 109.1 599.7
L 109.3 629.6 298.3 628.5 298.1 598.45 109.1 599.7 Z"/>
</g>

<g id="Layer10_0_MEMBER_2_FILL">
<path fill="#38AFAA" stroke="none" d="
M 82.8 599.55
L 56.05 599.7 0.1 925.95 24.95 926.45 82.8 599.55 Z"/>
</g>

<g id="Layer10_0_MEMBER_3_FILL">
<path fill="#38AFAA" stroke="none" d="
M 353.85 598
L 322.9 598.2 384.1 926.85 407.65 925.4 353.85 598 Z"/>
</g>

<g id="Layer10_0_MEMBER_4_FILL">
<path fill="#38AFAA" stroke="none" d="
M 54.85 757.7
L 49.45 788 358.25 786.2 352.6 755.95 54.85 757.7 Z"/>
</g>

<g id="Layer10_0_MEMBER_5_FILL">
<path fill="#38AFAA" stroke="none" d="
M 213.75 628.95
L 191.3 629.8 192.5 830.55 214.95 830.45 213.75 628.95 Z"/>
</g>

<g id="Layer10_0_MEMBER_6_FILL">
<path fill="#FFFFFF" stroke="none" d="
M 287.3 111.85
L 287.3 118.9 103.8 120 103.75 110.9 25.3 111.35 28 575.65 373 574 370.3 111.35 287.3 111.85 Z"/>
</g>

<g id="Layer10_0_MEMBER_7_FILL">
<path fill="#38AFAA" stroke="none" d="
M 288.5 119.1
L 288.3 88.5 103.6 89.6 103.75 110.9 103.1 120.2 288.5 119.1 Z"/>
</g>

<g id="Layer10_0_MEMBER_8_FILL">
<path fill="#38AFAA" stroke="none" d="
M 165.95 88.8
L 180.4 1 155.2 1.15
Q 152.15 22 148.85 43.35 142.2 86.05 140.8 88.5
L 165.95 88.8 Z"/>
</g>

<g id="Layer10_0_MEMBER_9_FILL">
<path fill="#38AFAA" stroke="none" d="
M 237.7 0
L 214.8 0.1 231.2 88.15 253.85 88.7 237.7 0 Z"/>
</g>

<g id="Layer10_0_MEMBER_10_FILL">
<path fill="#38AFAA" stroke="none" d="
M 189.25 87.95
L 208.75 89 208.25 0.4 188.75 0.5 189.25 87.95 Z"/>
</g>

<g id="about_cfr_easel1_svg_svg55536_circle52450_0_Layer0_0_FILL">
<path fill="#E7E7E7" stroke="none" d="
M 193.05 95.95
Q 192.95 76.3 185.25 58.45 177.85 41.15 164.4 27.9 150.95 14.6 133.6 7.35 115.6 -0.1 95.95 0 76.3 0.1 58.45 7.8 41.15 15.25 27.9 28.7 14.6 42.1 7.35 59.5 -0.1 77.45 0 97.1 0.1 116.75 7.8 134.65 15.25 151.9 28.7 165.2 42.1 178.5 59.5 185.7 77.45 193.2 97.1 193.05 116.75 192.95 134.65 185.25 151.9 177.85 165.2 164.4 178.5 150.95 185.7 133.6 193.2 115.6 193.05 95.95 Z"/>
</g>

<g id="Layer10_0_MEMBER_12_FILL">
<path fill="#F2707F" stroke="none" d="
M 130.9 324.9
Q 107.8 348.2 103.7 380.7 99.55 413.25 116.05 441.55 132.6 469.85 162.95 482.25 193.3 494.65 224.9 486 256.55 477.35 276.35 451.25 296.2 425.1 295.95 392.3
L 199.45 392.9 247.4 309.1
Q 218.95 292.8 186.45 297.2 154 301.6 130.9 324.9 Z"/>
</g>

<g id="Layer10_0_MEMBER_13_FILL">
<path fill="#BF6D84" stroke="none" d="
M 152 308.8
Q 125.95 323.5 112.8 350.35 99.6 377.2 103.9 406.8 108.2 436.35 128.5 458.35 148.75 480.3 177.9 487 207 493.65 234.85 482.7 262.65 471.75 279.4 446.95 296.15 422.2 295.95 392.3
L 199.45 392.9 207.8 296.7
Q 178 294.1 152 308.8 Z"/>
</g>

<g id="Layer10_0_MEMBER_14_FILL">
<path fill="#38AFAA" stroke="none" d="
M 114 347.95
Q 105.85 363.45 103.65 380.7 101.4 398.5 105.7 416.05 114.5 451.65 144.75 472.45 159.15 482.35 176.05 486.55 193.45 490.9 211.4 488.65 229.3 486.4 245.1 477.95 260.45 469.7 272 456.55 283.5 443.45 289.7 427.15 296.05 410.4 295.95 392.3
L 199.45 392.9 165.4 302.55
Q 148.5 308.9 135.15 320.9 122.15 332.5 114 347.95 Z"/>
</g>

<g id="Layer10_0_MEMBER_15_MEMBER_0_FILL">
<path fill="#010101" stroke="none" d="
M 98.25 176.15
Q 97.25 176.85 96.65 177.8 96.05 178.85 96.05 180.15 96.15 181.4 96.45 182.1 96.8 182.9 97.4 183.55 98.1 184.25 98.9 184.75
L 102.45 186.55
Q 102.9 186.75 103.85 187.35 104.5 187.8 104.75 188.3 105.1 188.7 105.1 189.45 105.1 190.75 104.1 191.4 103.1 192.1 101.15 192.1
L 99.85 192 98.5 191.65
Q 97.6 191.35 97.2 191.1 96.7 190.85 96.15 190.4
L 96.15 193.7 97.25 194.15 100.05 194.65 101.25 194.75
Q 102.75 194.75 104 194.45 105.4 194.1 106.3 193.5 107.3 192.9 107.9 191.85 108.45 190.85 108.45 189.4 108.45 188.4 108.05 187.45 107.75 186.8 106.95 185.9 106.3 185.25 105.4 184.65
L 103.5 183.55 101.75 182.8
Q 101 182.4 100.5 182 99.95 181.6 99.7 181.15 99.45 180.8 99.45 180.05 99.45 179.35 99.75 178.9 100.1 178.4 100.65 178.1 101.25 177.8 101.9 177.65 102.65 177.5 103.35 177.5 105.95 177.5 107.55 178.65
L 107.55 175.5
Q 106.2 174.85 103.15 174.85 101.75 174.85 100.55 175.2 99.25 175.5 98.25 176.15 Z"/>
</g>

<g id="Layer10_0_MEMBER_15_MEMBER_1_FILL">
<path fill="#010101" stroke="none" d="
M 119.2 180.25
Q 116.3 180.25 114.8 182.9
L 114.75 182.9 114.65 174 111.55 174 111.65 194.35 114.8 194.35 114.75 186.95
Q 114.75 185.1 115.65 183.9 116.65 182.75 117.95 182.75 120.7 182.7 120.7 186.8
L 120.75 194.3 123.9 194.3 123.85 185.8
Q 123.8 180.25 119.2 180.25 Z"/>
</g>

<g id="Layer10_0_MEMBER_15_MEMBER_2_FILL">
<path fill="#010101" stroke="none" d="
M 138.15 185.25
Q 138.15 180.15 132.9 180.15 129.95 180.25 127.9 181.5
L 127.9 184.2
Q 130 182.5 132.35 182.5 135.15 182.5 135.15 185.4
L 131.05 186
Q 126.6 186.7 126.6 190.6 126.7 192.45 127.8 193.5 128.95 194.55 130.95 194.55 133.75 194.55 135.1 192.05
L 135.15 192.05 135.2 194.2 138.2 194.2 138.15 185.25
M 130.2 191.65
Q 129.6 191.15 129.6 190.25 129.6 189 130.25 188.55 131 188.05 132.3 187.9
L 135.15 187.45 135.15 188.65
Q 135.15 190.15 134.25 191.2 133.35 192.2 131.9 192.2 130.9 192.2 130.2 191.65 Z"/>
</g>

<g id="Layer10_0_MEMBER_15_MEMBER_3_FILL">
<path fill="#010101" stroke="none" d="
M 145.05 180.4
L 141.9 180.45 142 194.2 145.1 194.15 145.1 187.6
Q 145.05 185.4 146 184.2 146.85 183 148.3 182.9 149.4 182.9 149.9 183.35
L 149.9 180.4
Q 149.4 180.15 148.6 180.15 147.45 180.15 146.5 181 145.55 181.8 145.1 183.25
L 145.05 183.25 145.05 180.4 Z"/>
</g>

<g id="Layer10_0_MEMBER_15_MEMBER_4_FILL">
<path fill="#010101" stroke="none" d="
M 163.55 188.05
L 163.5 186.85
Q 163.5 183.55 161.95 181.8 160.4 180 157.6 180 154.75 180.1 152.85 182.1 151 184.1 151 187.3 151 190.75 152.75 192.55 154.45 194.4 157.55 194.4 160.65 194.4 162.5 193.2
L 162.45 190.7
Q 160.65 192 158.45 192.05 156.5 192.05 155.35 191 154.25 190.05 154.15 188.1
L 163.55 188.05
M 155.3 183.3
Q 156.2 182.3 157.55 182.3 158.95 182.3 159.7 183.25 160.5 184.2 160.5 185.85
L 154.15 185.9
Q 154.4 184.2 155.3 183.3 Z"/>
</g>

<g id="Layer10_0_MEMBER_15_MEMBER_5_FILL">
<path fill="#010101" stroke="none" d="
M 180.45 179.9
Q 177.05 179.9 175.1 181.85 173.15 183.8 173.15 187.3 173.15 190.45 175.1 192.4 177 194.3 180.2 194.3 183.5 194.2 185.35 192.25 187.3 190.3 187.3 187 187.25 183.6 185.45 181.75 183.7 179.9 180.45 179.9
M 177.4 183.65
Q 178.4 182.45 180.25 182.35 182.05 182.35 183.1 183.6 184.1 184.85 184.1 187.1 184.1 189.4 183.1 190.55 182.15 191.8 180.3 191.8 178.5 191.8 177.45 190.6 176.35 189.35 176.35 187.2 176.35 184.85 177.4 183.65 Z"/>
</g>

<g id="Layer10_0_MEMBER_15_MEMBER_6_FILL">
<path fill="#010101" stroke="none" d="
M 197.7 176.05
L 197.7 173.45
Q 196.95 173.2 195.85 173.2 193.75 173.2 192.3 174.5 190.9 175.75 190.9 177.9
L 190.9 180.15 188.55 180.15 188.6 182.6 190.95 182.6 191 193.9 194.1 193.85 194.05 182.55 197.25 182.55 197.2 180.1 194 180.15 194 178.25
Q 194 175.7 196.25 175.7 197.15 175.7 197.7 176.05 Z"/>
</g>

<g id="Layer10_0_MEMBER_15_MEMBER_7_FILL">
<path fill="#010101" stroke="none" d="
M 213.8 182.2
Q 215.4 182.1 216.85 183.25
L 216.85 180.35
Q 215.4 179.7 213.5 179.7 210.15 179.7 208.1 181.8 206.1 183.9 206.15 187.25 206.15 190.3 208.05 192.2 209.95 194.1 213 194.1 215.35 194 216.9 193.1
L 216.9 190.4
Q 215.4 191.6 213.7 191.6 211.7 191.6 210.5 190.4 209.3 189.2 209.3 187.05 209.3 184.9 210.55 183.55 211.85 182.2 213.8 182.2 Z"/>
</g>

<g id="Layer10_0_MEMBER_15_MEMBER_8_FILL">
<path fill="#010101" stroke="none" d="
M 219.05 187
Q 219.05 190.25 221 192.1 222.85 194 226.05 194 229.35 194 231.25 192 233.2 190 233.2 186.7 233.15 183.35 231.35 181.5 229.55 179.6 226.35 179.6 222.95 179.7 221 181.6 219.05 183.55 219.05 187
M 226.15 182.1
Q 227.95 182.1 229 183.3 230 184.6 230 186.8 230 189.05 229 190.3 228 191.55 226.2 191.55 224.4 191.55 223.35 190.3 222.25 189.15 222.25 186.9 222.25 184.6 223.25 183.4 224.4 182.1 226.15 182.1 Z"/>
</g>

<g id="Layer10_0_MEMBER_15_MEMBER_9_FILL">
<path fill="#010101" stroke="none" d="
M 242.75 179.5
Q 239.35 179.6 237.4 181.5 235.45 183.45 235.45 186.9 235.55 190.2 237.4 192 239.25 193.9 242.5 193.9 245.8 193.9 247.7 191.9 249.6 189.85 249.6 186.6 249.6 183.35 247.75 181.4 245.95 179.5 242.75 179.5
M 242.6 191.45
Q 240.8 191.45 239.75 190.2 238.65 189.05 238.65 186.8 238.65 184.6 239.7 183.3 240.75 182 242.55 182 244.45 182 245.4 183.25 246.4 184.5 246.4 186.7 246.4 189.05 245.45 190.2 244.45 191.45 242.6 191.45 Z"/>
</g>

<g id="Layer10_0_MEMBER_15_MEMBER_10_FILL">
<path fill="#010101" stroke="none" d="
M 255.9 193.5
L 255.8 173.15 252.7 173.2 252.8 193.55 255.9 193.5 Z"/>
</g>

<g id="Layer10_0_MEMBER_15_MEMBER_11_FILL">
<path fill="#010101" stroke="none" d="
M 263.1 182
L 263.05 182 263 179.75 259.9 179.75 260 193.5 263.1 193.45 263.05 185.65
Q 263.05 184 263.95 182.95 264.9 181.85 266.3 181.85 269.05 181.85 269.05 185.7
L 269.1 193.45 272.2 193.4 272.15 185
Q 272.15 182.3 270.95 180.8 269.7 179.35 267.55 179.4 264.6 179.4 263.1 182 Z"/>
</g>

<g id="Layer10_0_MEMBER_15_MEMBER_12_FILL">
<path fill="#010101" stroke="none" d="
M 281.65 179.3
Q 278.85 179.3 276.95 181.35 275.05 183.45 275.1 186.6 275.1 189.95 276.85 191.85 278.55 193.7 281.6 193.7 284.7 193.65 286.55 192.45
L 286.55 189.95
Q 284.75 191.3 282.5 191.3 280.6 191.3 279.45 190.3 278.35 189.25 278.25 187.35
L 287.6 187.3 287.6 186.1
Q 287.6 182.95 286.05 181.1 284.5 179.3 281.65 179.3
M 278.25 185.15
Q 278.4 183.65 279.35 182.6 280.35 181.6 281.65 181.6 283 181.6 283.8 182.5 284.55 183.45 284.6 185.1
L 278.25 185.15 Z"/>
</g>

<g id="Layer10_0_MEMBER_15_MEMBER_13_FILL">
<path fill="#010101" stroke="none" d="
M 295.65 185.3
L 294.45 184.9 293.55 184.45
Q 293.1 184.2 293 183.9 292.8 183.65 292.8 183.15 292.8 182.75 293 182.5 293.1 182.3 293.5 182
L 294.3 181.65 295.4 181.5
Q 297.25 181.5 298.7 182.5
L 298.7 179.75
Q 297.15 179.2 295.3 179.2 294.25 179.2 293.2 179.5 292.35 179.7 291.4 180.3 290.55 180.9 290.15 181.55 289.7 182.3 289.7 183.3 289.7 184.05 289.95 184.7 290.2 185.4 290.6 185.8 291.1 186.3 291.75 186.65
L 295.5 188.25
Q 295.95 188.5 296.15 188.85 296.4 189.2 296.4 189.6 296.4 191.3 293.6 191.3 291.5 191.3 289.75 190
L 289.75 192.9
Q 291.45 193.6 293.65 193.6 294.7 193.6 295.85 193.35 296.7 193.15 297.75 192.6 298.55 192.05 299 191.3 299.5 190.5 299.5 189.45 299.5 188.6 299.2 188 298.9 187.35 298.45 186.9 298 186.45 297.2 186.05
L 295.65 185.3 Z"/>
</g>

<g id="Layer10_0_MEMBER_15_MEMBER_14_FILL">
<path fill="#010101" stroke="none" d="
M 303.25 180.2
Q 302.45 180.75 302 181.5 301.55 182.25 301.55 183.25 301.55 184 301.8 184.65 302.05 185.25 302.45 185.75 302.95 186.25 303.6 186.55
L 307.35 188.15 308 188.75
Q 308.25 189.1 308.25 189.55 308.25 191.2 305.45 191.25 303.35 191.25 301.6 189.95
L 301.6 192.8
Q 303.25 193.55 305.5 193.55 306.65 193.55 307.7 193.25 308.8 193 309.55 192.5 310.45 191.95 310.85 191.2 311.35 190.35 311.35 189.4 311.25 188.3 311.05 187.9 310.8 187.35 310.3 186.8 309.65 186.25 309.05 185.95
L 305.4 184.4
Q 305 184.15 304.85 183.85 304.65 183.6 304.65 183.1 304.65 182.7 304.85 182.45 305 182.15 305.35 181.9 305.85 181.65 306.15 181.6
L 307.25 181.45
Q 309.2 181.45 310.55 182.45
L 310.55 179.7
Q 309.2 179.15 307.15 179.15 306.1 179.15 305.05 179.45 304.1 179.7 303.25 180.2 Z"/>
</g>

<g id="Layer10_0_MEMBER_15_MEMBER_15_FILL">
<path fill="#010101" stroke="none" d="
M 132 217.25
L 132 214.85 128.9 214.85 129 234.9 132.1 234.9 132.05 226.55 132.1 226.55
Q 133.6 228.85 136.2 228.85 139.05 228.85 140.7 226.75 142.3 224.7 142.3 221.25 142.3 218.2 140.8 216.3 139.4 214.5 136.7 214.5 133.65 214.5 132.05 217.25
L 132 217.25
M 132 221.15
Q 132 219.35 133 218.2 134.05 217 135.7 217 137.25 217 138.15 218.1 139.1 219.25 139.1 221.3 139.1 223.75 138.15 225.05 137.2 226.4 135.45 226.4 133.95 226.4 133 225.4 132.1 224.4 132 222.85
L 132 221.15 Z"/>
</g>

<g id="Layer10_0_MEMBER_15_MEMBER_16_FILL">
<path fill="#010101" stroke="none" d="
M 146.45 216.45
Q 144.6 218.45 144.6 221.7 144.6 225.05 146.35 226.95 148.05 228.8 151.1 228.8 154.25 228.8 156.1 227.6
L 156.05 225.1
Q 154.2 226.4 152.05 226.4 150 226.4 148.95 225.4 147.8 224.35 147.75 222.45
L 157.1 222.4 157.1 221.2
Q 157.1 217.95 155.55 216.2 154 214.4 151.15 214.4 148.35 214.4 146.45 216.45
M 147.75 220.25
Q 148 218.65 148.85 217.7 149.85 216.7 151.15 216.7 152.5 216.7 153.3 217.65 154.1 218.6 154.1 220.25
L 147.75 220.25 Z"/>
</g>

<g id="Layer10_0_MEMBER_15_MEMBER_17_FILL">
<path fill="#010101" stroke="none" d="
M 160.05 214.7
L 160.1 228.4 163.25 228.4 163.2 221.85
Q 163.2 219.65 164.1 218.45 165 217.15 166.4 217.15 167.45 217.15 168.05 217.6
L 168 214.65
Q 167.5 214.4 166.7 214.4 165.6 214.4 164.6 215.25 163.6 216.1 163.25 217.5
L 163.15 217.5 163.15 214.65 160.05 214.7 Z"/>
</g>

<g id="Layer10_0_MEMBER_15_MEMBER_18_FILL">
<path fill="#010101" stroke="none" d="
M 189.65 220.8
Q 189.65 219.05 190.45 217.9 191.35 216.65 192.55 216.65 194 216.65 194.6 217.6 195.2 218.55 195.25 220.75
L 195.25 228.2 198.4 228.2 198.35 219.75
Q 198.3 214.15 193.75 214.15 190.8 214.15 189.2 217.05 188.8 215.75 187.75 215 186.75 214.2 185.25 214.2 182.45 214.2 180.95 216.75
L 180.9 216.75 180.9 214.55 177.75 214.6 177.85 228.3 180.95 228.3 180.9 220.85
Q 180.9 219 181.7 217.85 182.55 216.7 183.8 216.7 186.5 216.7 186.5 220.5
L 186.55 228.25 189.7 228.25 189.65 220.8 Z"/>
</g>

<g id="Layer10_0_MEMBER_15_MEMBER_19_FILL">
<path fill="#010101" stroke="none" d="
M 207.85 214.1
Q 205 214.1 203.1 216.15 201.25 218.15 201.25 221.35 201.25 224.8 203 226.6 204.7 228.45 207.8 228.45 210.9 228.45 212.75 227.25
L 212.7 224.75
Q 211 226 208.7 226.1 206.75 226.1 205.6 225.05 204.5 224.1 204.4 222.15
L 213.8 222.1 213.75 220.9
Q 213.75 217.6 212.2 215.85 210.6 214.05 207.85 214.1
M 210.75 219.9
L 204.4 219.95
Q 204.65 218.25 205.55 217.35 206.4 216.45 207.8 216.35 209.15 216.35 209.95 217.3 210.75 218.15 210.75 219.9 Z"/>
</g>

<g id="Layer10_0_MEMBER_15_MEMBER_20_FILL">
<path fill="#010101" stroke="none" d="
M 237.25 219.5
Q 237.25 213.9 232.7 213.95 229.65 213.95 228.15 216.8 227.75 215.5 226.7 214.75 225.65 214 224.2 214 221.35 214 219.9 216.5
L 219.85 216.5 219.8 214.35 216.7 214.35 216.8 228.1 219.9 228.05 219.85 220.65
Q 219.85 218.75 220.65 217.65 221.4 216.55 222.7 216.45 225.45 216.45 225.45 220.3
L 225.5 228.05 228.6 228 228.55 220.6
Q 228.55 218.9 229.4 217.65 230.2 216.5 231.45 216.4 232.85 216.4 233.55 217.35 234.15 218.35 234.15 220.5
L 234.2 228 237.3 227.95 237.25 219.5 Z"/>
</g>

<g id="Layer10_0_MEMBER_15_MEMBER_21_FILL">
<path fill="#010101" stroke="none" d="
M 244.2 216.6
L 244.15 216.6 244.1 207.6 241 207.6 241.1 227.95 244.25 227.9 244.2 225.95 244.25 225.95
Q 245.7 228.25 248.35 228.2 251.2 228.2 252.85 226.15 254.45 224.1 254.45 220.6 254.45 217.55 252.95 215.65 251.45 213.85 248.85 213.85 245.75 213.85 244.2 216.6
M 244.15 220.5
Q 244.15 218.75 245.15 217.5 246.2 216.35 247.85 216.3 249.4 216.3 250.3 217.45 251.25 218.55 251.25 220.6 251.25 223.1 250.3 224.4 249.35 225.75 247.6 225.75 246.15 225.75 245.15 224.75 244.25 223.75 244.15 222.2
L 244.15 220.5 Z"/>
</g>

<g id="Layer10_0_MEMBER_15_MEMBER_22_FILL">
<path fill="#010101" stroke="none" d="
M 269.25 221.75
L 269.25 220.55
Q 269.25 217.3 267.7 215.55 266.15 213.75 263.3 213.75 260.5 213.75 258.6 215.8 256.75 217.8 256.75 221.05 256.75 224.4 258.5 226.3 260.2 228.15 263.25 228.15 266.4 228.1 268.25 226.9
L 268.2 224.4
Q 266.4 225.75 264.2 225.75 262.25 225.75 261.1 224.75 259.95 223.7 259.9 221.8
L 269.25 221.75
M 265.45 216.95
Q 266.25 218 266.25 219.55
L 259.9 219.6
Q 260.15 218 261 217.05 262 216.05 263.3 216.05 264.7 216.05 265.45 216.95 Z"/>
</g>

<g id="Layer10_0_MEMBER_15_MEMBER_23_FILL">
<path fill="#010101" stroke="none" d="
M 280.15 214
Q 279.8 213.75 278.85 213.75 277.7 213.75 276.75 214.55 275.75 215.45 275.4 216.85
L 275.3 216.85 275.3 214 272.2 214 272.25 227.75 275.4 227.75 275.35 221.15
Q 275.35 219.05 276.25 217.75 277.2 216.5 278.55 216.5 279.6 216.5 280.2 216.95
L 280.15 214 Z"/>
</g>

<path id="Layer10_0_MEMBER_6_1_STROKES" stroke="#010101" stroke-width="28.3" stroke-linejoin="miter" stroke-linecap="butt" stroke-miterlimit="3" fill="none" d="
M 27.4727783203125 564.810887145996
L 24.82361755371094 109.25335235595702 101.79645538330078 108.81182556152345 101.84551391601562 117.740478515625 281.8903289794922 116.66119079589845 281.8903289794922 109.74393768310546 363.32749328613284 109.25335235595702 365.9766540527344 563.1919555664062 27.4727783203125 564.810887145996 Z"/>
</defs>

<g transform="matrix( 0.981170654296875, 0, 0, 0.981170654296875, 0,0) ">
<use xlink:href="#Layer10_0_MEMBER_0_FILL"/>
</g>

<g transform="matrix( 0.981170654296875, 0, 0, 0.981170654296875, 0,0) ">
<use xlink:href="#Layer10_0_MEMBER_1_FILL"/>
</g>

<g transform="matrix( 0.981170654296875, 0, 0, 0.981170654296875, 0,0) ">
<use xlink:href="#Layer10_0_MEMBER_2_FILL"/>
</g>

<g transform="matrix( 0.981170654296875, 0, 0, 0.981170654296875, 0,0) ">
<use xlink:href="#Layer10_0_MEMBER_3_FILL"/>
</g>

<g transform="matrix( 0.981170654296875, 0, 0, 0.981170654296875, 0,0) ">
<use xlink:href="#Layer10_0_MEMBER_4_FILL"/>
</g>

<g transform="matrix( 0.981170654296875, 0, 0, 0.981170654296875, 0,0) ">
<use xlink:href="#Layer10_0_MEMBER_5_FILL"/>
</g>

<g transform="matrix( 0.981170654296875, 0, 0, 0.981170654296875, 0,0) ">
<use xlink:href="#Layer10_0_MEMBER_6_FILL"/>

<use xlink:href="#Layer10_0_MEMBER_6_1_STROKES" transform="matrix( 1.0191802978515625, 0, 0, 1.0191802978515625, 0,0) "/>
</g>

<g transform="matrix( 0.981170654296875, 0, 0, 0.981170654296875, 0,0) ">
<use xlink:href="#Layer10_0_MEMBER_7_FILL"/>
</g>

<g transform="matrix( 0.981170654296875, 0, 0, 0.981170654296875, 0,0) ">
<use xlink:href="#Layer10_0_MEMBER_8_FILL"/>
</g>

<g transform="matrix( 0.981170654296875, 0, 0, 0.981170654296875, 0,0) ">
<use xlink:href="#Layer10_0_MEMBER_9_FILL"/>
</g>

<g transform="matrix( 0.981170654296875, 0, 0, 0.981170654296875, 0,0) ">
<use xlink:href="#Layer10_0_MEMBER_10_FILL"/>
</g>

<g transform="matrix( 0.981170654296875, 0, 0, 0.981170654296875, 100.85,290.75) ">
<g transform="matrix( 1, 0, 0, 1, 0,0) ">
<use filter="url(#Filter_1)" xlink:href="#about_cfr_easel1_svg_svg55536_circle52450_0_Layer0_0_FILL"/>
</g>
</g>

<g transform="matrix( 0.981170654296875, 0, 0, 0.981170654296875, 0,0) ">
<use xlink:href="#Layer10_0_MEMBER_12_FILL"/>
</g>

<g transform="matrix( 0.981170654296875, 0, 0, 0.981170654296875, 0,0) ">
<use xlink:href="#Layer10_0_MEMBER_13_FILL"/>
</g>

<g transform="matrix( 0.981170654296875, 0, 0, 0.981170654296875, 0,0) ">
<use xlink:href="#Layer10_0_MEMBER_14_FILL"/>
</g>

<g transform="matrix( 0.98114013671875, 0, 0, 0.98114013671875, 0,0) ">
<use xlink:href="#Layer10_0_MEMBER_15_MEMBER_0_FILL"/>
</g>

<g transform="matrix( 0.98114013671875, 0, 0, 0.98114013671875, 0,0) ">
<use xlink:href="#Layer10_0_MEMBER_15_MEMBER_1_FILL"/>
</g>

<g transform="matrix( 0.98114013671875, 0, 0, 0.98114013671875, 0,0) ">
<use xlink:href="#Layer10_0_MEMBER_15_MEMBER_2_FILL"/>
</g>

<g transform="matrix( 0.98114013671875, 0, 0, 0.98114013671875, 0,0) ">
<use xlink:href="#Layer10_0_MEMBER_15_MEMBER_3_FILL"/>
</g>

<g transform="matrix( 0.98114013671875, 0, 0, 0.98114013671875, 0,0) ">
<use xlink:href="#Layer10_0_MEMBER_15_MEMBER_4_FILL"/>
</g>

<g transform="matrix( 0.98114013671875, 0, 0, 0.98114013671875, 0,0) ">
<use xlink:href="#Layer10_0_MEMBER_15_MEMBER_5_FILL"/>
</g>

<g transform="matrix( 0.98114013671875, 0, 0, 0.98114013671875, 0,0) ">
<use xlink:href="#Layer10_0_MEMBER_15_MEMBER_6_FILL"/>
</g>

<g transform="matrix( 0.98114013671875, 0, 0, 0.98114013671875, 0,0) ">
<use xlink:href="#Layer10_0_MEMBER_15_MEMBER_7_FILL"/>
</g>

<g transform="matrix( 0.98114013671875, 0, 0, 0.98114013671875, 0,0) ">
<use xlink:href="#Layer10_0_MEMBER_15_MEMBER_8_FILL"/>
</g>

<g transform="matrix( 0.98114013671875, 0, 0, 0.98114013671875, 0,0) ">
<use xlink:href="#Layer10_0_MEMBER_15_MEMBER_9_FILL"/>
</g>

<g transform="matrix( 0.98114013671875, 0, 0, 0.98114013671875, 0,0) ">
<use xlink:href="#Layer10_0_MEMBER_15_MEMBER_10_FILL"/>
</g>

<g transform="matrix( 0.98114013671875, 0, 0, 0.98114013671875, 0,0) ">
<use xlink:href="#Layer10_0_MEMBER_15_MEMBER_11_FILL"/>
</g>

<g transform="matrix( 0.98114013671875, 0, 0, 0.98114013671875, 0,0) ">
<use xlink:href="#Layer10_0_MEMBER_15_MEMBER_12_FILL"/>
</g>

<g transform="matrix( 0.98114013671875, 0, 0, 0.98114013671875, 0,0) ">
<use xlink:href="#Layer10_0_MEMBER_15_MEMBER_13_FILL"/>
</g>

<g transform="matrix( 0.98114013671875, 0, 0, 0.98114013671875, 0,0) ">
<use xlink:href="#Layer10_0_MEMBER_15_MEMBER_14_FILL"/>
</g>

<g transform="matrix( 0.98114013671875, 0, 0, 0.98114013671875, 0,0) ">
<use xlink:href="#Layer10_0_MEMBER_15_MEMBER_15_FILL"/>
</g>

<g transform="matrix( 0.98114013671875, 0, 0, 0.98114013671875, 0,0) ">
<use xlink:href="#Layer10_0_MEMBER_15_MEMBER_16_FILL"/>
</g>

<g transform="matrix( 0.98114013671875, 0, 0, 0.98114013671875, 0,0) ">
<use xlink:href="#Layer10_0_MEMBER_15_MEMBER_17_FILL"/>
</g>

<g transform="matrix( 0.98114013671875, 0, 0, 0.98114013671875, 0,0) ">
<use xlink:href="#Layer10_0_MEMBER_15_MEMBER_18_FILL"/>
</g>

<g transform="matrix( 0.98114013671875, 0, 0, 0.98114013671875, 0,0) ">
<use xlink:href="#Layer10_0_MEMBER_15_MEMBER_19_FILL"/>
</g>

<g transform="matrix( 0.98114013671875, 0, 0, 0.98114013671875, 0,0) ">
<use xlink:href="#Layer10_0_MEMBER_15_MEMBER_20_FILL"/>
</g>

<g transform="matrix( 0.98114013671875, 0, 0, 0.98114013671875, 0,0) ">
<use xlink:href="#Layer10_0_MEMBER_15_MEMBER_21_FILL"/>
</g>

<g transform="matrix( 0.98114013671875, 0, 0, 0.98114013671875, 0,0) ">
<use xlink:href="#Layer10_0_MEMBER_15_MEMBER_22_FILL"/>
</g>

<g transform="matrix( 0.98114013671875, 0, 0, 0.98114013671875, 0,0) ">
<use xlink:href="#Layer10_0_MEMBER_15_MEMBER_23_FILL"/>
</g>
</svg>
