
<svg xmlns="http://www.w3.org/2000/svg" version="1.1" xmlns:xlink="http://www.w3.org/1999/xlink" preserveAspectRatio="none" x="0px" y="0px" width="145px" height="262px" viewBox="0 0 145 262">
<defs>
<g id="Layer0_0_FILL">
<path fill="#F0F0F0" stroke="none" d="
M 100.55 193.05
Q 95.05 191.95 89.05 192.75 88.5 192.8 87.95 192.95 74.65 195.1 66.4 205.9 57.85 217.25 59.75 231.3 61.65 245.35 72.9 253.9 81.25 260.2 91.05 260.85 94.55 261.1 98.25 260.6 102.85 259.95 106.8 258.35 115.1 255 120.85 247.4 129.45 236.15 127.55 222.1 125.65 208.05 114.35 199.4 107.95 194.55 100.55 193.05 Z"/>

<path fill="#B6E2DF" stroke="none" d="
M 62.95 0.75
L 74.25 83.85
Q 93.25 72.95 117.6 73.5 104.9 24.35 62.95 0.75
M 0.75 82.55
Q 17.05 78.7 30.25 85.9 24.9 36.85 62.95 0.75 33.1 4.8 14.85 28.75 -3.3 52.7 0.75 82.55 Z"/>

<path fill="#35B0AB" stroke="none" d="
M 30.25 85.9
Q 51.45 78.65 74.25 83.85
L 62.95 0.75
Q 24.9 36.85 30.25 85.9
M 117.6 73.5
Q 130.35 62.95 144.75 62.95 140.7 33.1 116.7 14.95 92.8 -3.3 62.95 0.75 104.9 24.35 117.6 73.5 Z"/>
</g>

<g id="Layer0_1_FILL">
<path fill="#A4E1F4" stroke="none" d="
M 63.15 201.4
L 63.2 201.7
Q 63.3 202 63.6 202.1 64 202.1 64.1 201.8 64.15 201.6 64.1 201.35
L 63.65 199.8 63.15 201.4
M 90.1 213.4
L 90.45 213.75
Q 90.65 214.2 90.05 214.4 88.95 214.5 87.9 214.15 85.7 213.4 85.7 211.2
L 85.7 210.8
Q 85.3 210.7 84.9 210.7
L 85 212.9
Q 85.35 214.1 86 214.6
L 86.2 215.2
Q 86.15 215.75 85.15 215.5 84.4 215.4 83.65 214.9 82.15 213.8 82.05 211.65
L 82.05 210.6
Q 81.95 210.6 81.85 210.6 81.5 210.6 81.2 210.6
L 81.2 211.65
Q 81.1 213.8 79.6 214.9 78.8 215.4 78.1 215.5 77.1 215.75 77.05 215.2
L 77.25 214.6
Q 77.9 214.1 78.2 212.9
L 78.35 211.75 78.35 210.75
Q 77.95 210.75 77.5 210.8
L 77.5 211.2
Q 77.5 213.4 75.35 214.15 74.65 214.35 73.85 214.4
L 73.2 214.4
Q 72.55 214.2 72.8 213.75
L 73.15 213.4
Q 74.1 213.05 74.55 212.05
L 74.8 211.2
Q 72.55 211.55 70.55 212.25 65.9 213.9 65.9 216.2 65.9 218.5 70.55 220.15 75.25 221.75 81.85 221.75 88.45 221.75 93.1 220.15 97.75 218.5 97.75 216.2 97.75 213.9 93.1 212.25 91 211.5 88.4 211.1
L 88.4 211.15 88.65 212.05
Q 89.15 213.05 90.1 213.4 Z"/>

<path fill="#171615" stroke="none" d="
M 67.95 171.9
L 67.5 171.95
Q 66.55 174.3 66.7 176.6 66.8 178 67.2 179 64.45 182 64.45 186.15 64.45 189.65 65.25 192.05 62.55 191.95 59.85 192.1 56.3 192.25 53.25 192.85
L 53.3 193.1
Q 56.35 192.5 59.95 192.3 62.6 192.15 65.4 192.25 65.55 192.75 65.85 193.3 63 193.4 60.25 193.75 56.45 194.2 53.3 195.1
L 53.4 195.3
Q 56.55 194.4 60.35 193.9 63.15 193.6 65.95 193.5 67.25 196 69.85 197.45 72.65 198.95 77.05 199.45 75.45 200.5 75 202.6 73.4 203.4 71.85 203.3 69.35 203.2 67.9 200.75 67.6 200.15 67 199.6 65.8 198.4 64.3 198.3
L 63.4 198.5
Q 62.8 198.85 64.15 199.75
L 65.05 200.45
Q 66.1 201.5 66.75 203.2
L 67.05 203.9
Q 67.55 204.7 68.3 205.3 70.65 207.3 74.8 206.35
L 74.8 211.2 74.55 212.05
Q 74.1 213.05 73.15 213.4
L 72.8 213.75
Q 72.55 214.2 73.2 214.4
L 73.85 214.4
Q 74.65 214.35 75.35 214.15 77.5 213.4 77.5 211.2
L 77.5 210.8 77.5 206
Q 77.5 205.45 77.55 204.85 77.75 203.65 78.35 203.2
L 78.35 210.75 78.35 211.75 78.2 212.9
Q 77.9 214.1 77.25 214.6
L 77.05 215.2
Q 77.1 215.75 78.1 215.5 78.8 215.4 79.6 214.9 81.1 213.8 81.2 211.65
L 81.2 210.6 81.25 202.95 81.95 202.95 82.05 210.6 82.05 211.65
Q 82.15 213.8 83.65 214.9 84.4 215.4 85.15 215.5 86.15 215.75 86.2 215.2
L 86 214.6
Q 85.35 214.1 85 212.9
L 84.9 210.7 84.9 203.25
Q 85.5 203.75 85.7 204.9 85.75 205.5 85.7 206
L 85.7 210.8 85.7 211.2
Q 85.7 213.4 87.9 214.15 88.95 214.5 90.05 214.4 90.65 214.2 90.45 213.75
L 90.1 213.4
Q 89.15 213.05 88.65 212.05
L 88.4 211.15 88.4 211.1 88.4 204.25
Q 88.4 200.95 86.2 199.45 90.85 198.95 93.5 197.45 96 196 97.1 193.5 99.95 193.55 102.75 193.9 106.65 194.4 109.85 195.3
L 109.9 195.1
Q 106.7 194.15 102.8 193.7 100.05 193.35 97.2 193.3 97.45 192.75 97.55 192.25 100.4 192.15 103.1 192.25 106.8 192.45 109.95 193.1
L 110 192.85
Q 106.85 192.25 103.15 192.1 100.4 191.9 97.6 192.05 98.25 189.8 98.25 186.15 98.25 181.65 95.1 178.55 95.5 177.35 95.5 176 95.5 174 94.7 171.95 94.15 171.8 93 172.05 90.65 172.5 87.6 174.55 84.7 173.8 81.5 173.8 78.05 173.8 74.8 174.75 71.65 172.55 69.25 172.05 68.5 171.85 67.95 171.9
M 68.8 190.4
Q 68.8 188.05 70.95 186.05 72.35 184.75 75.4 184.75 77.2 184.75 81.5 185.05 83.65 185.05 87.5 184.75 90.55 184.75 91.95 186.05 93 186.95 93.6 188.05 94.15 189.2 94.15 190.4 94.15 195.55 90.4 197.2 88.9 197.85 86.4 198.1 84.75 198.25 81.5 198.25 75.35 198.25 72.5 196.85 68.8 195.1 68.8 190.4
M 72.8 203.75
Q 72.9 203.8 72.9 203.95 72.9 204.1 72.8 204.2 72.65 204.25 72.45 204.25 72.25 204.25 72.1 204.2 71.95 204.1 71.95 203.95 71.95 203.8 72.1 203.75 72.25 203.65 72.45 203.65 72.65 203.65 72.8 203.75
M 70.95 203.65
Q 71.15 203.65 71.25 203.75 71.4 203.8 71.4 203.95 71.4 204.1 71.25 204.2 71.15 204.25 70.95 204.25 70.8 204.25 70.65 204.2 70.5 204.1 70.5 203.95 70.5 203.8 70.65 203.75 70.8 203.65 70.95 203.65
M 73.6 203.5
Q 73.75 203.4 73.95 203.4 74.1 203.4 74.3 203.5 74.4 203.55 74.4 203.7 74.4 203.85 74.3 203.95 74.1 204 73.95 204 73.75 204 73.6 203.95 73.5 203.85 73.5 203.7 73.5 203.55 73.6 203.5
M 65.85 199.35
Q 65.95 199.25 66.15 199.25 66.35 199.25 66.45 199.35 66.6 199.45 66.6 199.55 66.6 199.7 66.45 199.8 66.35 199.9 66.15 199.9 65.95 199.9 65.85 199.8 65.7 199.7 65.7 199.55 65.7 199.45 65.85 199.35
M 66.6 200.25
Q 66.75 200.15 66.9 200.15 67.15 200.15 67.25 200.25 67.4 200.35 67.4 200.5 67.4 200.6 67.25 200.7 67.15 200.85 66.9 200.85 66.75 200.85 66.6 200.7 66.45 200.6 66.45 200.5 66.45 200.35 66.6 200.25
M 68 201.3
Q 68.1 201.4 68.1 201.55 68.1 201.65 68 201.8 67.8 201.9 67.6 201.9 67.45 201.9 67.3 201.8 67.15 201.65 67.15 201.55 67.15 201.4 67.3 201.3 67.45 201.2 67.6 201.2 67.8 201.2 68 201.3
M 67.95 202.55
Q 67.95 202.4 68.1 202.35 68.2 202.25 68.4 202.25 68.6 202.25 68.75 202.35 68.9 202.4 68.9 202.55 68.9 202.7 68.75 202.75 68.6 202.85 68.4 202.85 68.2 202.85 68.1 202.75 67.95 202.7 67.95 202.55
M 69.5 203.7
Q 69.25 203.7 69.15 203.6 69.05 203.55 69.05 203.4 69.05 203.25 69.15 203.2 69.25 203.05 69.5 203.05 69.65 203.05 69.8 203.2 69.95 203.25 69.95 203.4 69.95 203.55 69.8 203.6 69.65 203.7 69.5 203.7
M 65.2 198.65
Q 65.35 198.7 65.35 198.85 65.35 198.95 65.2 199.05 65.05 199.2 64.9 199.2 64.7 199.2 64.55 199.05 64.4 198.95 64.4 198.85 64.4 198.7 64.55 198.65 64.7 198.55 64.9 198.55 65.05 198.55 65.2 198.65 Z"/>

<path fill="#C4E9D3" stroke="none" d="
M 65.35 198.85
Q 65.35 198.7 65.2 198.65 65.05 198.55 64.9 198.55 64.7 198.55 64.55 198.65 64.4 198.7 64.4 198.85 64.4 198.95 64.55 199.05 64.7 199.2 64.9 199.2 65.05 199.2 65.2 199.05 65.35 198.95 65.35 198.85
M 69.15 203.6
Q 69.25 203.7 69.5 203.7 69.65 203.7 69.8 203.6 69.95 203.55 69.95 203.4 69.95 203.25 69.8 203.2 69.65 203.05 69.5 203.05 69.25 203.05 69.15 203.2 69.05 203.25 69.05 203.4 69.05 203.55 69.15 203.6
M 68.1 202.35
Q 67.95 202.4 67.95 202.55 67.95 202.7 68.1 202.75 68.2 202.85 68.4 202.85 68.6 202.85 68.75 202.75 68.9 202.7 68.9 202.55 68.9 202.4 68.75 202.35 68.6 202.25 68.4 202.25 68.2 202.25 68.1 202.35
M 68.1 201.55
Q 68.1 201.4 68 201.3 67.8 201.2 67.6 201.2 67.45 201.2 67.3 201.3 67.15 201.4 67.15 201.55 67.15 201.65 67.3 201.8 67.45 201.9 67.6 201.9 67.8 201.9 68 201.8 68.1 201.65 68.1 201.55
M 66.9 200.15
Q 66.75 200.15 66.6 200.25 66.45 200.35 66.45 200.5 66.45 200.6 66.6 200.7 66.75 200.85 66.9 200.85 67.15 200.85 67.25 200.7 67.4 200.6 67.4 200.5 67.4 200.35 67.25 200.25 67.15 200.15 66.9 200.15
M 66.15 199.25
Q 65.95 199.25 65.85 199.35 65.7 199.45 65.7 199.55 65.7 199.7 65.85 199.8 65.95 199.9 66.15 199.9 66.35 199.9 66.45 199.8 66.6 199.7 66.6 199.55 66.6 199.45 66.45 199.35 66.35 199.25 66.15 199.25
M 73.95 203.4
Q 73.75 203.4 73.6 203.5 73.5 203.55 73.5 203.7 73.5 203.85 73.6 203.95 73.75 204 73.95 204 74.1 204 74.3 203.95 74.4 203.85 74.4 203.7 74.4 203.55 74.3 203.5 74.1 203.4 73.95 203.4
M 71.25 203.75
Q 71.15 203.65 70.95 203.65 70.8 203.65 70.65 203.75 70.5 203.8 70.5 203.95 70.5 204.1 70.65 204.2 70.8 204.25 70.95 204.25 71.15 204.25 71.25 204.2 71.4 204.1 71.4 203.95 71.4 203.8 71.25 203.75
M 72.9 203.95
Q 72.9 203.8 72.8 203.75 72.65 203.65 72.45 203.65 72.25 203.65 72.1 203.75 71.95 203.8 71.95 203.95 71.95 204.1 72.1 204.2 72.25 204.25 72.45 204.25 72.65 204.25 72.8 204.2 72.9 204.1 72.9 203.95 Z"/>

<path fill="#F5C5A9" stroke="none" d="
M 70.95 186.05
Q 68.8 188.05 68.8 190.4 68.8 195.1 72.5 196.85 75.35 198.25 81.5 198.25 84.75 198.25 86.4 198.1 88.9 197.85 90.4 197.2 94.15 195.55 94.15 190.4 94.15 189.2 93.6 188.05 93 186.95 91.95 186.05 90.55 184.75 87.5 184.75 83.65 185.05 81.5 185.05 77.2 184.75 75.4 184.75 72.35 184.75 70.95 186.05
M 76.45 188.15
Q 77.25 189.2 77.25 190.8 77.25 192.4 76.45 193.45 75.7 194.6 74.6 194.6 73.5 194.6 72.75 193.45 71.95 192.4 71.95 190.8 71.95 189.2 72.75 188.15 73.5 187 74.6 187 75.7 187 76.45 188.15
M 79.95 195.65
Q 80 195.6 80.1 195.55 80.2 195.55 80.25 195.55 80.3 195.6 80.35 195.7 80.5 196.05 80.8 196.25 81.15 196.5 81.5 196.5 81.85 196.5 82.2 196.25 82.5 196.05 82.65 195.7 82.7 195.5 82.9 195.55 83.1 195.65 83 195.85 82.9 196.35 82.45 196.6 82 196.95 81.5 196.95 81 196.95 80.55 196.6 80.15 196.35 79.95 195.85 79.95 195.75 79.95 195.65
M 88.75 187
Q 89.85 187 90.65 188.15 91.4 189.2 91.4 190.8 91.4 192.4 90.65 193.45 89.85 194.6 88.75 194.6 87.7 194.6 86.9 193.45 86.15 192.4 86.15 190.8 86.15 189.2 86.9 188.15 87.7 187 88.75 187
M 81.95 193.7
Q 82.2 193.9 82.2 194.15 82.2 194.45 81.95 194.65 81.75 194.85 81.5 194.85 81.25 194.85 81 194.65 80.85 194.45 80.85 194.15 80.85 193.9 81 193.7 81.25 193.5 81.5 193.5 81.75 193.5 81.95 193.7 Z"/>

<path fill="#AB4B4A" stroke="none" d="
M 82.2 194.15
Q 82.2 193.9 81.95 193.7 81.75 193.5 81.5 193.5 81.25 193.5 81 193.7 80.85 193.9 80.85 194.15 80.85 194.45 81 194.65 81.25 194.85 81.5 194.85 81.75 194.85 81.95 194.65 82.2 194.45 82.2 194.15
M 90.05 189.05
Q 89.55 188.3 88.8 188.3 88.05 188.3 87.55 189.05 87.05 189.8 87.05 190.85 87.05 191.9 87.55 192.6 88.05 193.4 88.8 193.4 89.55 193.4 90.05 192.6 90.55 191.9 90.55 190.85 90.55 189.8 90.05 189.05
M 80.1 195.55
Q 80 195.6 79.95 195.65 79.95 195.75 79.95 195.85 80.15 196.35 80.55 196.6 81 196.95 81.5 196.95 82 196.95 82.45 196.6 82.9 196.35 83 195.85 83.1 195.65 82.9 195.55 82.7 195.5 82.65 195.7 82.5 196.05 82.2 196.25 81.85 196.5 81.5 196.5 81.15 196.5 80.8 196.25 80.5 196.05 80.35 195.7 80.3 195.6 80.25 195.55 80.2 195.55 80.1 195.55
M 75.9 189.05
Q 75.4 188.3 74.65 188.3 73.9 188.3 73.4 189.05 72.9 189.8 72.9 190.85 72.9 191.9 73.4 192.6 73.9 193.4 74.65 193.4 75.4 193.4 75.9 192.6 76.4 191.9 76.4 190.85 76.4 189.8 75.9 189.05 Z"/>

<path fill="#FFFFFF" stroke="none" d="
M 90.65 188.15
Q 89.85 187 88.75 187 87.7 187 86.9 188.15 86.15 189.2 86.15 190.8 86.15 192.4 86.9 193.45 87.7 194.6 88.75 194.6 89.85 194.6 90.65 193.45 91.4 192.4 91.4 190.8 91.4 189.2 90.65 188.15
M 88.8 188.3
Q 89.55 188.3 90.05 189.05 90.55 189.8 90.55 190.85 90.55 191.9 90.05 192.6 89.55 193.4 88.8 193.4 88.05 193.4 87.55 192.6 87.05 191.9 87.05 190.85 87.05 189.8 87.55 189.05 88.05 188.3 88.8 188.3
M 77.25 190.8
Q 77.25 189.2 76.45 188.15 75.7 187 74.6 187 73.5 187 72.75 188.15 71.95 189.2 71.95 190.8 71.95 192.4 72.75 193.45 73.5 194.6 74.6 194.6 75.7 194.6 76.45 193.45 77.25 192.4 77.25 190.8
M 74.65 188.3
Q 75.4 188.3 75.9 189.05 76.4 189.8 76.4 190.85 76.4 191.9 75.9 192.6 75.4 193.4 74.65 193.4 73.9 193.4 73.4 192.6 72.9 191.9 72.9 190.85 72.9 189.8 73.4 189.05 73.9 188.3 74.65 188.3 Z"/>
</g>

<g id="Mask_octocat_svg_svg2__Clip_Group__0_2_MASK_0_FILL">
<path fill="#FFFFFF" stroke="none" d="
M 102 20.1
Q 102.95 19.45 103.4 18.55 104.3 16.85 101.7 15.9 97.15 15.55 92.6 17.05 87.4970703125 18.732421875 85.25 22.4 85.398046875 21.803125 85.35 21.25 85.2 18.9 81.1 19.85 78 20.3 74.8 22.6 68.4 27.15 68 36.25
L 67.7 64.25 64.7 64.25 64.4 36.25
Q 64.05 27.15 57.65 22.6 55.65 21.15 53.25 20.35
L 51.3 19.85
Q 47.2 18.9 47.05 21.25 47.0017578125 21.805859375 47.15 22.4 44.91171875 18.73515625 39.8 17.05 36.95 16.1 33.55 15.9
L 30.7 15.9
Q 28.1 16.85 29 18.55 29.45 19.45 30.4 20.1 34.5 21.6 36.45 25.8 37.4 27.85 37.55 29.65
L 37.55 49.9 38.25 65.5
Q 40.15 74.45 47 79
L 85.45 79
Q 94.8 72.6 94.8 58.55
L 94.8 29.65 95.95 25.8
Q 97.9 21.6 102 20.1
M 84.45 23.9
Q 83.5 26.2916015625 83.5 29.35
L 83.3 55.9
Q 82.6 60.8 79.9 62.9
L 79.9 35.65
Q 80 33.5 80.6 30.9 81.8494140625 25.9986328125 84.45 23.9
M 51.75 30.9
Q 52.4 33.5 52.45 35.65
L 52.45 63.2
Q 49.75 61.3 49.05 56.15
L 48.9 29.35
Q 48.9 26.2953125 47.9 23.9 50.5490234375 26 51.75 30.9 Z"/>
</g>

<g id="octocat_svg_svg2__Clip_Group__0_Layer2_0_MEMBER_0_FILL">
<path fill="#85BFE9" stroke="none" d="
M 134.25 23.45
Q 134.25 13.75 114.6 6.85 94.95 0 67.15 0 39.35 0 19.65 6.85 0 13.75 0 23.45 0 33.2 19.65 40.1 39.3 46.95 67.15 46.95 94.95 46.95 114.6 40.1 134.25 33.2 134.25 23.45 Z"/>
</g>

<path id="Layer0_0_1_STROKES" stroke="#CCCCCC" stroke-width="2" stroke-linejoin="round" stroke-linecap="round" fill="none" d="
M 117.6 73.5
L 89.05 192.75 144.75 62.95
M 74.25 83.85
L 89.05 192.75 0.75 82.55
M 30.25 85.9
L 89.05 192.75"/>
</defs>

<g transform="matrix( 1, 0, 0, 1, 0,0) ">
<use xlink:href="#Layer0_0_FILL"/>

<use xlink:href="#Layer0_0_1_STROKES"/>
</g>

<g transform="matrix( 0.995819091796875, -0.0912628173828125, 0.0912628173828125, 0.995819091796875, -5.3,42.65) ">
<use xlink:href="#Layer0_1_FILL"/>
</g>

<g transform="matrix( 0.236328125, -0.0216522216796875, 0.0216522216796875, 0.236328125, 79.5,246.4) ">
<mask id="Mask_Mask_1">
<g transform="matrix( 1, 0, 0, 1, 0,0) ">
<use xlink:href="#Mask_octocat_svg_svg2__Clip_Group__0_2_MASK_0_FILL"/>
</g>
</mask>

<g mask="url(#Mask_Mask_1)">
<g transform="matrix( 1, 0, 0, 1, 0,0) ">
<use xlink:href="#octocat_svg_svg2__Clip_Group__0_Layer2_0_MEMBER_0_FILL"/>
</g>
</g>
</g>
</svg>
