
<svg xmlns="http://www.w3.org/2000/svg" version="1.1" xmlns:xlink="http://www.w3.org/1999/xlink" preserveAspectRatio="none" x="0px" y="0px" width="145px" height="262px" viewBox="0 0 145 262">
<defs>
<g id="Layer0_0_FILL">
<path fill="#F0F0F0" stroke="none" d="
M 100.55 193.05
Q 95.05 191.95 89.05 192.75 88.5 192.8 87.95 192.95 74.65 195.1 66.4 205.9 57.85 217.25 59.75 231.3 61.65 245.35 72.9 253.9 81.25 260.2 91.05 260.85 94.55 261.1 98.25 260.6 102.85 259.95 106.8 258.35 115.1 255 120.85 247.4 129.45 236.15 127.55 222.1 125.65 208.05 114.35 199.4 107.95 194.55 100.55 193.05 Z"/>

<path fill="#35B0AB" stroke="none" d="
M 74.25 83.85
L 62.95 0.75
Q 24.9 36.85 30.25 85.9 51.45 78.65 74.25 83.85
M 117.6 73.5
Q 130.35 62.95 144.75 62.95 140.7 33.1 116.7 14.95 92.8 -3.3 62.95 0.75 104.9 24.35 117.6 73.5 Z"/>

<path fill="#B6E2DF" stroke="none" d="
M 62.95 0.75
L 74.25 83.85
Q 93.25 72.95 117.6 73.5 104.9 24.35 62.95 0.75
M 0.75 82.55
Q 17.05 78.7 30.25 85.9 24.9 36.85 62.95 0.75 33.1 4.8 14.85 28.75 -3.3 52.7 0.75 82.55 Z"/>
</g>

<path id="Layer0_0_1_STROKES" stroke="#CCCCCC" stroke-width="2" stroke-linejoin="round" stroke-linecap="round" fill="none" d="
M 117.6 73.5
L 89.05 192.75 144.75 62.95
M 74.25 83.85
L 89.05 192.75 0.75 82.55
M 30.25 85.9
L 89.05 192.75"/>
</defs>

<g transform="matrix( 1, 0, 0, 1, 0,0) ">
<use xlink:href="#Layer0_0_FILL"/>

<use xlink:href="#Layer0_0_1_STROKES"/>
</g>
</svg>
