
<svg xmlns="http://www.w3.org/2000/svg" version="1.1" xmlns:xlink="http://www.w3.org/1999/xlink" preserveAspectRatio="none" x="0px" y="0px" width="382px" height="502px" viewBox="0 0 382 502">
<defs>
<g id="Layer9_0_FILL">
<path fill="#38AFAA" stroke="none" d="
M 538.3 -1210
Q 521.9 -1210 510.35 -1198.45 498.8 -1186.9 498.8 -1170.5
L 498.8 -747.35
Q 498.8 -730.9 510.35 -719.4 521.9 -707.85 538.3 -707.85
L 841.75 -707.85
Q 858.2 -707.85 869.7 -719.4 881.25 -730.9 881.25 -747.35
L 881.25 -1170.5
Q 881.25 -1186.9 869.7 -1198.45 858.2 -1210 841.75 -1210
L 538.3 -1210
M 528 -1145.2
Q 528 -1157.55 536.7 -1166.25 545.4 -1174.9 557.75 -1174.9
L 822.3 -1174.9
Q 834.65 -1174.9 843.3 -1166.25 852 -1157.55 852 -1145.2
L 852 -1111
Q 852 -1098.65 843.3 -1090 834.65 -1081.3 822.3 -1081.3
L 557.75 -1081.3
Q 545.4 -1081.3 536.7 -1090 528 -1098.65 528 -1111
L 528 -1145.2
M 542.85 -1012
Q 542.85 -1023.55 551.05 -1031.75 559.25 -1039.9 570.8 -1039.9 582.35 -1039.9 590.5 -1031.75 598.7 -1023.55 598.7 -1012 598.7 -1000.45 590.5 -992.25 582.35 -984.1 570.8 -984.1 559.25 -984.1 551.05 -992.25 542.85 -1000.45 542.85 -1012
M 623.9 -1012
Q 623.9 -1023.55 632.05 -1031.75 640.25 -1039.9 651.8 -1039.9 663.3 -1039.9 671.5 -1031.75 679.7 -1023.55 679.7 -1012 679.7 -1000.45 671.5 -992.25 663.3 -984.1 651.8 -984.1 640.25 -984.1 632.05 -992.25 623.9 -1000.45 623.9 -1012
M 570.8 -960.7
Q 582.35 -960.7 590.5 -952.55 598.7 -944.35 598.7 -932.8 598.7 -921.25 590.5 -913.1 582.3 -904.9 570.8 -904.9 559.25 -904.9 551.05 -913.1 542.85 -921.25 542.85 -932.8 542.85 -944.35 551.05 -952.55 559.25 -960.7 570.8 -960.7
M 632.05 -913.1
Q 623.9 -921.25 623.9 -932.8 623.9 -944.35 632.05 -952.55 640.25 -960.7 651.8 -960.7 663.3 -960.7 671.5 -952.55 679.7 -944.35 679.7 -932.8 679.7 -921.25 671.5 -913.1 663.3 -904.9 651.8 -904.9 640.25 -904.9 632.05 -913.1
M 542.85 -855.4
Q 542.85 -866.95 551.05 -875.15 559.25 -883.3 570.8 -883.3 582.35 -883.3 590.5 -875.15 598.7 -866.95 598.7 -855.4 598.7 -843.85 590.5 -835.7 582.35 -827.5 570.8 -827.5 559.25 -827.5 551.05 -835.7 542.85 -843.85 542.85 -855.4
M 623.9 -855.4
Q 623.9 -866.95 632.05 -875.15 640.25 -883.3 651.8 -883.3 663.3 -883.3 671.5 -875.15 679.7 -866.95 679.7 -855.4 679.7 -843.85 671.5 -835.7 663.3 -827.5 651.8 -827.5 640.25 -827.5 632.05 -835.7 623.9 -843.85 623.9 -855.4
M 837.15 -1012
Q 837.15 -1000.45 828.95 -992.25 820.8 -984.1 809.25 -984.1 797.7 -984.1 789.55 -992.25 781.35 -1000.45 781.35 -1012 781.35 -1023.55 789.55 -1031.75 797.7 -1039.9 809.25 -1039.9 820.8 -1039.9 828.95 -1031.75 837.15 -1023.55 837.15 -1012
M 702.15 -1012
Q 702.15 -1023.55 710.35 -1031.75 718.55 -1039.9 730.05 -1039.9 741.6 -1039.9 749.8 -1031.75 758 -1023.55 758 -1012 758 -1000.45 749.8 -992.25 741.6 -984.1 730.05 -984.1 718.55 -984.1 710.35 -992.25 702.15 -1000.45 702.15 -1012
M 789.55 -952.55
Q 797.7 -960.7 809.25 -960.7 820.8 -960.7 828.95 -952.55 837.15 -944.35 837.15 -932.8 837.15 -921.25 828.95 -913.1 820.8 -904.9 809.25 -904.9 797.7 -904.9 789.55 -913.1 781.35 -921.25 781.35 -932.8 781.35 -944.35 789.55 -952.55
M 730.05 -960.7
Q 741.6 -960.7 749.8 -952.55 758 -944.35 758 -932.8 758 -921.25 749.8 -913.1 741.6 -904.9 730.05 -904.9 718.55 -904.9 710.35 -913.1 702.15 -921.25 702.15 -932.8 702.15 -944.35 710.35 -952.55 718.55 -960.7 730.05 -960.7
M 702.15 -855.4
Q 702.15 -866.95 710.35 -875.15 718.55 -883.3 730.05 -883.3 741.6 -883.3 749.8 -875.15 758 -866.95 758 -855.4 758 -843.85 749.8 -835.7 741.6 -827.5 730.05 -827.5 718.55 -827.5 710.35 -835.7 702.15 -843.85 702.15 -855.4
M 789.55 -875.15
Q 797.7 -883.3 809.25 -883.3 820.8 -883.3 828.95 -875.15 837.15 -866.95 837.15 -855.4 837.15 -843.85 828.95 -835.7 820.8 -827.5 809.25 -827.5 797.7 -827.5 789.55 -835.7 781.35 -843.85 781.35 -855.4 781.35 -866.95 789.55 -875.15
M 837.15 -770.85
Q 837.15 -759.3 828.95 -751.1 820.8 -742.95 809.25 -742.95 797.7 -742.95 789.55 -751.1 781.35 -759.25 781.35 -770.85 781.35 -782.4 789.55 -790.55 797.7 -798.75 809.25 -798.75 820.8 -798.75 828.95 -790.55 837.15 -782.4 837.15 -770.85
M 749.8 -751.1
Q 741.6 -742.95 730.05 -742.95 718.55 -742.95 710.35 -751.1 702.15 -759.25 702.15 -770.85 702.15 -782.4 710.35 -790.55 718.55 -798.75 730.05 -798.75 741.6 -798.75 749.8 -790.55 758 -782.4 758 -770.85 758 -759.3 749.8 -751.1
M 671.5 -790.55
Q 679.7 -782.4 679.7 -770.85 679.7 -759.3 671.5 -751.1 663.3 -742.95 651.8 -742.95 640.25 -742.95 632.05 -751.1 623.9 -759.25 623.9 -770.85 623.9 -782.4 632.05 -790.55 640.25 -798.75 651.8 -798.75 663.3 -798.75 671.5 -790.55
M 590.5 -790.55
Q 598.7 -782.4 598.7 -770.85 598.7 -759.25 590.5 -751.1 582.35 -742.95 570.8 -742.95 559.25 -742.95 551.05 -751.1 542.85 -759.25 542.85 -770.85 542.85 -782.4 551.05 -790.55 559.25 -798.75 570.8 -798.75 582.3 -798.75 590.5 -790.55
M 570.7 -767.85
Q 572.25 -767.85 573.2 -768.65 574.15 -769.55 574.15 -770.85 574.15 -772.1 573.2 -773 572.25 -773.85 570.8 -773.85 569.35 -773.85 568.35 -773 567.4 -772.1 567.4 -770.85 567.4 -769.55 568.35 -768.7 569.25 -767.85 570.7 -767.85
M 648.95 -774.2
L 649.35 -779.4 658.75 -779.4 658.75 -784.1 644.95 -784.1 643.95 -769.55
Q 646.8 -769.85 648.6 -769.85 654.1 -769.85 654.1 -766 654.1 -764.1 652.85 -763 651.55 -761.95 649.25 -761.95 646.2 -761.95 643.6 -763.6
L 643.6 -758.65
Q 646.15 -757.55 649.9 -757.55 654.6 -757.55 657.25 -760.05 660 -762.55 660 -766.5 660 -770.05 657.7 -772.2 655.4 -774.3 651.4 -774.3 650.4 -774.3 648.95 -774.2
M 731.9 -768.95
L 738.95 -768.95 738.95 -772.65 731.9 -772.65 731.9 -779.7 728.25 -779.7 728.25 -772.65 721.2 -772.65 721.2 -768.95 728.25 -768.95 728.25 -761.95 731.9 -761.95 731.9 -768.95
M 818.15 -765
L 818.15 -768.7 800.4 -768.7 800.4 -765 818.15 -765
M 818.15 -772.9
L 818.15 -776.65 800.4 -776.65 800.4 -772.9 818.15 -772.9
M 800.4 -857.25
L 800.4 -853.6 818.15 -853.6 818.15 -857.25 800.4 -857.25
M 727.25 -858.8
L 727.65 -864.05 737.05 -864.05 737.05 -868.75 723.25 -868.75 722.25 -854.15
Q 724.6 -854.45 726.9 -854.45 732.4 -854.45 732.4 -850.55 732.4 -848.7 731.15 -847.65 729.8 -846.55 727.55 -846.55 724.55 -846.55 721.85 -848.2
L 721.85 -843.25
Q 724.45 -842.15 728.2 -842.15 732.85 -842.15 735.55 -844.65 738.25 -847.15 738.25 -851.1 738.25 -854.7 736 -856.75 733.75 -858.9 729.7 -858.9
L 727.25 -858.8
M 737.05 -941.4
L 737.05 -946.1 723.25 -946.1 722.25 -931.55
Q 724.6 -931.85 726.9 -931.85 732.4 -931.85 732.4 -927.95 732.4 -926.1 731.15 -925.05 729.8 -923.95 727.55 -923.95 724.55 -923.95 721.85 -925.6
L 721.85 -920.65
Q 724.45 -919.55 728.2 -919.55 732.85 -919.55 735.55 -922 738.25 -924.55 738.25 -928.5 738.25 -932.1 736 -934.15 733.7 -936.3 729.7 -936.3 728.7 -936.3 727.25 -936.2
L 727.65 -941.4 737.05 -941.4
M 800.4 -934.65
L 800.4 -930.95 818.15 -930.95 818.15 -934.65 800.4 -934.65
M 809.3 -928.1
Q 808.2 -928.1 807.45 -927.3 806.7 -926.55 806.7 -925.45 806.7 -924.45 807.45 -923.65 808.25 -922.95 809.3 -922.95 810.3 -922.95 811.05 -923.65 811.8 -924.35 811.8 -925.5 811.8 -926.6 811.1 -927.35 810.45 -928.1 809.3 -928.1
M 809.4 -942.65
Q 808.25 -942.65 807.5 -941.9 806.8 -941.1 806.8 -940.05 806.8 -939 807.55 -938.25 808.3 -937.5 809.4 -937.5 810.3 -937.5 811.1 -938.25 811.85 -939 811.85 -940.05 811.85 -941.2 811.2 -941.95 810.5 -942.65 809.4 -942.65
M 727.25 -1015.4
L 727.65 -1020.6 737.05 -1020.6 737.05 -1025.3 723.25 -1025.3 722.25 -1010.75
Q 725.05 -1011.05 726.9 -1011.05 732.4 -1011.05 732.4 -1007.15 732.4 -1005.3 731.15 -1004.2 729.8 -1003.15 727.55 -1003.15 724.55 -1003.15 721.85 -1004.8
L 721.85 -999.85
Q 724.45 -998.75 728.2 -998.75 732.85 -998.75 735.55 -1001.2 738.25 -1003.75 738.25 -1007.7 738.25 -1011.3 736 -1013.35 733.75 -1015.45 729.7 -1015.45
L 727.25 -1015.4
M 818.05 -1005.85
L 811.85 -1011.95 818.05 -1018.05 815.5 -1020.8 809.25 -1014.65 803.05 -1020.8 800.45 -1018.2 806.65 -1011.95 800.45 -1005.9 803.05 -1003.2 809.25 -1009.4 815.45 -1003.2 818.05 -1005.85
M 644.95 -868.75
L 643.95 -854.15
Q 646.35 -854.45 648.6 -854.45 654.1 -854.45 654.1 -850.55 654.1 -848.7 652.85 -847.65 651.5 -846.55 649.25 -846.55 646.25 -846.55 643.6 -848.2
L 643.6 -843.25
Q 646.15 -842.15 649.9 -842.15 654.55 -842.15 657.25 -844.65 660 -847.15 660 -851.1 660 -854.7 657.7 -856.75 655.45 -858.9 651.4 -858.9
L 648.95 -858.8 649.35 -864.05 658.75 -864.05 658.75 -868.75 644.95 -868.75
M 562.6 -848.2
L 562.6 -843.25
Q 565.15 -842.15 568.9 -842.15 573.55 -842.15 576.25 -844.65 578.95 -847.15 578.95 -851.1 578.95 -854.65 576.7 -856.75 574.45 -858.9 570.4 -858.9
L 568 -858.8 568.35 -864.05 577.75 -864.05 577.75 -868.75 563.95 -868.75 562.95 -854.15
Q 565.3 -854.45 567.6 -854.45 573.1 -854.45 573.1 -850.55 573.1 -848.7 571.85 -847.65 570.5 -846.55 568.25 -846.55 565.25 -846.55 562.6 -848.2
M 643.6 -925.6
L 643.6 -920.65
Q 646.15 -919.55 649.9 -919.55 654.55 -919.55 657.25 -922 660 -924.55 660 -928.5 660 -932.1 657.7 -934.15 655.45 -936.3 651.4 -936.3 650.4 -936.3 648.95 -936.2
L 649.35 -941.4 658.75 -941.4 658.75 -946.1 644.95 -946.1 643.95 -931.55
Q 646.35 -931.85 648.6 -931.85 654.1 -931.85 654.1 -927.95 654.1 -926.1 652.85 -925.05 651.5 -923.95 649.25 -923.95 646.25 -923.95 643.6 -925.6
M 577.75 -941.4
L 577.75 -946.1 563.95 -946.1 562.95 -931.55
Q 565.3 -931.85 567.6 -931.85 573.1 -931.85 573.1 -927.95 573.1 -926.1 571.85 -925.05 570.5 -923.95 568.25 -923.95 565.25 -923.95 562.6 -925.6
L 562.6 -920.65
Q 565.15 -919.55 568.9 -919.55 573.55 -919.55 576.25 -922 578.95 -924.55 578.95 -928.5 578.95 -932.05 576.7 -934.15 574.4 -936.3 570.4 -936.3 569.35 -936.3 568 -936.2
L 568.35 -941.4 577.75 -941.4
M 643.6 -1004.8
L 643.6 -999.85
Q 646.15 -998.75 649.9 -998.75 654.55 -998.75 657.25 -1001.2 660 -1003.75 660 -1007.7 660 -1011.3 657.7 -1013.35 655.45 -1015.45 651.4 -1015.45
L 648.95 -1015.4 649.35 -1020.6 658.75 -1020.6 658.75 -1025.3 644.95 -1025.3 643.95 -1010.75
Q 646.8 -1011.05 648.6 -1011.05 654.1 -1011.05 654.1 -1007.15 654.1 -1005.3 652.85 -1004.2 651.5 -1003.15 649.25 -1003.15 646.25 -1003.15 643.6 -1004.8
M 562.6 -1004.8
L 562.6 -999.85
Q 565.15 -998.75 568.9 -998.75 573.55 -998.75 576.25 -1001.2 578.95 -1003.75 578.95 -1007.7 578.95 -1011.25 576.7 -1013.35 574.45 -1015.45 570.4 -1015.45
L 568 -1015.4 568.35 -1020.6 577.75 -1020.6 577.75 -1025.3 563.95 -1025.3 562.95 -1010.75
Q 565.8 -1011.05 567.6 -1011.05 573.1 -1011.05 573.1 -1007.15 573.1 -1005.3 571.85 -1004.2 570.5 -1003.15 568.25 -1003.15 565.25 -1003.15 562.6 -1004.8 Z"/>

<path fill="#FFFFFF" stroke="none" d="
M 598.7 -770.85
Q 598.7 -782.4 590.5 -790.55 582.3 -798.75 570.8 -798.75 559.25 -798.75 551.05 -790.55 542.85 -782.4 542.85 -770.85 542.85 -759.25 551.05 -751.1 559.25 -742.95 570.8 -742.95 582.35 -742.95 590.5 -751.1 598.7 -759.25 598.7 -770.85
M 573.2 -768.65
Q 572.25 -767.85 570.7 -767.85 569.25 -767.85 568.35 -768.7 567.4 -769.55 567.4 -770.85 567.4 -772.1 568.35 -773 569.35 -773.85 570.8 -773.85 572.25 -773.85 573.2 -773 574.15 -772.1 574.15 -770.85 574.15 -769.55 573.2 -768.65
M 679.7 -770.85
Q 679.7 -782.4 671.5 -790.55 663.3 -798.75 651.8 -798.75 640.25 -798.75 632.05 -790.55 623.9 -782.4 623.9 -770.85 623.9 -759.25 632.05 -751.1 640.25 -742.95 651.8 -742.95 663.3 -742.95 671.5 -751.1 679.7 -759.3 679.7 -770.85
M 649.35 -779.4
L 648.95 -774.2
Q 650.4 -774.3 651.4 -774.3 655.4 -774.3 657.7 -772.2 660 -770.05 660 -766.5 660 -762.55 657.25 -760.05 654.6 -757.55 649.9 -757.55 646.15 -757.55 643.6 -758.65
L 643.6 -763.6
Q 646.2 -761.95 649.25 -761.95 651.55 -761.95 652.85 -763 654.1 -764.1 654.1 -766 654.1 -769.85 648.6 -769.85 646.8 -769.85 643.95 -769.55
L 644.95 -784.1 658.75 -784.1 658.75 -779.4 649.35 -779.4
M 730.05 -742.95
Q 741.6 -742.95 749.8 -751.1 758 -759.3 758 -770.85 758 -782.4 749.8 -790.55 741.6 -798.75 730.05 -798.75 718.55 -798.75 710.35 -790.55 702.15 -782.4 702.15 -770.85 702.15 -759.25 710.35 -751.1 718.55 -742.95 730.05 -742.95
M 738.95 -768.95
L 731.9 -768.95 731.9 -761.95 728.25 -761.95 728.25 -768.95 721.2 -768.95 721.2 -772.65 728.25 -772.65 728.25 -779.7 731.9 -779.7 731.9 -772.65 738.95 -772.65 738.95 -768.95
M 828.95 -751.1
Q 837.15 -759.3 837.15 -770.85 837.15 -782.4 828.95 -790.55 820.8 -798.75 809.25 -798.75 797.7 -798.75 789.55 -790.55 781.35 -782.4 781.35 -770.85 781.35 -759.25 789.55 -751.1 797.7 -742.95 809.25 -742.95 820.8 -742.95 828.95 -751.1
M 818.15 -776.65
L 818.15 -772.9 800.4 -772.9 800.4 -776.65 818.15 -776.65
M 818.15 -768.7
L 818.15 -765 800.4 -765 800.4 -768.7 818.15 -768.7
M 809.25 -883.3
Q 797.7 -883.3 789.55 -875.15 781.35 -866.95 781.35 -855.4 781.35 -843.85 789.55 -835.7 797.7 -827.5 809.25 -827.5 820.8 -827.5 828.95 -835.7 837.15 -843.85 837.15 -855.4 837.15 -866.95 828.95 -875.15 820.8 -883.3 809.25 -883.3
M 800.4 -853.6
L 800.4 -857.25 818.15 -857.25 818.15 -853.6 800.4 -853.6
M 710.35 -875.15
Q 702.15 -866.95 702.15 -855.4 702.15 -843.85 710.35 -835.7 718.55 -827.5 730.05 -827.5 741.6 -827.5 749.8 -835.7 758 -843.85 758 -855.4 758 -866.95 749.8 -875.15 741.6 -883.3 730.05 -883.3 718.55 -883.3 710.35 -875.15
M 727.65 -864.05
L 727.25 -858.8 729.7 -858.9
Q 733.75 -858.9 736 -856.75 738.25 -854.7 738.25 -851.1 738.25 -847.15 735.55 -844.65 732.85 -842.15 728.2 -842.15 724.45 -842.15 721.85 -843.25
L 721.85 -848.2
Q 724.55 -846.55 727.55 -846.55 729.8 -846.55 731.15 -847.65 732.4 -848.7 732.4 -850.55 732.4 -854.45 726.9 -854.45 724.6 -854.45 722.25 -854.15
L 723.25 -868.75 737.05 -868.75 737.05 -864.05 727.65 -864.05
M 749.8 -952.55
Q 741.6 -960.7 730.05 -960.7 718.55 -960.7 710.35 -952.55 702.15 -944.35 702.15 -932.8 702.15 -921.25 710.35 -913.1 718.55 -904.9 730.05 -904.9 741.6 -904.9 749.8 -913.1 758 -921.25 758 -932.8 758 -944.35 749.8 -952.55
M 737.05 -946.1
L 737.05 -941.4 727.65 -941.4 727.25 -936.2
Q 728.7 -936.3 729.7 -936.3 733.7 -936.3 736 -934.15 738.25 -932.1 738.25 -928.5 738.25 -924.55 735.55 -922 732.85 -919.55 728.2 -919.55 724.45 -919.55 721.85 -920.65
L 721.85 -925.6
Q 724.55 -923.95 727.55 -923.95 729.8 -923.95 731.15 -925.05 732.4 -926.1 732.4 -927.95 732.4 -931.85 726.9 -931.85 724.6 -931.85 722.25 -931.55
L 723.25 -946.1 737.05 -946.1
M 809.25 -960.7
Q 797.7 -960.7 789.55 -952.55 781.35 -944.35 781.35 -932.8 781.35 -921.25 789.55 -913.1 797.7 -904.9 809.25 -904.9 820.8 -904.9 828.95 -913.1 837.15 -921.25 837.15 -932.8 837.15 -944.35 828.95 -952.55 820.8 -960.7 809.25 -960.7
M 807.5 -941.9
Q 808.25 -942.65 809.4 -942.65 810.5 -942.65 811.2 -941.95 811.85 -941.2 811.85 -940.05 811.85 -939 811.1 -938.25 810.3 -937.5 809.4 -937.5 808.3 -937.5 807.55 -938.25 806.8 -939 806.8 -940.05 806.8 -941.1 807.5 -941.9
M 807.45 -927.3
Q 808.2 -928.1 809.3 -928.1 810.45 -928.1 811.1 -927.35 811.8 -926.6 811.8 -925.5 811.8 -924.35 811.05 -923.65 810.3 -922.95 809.3 -922.95 808.25 -922.95 807.45 -923.65 806.7 -924.45 806.7 -925.45 806.7 -926.55 807.45 -927.3
M 800.4 -930.95
L 800.4 -934.65 818.15 -934.65 818.15 -930.95 800.4 -930.95
M 710.35 -1031.75
Q 702.15 -1023.55 702.15 -1012 702.15 -1000.45 710.35 -992.25 718.55 -984.1 730.05 -984.1 741.6 -984.1 749.8 -992.25 758 -1000.45 758 -1012 758 -1023.55 749.8 -1031.75 741.6 -1039.9 730.05 -1039.9 718.55 -1039.9 710.35 -1031.75
M 727.65 -1020.6
L 727.25 -1015.4 729.7 -1015.45
Q 733.75 -1015.45 736 -1013.35 738.25 -1011.3 738.25 -1007.7 738.25 -1003.75 735.55 -1001.2 732.85 -998.75 728.2 -998.75 724.45 -998.75 721.85 -999.85
L 721.85 -1004.8
Q 724.55 -1003.15 727.55 -1003.15 729.8 -1003.15 731.15 -1004.2 732.4 -1005.3 732.4 -1007.15 732.4 -1011.05 726.9 -1011.05 725.05 -1011.05 722.25 -1010.75
L 723.25 -1025.3 737.05 -1025.3 737.05 -1020.6 727.65 -1020.6
M 828.95 -992.25
Q 837.15 -1000.45 837.15 -1012 837.15 -1023.55 828.95 -1031.75 820.8 -1039.9 809.25 -1039.9 797.7 -1039.9 789.55 -1031.75 781.35 -1023.55 781.35 -1012 781.35 -1000.45 789.55 -992.25 797.7 -984.1 809.25 -984.1 820.8 -984.1 828.95 -992.25
M 811.85 -1011.95
L 818.05 -1005.85 815.45 -1003.2 809.25 -1009.4 803.05 -1003.2 800.45 -1005.9 806.65 -1011.95 800.45 -1018.2 803.05 -1020.8 809.25 -1014.65 815.5 -1020.8 818.05 -1018.05 811.85 -1011.95
M 632.05 -875.15
Q 623.9 -866.95 623.9 -855.4 623.9 -843.85 632.05 -835.7 640.25 -827.5 651.8 -827.5 663.3 -827.5 671.5 -835.7 679.7 -843.85 679.7 -855.4 679.7 -866.95 671.5 -875.15 663.3 -883.3 651.8 -883.3 640.25 -883.3 632.05 -875.15
M 643.95 -854.15
L 644.95 -868.75 658.75 -868.75 658.75 -864.05 649.35 -864.05 648.95 -858.8 651.4 -858.9
Q 655.45 -858.9 657.7 -856.75 660 -854.7 660 -851.1 660 -847.15 657.25 -844.65 654.55 -842.15 649.9 -842.15 646.15 -842.15 643.6 -843.25
L 643.6 -848.2
Q 646.25 -846.55 649.25 -846.55 651.5 -846.55 652.85 -847.65 654.1 -848.7 654.1 -850.55 654.1 -854.45 648.6 -854.45 646.35 -854.45 643.95 -854.15
M 551.05 -875.15
Q 542.85 -866.95 542.85 -855.4 542.85 -843.85 551.05 -835.7 559.25 -827.5 570.8 -827.5 582.35 -827.5 590.5 -835.7 598.7 -843.85 598.7 -855.4 598.7 -866.95 590.5 -875.15 582.35 -883.3 570.8 -883.3 559.25 -883.3 551.05 -875.15
M 562.6 -843.25
L 562.6 -848.2
Q 565.25 -846.55 568.25 -846.55 570.5 -846.55 571.85 -847.65 573.1 -848.7 573.1 -850.55 573.1 -854.45 567.6 -854.45 565.3 -854.45 562.95 -854.15
L 563.95 -868.75 577.75 -868.75 577.75 -864.05 568.35 -864.05 568 -858.8 570.4 -858.9
Q 574.45 -858.9 576.7 -856.75 578.95 -854.65 578.95 -851.1 578.95 -847.15 576.25 -844.65 573.55 -842.15 568.9 -842.15 565.15 -842.15 562.6 -843.25
M 623.9 -932.8
Q 623.9 -921.25 632.05 -913.1 640.25 -904.9 651.8 -904.9 663.3 -904.9 671.5 -913.1 679.7 -921.25 679.7 -932.8 679.7 -944.35 671.5 -952.55 663.3 -960.7 651.8 -960.7 640.25 -960.7 632.05 -952.55 623.9 -944.35 623.9 -932.8
M 643.6 -920.65
L 643.6 -925.6
Q 646.25 -923.95 649.25 -923.95 651.5 -923.95 652.85 -925.05 654.1 -926.1 654.1 -927.95 654.1 -931.85 648.6 -931.85 646.35 -931.85 643.95 -931.55
L 644.95 -946.1 658.75 -946.1 658.75 -941.4 649.35 -941.4 648.95 -936.2
Q 650.4 -936.3 651.4 -936.3 655.45 -936.3 657.7 -934.15 660 -932.1 660 -928.5 660 -924.55 657.25 -922 654.55 -919.55 649.9 -919.55 646.15 -919.55 643.6 -920.65
M 590.5 -952.55
Q 582.35 -960.7 570.8 -960.7 559.25 -960.7 551.05 -952.55 542.85 -944.35 542.85 -932.8 542.85 -921.25 551.05 -913.1 559.25 -904.9 570.8 -904.9 582.3 -904.9 590.5 -913.1 598.7 -921.25 598.7 -932.8 598.7 -944.35 590.5 -952.55
M 577.75 -946.1
L 577.75 -941.4 568.35 -941.4 568 -936.2
Q 569.35 -936.3 570.4 -936.3 574.4 -936.3 576.7 -934.15 578.95 -932.05 578.95 -928.5 578.95 -924.55 576.25 -922 573.55 -919.55 568.9 -919.55 565.15 -919.55 562.6 -920.65
L 562.6 -925.6
Q 565.25 -923.95 568.25 -923.95 570.5 -923.95 571.85 -925.05 573.1 -926.1 573.1 -927.95 573.1 -931.85 567.6 -931.85 565.3 -931.85 562.95 -931.55
L 563.95 -946.1 577.75 -946.1
M 632.05 -1031.75
Q 623.9 -1023.55 623.9 -1012 623.9 -1000.45 632.05 -992.25 640.25 -984.1 651.8 -984.1 663.3 -984.1 671.5 -992.25 679.7 -1000.45 679.7 -1012 679.7 -1023.55 671.5 -1031.75 663.3 -1039.9 651.8 -1039.9 640.25 -1039.9 632.05 -1031.75
M 643.6 -999.85
L 643.6 -1004.8
Q 646.25 -1003.15 649.25 -1003.15 651.5 -1003.15 652.85 -1004.2 654.1 -1005.3 654.1 -1007.15 654.1 -1011.05 648.6 -1011.05 646.8 -1011.05 643.95 -1010.75
L 644.95 -1025.3 658.75 -1025.3 658.75 -1020.6 649.35 -1020.6 648.95 -1015.4 651.4 -1015.45
Q 655.45 -1015.45 657.7 -1013.35 660 -1011.3 660 -1007.7 660 -1003.75 657.25 -1001.2 654.55 -998.75 649.9 -998.75 646.15 -998.75 643.6 -999.85
M 551.05 -1031.75
Q 542.85 -1023.55 542.85 -1012 542.85 -1000.45 551.05 -992.25 559.25 -984.1 570.8 -984.1 582.35 -984.1 590.5 -992.25 598.7 -1000.45 598.7 -1012 598.7 -1023.55 590.5 -1031.75 582.35 -1039.9 570.8 -1039.9 559.25 -1039.9 551.05 -1031.75
M 562.6 -999.85
L 562.6 -1004.8
Q 565.25 -1003.15 568.25 -1003.15 570.5 -1003.15 571.85 -1004.2 573.1 -1005.3 573.1 -1007.15 573.1 -1011.05 567.6 -1011.05 565.8 -1011.05 562.95 -1010.75
L 563.95 -1025.3 577.75 -1025.3 577.75 -1020.6 568.35 -1020.6 568 -1015.4 570.4 -1015.45
Q 574.45 -1015.45 576.7 -1013.35 578.95 -1011.25 578.95 -1007.7 578.95 -1003.75 576.25 -1001.2 573.55 -998.75 568.9 -998.75 565.15 -998.75 562.6 -999.85 Z"/>

<path fill="#91DDDA" stroke="none" d="
M 536.7 -1166.25
Q 528 -1157.55 528 -1145.2
L 528 -1111
Q 528 -1098.65 536.7 -1090 545.4 -1081.3 557.75 -1081.3
L 822.3 -1081.3
Q 834.65 -1081.3 843.3 -1090 852 -1098.65 852 -1111
L 852 -1145.2
Q 852 -1157.55 843.3 -1166.25 834.65 -1174.9 822.3 -1174.9
L 557.75 -1174.9
Q 545.4 -1174.9 536.7 -1166.25
M 812.7 -1126.35
L 812.7 -1104.6 812.7 -1126.35
M 784.3 -1151.55
L 784.3 -1129.8 784.3 -1151.55
M 811.4 -1128.1
L 785.75 -1128.1 811.4 -1128.1
M 811.4 -1153.2
L 785.75 -1153.2 811.4 -1153.2
M 811.4 -1103
L 785.75 -1103 811.4 -1103 Z"/>
</g>

<path id="Layer9_0_1_STROKES" stroke="#249490" stroke-width="3.55" stroke-linejoin="miter" stroke-linecap="butt" stroke-miterlimit="11" fill="none" d="
M 812.7 -1126.35
L 812.7 -1104.6
M 784.3 -1151.55
L 784.3 -1129.8
M 811.4 -1128.1
L 785.75 -1128.1
M 811.4 -1153.2
L 785.75 -1153.2
M 811.4 -1103
L 785.75 -1103"/>
</defs>

<g transform="matrix( 1, 0, 0, 1, -498.8,1210) ">
<use xlink:href="#Layer9_0_FILL"/>

<use xlink:href="#Layer9_0_1_STROKES"/>
</g>
</svg>
