
<svg xmlns="http://www.w3.org/2000/svg" version="1.1" xmlns:xlink="http://www.w3.org/1999/xlink" preserveAspectRatio="none" x="0px" y="0px" width="864px" height="324px" viewBox="0 0 864 324">
<defs>
<g id="Layer0_0_FILL">
<path fill="#D8D8D8" stroke="none" d="
M 217.6 134.7
Q 217.65 131.75 216.65 129.05 215.05 124.95 211.25 122.3 207.5 119.7 203.1 119.6 198.75 119.5 194.85 121.95 190.95 124.45 189.2 128.45 187.45 132.45 188.25 137 189.05 141.55 192.1 144.7 195.15 147.85 199.65 148.85 204.15 149.8 208.25 148.2 210.95 147.15 213.1 145.1 215.25 143 216.4 140.35 217.55 137.7 217.6 134.7 Z"/>

<path fill="#A5A5A5" stroke="none" d="
M 8.2 282.1
Q 3.4 286.2 1.35 292.15 -0.4 297.05 0.1 302.4 0.5943359375 307.6900390625 3.25 312.1 3.2697265625 312.1501953125 3.3 312.2 5.95 316.65 10.5 319.55 15.05 322.5 20.2 323 24.15 323.4 28.1 322.3 32.05 321.25 35.3 318.9 39.187890625 316.1669921875 41.7 312.1 42.4671875 310.884765625 43.1 309.55 45.8 303.7 45.25 297.55 44.65 291.4 40.85 286.2 37.05 281 31.4 278.6 25.7 276.2 19.3 277.15 12.9 278.1 8.2 282.1 Z"/>

<path fill="#B2B2B2" stroke="none" d="
M 105.9 295.15
Q 110.4 291.5 112.6 286.3 114.1 282.8 114.3 279.05 114.5 275.15 113.25 271.75 111.25 266.4 105.95 262.9 100.9 259.55 94.85 259.1 87.9 258.65 81.65 262.05 75.25 265.6 72.55 271.75 70.3 276.85 71.2 282.7 72.1 288.45 75.7 292.75 79.35 297 84.85 298.95 90.35 300.85 95.9 299.85 101.4 298.85 105.9 295.15 Z"/>

<path fill="#BFBFBF" stroke="none" d="
M 146.4 217.1
Q 142.6 216.3 139.1 217.35 134.45 218.7 129.95 223.5 126.15 227.55 125.6 231.3 125.2 234.05 126.3 237.45 128.05 242.7 132.4 246.3 136.9 250.05 142.25 250.4 147.6 250.75 152.35 247.6 157.1 244.4 158.9 239.35 160.7 234.3 159.05 228.85 157.4 223.35 153.1 220.1 150.15 217.85 146.4 217.1 Z"/>

<path fill="#CCCCCC" stroke="none" d="
M 174.45 194.3
Q 176.6 192.2 177.75 189.55 178.9 186.9 178.95 183.9 179 180.95 178 178.25 176.4 174.15 172.6 171.5 168.85 168.9 164.45 168.8 160.1 168.7 156.2 171.15 152.3 173.65 150.55 177.65 148.8 181.65 149.6 186.2 150.4 190.75 153.45 193.9 156.5 197.05 161 198.05 165.5 199 169.6 197.4 172.3 196.35 174.45 194.3 Z"/>

<path fill="#E5E5E5" stroke="none" d="
M 307.45 62.7
Q 307.5 59.15 305.7 56.2 303.4 52.45 298.9 51.05 294.4 49.65 290.4 51.4 287.7 52.6 285.8 55 283.9 57.4 283.35 60.3 282.8 63.45 283.75 66.3 284.8 69.55 287.55 71.9 290.35 74.2 293.7 74.65 297.1 75.1 300.4 73.6 303.7 72.1 305.55 69.2 307.4 66.3 307.45 62.7
M 261.45 95.65
Q 262.55 91.85 261.25 88.35 259.9 84.85 256.55 82.8 253.15 80.7 249.45 81.05 245.3 81.45 242.2 84.75 239.1 88.05 239 92.25 238.95 94.9 240.15 97.4 241.35 99.9 243.45 101.55 246.4 103.85 250.4 103.9 254.35 103.9 257.35 101.7 260.35 99.5 261.45 95.65
M 339.55 38.75
Q 337.2 40.95 336.5 43.95 335.75 47.45 337.65 50.8 339.55 54.2 342.9 55.4 345.35 56.25 348 55.8 350.65 55.3 352.65 53.65 354.65 51.95 355.55 49.45 356.5 46.9 356.05 44.35 355.65 41.8 353.9 39.7 352.2 37.6 349.75 36.7 347.45 35.85 345 36.15 341.95 36.55 339.55 38.75
M 414.95 44.85
Q 414.55 41.95 412.3 39.8 410.05 37.65 407.15 37.3 405.15 37.1 403.25 37.8 401.3 38.55 399.9 39.95 398.5 41.35 397.9 43.35 397.25 45.3 397.5 47.3 397.85 49.55 399.3 51.45 400.8 53.35 402.9 54.2 405.05 55.05 407.45 54.75 409.8 54.4 411.65 53 413.45 51.6 414.35 49.35 415.25 47.1 414.95 44.85 Z"/>

<path fill="#F0F0F0" stroke="none" d="
M 454.25 49.15
Q 454.25 49.5 453.65 49.4 452.5 49.3 451.35 49.9 450.3 50.5 449.6 51.5 448.3 53.3 448.55 55.7 448.75 58.1 450.45 59.5 451.35 60.3 452.55 60.65 452.95 60.75 453.45 60.8 455.15 61 456.65 60.3 458.15 59.55 459.05 58.1 459.95 56.6 459.9 54.95 459.9 54.55 459.85 54.15 459.55 52.4 458.15 50.95 456.45 49.25 454.25 49.15
M 752.7 43.85
L 749.75 14.95 718 0 717.1 1.7 718.75 2.45 719.2 1.6 731 7.25 696.95 142.05 549.1 77.75 549.55 66.95 549.95 58.75 551.45 23.65 551.6 19.2 541.15 14.1 539.65 18 527.85 48.3 525.05 55.3 521.15 65.35 521.15 65.5
Q 516.6 63.55 512.35 63.4 509.5 63.4 506.7 64.2 501.75 65.4 498.9 68.6
L 490.25 63.15 485.6 66.35 485.85 72.25 495.4 75.5
Q 494.95 79.35 496.6 83.65 499.4 90.2 506.45 93.95
L 507.25 94.55 480.05 142.25 490.5 147.25 534.45 108.8 676.5 183.8 593.45 295.75 581.45 290.05 581.9 289.05 580.45 288.3 579.5 290.2 611.35 305.35 632.8 291.3
Q 644.1 300.15 658.75 303.8 660.7 304.25 662.8 304.5 665.8 301.8 667.95 298.65 668.6 297.65 669.2 296.85
L 672.2 295.75 672.4 295.4 671.15 292.45
Q 671.6 291.45 672.15 290.05 672.9 286.6 673.25 282.55 671.6 281.3 670.15 279.85
L 670 279.85
Q 665.25 276.25 660.05 273.5
L 689 254.45
Q 700.1 263.05 714.85 266.75 716.7 267.2 718.85 267.45 721.8 264.75 724 261.6 724.65 260.65 725.3 259.8
L 728.25 258.7 728.45 258.4 727.25 255.4
Q 727.7 254.4 728 253 729 249.55 729.25 245.5 727.65 244.2 726.25 242.8
L 726.05 242.8
Q 721.5 239.2 716.3 236.45
L 743.1 218.95 789.9 243.55
Q 812.55 255.5 833.8 256.75 856.1 258.15 862.05 247.1 862.1 246.55 862.55 246.1 867.5 235.4 853.5 219.7 840 204.2 816.25 193.95
L 765.6 171.9 762.75 143.25
Q 768 145.45 773.6 146.65
L 773.75 146.7
Q 775.8 147.05 777.75 147.5 780.75 144.8 782.85 141.85 783.5 140.7 784.2 139.7
L 787.15 138.65 787.15 138.45 786.3 135.5
Q 786.8 134.45 786.9 133.25 788.1 129.45 788.2 125.35 786.75 124.15 785.1 122.85 773 113.8 759.5 110.55
L 756 76.35
Q 761.3 78.55 767.2 79.8 769.3 80.4 771.2 80.6 774.2 77.95 776.3 75 777 74 777.65 72.8
L 780.6 71.9 780.8 71.55 779.75 68.6
Q 780 67.55 780.5 66.35 781.65 62.6 781.65 58.7 780.15 57.45 778.4 56.15 766.45 46.7 752.7 43.85 Z"/>
</g>
</defs>

<g transform="matrix( 1, 0, 0, 1, 0,0) ">
<use xlink:href="#Layer0_0_FILL"/>
</g>
</svg>
