
<svg xmlns="http://www.w3.org/2000/svg" version="1.1" xmlns:xlink="http://www.w3.org/1999/xlink" preserveAspectRatio="none" x="0px" y="0px" width="384px" height="306px" viewBox="0 0 384 306">
<defs>
<g id="Layer0_0_FILL">
<path fill="#F0F0F0" stroke="none" d="
M 382.5 246.1
Q 387.45 235.4 373.45 219.7 359.95 204.2 336.2 193.95
L 285.55 171.9 282.7 143.25
Q 287.95 145.45 293.55 146.65
L 293.7 146.7
Q 295.75 147.05 297.7 147.5 300.7 144.8 302.8 141.85 303.45 140.7 304.15 139.7
L 307.1 138.65 307.1 138.45 306.25 135.5
Q 306.75 134.45 306.85 133.25 308.05 129.45 308.15 125.35 306.7 124.15 305.05 122.85 292.95 113.8 279.45 110.55
L 275.95 76.35
Q 281.25 78.55 287.15 79.8 289.25 80.4 291.15 80.6 294.15 77.95 296.25 75 296.95 74 297.6 72.8
L 300.55 71.9 300.75 71.55 299.7 68.6
Q 299.95 67.55 300.45 66.35 301.6 62.6 301.6 58.7 300.1 57.45 298.35 56.15 286.4 46.7 272.65 43.85
L 269.7 14.95 237.95 0 237.05 1.7 238.7 2.45 239.15 1.6 250.95 7.25 216.9 142.05 69.05 77.75 69.5 66.95 69.9 58.75 71.4 23.65 71.55 19.2 61.1 14.1 59.6 18 47.8 48.3 45 55.3 41.1 65.35 41.1 65.5
Q 36.55 63.55 32.3 63.4 29.45 63.4 26.65 64.2 21.7 65.4 18.85 68.6
L 10.2 63.15 5.55 66.35 5.8 72.25 15.35 75.5
Q 14.9 79.35 16.55 83.65 19.35 90.2 26.4 93.95
L 27.2 94.55 0 142.25 10.45 147.25 54.4 108.8 196.45 183.8 113.4 295.75 101.4 290.05 101.85 289.05 100.4 288.3 99.45 290.2 131.3 305.35 152.75 291.3
Q 164.05 300.15 178.7 303.8 180.65 304.25 182.75 304.5 185.75 301.8 187.9 298.65 188.55 297.65 189.15 296.85
L 192.15 295.75 192.35 295.4 191.1 292.45
Q 191.55 291.45 192.1 290.05 192.85 286.6 193.2 282.55 191.55 281.3 190.1 279.85
L 189.95 279.85
Q 185.2 276.25 180 273.5
L 208.95 254.45
Q 220.05 263.05 234.8 266.75 236.65 267.2 238.8 267.45 241.75 264.75 243.95 261.6 244.6 260.65 245.25 259.8
L 248.2 258.7 248.4 258.4 247.2 255.4
Q 247.65 254.4 247.95 253 248.95 249.55 249.2 245.5 247.6 244.2 246.2 242.8
L 246 242.8
Q 241.45 239.2 236.25 236.45
L 263.05 218.95 309.85 243.55
Q 332.5 255.5 353.75 256.75 376.05 258.15 382 247.1 382.05 246.55 382.5 246.1 Z"/>
</g>
</defs>

<g transform="matrix( 1, 0, 0, 1, 0,0) ">
<use xlink:href="#Layer0_0_FILL"/>
</g>
</svg>
