
<svg xmlns="http://www.w3.org/2000/svg" version="1.1" xmlns:xlink="http://www.w3.org/1999/xlink" preserveAspectRatio="none" x="0px" y="0px" width="295px" height="66px" viewBox="0 0 295 66">
<defs>
<g id="Layer0_0_FILL">
<path fill="#FFFFFF" stroke="none" d="
M 145 0.05
Q 145.2 0.05 145.45 0.05 145.6375 0.003125 145.75 0 145.390625 0.001171875 145 0.05
M 170.15 9.55
Q 170.8 10.2 171.45 10.9 170.85 10.2 170.2 9.55 169.75 9.1 169.3 8.7
L 170.15 9.55 Z"/>

<path fill="#35B0AB" stroke="none" d="
M 2.2 21.8
L 10.9 43.55 98.05 38.1 74 14.05 2.2 21.8
M 283.25 43.55
L 291.95 21.8 220.15 14.05 196.1 38.1 283.25 43.55 Z"/>

<path fill="#004C65" stroke="none" d="
M 103.5 10.9
L 92.6 0 0 16.35 2.2 21.8 74 14.05 103.5 10.9
M 171.8 10.9
Q 171.2 10.25 170.6 9.65 161.05 0.1 147.55 0.1 134.05 0.1 124.5 9.65 123.95 10.2 123.45 10.75 114.95 19.95 114.95 32.7 114.95 41.65 119.15 48.9 121.3 52.55 124.5 55.75 134.05 65.3 147.55 65.3 161.05 65.3 170.6 55.75 173.75 52.6 175.9 49 180.15 41.75 180.15 32.7 180.15 20.05 171.8 10.9
M 171.45 10.9
Q 170.8 10.2 170.15 9.55
L 169.3 8.7
Q 169.75 9.1 170.2 9.55 170.85 10.2 171.45 10.9
M 291.95 21.8
L 294.15 16.35 201.55 0 190.65 10.9 220.15 14.05 291.95 21.8 Z"/>

<path fill="#246B81" stroke="none" d="
M 98.05 38.1
L 108.95 49 119.15 48.9
Q 114.95 41.65 114.95 32.7 114.95 19.95 123.45 10.75
L 103.5 10.9 74 14.05 98.05 38.1
M 180.15 32.7
Q 180.15 41.75 175.9 49
L 185.2 49 196.1 38.1 220.15 14.05 190.65 10.9 171.8 10.9
Q 180.15 20.05 180.15 32.7 Z"/>
</g>

<g id="Layer0_1_FILL">
<path fill="#FFFFFF" stroke="none" d="
M 666.5 989
Q 666.2 989.25 666.1 989.6 665.95 989.85 666.1 990.2 666.15 990.5 666.4 990.75 666.85 991.15 667.45 991.2
L 667.5 991.15 667.15 995.45 668 995.45 669.9 991.35 682.45 992.15 680.05 1002.85 681.65 1002.9 688.25 992.55 692.4 992.85
Q 694.35 992.95 695.9 992.4 697.55 991.8 697.65 990.8 697.6 990.8 697.65 990.7 697.65 989.75 696.15 989.1 694.7 988.45 692.65 988.45
L 688.4 988.5 682.2 977.8 680.65 977.8 682.5 988.55 669.95 988.65 668.3 984.4 667.4 984.35 667.6 988.65
Q 667.2 988.7 666.9 988.8 666.7 988.85 666.5 989 Z"/>
</g>
</defs>

<g transform="matrix( 1, 0, 0, 1, 0,0) ">
<use xlink:href="#Layer0_0_FILL"/>
</g>

<g transform="matrix( 1, 0, 0, 1, -534,-956.3) ">
<use xlink:href="#Layer0_1_FILL"/>
</g>
</svg>
