
<svg xmlns="http://www.w3.org/2000/svg" version="1.1" xmlns:xlink="http://www.w3.org/1999/xlink" preserveAspectRatio="none" x="0px" y="0px" width="200px" height="200px" viewBox="0 0 200 200">
<defs>
<g id="Layer1_0_FILL">
<path fill="#010101" stroke="none" d="
M 650 3767.55
L 650 3647.55
Q 650 3631.05 638.5 3619.55 626.5 3607.55 610 3607.55
L 490 3607.55
Q 473 3607.55 461.5 3619.55 450 3631.05 450 3647.55
L 450 3767.55
Q 450 3784.55 461.5 3796.05 473 3807.55 490 3807.55
L 610 3807.55
Q 626.5 3807.55 638.5 3796.05 650 3784.55 650 3767.55
M 610 3627.55
Q 618.5 3627.55 624 3633.55 630 3639.55 630 3647.55
L 630 3767.55
Q 630 3776.05 624 3782.05 618.5 3787.55 610 3787.55
L 490 3787.55
Q 481.5 3787.55 475.5 3782.05 470 3776.05 470 3767.55
L 470 3647.55
Q 470 3639.05 475.5 3633.55 481.5 3627.55 490 3627.55
L 610 3627.55
M 585.5 3658.05
Q 584 3657.55 579 3659.05
L 571.5 3662.55 568.5 3664.55
Q 561 3662.55 552.5 3662.55 543.5 3662.55 537 3664.55
L 526.5 3659.05
Q 521.5 3657.55 519.5 3658.05 516 3667.05 519 3675.05 512.5 3681.55 512.5 3691.55 512.5 3698.05 514 3704.05 515.5 3709.55 518.5 3712.55 520 3715.05 525 3718.05 529 3720.55 532.5 3721.05 537 3722.55 541 3722.55 538 3726.05 537 3731.05
L 533.5 3732.55 528.5 3733.05 523.5 3731.05
Q 521 3729.55 519 3726.05
L 515 3721.55 511 3719.55 509 3719.55 506.5 3720.05 506.5 3720.55 507 3722.05 508.5 3723.55
Q 511 3724.55 512.5 3726.55
L 515 3730.55 515.5 3732.55
Q 517 3735.55 519.5 3737.55
L 525 3740.05 530.5 3740.55 535 3740.05 537 3740.05 537 3754.05 536 3756.55 534.5 3757.55 531.5 3758.05 573.5 3758.05 571.5 3757.55 570 3757.55 568.5 3756.05 568 3754.05 568 3734.55
Q 568 3726.05 564 3722.55 568 3722.55 572.5 3721.05 576.5 3720.55 580 3718.05 585 3715.05 586.5 3712.55 589.5 3709.55 591 3704.05 592.5 3699.05 592.5 3691.55 592.5 3681.55 586 3675.05 589 3667.05 585.5 3658.05 Z"/>
</g>
</defs>

<g transform="matrix( 1, 0, 0, 1, -450,-3607.55) ">
<use xlink:href="#Layer1_0_FILL"/>
</g>
</svg>
