
<svg xmlns="http://www.w3.org/2000/svg" version="1.1" xmlns:xlink="http://www.w3.org/1999/xlink" preserveAspectRatio="none" x="0px" y="0px" width="200px" height="200px" viewBox="0 0 200 200">
<defs>
<g id="Layer2_0_FILL">
<path fill="#010101" stroke="none" d="
M 289.2 3606.7
Q 264.65 3607.2 247.6 3624.75 230.05 3641.8 230.05 3666.35
L 230.05 3747.55
Q 230.05 3772.1 247.6 3789.65 264.65 3807.2 289.2 3807.2
L 370.4 3807.2
Q 395.45 3807.2 412.5 3789.65 430.05 3772.6 430.05 3747.55
L 430.05 3666.35
Q 430.05 3641.8 412.5 3624.75 395.45 3607.2 370.4 3606.7
L 289.2 3606.7
M 261.65 3638.8
Q 273.15 3627.25 289.2 3627.25
L 370.4 3627.25
Q 386.45 3627.25 398.45 3638.8 410 3650.3 410 3666.35
L 410 3747.55
Q 410 3763.6 398.45 3775.6 386.45 3787.15 370.4 3787.15
L 289.2 3787.15
Q 273.15 3787.15 261.65 3775.6 250.1 3763.6 250.1 3747.55
L 250.1 3666.35
Q 250.1 3650.3 261.65 3638.8
M 393.95 3655.8
Q 393.95 3650.8 390.45 3646.8 386.95 3643.3 381.95 3643.3 376.9 3643.3 372.9 3646.8 369.4 3650.8 369.4 3655.8 369.4 3660.85 372.9 3664.35 376.9 3667.85 381.95 3667.85 386.95 3667.85 390.45 3664.35 393.95 3660.85 393.95 3655.8
M 278.15 3706.95
Q 278.15 3728.5 293.2 3743.55 308.25 3758.6 329.8 3758.6 351.35 3758.6 366.4 3743.55 381.45 3728.5 381.45 3706.95 381.45 3685.4 366.4 3670.35 351.35 3655.3 329.8 3655.3 308.25 3655.3 293.2 3670.35 278.15 3685.4 278.15 3706.95
M 298.2 3706.95
Q 298.2 3693.9 307.25 3684.4 316.75 3675.35 329.8 3675.35 342.85 3675.35 352.35 3684.4 361.4 3693.9 361.4 3706.95 361.4 3720 352.35 3729.5 342.85 3738.55 329.8 3738.55 316.75 3738.55 307.25 3729.5 298.2 3720 298.2 3706.95 Z"/>
</g>
</defs>

<g transform="matrix( 1, 0, 0, 1, -230.05,-3606.7) ">
<use xlink:href="#Layer2_0_FILL"/>
</g>
</svg>
