<?xml version="1.0" encoding="UTF-8" standalone="no"?>
<!-- Created with Inkscape (http://www.inkscape.org/) -->

<svg
   width="264.29941mm"
   height="169.59358mm"
   viewBox="0 0 264.29941 169.59358"
   version="1.1"
   id="svg1172"
   xmlns="http://www.w3.org/2000/svg"
   xmlns:svg="http://www.w3.org/2000/svg">
  <defs
     id="defs1169" />
  <g
     id="layer1"
     transform="translate(49.922807,-65.813092)">
    <g
       id="g1474"
       transform="matrix(0.78323338,0,0,0.78323338,78.727417,24.634915)"
       style="stroke-width:1.27676">
      <g
         id="g1459"
         style="stroke-width:1.27676">
        <g
           id="g1445"
           style="stroke-width:1.27676">
          <path
             style="fill:#c06d85;fill-opacity:1;stroke:none;stroke-width:6.38381;stroke-linecap:butt;stroke-linejoin:miter;stroke-miterlimit:4;stroke-dasharray:none;stroke-opacity:1"
             d="m -98.368716,181.10406 c 0,0 -0.08436,-70.08426 -0.08436,-70.08426 0,0 4.062449,0.15148 4.062449,0.15148 1.848116,-0.0671 3.696272,-0.13416 6.597523,-0.28788 2.90125,-0.15372 6.855461,-0.39407 11.023166,-0.83434 4.167705,-0.44028 8.54868,-1.08044 12.963035,-1.86276 4.414355,-0.78232 8.861892,-1.70674 13.428166,-2.85331 4.566273,-1.14656 9.251053,-2.51519 13.925566,-4.05288 4.674513,-1.537691 9.338438,-3.24432 13.296901,-4.783068 3.958463,-1.538748 7.211113,-2.909474 12.108458,-5.327859 4.8973464,-2.418386 11.43907893,-5.884278 16.6032492,-8.873211 5.1641698,-2.988933 8.9504468,-5.500699 11.8588498,-7.53515 2.908404,-2.034452 4.938684,-3.591413 6.471702,-4.73179 1.533017,-1.140377 2.568666,-1.864092 3.604328,-2.587815 0,0 -0.953886,4.074552 -0.953886,4.074552 -0.779782,3.615516 -1.559577,7.231096 -2.402276,11.898095 -0.842699,4.666999 -1.748272,10.385188 -2.470014,15.247036 -0.721742,4.86185 -1.259612,8.86705 -1.746848,14.15034 -0.487237,5.28329 -0.923808,11.84423 -1.213802,17.42354 -0.289994,5.5793 -0.433397,10.17661 -0.437749,15.38966 -0.0044,5.21305 0.13034,11.04157 0.348413,16.65653 0.218074,5.61496 0.519506,11.01596 0.980543,16.30466 0.461038,5.28871 1.081641,10.46473 1.630754,14.80782 0.549112,4.34308 1.026724,7.85318 1.752278,12.15432 0.725554,4.30115 1.698997,9.39313 2.420894,12.9271 0.721898,3.53398 1.192175,5.50965 1.66249,7.48547 0,0 -4.39498,-3.42768 -4.39498,-3.42768 -2.020717,-1.47258 -4.041289,-2.94505 -6.577818,-4.70497 -2.536528,-1.75992 -5.58879,-3.80712 -9.0554094,-5.93469 -3.4666194,-2.12758 -7.34743342,-4.33541 -11.0163414,-6.31045 -3.6689079,-1.97504 -7.1256682,-3.71716 -11.0200432,-5.51176 -3.894376,-1.79461 -8.226171,-3.64162 -12.808724,-5.41407 -4.582553,-1.77246 -9.415722,-3.47032 -14.663946,-5.03213 -5.248224,-1.56181 -10.911255,-2.9875 -15.52176,-4.00022 -4.610505,-1.01272 -8.168225,-1.6124 -11.429603,-2.12605 -3.261377,-0.51364 -6.226341,-0.94124 -9.709521,-1.29026 -3.483179,-0.34902 -7.484406,-0.61944 -10.776078,-0.79034 -3.291672,-0.17091 -5.873646,-0.24228 -8.45561,-0.31366 0,0 4e-6,0 4e-6,0 z"
             id="path6243" />
          <path
             style="fill:#a44761;fill-opacity:1;stroke:none;stroke-width:6.38381;stroke-linecap:butt;stroke-linejoin:miter;stroke-miterlimit:4;stroke-dasharray:none;stroke-opacity:1"
             d="m 27.490321,67.441217 c 2.952625,-2.593926 5.90528,-5.187879 8.576783,-7.665647 2.671503,-2.477768 5.061871,-4.839361 7.45226,-7.200976 0,0 -0.8483,2.416358 -0.8483,2.416358 -0.460117,1.965404 -0.920256,3.930905 -1.409409,6.372514 -0.489154,2.441609 -1.007321,5.359257 -1.49676,8.707781 -0.489439,3.348523 -0.950124,7.127664 -1.419222,12.200747 -0.469098,5.073083 -0.946575,11.439687 -1.302644,17.740676 -0.35607,6.30099 -0.590716,12.536 -0.789812,20.02812 -0.199096,7.49212 -0.362634,16.2409 -0.401214,25.16056 -0.03858,8.91965 0.04779,18.00959 0.188439,25.7108 0.140647,7.70121 0.335556,14.01323 0.670885,20.78235 0.335328,6.76911 0.811053,13.99498 1.469739,20.99291 0.658686,6.99793 1.500291,13.76759 2.250843,18.3605 0.750552,4.59292 1.409962,7.00874 2.069414,9.42472 0,0 -3.254471,-3.30621 -3.254471,-3.30621 -1.355669,-1.35393 -2.711292,-2.70781 -4.054385,-3.96457 -1.343093,-1.25676 -2.673553,-2.4163 -4.026702,-3.60704 -1.35315,-1.19075 -2.728851,-2.41257 -3.693828,-4.27107 -0.964976,-1.8585 -1.519143,-4.35363 -2.136576,-7.39035 -0.617433,-3.03671 -1.298097,-6.61484 -1.895295,-10.04267 -0.597198,-3.42784 -1.110888,-6.70515 -1.639682,-10.5632 -0.528793,-3.85805 -1.072654,-8.29659 -1.583254,-13.69048 -0.5106,-5.3939 -0.987894,-11.74267 -1.304311,-18.75239 -0.316416,-7.00973 -0.47193,-14.67983 -0.420087,-21.5992 0.05184,-6.91938 0.311046,-13.08749 0.700155,-19.1359 0.389109,-6.04841 0.908098,-11.97671 1.605129,-17.88696 0.697032,-5.91025 1.572054,-11.801955 2.717116,-18.269169 1.145061,-6.467214 2.560121,-13.509689 3.975189,-20.552204 z"
             id="path6492" />
          <path
             style="fill:#6f3042;fill-opacity:1;stroke:none;stroke-width:6.38381;stroke-linecap:butt;stroke-linejoin:miter;stroke-miterlimit:4;stroke-dasharray:none;stroke-opacity:1"
             d="m 43.412079,52.880049 c 0.388977,0.08994 0.778108,0.179917 1.100064,0.463007 0.321955,0.28309 0.576968,0.759225 1.000789,1.866285 0.423822,1.10706 1.016446,2.844976 1.590065,5.019906 0.573619,2.17493 1.128238,4.786817 1.586054,7.634294 0.457816,2.847477 0.818812,5.930332 1.179972,9.546486 0.361159,3.616153 0.722449,7.765256 1.041599,11.596438 0.31915,3.831181 0.596139,7.344173 0.825232,11.204295 0.229093,3.86011 0.410271,8.06698 0.557691,12.38268 0.147421,4.31569 0.261078,8.73999 0.347024,11.82827 0.08595,3.08828 0.144176,4.84042 0.186931,6.02299 0.04276,1.18257 0.07003,1.79551 0.09731,2.40853 0,0 -0.533137,-1.04363 -0.533137,-1.04363 -0.366819,-0.62183 -0.733564,-1.24353 -1.140128,-1.87173 -0.406564,-0.62821 -0.852842,-1.26272 -1.391309,-1.96891 -0.538468,-0.70619 -1.169116,-1.48403 -1.566464,-1.96282 -0.397347,-0.47879 -0.561429,-0.65856 -1.062391,-1.13512 -0.500963,-0.47655 -1.338797,-1.24986 -2.280434,-2.03277 -0.941637,-0.7829 -1.987046,-1.57535 -2.8577,-2.17084 -0.870655,-0.59548 -1.566543,-0.99398 -2.295434,-1.36488 -0.728891,-0.3709 -1.490683,-0.71414 -2.076125,-0.97682 -0.585442,-0.26267 -0.994566,-0.44479 -1.403596,-0.62687 0.08164,-2.47713 0.163271,-4.95418 0.270984,-7.66341 0.107713,-2.70924 0.241468,-5.6498 0.378961,-8.28848 0.137493,-2.63867 0.278663,-4.974336 0.489169,-7.951963 0.210506,-2.977627 0.490311,-6.596599 0.744564,-9.553733 0.254253,-2.957134 0.482944,-5.252252 0.730628,-7.444408 0.247685,-2.192156 0.51436,-4.281292 0.76239,-6.058537 0.248029,-1.777245 0.477405,-3.242516 0.750982,-4.829929 0.273577,-1.587414 0.591333,-3.296835 0.938281,-5.002943 0.346948,-1.706107 0.723076,-3.408834 1.019248,-4.612902 0.296172,-1.204067 0.512377,-1.909406 0.667219,-2.395219 0.154841,-0.485813 0.248351,-0.752179 0.341837,-1.01848 0,0 -2.78e-4,0.0012 -2.78e-4,0.0012 z"
             id="path6974" />
          <path
             style="fill:#6f3042;fill-opacity:1;stroke:none;stroke-width:6.38381;stroke-linecap:butt;stroke-linejoin:miter;stroke-miterlimit:4;stroke-dasharray:none;stroke-opacity:1"
             d="m 42.501323,240.47263 c 0.295458,0.10892 0.591028,0.21787 0.818397,0.16142 0.227369,-0.0565 0.386781,-0.27825 0.562816,-0.50502 0.176035,-0.22676 0.3687,-0.45848 0.550058,-0.75871 0.181359,-0.30024 0.351412,-0.66898 0.549919,-1.12456 0.198506,-0.45557 0.425435,-0.99792 0.603604,-1.44762 0.178169,-0.4497 0.307568,-0.80674 0.468896,-1.36245 0.161328,-0.55571 0.354572,-1.31005 0.531491,-2.03907 0.17692,-0.72902 0.337498,-1.43267 0.530849,-2.31196 0.193351,-0.87929 0.419449,-1.93411 0.601795,-2.8909 0.182346,-0.9568 0.32093,-1.81554 0.521501,-3.0992 0.20057,-1.28367 0.463094,-2.99205 0.678372,-4.60543 0.215277,-1.61338 0.383275,-3.13151 0.571379,-4.75331 0.188104,-1.62179 0.396308,-3.34718 0.610844,-5.63328 0.214535,-2.28611 0.435392,-5.13284 0.638723,-7.77144 0.20333,-2.6386 0.389113,-5.0688 0.553999,-7.51644 0.164885,-2.44763 0.308867,-4.91262 0.462171,-7.54208 0.153304,-2.62947 0.315921,-5.42327 0.435532,-8.0689 0.11961,-2.64563 0.196211,-5.14305 0.254241,-7.43664 0.05803,-2.29359 0.09749,-4.3833 0.13465,-6.23198 0.03716,-1.84867 0.07204,-3.4564 0.106803,-4.74342 0.03477,-1.28702 0.06943,-2.25351 0.104088,-3.21991 0,0 -0.619976,1.15426 -0.619976,1.15426 -0.327662,0.58127 -0.65535,1.16258 -1.09367,1.84292 -0.43832,0.68033 -0.987258,1.45968 -1.478308,2.09851 -0.49105,0.63883 -0.924171,1.1371 -1.386559,1.65353 -0.462388,0.51642 -0.954058,1.05102 -1.60368,1.6735 -0.649621,0.62249 -1.457299,1.33297 -2.28083,1.96891 -0.82353,0.63594 -1.662953,1.19738 -2.374092,1.65559 -0.711138,0.45821 -1.293929,0.81316 -1.878214,1.13865 -0.584286,0.3255 -1.169942,0.62148 -1.837148,0.93834 -0.667207,0.31686 -1.415933,0.65459 -2.164642,0.99231 0.02834,1.28181 0.05668,2.56375 0.102681,4.29689 0.04601,1.73314 0.109675,3.91756 0.180533,5.99648 0.07086,2.07892 0.148899,4.05223 0.26324,6.47614 0.11434,2.4239 0.264972,5.29825 0.495229,8.85083 0.230257,3.55258 0.540115,7.78308 0.874712,11.65622 0.334597,3.87314 0.693896,7.38855 1.03882,10.41462 0.344924,3.02607 0.675445,5.56257 1.099974,8.24498 0.424528,2.68241 0.943025,5.51053 1.354002,7.50957 0.410976,1.99904 0.714374,3.16878 1.017804,4.33865 0,0 -4e-6,0 -4e-6,0 z"
             id="path7322" />
          <path
             style="fill:#c06d85;fill-opacity:1;stroke:none;stroke-width:6.38381;stroke-linecap:butt;stroke-linejoin:miter;stroke-miterlimit:4;stroke-dasharray:none;stroke-opacity:1"
             d="m 36.066363,172.28712 c 0.724219,-0.19707 1.448444,-0.39415 2.429755,-0.83883 0.981311,-0.44468 2.219756,-1.137 3.409029,-1.90111 1.189273,-0.76412 2.329321,-1.6 3.372405,-2.48299 1.043084,-0.883 1.989194,-1.81312 3.122036,-3.2107 1.132841,-1.39757 2.452356,-3.26252 3.286351,-4.51236 0.833995,-1.24983 1.182473,-1.88456 1.581218,-2.84069 0.398746,-0.95612 0.847759,-2.23366 1.187625,-3.31182 0.339866,-1.07815 0.570603,-1.95698 0.763137,-3.15298 0.192535,-1.19599 0.346841,-2.70906 0.379532,-4.20061 0.03269,-1.49155 -0.05625,-2.96164 -0.264557,-4.45555 -0.20831,-1.4939 -0.535981,-3.01149 -0.849321,-4.16346 -0.31334,-1.15198 -0.61235,-1.93828 -0.958599,-2.77839 -0.346248,-0.84011 -0.739746,-1.73404 -1.45388,-2.94383 -0.714134,-1.2098 -1.748896,-2.73541 -2.989031,-4.23067 -1.240135,-1.49525 -2.68553,-2.95998 -4.143527,-4.2158 -1.457997,-1.25583 -2.92846,-2.30259 -4.133359,-3.0547 -1.204899,-0.75212 -2.144161,-1.20951 -2.8498,-1.47054 -0.705639,-0.26103 -1.17779,-0.32569 -1.64984,-0.39034 -0.02888,1.07584 -0.05776,2.15173 -0.101503,4.00486 -0.04375,1.85314 -0.102367,4.48354 -0.146684,6.69312 -0.04432,2.20958 -0.07433,3.99821 -0.09831,5.60857 -0.02398,1.61036 -0.04193,3.04239 -0.05753,4.5625 -0.0156,1.52011 -0.02883,3.12818 -0.03817,4.75343 -0.0093,1.62526 -0.01476,3.26767 -0.01538,5.1192 -6.23e-4,1.85153 0.0036,3.91221 0.01322,5.9674 0.0097,2.05519 0.0248,4.1049 0.0466,6.24967 0.0218,2.14476 0.05026,4.3845 0.07505,6.1219 0.02479,1.73739 0.04592,2.97237 0.05923,3.73445 0.01331,0.76208 0.01881,1.05111 0.0243,1.34027 0,0 -7e-6,0 -7e-6,0 z"
             id="path7538" />
          <path
             style="fill:#a44761;fill-opacity:1;stroke:none;stroke-width:6.38381;stroke-linecap:butt;stroke-linejoin:miter;stroke-miterlimit:4;stroke-dasharray:none;stroke-opacity:1"
             d="m -129.3299,110.98769 30.877243,0.35252 0.11206,69.76465 -31.295063,-0.0743 z"
             id="path7754" />
          <path
             style="fill:#6f3042;fill-opacity:1;stroke:none;stroke-width:6.38381;stroke-linecap:butt;stroke-linejoin:miter;stroke-miterlimit:4;stroke-dasharray:none;stroke-opacity:1"
             d="m -129.3299,110.98769 c 0,0 -1.70088,0.23344 -1.70088,0.23344 -1.13331,0.1405 -2.26658,0.28099 -3.7501,0.60302 -1.48353,0.32204 -3.31716,0.8256 -5.21525,1.49736 -1.89808,0.67176 -3.86044,1.51167 -5.59387,2.40521 -1.73344,0.89355 -3.23784,1.84068 -4.63071,2.88058 -1.39286,1.0399 -2.67415,2.17254 -3.86442,3.34317 -1.19026,1.17064 -2.28945,2.37922 -3.31089,3.7893 -1.02143,1.41007 -1.96503,3.02151 -2.82703,4.56884 -0.86199,1.54734 -1.64228,3.03041 -2.28656,4.92862 -0.64428,1.8982 -1.15248,4.21123 -1.44074,6.36765 -0.28827,2.15642 -0.3566,4.15606 -0.26985,6.1337 0.0868,1.97764 0.32856,3.93329 0.83013,6.02475 0.50157,2.09146 1.26284,4.31859 2.32134,6.55703 1.0585,2.23844 2.4142,4.48818 3.76944,6.31302 1.35524,1.82483 2.70996,3.22475 4.30296,4.63883 1.59301,1.41408 3.42414,2.84222 5.63141,4.15855 2.20727,1.31634 4.79045,2.52075 6.82804,3.28094 2.03759,0.76019 3.52938,1.07614 5.02129,1.39211 0,0 0.0472,2.35979 0.0472,2.35979 0.0107,1.2352 0.0213,2.4705 0.26456,3.60191 0.24323,1.13142 0.71897,2.15902 1.27134,3.17956 0.55237,1.02053 1.18133,2.03396 1.90389,2.86109 0.72257,0.82713 1.53873,1.46799 2.41235,2.00567 0.87362,0.53768 1.80468,0.97221 2.8685,1.33785 1.06381,0.36565 2.26035,0.66242 3.59233,0.80764 1.33198,0.14523 2.79934,0.13893 7.97481,0.12615 5.17547,-0.0128 14.05853,-0.032 22.941884,-0.0513 0.858877,-0.18207 1.717847,-0.36416 2.727921,-0.69407 1.010074,-0.3299 2.171366,-0.80764 3.202479,-1.44082 1.031114,-0.63317 1.932025,-1.42176 2.730611,-2.34256 0.798586,-0.9208 1.494881,-1.97386 2.009211,-2.96119 0.51433,-0.98733 0.846719,-1.90899 1.041343,-2.70466 0.194624,-0.79567 0.251471,-1.46538 0.246532,-2.12831 -0.0049,-0.66292 -0.0717,-1.31928 -0.138442,-1.9755 -3.16469,-0.22246 -6.32935,-0.44492 -9.621233,-0.60901 -3.291884,-0.16409 -6.710833,-0.2698 -10.294386,-0.32711 -3.58356,-0.0573 -7.33158,-0.0662 -11.69184,-0.0766 -4.36027,-0.0104 -9.33246,-0.0222 -12.36453,-0.0294 -3.03207,-0.007 -4.12392,-0.01 -5.21573,-0.0126 0,0 -0.008,-4.7668 -0.008,-4.7668 0.0301,-6.89924 0.0602,-13.7983 0.0904,-20.71879 0.0302,-6.92048 0.0605,-13.86174 0.0881,-20.18162 0.0276,-6.31988 0.0524,-12.01781 0.0697,-15.97684 0.0173,-3.95902 0.027,-6.17896 0.0367,-8.3989 0,0 -1e-5,2.3e-4 -1e-5,2.3e-4 z"
             id="path8034" />
          <path
             style="fill:#c06d85;fill-opacity:1;stroke:none;stroke-width:6.38381;stroke-linecap:butt;stroke-linejoin:miter;stroke-miterlimit:4;stroke-dasharray:none;stroke-opacity:1"
             d="m -116.83012,196.38741 c 0.66979,3.31678 1.33961,6.63371 2.0101,9.8116 0.67048,3.17789 1.34165,6.21681 1.98528,9.12447 0.64363,2.90766 1.25967,5.68382 1.95994,8.56309 0.70027,2.87928 1.48469,5.86142 2.35279,8.91322 0.8681,3.05179 1.8198,6.17306 2.76585,9.17651 0.94605,3.00345 1.88637,5.88884 2.68899,8.11738 0.80262,2.22854 1.46751,3.80015 2.20112,5.36283 0.7336,1.56267 1.535959,3.11649 2.337135,4.46179 0.801176,1.3453 1.601117,2.48205 2.327537,3.43507 0.726421,0.95301 1.379249,1.72222 2.322756,2.45949 0.943506,0.73728 2.177674,1.44267 3.253244,1.93599 1.075571,0.49332 1.992479,0.7746 2.819779,0.97659 0.8273,0.20199 1.564829,0.32468 2.55489,0.36488 0.990061,0.0402 2.232657,-0.002 3.617227,-0.15268 1.384571,-0.15063 2.911111,-0.40962 4.529424,-0.84702 1.618313,-0.43739 3.328298,-1.05316 5.038348,-1.66895 0,0 -1.805135,-4.67052 -1.805135,-4.67052 0,0 -10.105969,-30.05181 -10.105969,-30.05181 -1.608863,-5.2242 -3.21769,-10.44827 -4.461378,-14.6708 -1.243689,-4.22253 -2.122144,-7.4432 -2.851994,-10.19612 -0.72985,-2.75292 -1.311026,-5.03786 -1.696026,-6.70937 -0.384999,-1.67152 -0.573805,-2.72958 -0.762603,-3.78759 0,0 -23.081305,0.0519 -23.081305,0.0519 0,0 0,5e-5 0,5e-5 z"
             id="path8170" />
          <path
             id="rect21767"
             style="fill:#c06d85;stroke-width:6.38375"
             d="m 100.61579,135.21902 h 62.57389 c 5.54089,0 10.0016,3.68295 10.0016,8.25772 0,4.57478 -4.46071,8.25772 -10.0016,8.25772 h -62.57389 c -5.540887,0 -10.001601,-3.68294 -10.001601,-8.25772 0,-4.57477 4.460714,-8.25772 10.001601,-8.25772 z" />
          <path
             id="rect21931"
             style="fill:#c06d85;stroke-width:6.38375"
             transform="rotate(30)"
             d="m 183.52506,103.17311 h 55.36834 c 7.53683,0 13.60438,3.68294 13.60438,8.25772 0,4.57477 -6.06755,8.25771 -13.60438,8.25771 h -55.36834 c -7.53682,0 -13.60438,-3.68294 -13.60438,-8.25771 0,-4.57478 6.06756,-8.25772 13.60438,-8.25772 z" />
          <path
             id="rect21933"
             style="fill:#c06d85;stroke-width:6.38375"
             transform="rotate(-30)"
             d="M 39.418022,128.82043 H 96.04702 c 7.18762,0 12.97405,3.68295 12.97405,8.25772 0,4.57478 -5.78643,8.25772 -12.97405,8.25772 H 39.418022 c -7.187623,0 -12.974048,-3.68294 -12.974048,-8.25772 0,-4.57477 5.786425,-8.25772 12.974048,-8.25772 z" />
        </g>
      </g>
    </g>
  </g>
</svg>
