<?xml version="1.0" encoding="UTF-8" standalone="no"?>
<svg
   xmlns:dc="http://purl.org/dc/elements/1.1/"
   xmlns:cc="http://creativecommons.org/ns#"
   xmlns:rdf="http://www.w3.org/1999/02/22-rdf-syntax-ns#"
   xmlns:svg="http://www.w3.org/2000/svg"
   xmlns="http://www.w3.org/2000/svg"
   xmlns:sodipodi="http://sodipodi.sourceforge.net/DTD/sodipodi-0.dtd"
   xmlns:inkscape="http://www.inkscape.org/namespaces/inkscape"
   version="1.1"
   id="svg2"
   xml:space="preserve"
   width="239.13333"
   height="242.22667"
   viewBox="0 0 239.13333 242.22667"
   sodipodi:docname="GitHub-Octocat-logo.eps"><metadata
     id="metadata8"><rdf:RDF><cc:Work
         rdf:about=""><dc:format>image/svg+xml</dc:format><dc:type
           rdf:resource="http://purl.org/dc/dcmitype/StillImage" /></cc:Work></rdf:RDF></metadata><defs
     id="defs6"><clipPath
       clipPathUnits="userSpaceOnUse"
       id="clipPath22"><path
         d="M 687.207,101.289 C 698.379,49.0508 725.957,18.1719 752.988,0 L 1041.02,0.339844 C 1075.86,23.9883 1111.49,68.7891 1111.49,153.398 v 216.973 c 0,0 4.47,53.699 53.69,71.59 0,0 29.06,20.129 -2.25,31.309 0,0 -136.44,11.23 -136.44,-100.649 V 207.09 c 0,0 5.39,-61.008 -26.838,-86.11 v 204.29 c 0,0 2.228,64.859 35.778,89.468 0,0 22.37,40.25 -26.83,29.082 0,0 -93.948,-13.422 -98.42,-123.031 l -2.149,-209.891 h -22.582 l -2.129,209.891 c -4.472,109.609 -98.418,123.031 -98.418,123.031 -49.218,11.168 -26.836,-29.082 -26.836,-29.082 33.555,-24.609 35.782,-89.468 35.782,-89.468 V 118.641 c -32.246,22.808 -26.836,88.449 -26.836,88.449 v 165.531 c 0,111.879 -136.446,100.649 -136.446,100.649 -31.328,-11.18 -2.246,-31.309 -2.246,-31.309 49.219,-17.891 53.692,-71.59 53.692,-71.59 V 218.582 Z"
         id="path20" /></clipPath></defs><sodipodi:namedview
     pagecolor="#ffffff"
     bordercolor="#666666"
     borderopacity="1"
     objecttolerance="10"
     gridtolerance="10"
     guidetolerance="10"
     inkscape:pageopacity="0"
     inkscape:pageshadow="2"
     inkscape:window-width="640"
     inkscape:window-height="480"
     id="namedview4" /><g
     id="g10"
     inkscape:groupmode="layer"
     inkscape:label="ink_ext_XXXXXX"
     transform="matrix(1.3333333,0,0,-1.3333333,0,242.22667)"><g
       id="g12"
       transform="scale(0.1)"><path
         d="m 1407.16,416.629 c 0,-97.301 -225.38,-176.168 -503.387,-176.168 -278.031,0 -503.402,78.867 -503.402,176.168 0,97.312 225.371,176.199 503.402,176.199 278.007,0 503.387,-78.887 503.387,-176.199 v 0"
         style="fill:#a5e2f4;fill-opacity:1;fill-rule:nonzero;stroke:none"
         id="path14" /><g
         id="g16"><g
           id="g18"
           clip-path="url(#clipPath22)"><path
             d="m 1407.16,416.629 c 0,-97.301 -225.38,-176.168 -503.387,-176.168 -278.031,0 -503.402,78.867 -503.402,176.168 0,97.312 225.371,176.199 503.402,176.199 278.007,0 503.387,-78.887 503.387,-176.199 v 0"
             style="fill:#86c0ea;fill-opacity:1;fill-rule:nonzero;stroke:none"
             id="path24" /></g></g><path
         d="m 328.73,934.68 -14.531,-50.625 c 0,0 -3.777,-18.301 13.457,-21.543 18.008,0.351 16.532,17.187 15.274,22.656 l -14.2,49.512 v 0"
         style="fill:#a5e2f4;fill-opacity:1;fill-rule:nonzero;stroke:none"
         id="path26" /><path
         d="m 1792.16,1146.95 1.33,6.58 c -147.68,29.53 -299.22,29.82 -390.9,26.01 15.06,54.26 19.59,116.7 19.59,186.33 0,99.86 -37.52,179.76 -98.42,240.54 10.64,34.36 24.86,110.66 -14.2,208.34 0,0 -68.91,21.88 -224.77,-82.44 -61.06,15.26 -126.036,22.8 -191.118,22.8 -71.602,0 -143.945,-9.12 -211.426,-27.63 -160.859,109.75 -231.863,87.27 -231.863,87.27 -46.36,-115.9 -17.699,-201.71 -8.988,-223.03 -54.481,-58.79 -87.743,-133.84 -87.743,-225.85 0,-69.46 7.918,-131.78 27.239,-185.94 C 288.43,1183.29 142.402,1182 0,1153.53 l 1.31641,-6.58 c 143.25359,28.65 290.18759,29.64 382.08959,26.17 4.262,-11.21 8.996,-22.09 14.309,-32.6 -90.879,-2.93 -246.043,-14.51 -394.75406,-56.47 l 1.82422,-6.44 C 154.668,1119.88 311.191,1131.16 401.191,1133.92 455.488,1032.71 562.539,967.336 752.988,946.809 725.957,928.645 698.391,897.766 687.207,845.52 650.371,827.902 533.77,784.898 463.809,905.227 c 0,0 -39.161,71.601 -114.114,77.207 0,0 -72.715,1.113 -5.027,-45.313 0,0 48.66,-22.93 82.227,-109.082 0,0 43.789,-146.949 255.117,-99.801 V 576.441 c 0,0 -4.473,-53.691 -53.692,-71.582 0,0 -29.082,-20.14 2.246,-31.308 0,0 136.446,-11.192 136.446,100.64 v 165.528 c 0,0 -5.403,65.64 26.836,88.457 V 556.301 c 0,0 -2.227,-64.86 -35.782,-89.473 0,0 -22.375,-40.246 26.836,-29.078 0,0 93.946,13.422 98.418,123.031 l 2.141,275.129 h 22.57 l 2.149,-275.129 c 4.472,-109.609 98.42,-123.031 98.42,-123.031 49.2,-11.168 26.83,29.078 26.83,29.078 -33.55,24.613 -35.778,89.473 -35.778,89.473 v 269.531 c 32.228,-25.094 26.838,-86.113 26.838,-86.113 V 574.191 c 0,-111.832 136.44,-100.64 136.44,-100.64 31.31,11.168 2.25,31.308 2.25,31.308 -49.22,17.891 -53.69,71.582 -53.69,71.582 V 793.41 c 0,84.61 -35.63,129.414 -70.47,153.067 203.11,20.136 300.57,85.723 345.48,187.613 88.96,-2.44 249.06,-13.28 402.21,-56.48 l 1.81,6.44 c -152.26,42.95 -311.31,54.07 -401.17,56.68 4.26,10.3 7.97,21 11.27,32.02 91.05,3.88 243.28,3.84 391.54,-25.8 v 0"
         style="fill:#100f0d;fill-opacity:1;fill-rule:nonzero;stroke:none"
         id="path28" /><path
         d="m 1223.52,1370.58 c 43.75,-39.63 69.34,-87.49 69.34,-139.05 0,-240.757 -179.48,-247.28 -400.848,-247.28 -221.399,0 -400.86,33.34 -400.86,247.28 0,51.22 25.235,98.77 68.446,138.25 72.062,65.78 194.043,30.95 332.414,30.95 137.818,0 259.338,35.18 331.508,-30.15 v 0"
         style="fill:#f5c6aa;fill-opacity:1;fill-rule:nonzero;stroke:none"
         id="path30" /><path
         d="m 758.711,1219.25 c 0,-66.31 -37.344,-120.06 -83.398,-120.06 -46.067,0 -83.418,53.75 -83.418,120.06 0,66.31 37.351,120.04 83.418,120.04 46.054,0 83.398,-53.73 83.398,-120.04 v 0"
         style="fill:#ffffff;fill-opacity:1;fill-rule:nonzero;stroke:none"
         id="path32" /><path
         d="m 731.953,1217.75 c 0,-44.2 -24.91,-80.02 -55.605,-80.02 -30.723,0 -55.606,35.82 -55.606,80.02 0,44.21 24.883,80.05 55.606,80.05 30.695,0 55.605,-35.84 55.605,-80.05 v 0"
         style="fill:#ac4a48;fill-opacity:1;fill-rule:nonzero;stroke:none"
         id="path34" /><path
         d="m 1206.18,1219.25 c 0,-66.31 -37.35,-120.06 -83.42,-120.06 -46.06,0 -83.4,53.75 -83.4,120.06 0,66.31 37.34,120.04 83.4,120.04 46.07,0 83.42,-53.73 83.42,-120.04 v 0"
         style="fill:#ffffff;fill-opacity:1;fill-rule:nonzero;stroke:none"
         id="path36" /><path
         d="m 1179.4,1217.75 c 0,-44.2 -24.9,-80.02 -55.61,-80.02 -30.7,0 -55.6,35.82 -55.6,80.02 0,44.21 24.9,80.05 55.6,80.05 30.71,0 55.61,-35.84 55.61,-80.05 v 0"
         style="fill:#ac4a48;fill-opacity:1;fill-rule:nonzero;stroke:none"
         id="path38" /><path
         d="m 914.047,1112.63 c 0,-11.52 -9.336,-20.86 -20.863,-20.86 -11.524,0 -20.86,9.34 -20.86,20.86 0,11.52 9.336,20.86 20.86,20.86 11.527,0 20.863,-9.34 20.863,-20.86 v 0"
         style="fill:#ac4a48;fill-opacity:1;fill-rule:nonzero;stroke:none"
         id="path40" /><path
         d="m 844.59,1059.89 c -1.231,3.5 0.605,7.33 4.09,8.56 3.488,1.23 7.328,-0.61 8.554,-4.08 5.364,-15.16 19.739,-25.33 35.774,-25.33 16.039,0 30.414,10.17 35.785,25.33 1.23,3.49 5.059,5.31 8.555,4.08 3.496,-1.23 5.312,-5.06 4.082,-8.56 -7.246,-20.48 -26.719,-34.25 -48.422,-34.25 -21.699,0 -41.153,13.77 -48.418,34.25 v 0"
         style="fill:#ac4a48;fill-opacity:1;fill-rule:nonzero;stroke:none"
         id="path42" /><path
         d="m 382.148,964.523 c 0,-5.566 -6.523,-10.058 -14.55,-10.058 -8.028,0 -14.543,4.492 -14.543,10.058 0,5.567 6.515,10.079 14.543,10.079 8.027,0 14.55,-4.512 14.55,-10.079 v 0"
         style="fill:#c5ead4;fill-opacity:1;fill-rule:nonzero;stroke:none"
         id="path44" /><path
         d="m 422.422,942.16 c 0,-5.566 -6.524,-10.078 -14.551,-10.078 -8.027,0 -14.543,4.512 -14.543,10.078 0,5.547 6.516,10.059 14.543,10.059 8.027,0 14.551,-4.512 14.551,-10.059 v 0"
         style="fill:#c5ead4;fill-opacity:1;fill-rule:nonzero;stroke:none"
         id="path46" /><path
         d="m 447.031,913.059 c 0,-5.547 -6.515,-10.059 -14.551,-10.059 -8.027,0 -14.531,4.512 -14.531,10.059 0,5.566 6.504,10.078 14.531,10.078 8.036,0 14.551,-4.512 14.551,-10.078 v 0"
         style="fill:#c5ead4;fill-opacity:1;fill-rule:nonzero;stroke:none"
         id="path48" /><path
         d="m 469.395,879.504 c 0,-5.566 -6.504,-10.078 -14.532,-10.078 -8.039,0 -14.55,4.512 -14.55,10.078 0,5.566 6.511,10.078 14.55,10.078 8.028,0 14.532,-4.512 14.532,-10.078 v 0"
         style="fill:#c5ead4;fill-opacity:1;fill-rule:nonzero;stroke:none"
         id="path50" /><path
         d="m 494.016,848.176 c 0,-5.547 -6.516,-10.059 -14.543,-10.059 -8.028,0 -14.551,4.512 -14.551,10.059 0,5.566 6.523,10.078 14.551,10.078 8.027,0 14.543,-4.512 14.543,-10.078 v 0"
         style="fill:#c5ead4;fill-opacity:1;fill-rule:nonzero;stroke:none"
         id="path52" /><path
         d="m 527.578,821.34 c 0,-5.559 -6.515,-10.078 -14.551,-10.078 -8.027,0 -14.531,4.519 -14.531,10.078 0,5.547 6.504,10.058 14.531,10.058 8.036,0 14.551,-4.511 14.551,-10.058 v 0"
         style="fill:#c5ead4;fill-opacity:1;fill-rule:nonzero;stroke:none"
         id="path54" /><path
         d="m 574.559,803.43 c 0,-5.551 -6.512,-10.059 -14.539,-10.059 -8.04,0 -14.551,4.508 -14.551,10.059 0,5.57 6.511,10.082 14.551,10.082 8.027,0 14.539,-4.512 14.539,-10.082 v 0"
         style="fill:#c5ead4;fill-opacity:1;fill-rule:nonzero;stroke:none"
         id="path56" /><path
         d="m 621.316,803.43 c 0,-5.551 -6.511,-10.059 -14.539,-10.059 -8.039,0 -14.55,4.508 -14.55,10.059 0,5.57 6.511,10.082 14.55,10.082 8.028,0 14.539,-4.512 14.539,-10.082 v 0"
         style="fill:#c5ead4;fill-opacity:1;fill-rule:nonzero;stroke:none"
         id="path58" /><path
         d="m 668.777,811.219 c 0,-5.559 -6.511,-10.071 -14.539,-10.071 -8.039,0 -14.55,4.512 -14.55,10.071 0,5.57 6.511,10.082 14.55,10.082 8.028,0 14.539,-4.512 14.539,-10.082 v 0"
         style="fill:#c5ead4;fill-opacity:1;fill-rule:nonzero;stroke:none"
         id="path60" /></g></g></svg>
