
<svg xmlns="http://www.w3.org/2000/svg" version="1.1" xmlns:xlink="http://www.w3.org/1999/xlink" preserveAspectRatio="none" x="0px" y="0px" width="2041px" height="301px" viewBox="0 0 2041 301">
<defs>
<g id="Layer12_0_FILL">
<path fill="#F0F0F0" stroke="none" d="
M 2005.7 301.45
L 2005.7 190.9 1876.6 190.9 1876.6 301.45 2005.7 301.45
M 1771.85 113.3
L 1642.75 113.3 1642.75 301.45 1771.85 301.45 1771.85 113.3
M 1538 165.05
L 1408.9 165.05 1408.9 301.45 1538 301.45 1538 165.05
M 1304.15 301.45
L 1304.15 143.9 1175.05 143.9 1175.05 301.45 1304.15 301.45
M 1070.3 301.45
L 1070.3 209.9 941.2 209.9 941.2 301.45 1070.3 301.45
M 836.4 125.25
L 707.35 125.25 707.35 301.45 836.4 301.45 836.4 125.25
M 602.55 85.3
L 473.45 85.3 473.45 301.45 602.55 301.45 602.55 85.3
M 368.7 301.45
L 368.7 127.65 239.6 127.65 239.6 301.45 368.7 301.45
M 134.85 176.9
L 5.75 176.9 5.75 301.45 134.85 301.45 134.85 176.9 Z"/>
</g>

<g id="Layer12_0_STROKES_1_FILL">
<path fill="#D5D5D5" stroke="none" d="
M 0.3 92.35
Q 1.1666015625 95.006640625 3.6 96.3 28.5603515625 109.2732421875 41.9 114.45 61.3853515625 122.0041015625 80.3 124.55 83.057421875 124.9099609375 85.25 123.2 87.5009765625 121.5048828125 87.85 118.75 88.24921875 115.994921875 86.55 113.75 84.8525390625 111.5384765625 82.1 111.15 64.7146484375 108.7958984375 46.8 101.85 33.9400390625 96.826953125 9.85 84.3 7.3630859375 83.0177734375 4.7 83.85 2.0556640625 84.71953125 0.75 87.2 -0.5197265625 89.68984375 0.3 92.35
M 248.1 85.9
Q 247.1990234375 83.2591796875 244.65 82 242.1669921875 80.8056640625 239.55 81.7 211.99921875 91.2576171875 194.7 96.25
L 194.7 96.25
Q 177.1861328125 101.401171875 161.35 104.9 158.6361328125 105.5111328125 157.1 107.85 155.6060546875 110.2314453125 156.2 112.95 156.8099609375 115.6673828125 159.15 117.15 161.527734375 118.692578125 164.25 118.1 180.5142578125 114.4986328125 198.5 109.2
L 198.45 109.2
Q 216.00078125 104.1421875 243.95 94.45 246.5931640625 93.5462890625 247.8 91 249.0470703125 88.51953125 248.1 85.9
M 397.65 33.2
Q 395.259765625 31.81328125 392.55 32.5 356.250390625 42.16953125 319.7 54
L 319.75 54
Q 317.515625 54.7361328125 314.9 55.6 312.2837890625 56.4806640625 311 58.95 309.76640625 61.4796875 310.65 64.1 311.5294921875 66.7681640625 314 68 316.527734375 69.282421875 319.15 68.4 321.684375 67.563671875 323.85 66.85
L 323.85 66.85
Q 360.05 55.130078125 396 45.55 398.71796875 44.84765625 400.1 42.4 401.5388671875 40.010546875 400.8 37.3 400.1 34.6328125 397.65 33.2
M 557.4 6.25
Q 555.3205078125 4.3814453125 552.5 4.5 550.2998046875 4.6115234375 548.05 4.75
L 548.15 4.75
Q 513.7466796875 6.7197265625 475.1 13.7 473.425 14 471.7 14.3 468.975390625 14.8013671875 467.35 17.1 465.7646484375 19.389453125 466.25 22.1 466.7482421875 24.8689453125 469.05 26.45 471.344921875 28.0822265625 474.05 27.6 475.775 27.3 477.45 27
L 477.5 27
Q 515.26484375 20.179296875 548.9 18.25
L 549 18.2
Q 551.0998046875 18.08828125 553.15 18 555.9455078125 17.8677734375 557.8 15.8 559.720703125 13.7314453125 559.6 10.95 559.469921875 8.165234375 557.4 6.25
M 720.15 22.45
Q 718.5826171875 20.123046875 715.85 19.55 705.9478515625 17.61171875 696.85 15.95 663.230078125 9.8994140625 634.7 6.9 631.923046875 6.64921875 629.75 8.4 627.5828125 10.1859375 627.3 12.95 627.0099609375 15.723828125 628.75 17.9 630.5390625 20.077734375 633.3 20.35 661.3705078125 23.3005859375 694.45 29.25 703.451953125 30.88828125 713.25 32.8 715.981640625 33.362890625 718.3 31.8 720.6283203125 30.2353515625 721.15 27.5 721.714453125 24.7708984375 720.15 22.45
M 878.8 60.15
Q 877.403125 57.7373046875 874.7 57 868.5375 55.425 862.3 53.8
L 862.35 53.8
Q 827.3345703125 44.7486328125 795.7 37.15 793.0091796875 36.5291015625 790.6 38 788.2458984375 39.4673828125 787.6 42.15 786.940234375 44.8876953125 788.4 47.25 789.8705078125 49.6654296875 792.55 50.3 824.0654296875 57.8513671875 858.95 66.85
L 858.95 66.85
Q 865.1625 68.475 871.3 70.05 873.9880859375 70.785546875 876.4 69.35 878.8154296875 67.95078125 879.5 65.25 880.23828125 62.5595703125 878.8 60.15
M 1033.7 95.9
Q 1031.8490234375 93.802734375 1029.05 93.6 1011.69296875 92.501171875 993.75 88.75 982.434375 86.3744140625 967 82.2
L 966.95 82.2
Q 964.14375 81.478125 952.6 78.25 949.9404296875 77.4986328125 947.5 78.85 945.0587890625 80.2466796875 944.3 82.9 943.5466796875 85.608984375 944.9 88.05 946.2970703125 90.4892578125 948.95 91.25 960.65625 94.5216796875 963.5 95.25 979.3744140625 99.52734375 991 101.95 1009.9072265625 105.8986328125 1028.2 107.05 1031.00390625 107.25 1033.1 105.4 1035.19921875 103.5515625 1035.35 100.75 1035.5521484375 97.9986328125 1033.7 95.9
M 1192.1 75.55
Q 1192 75.55 1191.9 75.55 1191.367578125 75.544140625 1190.8 75.6 1138.3955078125 84.12109375 1113.85 87.65
L 1113.8 87.65
Q 1111.5880859375 88.01171875 1109.4 88.3 1106.64375 88.676171875 1104.95 90.9 1103.2509765625 93.13203125 1103.6 95.9 1103.986328125 98.6546875 1106.2 100.35 1108.4337890625 102.0591796875 1111.2 101.7 1113.51171875 101.38828125 1115.85 101
L 1115.8 101
Q 1140.3212890625 97.491015625 1192.6 89 1195.083203125 88.8650390625 1196.85 87.05 1198.8509765625 85.0970703125 1198.85 82.3 1198.8509765625 79.5029296875 1196.85 77.5 1194.8970703125 75.5490234375 1192.1 75.55
M 1357.4 66
Q 1355.506640625 63.967578125 1352.7 63.85 1314.537890625 62.2849609375 1271.3 65.8 1268.5337890625 66.048828125 1266.7 68.15 1264.904296875 70.3162109375 1265.1 73.1 1265.3466796875 75.8681640625 1267.45 77.65 1269.6142578125 79.4935546875 1272.4 79.25 1314.7619140625 75.8150390625 1352.15 77.35 1354.959765625 77.4541015625 1357 75.55 1359.084765625 73.6552734375 1359.2 70.85 1359.3064453125 68.0888671875 1357.4 66
M 1520.4 78.55
Q 1518.4072265625 76.6197265625 1515.6 76.65 1499.62890625 76.84765625 1479.4 75.35 1463.8251953125 74.220703125 1438.85 71.55
L 1438.85 71.6
Q 1437.475 71.45 1436.05 71.3 1433.305859375 70.9982421875 1431.1 72.75 1428.9474609375 74.5072265625 1428.65 77.25 1428.34609375 80.0447265625 1430.1 82.2 1431.856640625 84.4001953125 1434.6 84.7 1436.025 84.85 1437.4 85
L 1437.45 85
Q 1462.6748046875 87.679296875 1478.4 88.8 1499.2708984375 90.3521484375 1515.75 90.15 1518.559765625 90.108203125 1520.5 88.1 1522.4822265625 86.1037109375 1522.45 83.3 1522.4103515625 80.5365234375 1520.4 78.55
M 1656.85 67.95
L 1656.85 67.95
Q 1667.1109375 66.0646484375 1677.1 64.55 1679.8392578125 64.1669921875 1681.5 61.9 1683.1779296875 59.67890625 1682.75 56.9 1682.36875 54.1705078125 1680.1 52.5 1677.8693359375 50.823828125 1675.1 51.2 1664.90078125 52.7333984375 1654.45 54.65 1641.4751953125 57.0177734375 1619.85 61.65 1604.76484375 64.8494140625 1595.4 66.8 1592.6865234375 67.38203125 1591.15 69.7 1589.6205078125 72.058984375 1590.2 74.75 1590.7791015625 77.508984375 1593.1 79.05 1595.4634765625 80.5765625 1598.15 80 1607.5349609375 78.050390625 1622.65 74.85 1644.024609375 70.28203125 1656.85 67.95
M 1842.3 59.35
Q 1840.8982421875 56.9177734375 1838.2 56.15 1819.254296875 51.071875 1802.3 48.5 1780.9064453125 45.304296875 1756.5 45.1 1753.7125 45.0841796875 1751.7 47.05 1749.725390625 49.015625 1749.7 51.8 1749.68203125 54.5830078125 1751.65 56.55 1753.6203125 58.5724609375 1756.4 58.6 1779.7939453125 58.7955078125 1800.3 61.85 1816.5451171875 64.3279296875 1834.7 69.2 1837.3787109375 69.94921875 1839.8 68.55 1842.222265625 67.1458984375 1842.95 64.45 1843.689453125 61.7689453125 1842.3 59.35
M 1996 109.75
Q 1994.5453125 107.3623046875 1991.85 106.7 1977.0224609375 103.0787109375 1967.55 100.45
L 1967.5 100.45
Q 1944.8181640625 94.2259765625 1923.05 86.15
L 1922.95 86.15
Q 1920.75390625 85.3609375 1915.25 83.25 1912.6857421875 82.2427734375 1910.1 83.35 1907.563671875 84.5193359375 1906.55 87.1 1905.5388671875 89.7201171875 1906.65 92.25 1907.8134765625 94.8322265625 1910.4 95.85 1916.1458984375 98.0388671875 1918.45 98.85
L 1918.35 98.8
Q 1940.6818359375 107.073828125 1963.95 113.45
L 1963.95 113.45
Q 1973.57734375 116.12109375 1988.65 119.8 1991.3615234375 120.4591796875 1993.75 119 1996.1388671875 117.548828125 1996.8 114.85 1997.460546875 112.1419921875 1996 109.75 Z"/>
</g>
</defs>

<g transform="matrix( 1, 0, 0, 1, 0,0) ">
<use xlink:href="#Layer12_0_FILL"/>

<use xlink:href="#Layer12_0_STROKES_1_FILL"/>
</g>
</svg>
