
<svg xmlns="http://www.w3.org/2000/svg" version="1.1" xmlns:xlink="http://www.w3.org/1999/xlink" preserveAspectRatio="none" x="0px" y="0px" width="454px" height="450px" viewBox="0 0 454 450">
<defs>
<g id="Layer13_0_MEMBER_0_FILL">
<path fill="#B48F8F" stroke="none" d="
M 905 630
L 905 615
Q 905 600 890 600
L 875 600
Q 860 600 860 615
L 860 630
Q 860 645 875 645
L 890 645
Q 905 645 905 630 Z"/>
</g>

<g id="Layer13_0_MEMBER_1_FILL">
<path fill="#DAD3D3" stroke="none" d="
M 905 630
L 905 615
Q 905 600 890 600
L 875 600
Q 860 600 860 615
L 860 630
Q 860 645 875 645
L 890 645
Q 905 645 905 630 Z"/>
</g>

<g id="Layer13_0_MEMBER_2_FILL">
<path fill="#D0C4C4" stroke="none" d="
M 905 630
L 905 615
Q 905 600 890 600
L 875 600
Q 860 600 860 615
L 860 630
Q 860 645 875 645
L 890 645
Q 905 645 905 630 Z"/>
</g>

<g id="Layer13_0_MEMBER_3_FILL">
<path fill="#D0C4C4" stroke="none" d="
M 905 630
L 905 615
Q 905 600 890 600
L 875 600
Q 860 600 860 615
L 860 630
Q 860 645 875 645
L 890 645
Q 905 645 905 630 Z"/>
</g>

<g id="Layer13_0_MEMBER_4_FILL">
<path fill="#B48F8F" stroke="none" d="
M 905 630
L 905 615
Q 905 600 890 600
L 875 600
Q 860 600 860 615
L 860 630
Q 860 645 875 645
L 890 645
Q 905 645 905 630 Z"/>
</g>

<g id="Layer13_0_MEMBER_5_FILL">
<path fill="#D0C4C4" stroke="none" d="
M 905 630
L 905 615
Q 905 600 890 600
L 875 600
Q 860 600 860 615
L 860 630
Q 860 645 875 645
L 890 645
Q 905 645 905 630 Z"/>
</g>

<g id="Layer13_0_MEMBER_6_FILL">
<path fill="#DAD3D3" stroke="none" d="
M 905 630
L 905 615
Q 905 600 890 600
L 875 600
Q 860 600 860 615
L 860 630
Q 860 645 875 645
L 890 645
Q 905 645 905 630 Z"/>
</g>

<g id="Layer13_0_MEMBER_7_FILL">
<path fill="#FFFFFF" stroke="none" d="
M 103.7 358.85
L 117.85 373 141.9 348.95 145.7 352.75
Q 147 354.05 147.6 355.75 148.15 357.4 148.15 359.5 148.15 361.5 147.7 363.95 147.25 366.4 146.5 369.35
L 140.15 395.3 156.4 411.55 163.05 381.1
Q 163.6 378.75 164 376.15 164.4 373.45 164.5 370.95 164.55 368.4 164.25 366.1 163.9 363.75 162.95 361.9
L 163.1 361.75
Q 167.2 364.05 171.5 365.05 175.7 366.05 179.75 365.6 183.85 365.2 187.6 363.45 191.45 361.7 194.75 358.4 211.8 341.35 188.9 318.45
L 166.5 296.05 103.7 358.85
M 158.7 344.35
L 152.6 338.25 170.05 320.8 176.45 327.2
Q 186.3 337.05 178.1 345.25 174.15 349.2 168.65 349.1 163.25 348.9 158.7 344.35
M 84.2 179.45
Q 91.85 171.6 104.35 171.6 115.75 171.6 124.7 176.95
L 124.7 157.65
Q 115.75 154.4 102.75 154.4 81.75 154.4 68.65 167.65 55.45 180.9 55.45 202.2 55.45 222.2 67.15 234.25 78.85 246.25 99.3 246.25 114.95 246.25 124.7 241.55
L 124.7 223.25
Q 114.95 228.95 103.25 228.95 91 228.95 83.75 221.35 76.5 213.65 76.5 200.8 76.5 187.35 84.2 179.45
M 288.7 195.9
L 252.4 159.6 189.6 222.4 203.75 236.55 228.15 212.15 248.5 232.5 259.95 221.05 239.6 200.7 255.05 185.25 277.2 207.4 288.7 195.9 Z"/>
</g>
</defs>

<g transform="matrix( 2.803436279296875, 2.803436279296875, -2.803436279296875, 2.803436279296875, -571.4,-3874.2) ">
<use xlink:href="#Layer13_0_MEMBER_0_FILL"/>
</g>

<g transform="matrix( 2.879180908203125, 0.5343017578125, -0.5343017578125, 2.879180908203125, -2021.9,-2193.75) ">
<use xlink:href="#Layer13_0_MEMBER_1_FILL"/>
</g>

<g transform="matrix( 2.226287841796875, 1.9022674560546875, -1.9022674560546875, 2.226287841796875, -482,-2983.9) ">
<use xlink:href="#Layer13_0_MEMBER_2_FILL"/>
</g>

<g transform="matrix( 1.6580963134765625, 2.4135894775390625, -2.4135894775390625, 1.6580963134765625, 332.35,-2816.4) ">
<use xlink:href="#Layer13_0_MEMBER_3_FILL"/>
</g>

<g transform="matrix( 2.9192962646484375, -0.229034423828125, 0.229034423828125, 2.9192962646484375, -2332.3,-1447.25) ">
<use xlink:href="#Layer13_0_MEMBER_4_FILL"/>
</g>

<g transform="matrix( 3.964752197265625, 0, 0, 3.964752197265625, -3409.7,-2271.25) ">
<use xlink:href="#Layer13_0_MEMBER_5_FILL"/>
</g>

<g transform="matrix( 2.803436279296875, 2.803436279296875, -2.803436279296875, 2.803436279296875, -491.1,-4008.4) ">
<use xlink:href="#Layer13_0_MEMBER_6_FILL"/>
</g>

<g transform="matrix( 1, 0, 0, 1, 0,0) ">
<use xlink:href="#Layer13_0_MEMBER_7_FILL"/>
</g>
</svg>
