
<svg xmlns="http://www.w3.org/2000/svg" version="1.1" xmlns:xlink="http://www.w3.org/1999/xlink" preserveAspectRatio="none" x="0px" y="0px" width="109px" height="93px" viewBox="0 0 109 93">
<defs>
<g id="Layer0_0_FILL">
<path fill="#FFDBB7" stroke="none" d="
M 29.5 44.15
L 22.6 37 0 58.85 0 72.65 29.5 44.15
M 51.65 11.1
Q 43.35 16.8 41.9 18.3
L 24.75 34.9 31.65 42.1 48.85 25.45
Q 50.35 24.05 53.85 18.65 55.35 16.45 56.4 14.55
L 52.45 10.5
Q 52.05 10.8 51.65 11.1
M 4.9 92.3
L 3.4 86.85 0 90.25 0 93.3 3.85 93.3 4.9 92.3
M 55.85 34.35
L 51.65 38.55 49.55 40.7 24.2 66.05 36.2 62.85 61 39.5 55.85 34.35
M 85.9 90.85
L 90.9 78.6 81.6 74.9 74.15 93.3 84.9 93.3 85.9 90.85
M 98.3 38.7
Q 98.05 39.05 97.85 39.5 92.5 48.05 91.7 49.95
L 90 54.15 82.7 72.1 92.05 75.85 96.75 64.25 101 53.75
Q 101.75 51.8 102.85 45.5 103.25 42.85 103.45 40.6
L 98.3 38.7
M 85.3 7.4
Q 84.9 7.7 84.45 8.05 76.3 13.9 74.85 15.35
L 72.4 17.85 57.95 32.25 63.15 37.45 72.35 28.8 74.5 26.75 87.4 14.65
Q 88.45 12.9 89.25 11.35
L 85.3 7.4 Z"/>

<path fill="#806C59" stroke="none" d="
M 22.6 37
L 29.5 44.15 31.65 42.1 24.75 34.9 22.6 37
M 72.35 28.8
L 79.2 36.05 81.35 34.05 74.5 26.75 72.35 28.8
M 57.95 32.25
L 55.85 34.35 61 39.5 63.15 37.45 57.95 32.25
M 49.55 40.7
L 51.65 38.55 45.6 32.95 43.65 35.15 49.55 40.7
M 90.9 78.6
L 92.05 75.85 82.7 72.1 81.6 74.9 90.9 78.6 Z"/>

<path fill="#F67280" stroke="none" d="
M 52.45 10.5
L 56.4 14.55
Q 57.9 11.7 58.65 9.35 59.75 5.6 52.45 10.5 Z"/>

<path fill="#F7C695" stroke="none" d="
M 5.15 93.3
L 4.9 92.3 3.85 93.3 5.15 93.3
M 1.65 80.25
L 0 82 0 90.25 3.4 86.85 1.65 80.25
M 72.35 28.8
L 63.15 37.45 61 39.5 36.2 62.85 56.6 57.35 79.2 36.05 72.35 28.8
M 49.55 40.7
L 43.65 35.15 11.75 69.4 24.2 66.05 49.55 40.7
M 72.15 7.25
Q 71.75 7.5 71.35 7.9 63.35 13.95 61.9 15.45
L 45.6 32.95 51.65 38.55 55.85 34.35 57.95 32.25 72.4 17.85
Q 73.1 16.65 73.95 15.25 75.25 12.95 76.2 10.95
L 72.15 7.25
M 102.6 2.75
Q 102.2 3.05 101.75 3.35 93.4 8.95 91.9 10.4
L 87.4 14.65 74.5 26.75 81.35 34.05 98.75 17.65
Q 100.25 16.25 103.9 10.9 105.4 8.75 106.45 6.8
L 102.6 2.75 Z"/>

<path fill="#35B0AB" stroke="none" d="
M 76.2 10.95
Q 77.6 8.1 78.25 5.7 79.15 1.85 72.15 7.25
L 76.2 10.95 Z"/>

<path fill="#FFB9C1" stroke="none" d="
M 92.05 75.85
L 90.9 78.6 85.9 90.85 98.8 87.4
Q 102.7 86.4 101.65 82.55
L 96.75 64.25 92.05 75.85
M 90 54.15
Q 89.5 53.8 89 53.5 83.3 50.2 76.9 51.9
L 56.6 57.35 36.2 62.85 24.2 66.05 11.75 69.4 3.45 71.6
Q -0.4 72.6 0.6 76.45
L 1.65 80.25 3.4 86.85 4.9 92.3 5.15 93.3 74.15 93.3 81.6 74.9 82.7 72.1 90 54.15 Z"/>

<path fill="#69C171" stroke="none" d="
M 103.45 40.6
Q 103.75 37.45 103.55 35 102.95 31.1 98.3 38.7
L 103.45 40.6 Z"/>

<path fill="#83A6CC" stroke="none" d="
M 89.25 11.35
Q 90.75 8.45 91.45 6.1 92.5 2.35 85.3 7.4
L 89.25 11.35 Z"/>

<path fill="#6F5980" stroke="none" d="
M 106.45 6.8
Q 108.05 3.95 108.8 1.65 109.95 -2.1 102.6 2.75
L 106.45 6.8 Z"/>
</g>
</defs>

<g transform="matrix( 1, 0, 0, 1, 0,0) ">
<use xlink:href="#Layer0_0_FILL"/>
</g>
</svg>
