<?xml version="1.0" encoding="UTF-8" standalone="no"?>
<!-- Created with Inkscape (http://www.inkscape.org/) -->

<svg
   width="145.86905mm"
   height="164.75429mm"
   viewBox="0 0 145.86905 164.75429"
   version="1.1"
   id="svg5"
   inkscape:version="1.1.1 (c3084ef, 2021-09-22)"
   sodipodi:docname="amp-header.svg"
   xmlns:inkscape="http://www.inkscape.org/namespaces/inkscape"
   xmlns:sodipodi="http://sodipodi.sourceforge.net/DTD/sodipodi-0.dtd"
   xmlns="http://www.w3.org/2000/svg"
   xmlns:svg="http://www.w3.org/2000/svg">
  <sodipodi:namedview
     id="namedview7"
     pagecolor="#ffffff"
     bordercolor="#111111"
     borderopacity="1"
     inkscape:pageshadow="0"
     inkscape:pageopacity="0"
     inkscape:pagecheckerboard="1"
     inkscape:document-units="mm"
     showgrid="false"
     inkscape:zoom="0.51134961"
     inkscape:cx="257.16261"
     inkscape:cy="332.45357"
     inkscape:window-width="908"
     inkscape:window-height="770"
     inkscape:window-x="504"
     inkscape:window-y="71"
     inkscape:window-maximized="0"
     inkscape:current-layer="layer1" />
  <defs
     id="defs2" />
  <g
     inkscape:label="Layer 1"
     inkscape:groupmode="layer"
     id="layer1"
     transform="translate(-36.51513,-60.654429)">
    <ellipse
       style="fill:#eeeeee;fill-opacity:1;stroke-width:0.301341"
       id="path96"
       cx="112.02177"
       cy="142.54965"
       rx="63.901566"
       ry="63.38414" />
    <g
       id="layer1-0"
       transform="matrix(0.48616888,0.09738382,-0.09042123,0.48339531,105.15058,21.107476)">
      <circle
         style="fill:#cccccc;fill-opacity:1;stroke:none;stroke-width:0.181129;stroke-linejoin:round;paint-order:stroke fill markers"
         id="circle64450"
         cx="106.4583"
         cy="139.40715"
         r="77.938354"
         transform="rotate(0.33905971)" />
      <circle
         style="fill:#ffffff;fill-opacity:1;stroke:none;stroke-width:0.156641;stroke-linejoin:round;paint-order:stroke fill markers"
         id="circle64452"
         cx="106.4583"
         cy="139.40715"
         r="67.400772"
         transform="rotate(0.33905971)" />
      <path
         id="path64454"
         style="fill:#ec7e8a;fill-opacity:1;stroke:none;stroke-width:0.181129;stroke-linejoin:round;paint-order:stroke fill markers"
         d="m 120.62014,113.62901 a 30.367144,30.367144 0 0 1 0.66103,0.38167 30.367144,30.367144 0 0 1 0.91888,0.57516 30.367144,30.367144 0 0 1 0.89782,0.60757 30.367144,30.367144 0 0 1 0.87551,0.63922 30.367144,30.367144 0 0 1 0.85213,0.67014 30.367144,30.367144 0 0 1 0.82766,0.70005 30.367144,30.367144 0 0 1 0.80215,0.72914 30.367144,30.367144 0 0 1 0.77566,0.75735 30.367144,30.367144 0 0 1 0.74812,0.78456 30.367144,30.367144 0 0 1 0.7196,0.81072 30.367144,30.367144 0 0 1 0.6902,0.83588 30.367144,30.367144 0 0 1 0.65999,0.86005 30.367144,30.367144 0 0 1 0.62881,0.88304 30.367144,30.367144 0 0 1 0.5969,0.90488 30.367144,30.367144 0 0 1 0.56426,0.92563 30.367144,30.367144 0 0 1 0.53089,0.94517 30.367144,30.367144 0 0 1 0.4968,0.96351 30.367144,30.367144 0 0 1 0.46202,0.98063 30.367144,30.367144 0 0 1 0.42674,0.99655 30.367144,30.367144 0 0 1 0.39096,1.01106 30.367144,30.367144 0 0 1 0.35457,1.02443 30.367144,30.367144 0 0 1 0.3178,1.03646 30.367144,30.367144 0 0 1 0.28062,1.04706 30.367144,30.367144 0 0 1 0.243,1.05646 30.367144,30.367144 0 0 1 0.2052,1.06445 30.367144,30.367144 0 0 1 0.16704,1.07107 30.367144,30.367144 0 0 1 0.1288,1.07638 30.367144,30.367144 0 0 1 0.0902,1.08033 30.367144,30.367144 0 0 1 0.0516,1.08278 30.367144,30.367144 0 0 1 0.0131,1.08396 30.367144,30.367144 0 0 1 -0.18513,3.17324 30.367144,30.367144 0 0 1 -0.51583,3.1364 30.367144,30.367144 0 0 1 -0.84082,3.06541 30.367144,30.367144 0 0 1 -1.15666,2.96068 30.367144,30.367144 0 0 1 -1.45982,2.82352 l 24.87239,15.31281 a 59.609576,59.609576 0 0 0 8.52777,-30.29901 59.609576,59.609576 0 0 0 -31.89057,-53.099587 l -12.7211,26.341237 z" />
      <path
         id="path64456"
         style="fill:#246b81;fill-opacity:1;stroke:none;stroke-width:0.181129;stroke-linejoin:round;paint-order:stroke fill markers"
         d="m 78.539767,86.963483 a 59.609576,59.609576 0 0 0 -32.516815,52.718427 59.609576,59.609576 0 0 0 8.168515,30.39783 l 25.05184,-15.01737 a 30.367144,30.367144 0 0 1 -1.426242,-2.8406 30.367144,30.367144 0 0 1 -1.121496,-2.97416 30.367144,30.367144 0 0 1 -0.804463,-3.07516 30.367144,30.367144 0 0 1 -0.478639,-3.14227 30.367144,30.367144 0 0 1 -0.147563,-3.17522 30.367144,30.367144 0 0 1 0.185132,-3.17317 30.367144,30.367144 0 0 1 0.515806,-3.13647 30.367144,30.367144 0 0 1 0.840799,-3.06535 30.367144,30.367144 0 0 1 1.156617,-2.96067 30.367144,30.367144 0 0 1 1.459765,-2.82353 30.367144,30.367144 0 0 1 1.74693,-2.65549 30.367144,30.367144 0 0 1 2.014968,-2.45839 30.367144,30.367144 0 0 1 2.260883,-2.23422 30.367144,30.367144 0 0 1 2.481954,-1.98569 30.367144,30.367144 0 0 1 2.675989,-1.71538 30.367144,30.367144 0 0 1 0.360672,-0.19309 l -0.01617,1.5e-4 z" />
      <path
         id="path64458"
         style="fill:#35b0ab;fill-opacity:1;stroke:none;stroke-width:0.181129;stroke-linejoin:round;paint-order:stroke fill markers"
         d="m 78.539767,86.963483 12.408389,26.489937 0.01617,-1.4e-4 a 30.367144,30.367144 0 0 1 2.48004,-1.23323 30.367144,30.367144 0 0 1 2.97415,-1.12147 30.367144,30.367144 0 0 1 3.075094,-0.80454 30.367144,30.367144 0 0 1 3.14227,-0.47864 30.367144,30.367144 0 0 1 3.17522,-0.14756 30.367144,30.367144 0 0 1 1.08374,0.0258 30.367144,30.367144 0 0 1 1.0821,0.0644 30.367144,30.367144 0 0 1 1.07919,0.10296 30.367144,30.367144 0 0 1 1.07475,0.14151 30.367144,30.367144 0 0 1 1.06904,0.17973 30.367144,30.367144 0 0 1 1.06195,0.21777 30.367144,30.367144 0 0 1 1.05351,0.25551 30.367144,30.367144 0 0 1 1.04372,0.29301 30.367144,30.367144 0 0 1 1.03257,0.33003 30.367144,30.367144 0 0 1 1.02013,0.36667 30.367144,30.367144 0 0 1 1.00638,0.40289 30.367144,30.367144 0 0 1 0.99146,0.43853 30.367144,30.367144 0 0 1 0.97508,0.4736 30.367144,30.367144 0 0 1 0.95755,0.50816 30.367144,30.367144 0 0 1 0.27777,0.16035 l 0.008,-8e-5 12.72113,-26.341237 a 59.609576,59.609576 0 0 0 -27.36521,-6.86169 59.609576,59.609576 0 0 0 -27.444464,6.53734 z" />
      <g
         id="g64464"
         transform="matrix(0.13691374,8.102249e-4,-8.102249e-4,0.13691374,459.92444,21.04538)"
         style="fill:#696969;fill-opacity:1">
        <circle
           style="fill:#696969;fill-opacity:1;stroke:none;stroke-width:1.37187;stroke-linejoin:round;paint-order:stroke fill markers"
           id="circle64460"
           cx="-2582.4758"
           cy="1192.6316"
           r="61.759159" />
        <path
           style="fill:#696969;fill-opacity:1;stroke:none;stroke-width:5;stroke-linejoin:round;paint-order:stroke fill markers"
           id="path64462"
           transform="matrix(0.37901202,0.07107998,-0.01277634,2.1085989,1153.6964,-4863.4605)"
           d="m -9588.2866,3194.2658 c -15.21,28.5187 -305.9363,38.3029 -323.0292,10.8713 -17.0929,-27.4316 119.7969,-284.1001 152.0998,-285.1872 32.3029,-1.0871 186.1394,245.7972 170.9294,274.3159 z" />
      </g>
      <circle
         style="fill:#e6e6e6;fill-opacity:1;stroke:none;stroke-width:0.311543;stroke-linejoin:round;paint-order:stroke fill markers"
         id="circle64466"
         cx="106.45827"
         cy="180.56245"
         r="4.2746806"
         transform="rotate(0.33905971)" />
    </g>
    <g
       id="g87410"
       transform="matrix(0.31718832,-0.01117866,0.00987545,0.3068781,166.40291,-198.6953)">
      <path
         style="fill:#868686;fill-opacity:1;stroke:none;stroke-width:1.00157;stroke-linecap:square;stroke-linejoin:miter;stroke-miterlimit:4;stroke-dasharray:none;stroke-opacity:1;paint-order:stroke fill markers"
         id="path64468"
         transform="matrix(0.05628672,6.114684e-4,-6.2082921e-4,0.05542385,1277.0437,742.66744)"
         d="m -27212.91,11514.647 c -69.235,123.012 -1339.574,136.922 -1411.487,15.457 -71.913,-121.466 551.209,-1228.567 692.358,-1230.113 141.149,-1.545 788.365,1091.645 719.129,1214.656 z" />
      <path
         id="path64470"
         style="fill:#868686;fill-opacity:1;stroke:none;stroke-width:20.8244;stroke-linecap:square;stroke-linejoin:miter;stroke-miterlimit:4;stroke-dasharray:none;stroke-opacity:1;paint-order:stroke fill markers"
         d="m -158.45464,1292.9772 -286.19602,-0.026 -0.003,27.5323 c -5.3e-4,5.8669 4.72216,10.5904 10.58901,10.591 l 265.01609,0.024 c 5.86685,6e-4 10.5904,-4.7221 10.59093,-10.589 z" />
      <path
         id="path64472"
         style="fill:#868686;fill-opacity:1;stroke:none;stroke-width:20.8245;stroke-linecap:square;stroke-linejoin:miter;stroke-miterlimit:4;stroke-dasharray:none;stroke-opacity:1;paint-order:stroke fill markers"
         d="m -434.04473,1118.1824 c -5.86685,-5e-4 -10.5904,4.7221 -10.59093,10.5889 l -0.0145,159.098 286.19602,0.026 0.0145,-159.0979 c 5.4e-4,-5.8669 -4.72216,-10.5904 -10.58899,-10.591 z" />
      <rect
         style="fill:#ffffff;fill-opacity:1;stroke:none;stroke-width:25.1399;stroke-linecap:square;stroke-linejoin:miter;stroke-miterlimit:4;stroke-dasharray:none;stroke-opacity:1;paint-order:stroke fill markers"
         id="rect64474"
         width="263.92337"
         height="147.41541"
         x="-433.39691"
         y="1129.3582"
         rx="0"
         ry="0"
         transform="rotate(0.00520663)" />
      <circle
         style="fill:#ffffff;fill-opacity:1;stroke:none;stroke-width:19.2122;stroke-linecap:square;stroke-linejoin:miter;stroke-miterlimit:4;stroke-dasharray:none;stroke-opacity:1;paint-order:stroke fill markers"
         id="circle64476"
         cx="-301.43518"
         cy="1312.0527"
         r="6.11552"
         transform="rotate(0.00520663)" />
      <rect
         style="fill:#868686;fill-opacity:1;stroke:none;stroke-width:0.050912;stroke-linecap:square;stroke-linejoin:miter;stroke-miterlimit:4;stroke-dasharray:none;stroke-opacity:1;paint-order:stroke fill markers"
         id="rect64478"
         width="106.96867"
         height="12.652207"
         x="-354.91946"
         y="1356.6675"
         rx="6.3261037"
         ry="6.3261037"
         transform="rotate(0.00520663)" />
      <g
         id="g84770"
         transform="translate(333.50143,14.54281)">
        <path
           id="path79839"
           style="fill:#35b0ab;fill-opacity:1;stroke:none;stroke-width:0.194981;stroke-linecap:square;stroke-linejoin:miter;stroke-miterlimit:4;stroke-dasharray:none;stroke-opacity:1;paint-order:stroke fill markers"
           d="m -593.50692,1170.111 -3.47369,4.5217 -9.65729,3.638 -12.17084,-0.8599 -2.77812,-4.6302 -8.7974,0.1323 -4.56406,4.3656 1.45521,10.1203 10.2526,4.8287 5.95313,-1.5214 7.73906,2.1828 v 6.2839 l 5.88698,11.2448 0.26458,6.0854 2.1544,2.3079 a 45.42655,45.42655 0 0 0 11.62307,-30.315 45.42655,45.42655 0 0 0 -3.88763,-18.3849 z" />
        <path
           id="path80314"
           style="fill:#35b0ab;fill-opacity:1;stroke:none;stroke-width:0.194981;stroke-linecap:square;stroke-linejoin:miter;stroke-miterlimit:4;stroke-dasharray:none;stroke-opacity:1;paint-order:stroke fill markers"
           d="m -678.80041,1176.3271 0.81235,0.5365 2.38537,6.8285 7.57733,5.0048 0.79528,1.1225 -2.24533,2.9 -0.0935,4.3031 2.90007,5.8932 7.62384,1.4966 -0.32764,14.6399 2.99363,7.5768 4.53668,1.0759 0.14055,-7.0161 5.79964,-4.6302 0.0465,-4.2096 6.03374,-5.8467 1.0759,-7.2496 -5.56606,0.047 -4.5837,-7.4833 -10.28983,-0.2341 -2.9936,-5.5655 -4.34962,3.9755 0.18709,-5.2385 -3.08716,-3.1337 0.16537,-4.518 10.31875,-1.3229 7.14375,-4.2334 4.36562,-7.5406 4.49792,-1.7198 1.32291,-4.2333 -8.06979,-1.1907 -4.49791,-3.8364 -4.66844,-2.6913 a 45.42655,45.42655 0 0 0 -19.94969,26.4934 z" />
        <path
           id="path80320"
           style="fill:#246b81;fill-opacity:1;stroke:none;stroke-width:0.194981;stroke-linecap:square;stroke-linejoin:miter;stroke-miterlimit:4;stroke-dasharray:none;stroke-opacity:1;paint-order:stroke fill markers"
           d="m -635.04598,1143.0692 a 45.42655,45.42655 0 0 0 -23.80474,6.7645 l 4.66844,2.6913 4.49791,3.8364 8.06979,1.1907 -1.32291,4.2333 -4.49792,1.7198 -4.36562,7.5406 -7.14375,4.2334 -10.31875,1.3229 -0.16537,4.518 3.08716,3.1337 -0.18709,5.2385 4.34962,-3.9755 2.9936,5.5655 10.28983,0.2341 4.5837,7.4833 5.56606,-0.047 -1.0759,7.2496 -6.03374,5.8467 -0.0465,4.2096 -5.79964,4.6302 -0.14055,7.0161 -4.53668,-1.0759 -2.99363,-7.5768 0.32764,-14.6399 -7.62384,-1.4966 -2.90007,-5.8932 0.0935,-4.3031 2.24533,-2.9 -0.79528,-1.1225 -7.57733,-5.0048 -2.38537,-6.8285 -0.81235,-0.5365 a 45.42655,45.42655 0 0 0 -1.67225,12.1688 45.42655,45.42655 0 0 0 45.42668,45.4262 45.42655,45.42655 0 0 0 33.80362,-15.1112 l -2.1544,-2.3079 -0.26458,-6.0854 -5.88698,-11.2448 v -6.2839 l -7.73906,-2.1828 -5.95313,1.5214 -10.2526,-4.8287 -1.45521,-10.1203 4.56406,-4.3656 8.7974,-0.1323 2.77812,4.6302 12.17084,0.8599 9.65729,-3.638 3.47369,-4.5217 a 45.42655,45.42655 0 0 0 -7.14582,-11.2846 l -0.87746,0.8423 -4.63021,3.0427 -7.20989,-1.4552 -4.69636,-1.7198 -5.62239,1.6537 -4.16719,-2.1167 2.64583,-5.2916 h 5.82083 l 5.68855,-3.4396 1.3994,-1.1591 a 45.42655,45.42655 0 0 0 -22.74435,-6.1139 z" />
        <path
           id="path80317"
           style="fill:#35b0ab;fill-opacity:1;stroke:none;stroke-width:0.194981;stroke-linecap:square;stroke-linejoin:miter;stroke-miterlimit:4;stroke-dasharray:none;stroke-opacity:1;paint-order:stroke fill markers"
           d="m -612.30163,1149.1831 -1.3994,1.1591 -5.68855,3.4396 h -5.82083 l -2.64583,5.2916 4.16719,2.1167 5.62239,-1.6537 4.69636,1.7198 7.20989,1.4552 4.63021,-3.0427 0.87746,-0.8423 a 45.42655,45.42655 0 0 0 -11.64889,-9.6433 z" />
      </g>
    </g>
  </g>
</svg>
