<?xml version="1.0" encoding="UTF-8" standalone="no"?>
<!-- Created with Inkscape (http://www.inkscape.org/) -->

<svg
   width="182.74416mm"
   height="182.74416mm"
   viewBox="0 0 182.74416 182.74416"
   version="1.1"
   id="svg900"
   xmlns="http://www.w3.org/2000/svg"
   xmlns:svg="http://www.w3.org/2000/svg">
  <defs
     id="defs897" />
  <g
     id="layer1"
     transform="translate(-18.567154,-59.999474)">
    <circle
       style="fill:#cdcdcd;fill-opacity:1;stroke-width:6.6;stroke-linecap:square"
       id="circle7429"
       cx="109.93923"
       cy="151.37155"
       r="91.372078" />
    <circle
       style="fill:#ffffff;fill-opacity:1;stroke-width:6.6;stroke-linecap:square"
       id="circle7431"
       cx="109.93923"
       cy="151.37155"
       r="82.142113" />
    <path
       style="fill:#cdcdcd;fill-opacity:1;stroke:none;stroke-width:0.264583px;stroke-linecap:butt;stroke-linejoin:miter;stroke-opacity:1"
       d="m 62.764689,182.17547 c 0.478437,-0.99144 2.256057,-2.63232 3.794389,-4.17065 1.538333,-1.53833 2.837339,-2.97408 3.999625,-4.54658 1.162286,-1.5725 2.187817,-3.28172 2.939892,-4.95675 0.752074,-1.67504 1.230654,-3.31589 1.36743,-5.36697 0.136775,-2.05107 -0.06833,-4.51235 -0.205082,-8.06765 -0.136751,-3.55531 -0.205119,-8.20438 -0.136755,-12.6143 0.06836,-4.40993 0.273469,-8.58042 0.546947,-12.03316 0.273477,-3.45274 0.615323,-6.18749 1.162278,-8.51213 0.546955,-2.32465 1.299011,-4.23897 2.32458,-6.29013 1.02557,-2.05116 2.324575,-4.23896 3.82876,-6.18756 1.504185,-1.94861 3.213404,-3.65783 5.162012,-5.1962 1.948607,-1.53837 4.13641,-2.90574 6.324318,-3.96549 2.187908,-1.059748 4.375719,-1.811806 6.700357,-2.392946 2.32463,-0.581141 4.78591,-0.991357 7.07635,-1.196451 2.29045,-0.205094 4.40989,-0.205094 6.66615,0.102619 2.25627,0.307713 4.64918,0.923034 6.63193,1.538395 1.98276,0.61536 3.55524,1.230678 5.16194,2.119543 1.60671,0.88887 3.24756,2.05114 4.82007,3.35021 1.57252,1.29907 3.07663,2.73482 4.30727,4.17063 1.23064,1.43581 2.1878,2.87155 3.11078,4.51246 0.92299,1.64091 1.81178,3.48687 2.52965,5.26451 0.71786,1.77764 1.26481,3.48686 1.70919,5.67472 0.44437,2.18786 0.78622,4.85424 0.95712,7.28139 0.17091,2.42715 0.17091,4.61495 0.17091,7.82839 0,3.21344 0,7.4523 -0.0342,11.21269 -0.0342,3.76039 -0.10256,7.04209 2e-5,9.98205 0.10258,2.93996 0.37606,5.53797 1.12821,7.96515 0.75216,2.42718 1.98279,4.68335 3.31607,6.56352 1.33327,1.88018 2.76902,3.38429 4.30738,4.88844 1.53835,1.50415 3.17893,3.00801 4.81981,4.51215 0,0 -3.48688,-0.20511 -3.48688,-0.20511 -1.3674,-0.20511 -2.73451,-0.41017 -3.96517,-0.68363 -1.23067,-0.27346 -2.32489,-0.6154 -3.41881,-0.95725 0,0 0.41022,2.66643 0.41022,2.66643 1.02555,1.16229 2.05135,2.32487 2.94016,3.41881 0.88881,1.09394 1.64065,2.11918 2.39272,3.14473 0,0 -4.71755,0.41022 -4.71755,0.41022 -1.43577,-0.20511 -2.87125,-0.41018 -4.3754,-0.82036 -1.50415,-0.41019 -3.07662,-1.02551 -4.54662,-1.91428 -1.46999,-0.88876 -2.83765,-2.05127 -4.20505,-3.21356 0,0 0.20511,3.48687 0.20511,3.48687 0.41022,1.16229 0.82056,2.32491 1.23076,3.69233 0.41021,1.36741 0.82035,2.93958 1.23057,4.51209 0,0 -2.87155,-1.02555 -2.87155,-1.02555 -1.3674,-0.54696 -2.73449,-1.09379 -3.76007,-1.67488 -1.02558,-0.5811 -1.70926,-1.19642 -2.42717,-1.9143 -0.71791,-0.71788 -1.47022,-1.53858 -2.22229,-2.35902 0,0 -1.02555,2.25621 -1.02555,2.25621 0.0684,1.29903 0.13675,2.59834 0.17093,4.17087 0.0342,1.57253 0.0342,3.41822 0.0342,5.26422 0,0 -3.07666,-4.30733 -3.07666,-4.30733 -1.02555,-1.70925 -2.05092,-3.41819 -2.76886,-4.99072 -0.71794,-1.57252 -1.12815,-3.00827 -1.53837,-4.44406 -0.41023,-1.43579 -0.82053,-2.87185 -1.23075,-4.30762 0,0 -1.23067,7.38398 -1.23067,7.38398 -0.75207,2.0511 -1.50419,4.10235 -2.4272,6.59789 -0.92301,2.49554 -2.01686,5.43525 -3.11078,8.37517 0,0 -3.69199,-7.58908 -3.69199,-7.58908 0,0 -2.46133,-7.17887 -2.46133,-7.17887 0,0 -1.23066,-7.7942 -1.23066,-7.7942 0,0 -2.46133,9.22997 -2.46133,9.22997 -0.95718,1.57251 -1.914411,3.14511 -2.837414,4.64927 -0.923003,1.50415 -1.811753,2.93982 -2.700566,4.3756 0,0 -0.20511,-3.48688 -0.20511,-3.48688 -0.13674,-1.02555 -0.273441,-2.05081 -0.478548,-3.38404 -0.205107,-1.33323 -0.478632,-2.97439 -0.752112,-4.61527 0,0 -2.05111,2.0511 -2.05111,2.0511 -1.230663,0.88881 -2.461276,1.77759 -3.555179,2.46129 -1.093903,0.6837 -2.051071,1.16228 -3.042386,1.46996 -0.991315,0.30767 -2.017072,0.44444 -3.042625,0.58118 0,0 1.64088,-3.07665 1.64088,-3.07665 0.20511,-1.16229 0.410184,-2.32438 0.683667,-3.76018 0.273484,-1.43579 0.61537,-3.14521 0.957223,-4.85446 0,0 -3.28177,3.07665 -3.28177,3.07665 -1.025553,0.61533 -2.051027,1.23062 -3.315848,1.77758 -1.264821,0.54697 -2.768932,1.02555 -4.683258,1.12814 -1.914327,0.1026 -4.239157,-0.17091 -6.563744,-0.44439 0,0 1.846,-2.05111 1.846,-2.05111 0.61533,-0.75207 1.230632,-1.50411 1.709213,-2.22196 0.478582,-0.71786 0.820424,-1.40155 1.230651,-2.25619 0.410227,-0.85463 0.888863,-1.88027 1.367456,-2.90582 -1.230663,0.61533 -2.461217,1.23061 -3.896947,1.64084 -1.43573,0.41024 -3.07658,0.61534 -4.307209,0.54705 -1.230628,-0.0683 -2.051051,-0.41014 -1.572615,-1.40158 z"
       id="path21364" />
    <path
       style="fill:#efefef;fill-opacity:1;stroke:none;stroke-width:0.264583px;stroke-linecap:butt;stroke-linejoin:miter;stroke-opacity:1"
       d="m 95.531094,143.27291 c 0.42728,-0.37621 1.487012,-0.82062 2.461273,-1.29921 0.97426,-0.4786 1.863053,-0.99136 2.615093,-1.5554 0.75204,-0.56403 1.36736,-1.17935 1.88011,-2.08519 0.51276,-0.90584 0.92297,-2.10229 1.16228,-3.23036 0.23932,-1.12808 0.30768,-2.1878 0.35897,-3.333 0.0513,-1.14521 0.0855,-2.37585 0.22218,-3.23055 0.13672,-0.85471 0.37601,-1.3333 0.68373,-1.7094 0.30772,-0.37611 0.68375,-0.64959 1.19661,-0.8547 0.51286,-0.20511 1.16237,-0.34185 1.81191,-0.4273 0.64954,-0.0854 1.29905,-0.11964 1.99988,-0.0683 0.70083,0.0513 1.45289,0.18805 2.03405,0.35903 0.58115,0.17097 0.99137,0.37608 1.35027,0.66672 0.35891,0.29064 0.66657,0.66667 0.85449,1.14527 0.18791,0.47859 0.25628,1.05974 0.27335,1.94854 0.0171,0.88881 -0.0171,2.08526 0.0342,3.14503 0.0513,1.05976 0.18804,1.98274 0.47867,2.95704 0.29062,0.9743 0.73502,1.99983 1.24786,2.83735 0.51284,0.83752 1.09397,1.48702 1.60677,2.01689 0.51279,0.52986 0.95719,0.94007 1.65801,1.29894 0.70083,0.35887 1.65799,0.66653 2.37588,0.90583 0.7179,0.2393 1.19648,0.41023 1.4185,0.5983 0.22203,0.18807 0.18785,0.39318 -0.39323,0.7349 -0.58108,0.34172 -1.70917,0.8203 -2.76894,1.36727 -1.05977,0.54697 -2.05112,1.16229 -2.8716,1.76055 -0.82047,0.59826 -1.46998,1.1794 -2.06825,1.86314 -0.59827,0.68375 -1.14522,1.46999 -1.65801,2.52979 -0.51279,1.0598 -0.99138,2.39299 -1.35031,3.65787 -0.35894,1.26489 -0.59823,2.46134 -0.88876,3.17911 -0.29053,0.71777 -0.63238,0.95706 -0.92296,1.16217 -0.29058,0.20512 -0.52987,0.37604 -0.82033,0.46152 -0.29047,0.0855 -0.63231,0.0855 -0.99123,-0.017 -0.35893,-0.10247 -0.73496,-0.30758 -1.02565,-0.78611 -0.29069,-0.47852 -0.49579,-1.23058 -0.78636,-2.17068 -0.29057,-0.9401 -0.6666,-2.06819 -1.07681,-3.17921 -0.41022,-1.11102 -0.85461,-2.20492 -1.36734,-3.11085 -0.51273,-0.90593 -1.09386,-1.6238 -1.77756,-2.3759 -0.68369,-0.75209 -1.46993,-1.53833 -2.44419,-2.15374 -0.974264,-0.61541 -2.136535,-1.0598 -2.922794,-1.36746 -0.78626,-0.30766 -1.196471,-0.47858 -1.504199,-0.7178 -0.307729,-0.23921 -0.512832,-0.54687 -0.08555,-0.92309 z"
       id="path21376" />
    <path
       id="path21382"
       style="fill:#b0b0b0;fill-opacity:1;stroke-width:6.6;stroke-linecap:square"
       d="m 92.68286,117.48346 c -0.44317,-0.002 -0.88676,0.002 -1.32963,0.0103 -2.87712,0.17461 -5.75139,0.30047 -8.42533,1.52756 -2.46484,1.00215 -3.56389,3.70858 -3.97185,6.16086 -0.40112,2.33913 -0.45805,4.79629 -0.0574,7.03058 0.38102,1.89475 0.96753,3.91266 2.39882,5.28908 1.99019,1.73769 4.74932,1.99849 7.25589,2.36782 3.70692,0.39762 7.47605,0.23142 11.1709,-0.43718 2.22295,-0.42428 4.58534,-1.45573 5.58467,-3.63079 1.21091,-2.31448 1.40309,-4.87284 1.43557,-7.42332 0.003,-0.002 0.005,-0.005 0.008,-0.007 0.11248,-0.0927 0.22561,-0.18292 0.33745,-0.26872 0.1119,-0.0858 0.22265,-0.16778 0.33331,-0.24598 0.11064,-0.0782 0.22069,-0.15221 0.32969,-0.22221 0.10902,-0.07 0.21667,-0.1362 0.3235,-0.1974 0.10683,-0.0612 0.21311,-0.1177 0.31729,-0.1695 0.10417,-0.0518 0.20698,-0.0988 0.30799,-0.14056 0.10106,-0.0418 0.19978,-0.0783 0.29714,-0.10955 0.0974,-0.0313 0.19256,-0.057 0.28577,-0.077 0.0932,-0.0201 0.18479,-0.0342 0.27337,-0.0424 0.0886,-0.008 0.18064,-0.0107 0.27595,-0.008 0.0953,0.002 0.19418,0.009 0.29559,0.0227 0.10141,0.0127 0.20517,0.0302 0.31213,0.0527 0.10694,0.0225 0.21679,0.0493 0.32866,0.0811 0.1119,0.0317 0.22536,0.0686 0.34158,0.10904 0.11619,0.0405 0.23507,0.0846 0.35502,0.13332 0.11995,0.0487 0.24124,0.10168 0.36432,0.15813 0.12309,0.0564 0.24747,0.11666 0.3731,0.18035 0.11903,0.0603 0.23936,0.12476 0.36018,0.19121 -0.0817,1.49641 -0.0111,2.98921 0.24082,4.39404 0.38102,1.89475 0.96753,3.91266 2.39882,5.28908 1.99018,1.73769 4.74931,1.99849 7.25588,2.36782 3.70693,0.39762 7.47605,0.23142 11.1709,-0.43718 2.22295,-0.42428 4.58586,-1.45573 5.58519,-3.63079 1.24676,-2.383 1.41369,-5.02437 1.43815,-7.64966 -0.082,-2.75534 -0.59698,-5.71106 -2.43499,-7.86567 -2.02418,-1.96151 -4.98753,-2.25718 -7.64759,-2.61431 -1.76394,-0.1751 -3.53981,-0.21103 -5.31131,-0.17829 -2.87712,0.17461 -5.75191,0.30047 -8.42584,1.52756 -2.15845,0.87757 -3.26904,3.06217 -3.78582,5.23844 -1.19179,-0.71119 -2.34294,-1.17961 -3.22306,-1.20251 -0.0967,-0.002 -0.18965,1.8e-4 -0.27956,0.009 -0.89138,0.0826 -2.02628,0.76604 -3.16053,1.75493 -0.34214,-1.65591 -0.96825,-3.23985 -2.07275,-4.5346 -2.02418,-1.96152 -4.98753,-2.25719 -7.64759,-2.61431 -1.32295,-0.13133 -2.65267,-0.18421 -3.98219,-0.18862 z" />
    <path
       style="fill:#efefef;fill-opacity:1;stroke-width:22.1369;stroke-linecap:square"
       id="path21384"
       transform="matrix(0.32517829,0.0665013,-0.08444222,0.25608966,9.7162996,-43.129191)"
       d="m 438.53111,588.17984 c -6.95373,11.76786 -45.78935,21.75416 -57.55721,14.80043 -11.76785,-6.95373 -21.75415,-45.78936 -14.80042,-57.55721 6.95373,-11.76785 45.78935,-21.75415 57.55721,-14.80042 11.76785,6.95373 21.75415,45.78935 14.80042,57.5572 z" />
    <path
       style="fill:#efefef;fill-opacity:1;stroke-width:22.1369;stroke-linecap:square"
       id="path21386"
       transform="matrix(0.32517829,0.0665013,-0.08444222,0.25608966,43.62296,-43.129191)"
       d="m 438.53111,588.17984 c -6.95373,11.76786 -45.78935,21.75416 -57.55721,14.80043 -11.76785,-6.95373 -21.75415,-45.78936 -14.80042,-57.55721 6.95373,-11.76785 45.78935,-21.75415 57.55721,-14.80042 11.76785,6.95373 21.75415,45.78935 14.80042,57.5572 z" />
  </g>
</svg>
