<?xml version="1.0" encoding="UTF-8" standalone="no"?>
<!-- Created with Inkscape (http://www.inkscape.org/) -->

<svg
   width="3249.5974mm"
   height="2067.7478mm"
   viewBox="0 0 3249.5974 2067.7478"
   version="1.1"
   id="svg2346"
   xmlns="http://www.w3.org/2000/svg"
   xmlns:svg="http://www.w3.org/2000/svg">
  <defs
     id="defs2343">
    <rect
       x="10306.25"
       y="14368.75"
       width="1225"
       height="756.25"
       id="rect133066" />
  </defs>
  <g
     id="layer1"
     transform="translate(1387.691,811.53412)">
    <g
       id="g2974">
      <path
         id="path71108"
         style="fill:#000000;fill-opacity:1;stroke:none;stroke-width:0.865;stroke-linecap:round;stroke-linejoin:round;stroke-miterlimit:4;stroke-dasharray:none;stroke-opacity:1"
         d="m 407.7062,-426.7167 c -29.2299,30.048 -69.3582,47.016 -111.2785,47.052 -41.8597,-0.04 -81.9351,-16.956 -111.156,-46.929 -64.2585,21.066 -113.9748,68.598 -155.6348,117.773 -53.313,62.932 -89.9755,134.553 -90.0215,221.093 0,94.633 37.5925,185.389 104.5077,252.305 66.9156,66.915 157.6721,104.507 252.3046,104.507 94.6325,0 185.389,-37.592 252.304,-104.508 66.9153,-66.915 104.5078,-157.671 104.5078,-252.304 -0.01,-75.164 -29.7342,-144.29 -73.8254,-205.163 -44.0912,-60.874 -100.2929,-110.385 -171.7079,-133.826 z" />
      <path
         style="fill:#6f5980;fill-opacity:1;stroke:none;stroke-width:7.965;stroke-linecap:butt;stroke-linejoin:miter;stroke-miterlimit:4;stroke-dasharray:none;stroke-opacity:1"
         d="M 19.0548,1148.8783 -118.2222,-26.4577 H 683.8445 L 546.5678,1148.8783 Z"
         id="path71110" />
      <path
         id="rect71112"
         style="fill:#50405c;stroke-width:5.39749"
         d="M -97.038536,1011.816 H 662.66227 v 137.0623 H -97.038536 Z" />
      <path
         id="path71114"
         style="fill:#ffffff;fill-opacity:1;stroke:#000000;stroke-width:0.264583px;stroke-linecap:butt;stroke-linejoin:miter;stroke-opacity:1"
         d="m 402.6382,-421.7397 c -10.0908,8.366 -3.3796,3.589 -13.879,11.58 -11.4606,6.902 -15.8939,12.317 -28.5662,16.753 -8.1989,2.808 -14.9821,6.453 -23.4494,8.387 -14.0008,3.107 -28.9326,5.811 -43.2937,5.291 -10.8608,-0.313 -21.6835,-1.857 -32.3275,-4.03 -8.6396,-1.705 -1.3104,0.05 -9.7211,-2.612 -19.2149,-6.206 -47.3741,-26.757 -64.0167,-38.097 -6.9374,-4.747 4.8325,2.61 -2.1129,-2.126 18.1851,92.517 12.0243,180.613 30.2085,273.131 h 161.5059 c 18.4075,-92.596 12.3147,-180.658 30.7201,-273.254 -0.3581,0.246 -4.7099,4.731 -5.068,4.977 z" />
      <path
         style="fill:#c06d85;fill-opacity:1;stroke:none;stroke-width:0.264583px;stroke-linecap:butt;stroke-linejoin:miter;stroke-opacity:1"
         d="m 296.5647,-75.6327 -33.7609,-40.564 25.6645,-242.999 16.193,0.554 25.6644,242.445 z"
         id="path71116" />
      <path
         style="fill:none;stroke:#3a3a3a;stroke-width:4.765;stroke-linecap:round;stroke-linejoin:miter;stroke-miterlimit:4;stroke-dasharray:none;stroke-opacity:1"
         d="m 581.343,-146.1277 c 0.52913,-10.22401 1.05832,-20.44901 0.48503,-29.57448 -0.57329,-9.12547 -2.24885,-17.15047 -4.76239,-26.63148 -2.51353,-9.48101 -5.86483,-20.41701 -10.18631,-30.82407 -4.32148,-10.40705 -9.61323,-20.28486 -15.21367,-29.06038 -5.60044,-8.77553 -11.50939,-16.44841 -16.84519,-23.50395 -5.3358,-7.05554 -10.09823,-13.49345 -15.30182,-19.73893 -5.20359,-6.24549 -10.84758,-12.29768 -16.49235,-18.35071"
         id="path71118" />
      <path
         style="fill:none;stroke:#3a3a3a;stroke-width:4.765;stroke-linecap:round;stroke-linejoin:miter;stroke-miterlimit:4;stroke-dasharray:none;stroke-opacity:1"
         d="m 29.6275,-146.1277 c -0.529133,-10.22401 -1.058317,-20.44901 -0.485029,-29.57448 0.573287,-9.12547 2.24885,-17.15047 4.762384,-26.63148 2.513534,-9.48101 5.864832,-20.41701 10.186315,-30.82407 4.321482,-10.40705 9.613228,-20.28486 15.213671,-29.06038 5.600443,-8.77553 11.509389,-16.44841 16.845189,-23.50395 5.335799,-7.05554 10.098229,-13.49345 15.301818,-19.73893 5.20359,-6.24549 10.847582,-12.29768 16.492352,-18.35071"
         id="path71124" />
      <g
         id="g125109"
         transform="translate(-4640.4125,-4692.6406)">
        <g
           id="g125096">
          <path
             id="path76415"
             style="fill:#000000;fill-opacity:1;stroke:none;stroke-width:0.865;stroke-linecap:round;stroke-linejoin:round;stroke-miterlimit:4;stroke-dasharray:none;stroke-opacity:1"
             d="m 4172.6648,4265.9236 c -29.2298,30.0485 -69.3581,47.0159 -111.2785,47.0519 -41.8597,-0.037 -81.9351,-16.9555 -111.1559,-46.9283 -64.2586,21.0663 -113.9751,68.5979 -155.6351,117.7731 -53.313,62.9312 -89.9752,134.5534 -90.0213,221.0928 h 713.6241 c -0.01,-75.1639 -29.7341,-144.2903 -73.8253,-205.1635 -44.0913,-60.8735 -100.293,-110.3847 -171.708,-133.826 z" />
          <path
             id="rect76520"
             style="stroke-width:69.7651;stroke-linecap:round;stroke-linejoin:round"
             d="m 3704.574,4604.9131 h 713.624 l -23.9779,359.2928 h -665.6682 z" />
          <path
             id="path25919"
             style="fill:#ffffff;fill-opacity:1;stroke:#000000;stroke-width:0.264583px;stroke-linecap:butt;stroke-linejoin:miter;stroke-opacity:1"
             d="m 4167.5887,4270.9012 c -10.0908,8.3661 -3.3796,3.5885 -13.879,11.5802 -11.4606,6.9015 -15.8939,12.317 -28.5662,16.7522 -8.1989,2.8083 -14.9821,6.4538 -23.4494,8.3871 -14.0008,3.1071 -28.9326,5.8117 -43.2937,5.2909 -10.8608,-0.3126 -21.6835,-1.8564 -32.3275,-4.03 -8.6396,-1.7045 -1.3104,0.051 -9.7211,-2.6117 -19.2149,-6.2055 -47.3741,-26.757 -64.0167,-38.0971 -6.9374,-4.7469 4.8325,2.6101 -2.1129,-2.1259 18.1851,92.5174 28.476,605.6414 46.6602,698.159 47.9334,-0.3866 89.1305,0.9556 127.5291,0 18.4075,-92.5959 29.8398,-605.6858 48.2452,-698.2821 -0.3581,0.2461 -4.7099,4.7313 -5.068,4.9774 z" />
          <path
             style="fill:#35b0ab;fill-opacity:1;stroke:none;stroke-width:0.264583px;stroke-linecap:butt;stroke-linejoin:miter;stroke-opacity:1"
             d="m 4058.0154,4911.6727 -42.4547,-64.7774 33.5254,-513.8634 23.6344,0.9666 26.0961,512.5544 z"
             id="path27035" />
          <path
             style="fill:none;stroke:#3a3a3a;stroke-width:4.765;stroke-linecap:round;stroke-linejoin:miter;stroke-miterlimit:4;stroke-dasharray:none;stroke-opacity:1"
             d="m 4346.3016,4546.5134 c 0.5292,-10.2247 1.0583,-20.4492 0.4851,-29.5748 -0.5733,-9.1256 -2.2489,-17.1509 -4.7625,-26.632 -2.5136,-9.481 -5.8648,-20.4168 -10.1864,-30.8239 -4.3216,-10.4071 -9.613,-20.2844 -15.2135,-29.06 -5.6004,-8.7756 -11.5093,-16.4482 -16.8451,-23.5039 -5.3358,-7.0556 -10.0981,-13.4935 -15.3017,-19.7391 -5.2036,-6.2456 -10.8478,-12.2979 -16.4926,-18.3508"
             id="path33467" />
          <path
             style="fill:none;stroke:#3a3a3a;stroke-width:4.765;stroke-linecap:round;stroke-linejoin:miter;stroke-miterlimit:4;stroke-dasharray:none;stroke-opacity:1"
             d="m 3794.5861,4546.5134 c -0.5292,-10.2247 -1.0583,-20.4492 -0.4851,-29.5748 0.5733,-9.1256 2.2489,-17.1509 4.7625,-26.632 2.5136,-9.481 5.8648,-20.4168 10.1864,-30.8239 4.3216,-10.4071 9.613,-20.2844 15.2135,-29.06 5.6004,-8.7756 11.5093,-16.4482 16.8451,-23.5039 5.3358,-7.0556 10.0981,-13.4935 15.3017,-19.7391 5.2036,-6.2456 10.8478,-12.2979 16.4926,-18.3508"
             id="path36779" />
          <path
             id="circle27653"
             style="fill:#e8b29d;stroke-width:0.865003;stroke-linecap:round;stroke-linejoin:round"
             d="m 4203.9518,4059.0864 a 142.5658,142.5658 0 0 1 -142.5658,142.5658 142.5658,142.5658 0 0 1 -142.5658,-142.5658 142.5658,142.5658 0 0 1 142.5658,-142.5658 142.5658,142.5658 0 0 1 142.5658,142.5658 z" />
          <path
             id="path28083"
             style="fill:#000000;fill-opacity:1;stroke:none;stroke-width:0.865002;stroke-linecap:round;stroke-linejoin:round;stroke-miterlimit:4;stroke-dasharray:none;stroke-opacity:1"
             d="m 4061.3859,3916.5207 c -37.8108,0 -74.073,15.0201 -100.8094,41.7565 -26.7364,26.7364 -41.7565,62.9987 -41.7565,100.8095 v 0.013 -0.013 l 84.5523,-70.1842 71.3251,16.4737 36.3262,-22.3986 36.1024,23.6774 34.9854,18.8719 13.5704,-14.2909 c 0,-0.2676 -1.2088,-3.2484 -1.6272,-4.3414 -1.0198,-2.6642 -1.9328,-4.7562 -2.8607,-6.7561 -2.364,-5.0951 -3.9247,-8.0097 -4.1607,-8.4153 -0.5853,-1.0065 -4.3885,-7.618 -5.0439,-8.6617 -3.6438,-5.8026 -8.2793,-13.2689 -19.7948,-24.7844 -26.7364,-26.7364 -62.9986,-41.7565 -100.8094,-41.7565 z" />
          <path
             id="path44095"
             style="fill:#2b8f8b;fill-opacity:1;stroke:none;stroke-width:69.7651;stroke-linecap:round;stroke-linejoin:round;stroke-miterlimit:4;stroke-dasharray:none;stroke-opacity:1"
             d="m 4033.4222,4310.9385 c 1.4224,14.3383 16.8534,41.5128 25.9734,41.9605 9.7776,0.4802 29.9091,-29.6639 30.4486,-42.8414 -1.3211,0.1984 -2.7666,0.5413 -4.1789,0.7353 -1.4137,0.1939 -2.9217,0.5137 -4.3589,0.6769 -1.4372,0.1633 -2.81,0.5767 -4.2504,0.7011 -1.4404,0.1246 -2.9598,0.2984 -4.3922,0.3858 -1.4325,0.087 -2.7719,0.2997 -3.9864,0.3434 -1.2147,0.044 -2.29,0.068 -3.4382,0.08 -1.1481,0.012 -2.3686,0.012 -3.519,0 -1.1507,-0.014 -2.231,-0.04 -3.4253,-0.076 -1.1943,-0.036 -2.503,-0.081 -3.7661,-0.1318 -1.2631,-0.051 -2.481,-0.1079 -3.7015,-0.1736 -1.2208,-0.066 -2.4596,-0.2039 -3.6267,-0.2838 -1.1671,-0.08 -2.2768,-0.2565 -3.3894,-0.351 -1.1125,-0.095 -2.2597,-0.3092 -3.3447,-0.4204 -1.0851,-0.1111 -2.4594,-0.3952 -3.6371,-0.5412 -1.1763,-0.1461 -2.1349,-0.4178 -3.433,-0.5919 z" />
          <path
             id="rect79588"
             style="stroke-width:4.76499;stroke-linecap:round;stroke-linejoin:round"
             d="m 3728.5518,4964.397 h 665.8303 l -92.6042,920.1167 -146.7762,-1.2221 -85.6684,-646.529 -10.5434,-0.5201 v 0 h -11.1621 l -53.7868,647.9422 -162.7632,-2.9783 z" />
        </g>
      </g>
      <g
         id="g30791"
         transform="translate(-4898.3812,-4692.6406)">
        <path
           id="path82005"
           style="fill:#000000;fill-opacity:1;stroke:none;stroke-width:0.865;stroke-linecap:round;stroke-linejoin:round;stroke-miterlimit:4;stroke-dasharray:none;stroke-opacity:1"
           d="m 6149.6324,4265.9236 c -29.2298,30.0485 -69.3581,47.0159 -111.2785,47.0519 -41.8597,-0.037 -81.9351,-16.9555 -111.1559,-46.9283 -64.2586,21.0663 -113.9751,68.5979 -155.6351,117.7731 -53.313,62.9312 -89.9752,134.5534 -90.0213,221.0928 h 713.6241 c -0.01,-75.1639 -29.7341,-144.2903 -73.8253,-205.1635 -44.0913,-60.8735 -100.293,-110.3847 -171.708,-133.826 z" />
        <path
           id="path82007"
           style="stroke-width:69.7651;stroke-linecap:round;stroke-linejoin:round"
           d="m 5681.5416,4604.9131 h 713.624 l -23.9779,359.2928 h -665.6682 z" />
        <path
           id="path82009"
           style="fill:#ffffff;fill-opacity:1;stroke:#000000;stroke-width:0.264583px;stroke-linecap:butt;stroke-linejoin:miter;stroke-opacity:1"
           d="m 6144.5563,4270.9012 c -10.0908,8.3661 -3.3796,3.5885 -13.879,11.5802 -11.4606,6.9015 -15.8939,12.317 -28.5662,16.7522 -8.1989,2.8083 -14.9821,6.4538 -23.4494,8.3871 -14.0008,3.1071 -28.9326,5.8117 -43.2937,5.2909 -10.8608,-0.3126 -21.6835,-1.8564 -32.3275,-4.03 -8.6396,-1.7045 -1.3104,0.051 -9.7211,-2.6117 -19.2149,-6.2055 -47.3741,-26.757 -64.0167,-38.0971 -6.9374,-4.7469 4.8325,2.6101 -2.1129,-2.1259 18.1851,92.5174 28.476,605.6414 46.6602,698.159 47.9334,-0.3866 89.1305,0.9556 127.5291,0 18.4075,-92.5959 29.8398,-605.6858 48.2452,-698.2821 -0.3581,0.2461 -4.7099,4.7313 -5.068,4.9774 z" />
        <path
           style="fill:#f27180;fill-opacity:1;stroke:none;stroke-width:0.264583px;stroke-linecap:butt;stroke-linejoin:miter;stroke-opacity:1"
           d="m 6034.983,4911.6727 -42.4547,-64.7774 33.5254,-513.8634 23.6344,0.9666 26.0961,512.5544 z"
           id="path82011" />
        <path
           style="fill:none;stroke:#3a3a3a;stroke-width:4.765;stroke-linecap:round;stroke-linejoin:miter;stroke-miterlimit:4;stroke-dasharray:none;stroke-opacity:1"
           d="m 6323.2692,4546.5134 c 0.5292,-10.2247 1.0583,-20.4492 0.4851,-29.5748 -0.5733,-9.1256 -2.2489,-17.1509 -4.7625,-26.632 -2.5136,-9.481 -5.8648,-20.4168 -10.1864,-30.8239 -4.3216,-10.4071 -9.613,-20.2844 -15.2135,-29.06 -5.6004,-8.7756 -11.5093,-16.4482 -16.8451,-23.5039 -5.3358,-7.0556 -10.0981,-13.4935 -15.3017,-19.7391 -5.2036,-6.2456 -10.8478,-12.2979 -16.4926,-18.3508"
           id="path82013" />
        <path
           style="fill:none;stroke:#3a3a3a;stroke-width:4.765;stroke-linecap:round;stroke-linejoin:miter;stroke-miterlimit:4;stroke-dasharray:none;stroke-opacity:1"
           d="m 5771.5537,4546.5134 c -0.5292,-10.2247 -1.0583,-20.4492 -0.4851,-29.5748 0.5733,-9.1256 2.2489,-17.1509 4.7625,-26.632 2.5136,-9.481 5.8648,-20.4168 10.1864,-30.8239 4.3216,-10.4071 9.613,-20.2844 15.2135,-29.06 5.6004,-8.7756 11.5093,-16.4482 16.8451,-23.5039 5.3358,-7.0556 10.0981,-13.4935 15.3017,-19.7391 5.2036,-6.2456 10.8478,-12.2979 16.4926,-18.3508"
           id="path82019" />
        <path
           id="circle82025"
           style="fill:#e8b29d;stroke-width:0.865003;stroke-linecap:round;stroke-linejoin:round"
           d="m 6180.9193,4059.0864 a 142.5658,142.5658 0 0 1 -142.5658,142.5658 142.5658,142.5658 0 0 1 -142.5658,-142.5658 142.5658,142.5658 0 0 1 142.5658,-142.5658 142.5658,142.5658 0 0 1 142.5658,142.5658 z" />
        <path
           id="path82029"
           style="fill:#ef4d60;fill-opacity:1;stroke:none;stroke-width:69.7651;stroke-linecap:round;stroke-linejoin:round;stroke-miterlimit:4;stroke-dasharray:none;stroke-opacity:1"
           d="m 6010.3898,4310.9385 c 1.4224,14.3383 16.8534,41.5128 25.9734,41.9605 9.7776,0.4802 29.9091,-29.6639 30.4486,-42.8414 -1.3211,0.1984 -2.7666,0.5413 -4.1789,0.7353 -1.4137,0.1939 -2.9217,0.5137 -4.3589,0.6769 -1.4372,0.1633 -2.81,0.5767 -4.2504,0.7011 -1.4404,0.1246 -2.9598,0.2984 -4.3922,0.3858 -1.4325,0.087 -2.7719,0.2997 -3.9864,0.3434 -1.2147,0.044 -2.29,0.068 -3.4382,0.08 -1.1481,0.012 -2.3686,0.012 -3.519,0 -1.1507,-0.014 -2.231,-0.04 -3.4253,-0.076 -1.1943,-0.036 -2.503,-0.081 -3.7661,-0.1318 -1.2631,-0.051 -2.481,-0.1079 -3.7015,-0.1736 -1.2208,-0.066 -2.4596,-0.2039 -3.6267,-0.2838 -1.1671,-0.08 -2.2768,-0.2565 -3.3894,-0.351 -1.1125,-0.095 -2.2597,-0.3092 -3.3447,-0.4204 -1.0851,-0.1111 -2.4594,-0.3952 -3.6371,-0.5412 -1.1763,-0.1461 -2.1349,-0.4178 -3.433,-0.5919 z" />
        <path
           id="path82031"
           style="stroke-width:4.76499;stroke-linecap:round;stroke-linejoin:round"
           d="m 5705.5194,4964.397 h 665.8303 l -92.6042,920.1167 -146.7762,-1.2221 -85.6684,-646.529 -10.5434,-0.5201 v 0 h -11.1621 l -53.7868,647.9422 -162.7632,-2.9783 z" />
        <path
           id="path91995"
           style="fill:#e8b29d;stroke-width:4.79567;stroke-linecap:round;stroke-linejoin:round"
           transform="matrix(0.44691272,0.89457756,-0.81200736,0.5836472,0,0)"
           d="m 7735.6012,-4046.5552 a 65.330673,44.59124 0 0 1 -65.3307,44.5913 65.330673,44.59124 0 0 1 -65.3307,-44.5913 65.330673,44.59124 0 0 1 65.3307,-44.5912 65.330673,44.59124 0 0 1 65.3307,44.5912 z" />
        <path
           id="path98743"
           style="fill:#000000;fill-opacity:1;stroke:#000000;stroke-width:0.264583px;stroke-linecap:butt;stroke-linejoin:miter;stroke-opacity:1"
           d="m 6252.2715,4323.2363 -82.1444,140.1961 233.7649,289.4573 69.1359,92.0785 c 1.3954,0.5561 2.7911,1.1128 3.8852,1.5055 1.0937,0.3926 1.8867,0.6217 2.7381,0.835 0.8517,0.2132 1.7624,0.4106 2.6676,0.5752 0.9054,0.1646 1.8049,0.2958 3.0495,0.4061 0.6221,0.055 1.3306,0.1053 2.1146,0.1371 0.784,0.032 1.6433,0.046 2.5678,0.028 0.9244,-0.017 1.914,-0.065 2.871,-0.1318 0.9572,-0.066 1.8819,-0.1513 2.677,-0.2423 0.7951,-0.091 1.4603,-0.1881 2.0447,-0.2895 0.5845,-0.1011 1.088,-0.2064 1.5592,-0.313 0.9422,-0.2135 1.755,-0.4331 2.6757,-0.7271 0.9208,-0.2939 1.9492,-0.6617 2.9782,-1.0295 l 229.0289,-275.9202 c 0.7048,-1.1744 1.383,-2.3545 2.0449,-3.5372 l -59.5447,-124.8791 c -0.4665,0.1575 -0.9271,0.3006 -1.397,0.4686 l -170.112,224.2767 -104.9636,-141.9638 -81.5639,-119.83 z" />
        <path
           style="fill:#000000;fill-opacity:1;stroke:none;stroke-width:0.264583px;stroke-linecap:butt;stroke-linejoin:miter;stroke-opacity:1"
           d="m 6487.8703,4649.3335 c 0.6339,0.295 1.2681,0.5901 1.8796,0.8537 0.6114,0.2636 1.2001,0.4957 1.825,0.7209 0.625,0.2253 1.286,0.4437 1.9136,0.6339 0.6276,0.1902 1.2215,0.3523 1.8793,0.5117 0.6577,0.1594 1.379,0.3162 2.1839,0.4632 0.8048,0.147 1.6935,0.2843 2.7147,0.3989 1.0212,0.1146 2.1747,0.2066 3.3347,0.2509 1.1599,0.044 2.3262,0.041 3.4802,-0.01 1.154,-0.05 2.2954,-0.1452 3.2932,-0.2602 0.9979,-0.115 1.8524,-0.2493 2.9587,-0.4833 1.1062,-0.234 2.464,-0.5676 3.4198,-0.8261 0.9558,-0.2584 1.5093,-0.4417 2.3403,-0.7654 0.8311,-0.3238 1.9393,-0.788 3.0477,-1.2523 0,0 -17.2644,22.7613 -17.2644,22.7613 0,0 -17.0063,-23.0007 -17.0063,-23.0007 0,0 0,0 0,0 z"
           id="path98256" />
        <path
           id="path100116"
           style="fill:#000000;fill-opacity:1;stroke:none;stroke-width:0.865002;stroke-linecap:round;stroke-linejoin:round;stroke-miterlimit:4;stroke-dasharray:none;stroke-opacity:1"
           d="m 6038.3537,3916.5207 c -37.8108,0 -74.073,15.0201 -100.8094,41.7565 -26.7364,26.7364 -41.7565,62.9986 -41.7565,100.8094 79.5409,-8.5352 141.1045,-33.3679 188.6864,-91.7902 74.4675,22.8134 87.6508,67.5406 96.445,91.7902 0,-37.8108 -15.0201,-74.073 -41.7563,-100.8091 -26.7364,-26.7364 -62.9983,-41.7568 -100.8092,-41.7568 z" />
        <path
           style="fill:none;stroke:#222222;stroke-width:2.265;stroke-linecap:round;stroke-linejoin:miter;stroke-miterlimit:4;stroke-dasharray:none;stroke-opacity:1"
           d="m 6085.1143,3956.2989 3.8632,-26.4346"
           id="path1711" />
      </g>
      <path
         id="rect71130"
         style="fill:#50405c;stroke-width:5.39749"
         d="M -313.45993,-163.51996 H 874.40591 V -26.457657 H -313.45993 Z" />
      <path
         id="path72056"
         style="fill:#000000;fill-opacity:1;stroke:none;stroke-width:0.865002;stroke-linecap:round;stroke-linejoin:round;stroke-miterlimit:4;stroke-dasharray:none;stroke-opacity:1"
         d="m 296.4275,-802.4296 a 168.87512,168.87512 0 0 0 -168.8751,168.8756 168.87512,168.87512 0 0 0 40.318,109.4363 168.87512,123.29955 0 0 1 4.7631,-4.041 168.87512,123.29955 0 0 1 8.9296,-6.52 168.87512,123.29955 0 0 1 9.5724,-6.015 168.87512,123.29955 0 0 1 10.1613,-5.475 168.87512,123.29955 0 0 1 10.6934,-4.906 168.87512,123.29955 0 0 1 11.1652,-4.308 168.87512,123.29955 0 0 1 11.575,-3.688 168.87512,123.29955 0 0 1 11.9202,-3.045 168.87512,123.29955 0 0 1 12.1987,-2.386 168.87512,123.29955 0 0 1 12.4087,-1.715 168.87512,123.29955 0 0 1 12.5494,-1.032 168.87512,123.29955 0 0 1 12.6201,-0.345 168.87512,123.29955 0 0 1 4.3484,0.04 168.87512,123.29955 0 0 1 4.345,0.123 168.87512,123.29955 0 0 1 4.3397,0.204 168.87512,123.29955 0 0 1 4.331,0.285 168.87512,123.29955 0 0 1 4.3193,0.367 168.87512,123.29955 0 0 1 4.305,0.449 168.87512,123.29955 0 0 1 4.2876,0.528 168.87512,123.29955 0 0 1 4.268,0.61 168.87512,123.29955 0 0 1 4.2447,0.689 168.87512,123.29955 0 0 1 4.2188,0.77 168.87512,123.29955 0 0 1 4.1905,0.848 168.87512,123.29955 0 0 1 4.1595,0.926 168.87512,123.29955 0 0 1 4.1254,1.004 168.87512,123.29955 0 0 1 4.088,1.082 168.87512,123.29955 0 0 1 4.049,1.158 168.87512,123.29955 0 0 1 4.0068,1.234 168.87512,123.29955 0 0 1 3.9621,1.309 168.87512,123.29955 0 0 1 3.9146,1.383 168.87512,123.29955 0 0 1 3.8642,1.455 168.87512,123.29955 0 0 1 3.8116,1.529 168.87512,123.29955 0 0 1 3.7565,1.599 168.87512,123.29955 0 0 1 3.6989,1.669 168.87512,123.29955 0 0 1 3.6391,1.739 168.87512,123.29955 0 0 1 3.5761,1.806 168.87512,123.29955 0 0 1 3.5113,1.873 168.87512,123.29955 0 0 1 3.4443,1.938 168.87512,123.29955 0 0 1 3.3751,2.002 168.87512,123.29955 0 0 1 3.303,2.065 168.87512,123.29955 0 0 1 3.2287,2.127 168.87512,123.29955 0 0 1 3.1533,2.186 168.87512,123.29955 0 0 1 3.0747,2.245 168.87512,123.29955 0 0 1 2.9949,2.302 168.87512,123.29955 0 0 1 2.9122,2.358 168.87512,123.29955 0 0 1 1.7643,1.504 168.87512,168.87512 0 0 0 40.2637,-109.3676 168.87512,168.87512 0 0 0 -168.8753,-168.8753 z" />
      <path
         id="circle71132"
         style="fill:#e8b29d;stroke-width:0.865003;stroke-linecap:round;stroke-linejoin:round"
         d="m 438.99368,-633.55365 a 142.5658,142.5658 0 0 1 -142.56579,142.5658 142.5658,142.5658 0 0 1 -142.5658,-142.5658 142.5658,142.5658 0 0 1 142.5658,-142.5658 142.5658,142.5658 0 0 1 142.56579,142.5658 z" />
      <path
         id="path71136"
         style="fill:#b55470;fill-opacity:1;stroke:none;stroke-width:69.7651;stroke-linecap:round;stroke-linejoin:round;stroke-miterlimit:4;stroke-dasharray:none;stroke-opacity:1"
         d="m 268.4636,-381.7017 c 1.4224,14.338 16.8534,41.512 25.9734,41.96 9.7776,0.48 29.9091,-29.664 30.4486,-42.841 -1.3211,0.198 -2.7666,0.541 -4.1789,0.735 -1.4137,0.194 -2.9217,0.514 -4.3589,0.677 -1.4372,0.163 -2.81,0.577 -4.2504,0.701 -1.4404,0.125 -2.9598,0.298 -4.3922,0.386 -1.4325,0.09 -2.7719,0.299 -3.9864,0.343 -1.2147,0.04 -2.29,0.07 -3.4382,0.08 -1.1481,0.01 -2.3686,0.01 -3.519,0 -1.1507,-0.01 -2.231,-0.04 -3.4253,-0.08 -1.1943,-0.04 -2.503,-0.08 -3.7661,-0.132 -1.2631,-0.05 -2.481,-0.108 -3.7015,-0.173 -1.2208,-0.07 -2.4596,-0.204 -3.6267,-0.284 -1.1671,-0.08 -2.2768,-0.257 -3.3894,-0.351 -1.1125,-0.09 -2.2597,-0.309 -3.3447,-0.42 -1.0851,-0.112 -2.4594,-0.396 -3.6371,-0.542 -1.1763,-0.146 -2.1349,-0.417 -3.433,-0.592 z" />
      <path
         id="path71391"
         style="fill:#000000;fill-opacity:1;stroke:none;stroke-width:0.865002;stroke-linecap:round;stroke-linejoin:round;stroke-miterlimit:4;stroke-dasharray:none;stroke-opacity:1"
         d="m 296.4275,-776.1199 c -37.8108,0 -74.0727,15.0204 -100.8092,41.7568 -26.7361,26.7361 -41.7562,62.9983 -41.7562,100.8091 56.8941,-9.3432 106.1693,-59.0645 146.6948,-101.1449 45.6964,62.016 91.9649,87.9766 138.4366,101.1449 0,-37.8108 -15.0202,-74.073 -41.7566,-100.8094 -26.7364,-26.7364 -62.9986,-41.7565 -100.8094,-41.7565 z" />
      <path
         style="fill:#655174;fill-opacity:1;stroke:none;stroke-width:0.264583px;stroke-linecap:butt;stroke-linejoin:miter;stroke-opacity:1"
         d="M 282.8118,1011.8163 V -26.4577 h 401.0326 l -121.268,1038.273 z"
         id="path2108" />
      <path
         style="fill:#e1e1e1;fill-opacity:1;stroke:#f27180;stroke-width:0.264583px;stroke-linecap:butt;stroke-linejoin:miter;stroke-opacity:1"
         d="m -404.291,1256.0813 -88.8834,-338.917 H 20.1894 l -88.8833,338.917 z"
         id="path11071" />
      <path
         id="rect15733"
         style="fill:#047520;fill-opacity:1;stroke-width:2.265;stroke-linecap:round;stroke-linejoin:round"
         d="m -249.232,716.5513 c 9.9905,-65.736 51.3221,-94.999 211.0546,-35.175 -57.9312,152.483 -217.2775,146.67 -211.0546,35.175 z" />
      <path
         id="path17039"
         style="fill:#519505;fill-opacity:1;stroke-width:2.265;stroke-linecap:round;stroke-linejoin:round"
         d="m -176.5716,653.3153 c -9.8714,0.541 -19.8465,1.563 -29.1746,5.01 -9.2426,3.431 -17.6951,9.334 -23.709,17.211 -5.3694,7.024 -8.9091,15.266 -11.412,23.698 -2.4406,8.242 -4.2156,16.711 -4.0694,25.324 0.2479,11.058 2.2246,22.215 6.8865,32.322 5.4974,11.924 14.8406,22.072 26.4452,28.275 8.9549,4.867 19.0245,7.573 29.1273,8.363 6.5559,0.507 13.1939,0.27 19.6941,-0.611 11.8863,-1.609 23.4932,-5.353 34.2804,-10.561 16.2679,-7.863 30.7607,-19.078 43.1858,-32.138 12.6239,-13.31 23.0968,-28.58 31.5308,-44.85 1.8172,-3.55 3.5712,-7.117 4.9892,-10.844 2.4019,-4.417 2.9482,-7.315 2.2286,-9.365 -1.2539,-3.571 -6.3483,-4.569 -12.1658,-6.536 -19.4446,-6.606 -39.0167,-12.948 -59.0238,-17.615 -15.5549,-3.648 -31.3368,-6.452 -47.2984,-7.39 -3.8206,-0.215 -7.6778,-0.311 -11.5149,-0.293 z" />
      <path
         style="fill:none;stroke:#047520;stroke-width:18.265;stroke-linecap:round;stroke-linejoin:miter;stroke-miterlimit:4;stroke-dasharray:none;stroke-opacity:1"
         d="m -231.3515,829.9413 c -2.38644,-6.46599 -4.7729,-12.93204 -7.14106,-20.0595 -2.36816,-7.12746 -4.71742,-14.91454 -6.08812,-24.88701 -1.3707,-9.97248 -1.76231,-22.12949 -1.56653,-33.1465 0.19579,-11.01702 0.97896,-20.894 2.05589,-31.91151 1.07693,-11.0175 2.44742,-23.17349 5.58021,-35.04549 3.13279,-11.872 8.02738,-23.45809 15.36986,-35.61507 7.34248,-12.15697 17.13188,-24.88321 23.5932,-35.80559 6.46131,-10.92238 9.59383,-20.03941 11.84551,-31.72138 2.25168,-11.68198 3.62221,-25.92796 4.01378,-41.50395 0.39158,-15.57599 -0.19576,-32.481 -1.85999,-51.001 -1.66424,-18.52 -4.40532,-38.65399 -6.75495,-51.28595 -2.34963,-12.63196 -4.30732,-17.76 -6.2654,-22.88905"
         id="path24764" />
      <path
         id="rect11273"
         style="fill:#35b0ab;stroke-width:2.265;stroke-linecap:round;stroke-linejoin:round"
         d="M -544.79852,829.94098 H 71.813965 v 87.22301 H -544.79852 Z" />
      <path
         style="fill:none;stroke:#047520;stroke-width:6.165;stroke-linecap:round;stroke-linejoin:miter;stroke-miterlimit:4;stroke-dasharray:none;stroke-opacity:1"
         d="m -244.886,742.9123 c -0.22975,-0.94499 -0.4595,-1.89 1.31648,-4.08713 1.77598,-2.19713 5.55783,-5.6453 10.48698,-9.52815 4.92915,-3.88285 11.00436,-8.1994 18.01331,-9.82503 7.00896,-1.62563 14.94973,-0.55969 23.98367,-0.31986 9.03394,0.23982 19.16002,-0.34649 27.23448,-1.1725 8.07446,-0.826 14.09682,-1.89165 20.11947,-3.5972 6.02265,-1.70554 12.04487,-4.05075 18.06751,-6.39613"
         id="path22286" />
      <g
         id="g27182"
         transform="matrix(-0.50233598,-0.50233598,0.50233598,-0.50233598,1963.8473,7566.3172)"
         style="stroke-width:1.40764">
        <path
           id="path27169"
           style="fill:#047520;fill-opacity:1;stroke-width:3.1883;stroke-linecap:round;stroke-linejoin:round"
           d="m 9056.6047,4651.7058 c 14.063,-92.5335 72.2429,-133.7247 297.0884,-49.5147 -81.5462,214.641 -305.848,206.4585 -297.0884,49.5147 z" />
        <path
           id="path27171"
           style="fill:#519505;fill-opacity:1;stroke-width:3.1883;stroke-linecap:round;stroke-linejoin:round"
           d="m 9158.8842,4562.692 c -13.8953,0.7613 -27.9367,2.1998 -41.0672,7.0521 -13.0103,4.8298 -24.9083,13.1385 -33.3737,24.2272 -7.5581,9.8867 -12.5408,21.4891 -16.0639,33.3585 -3.4355,11.6007 -5.9341,23.5229 -5.7283,35.6461 0.3489,15.5665 3.1314,31.2716 9.6937,45.498 7.7383,16.7846 20.8902,31.0688 37.2252,39.8012 12.6053,6.8504 26.7796,10.6593 41.0007,11.7725 9.2283,0.7126 18.5723,0.379 27.7221,-0.8609 16.7317,-2.2653 33.07,-7.5342 48.2544,-14.8652 22.8994,-11.0682 43.3,-26.8549 60.7899,-45.2392 17.77,-18.7361 32.512,-40.2305 44.384,-63.1319 2.558,-4.9976 5.027,-10.0192 7.023,-15.265 3.381,-6.2177 4.15,-10.2973 3.137,-13.183 -1.765,-5.0264 -8.936,-6.4304 -17.125,-9.2 -27.371,-9.2993 -54.9213,-18.2267 -83.0841,-24.796 -21.8956,-5.1343 -44.1109,-9.0812 -66.579,-10.4022 -5.378,-0.3026 -10.8075,-0.4377 -16.2088,-0.4122 z" />
        <path
           style="fill:none;stroke:#047520;stroke-width:8.67808;stroke-linecap:round;stroke-linejoin:miter;stroke-miterlimit:4;stroke-dasharray:none;stroke-opacity:1"
           d="m 9062.7223,4688.8121 c -0.3234,-1.3304 -0.6469,-2.661 1.8531,-5.7533 2.5001,-3.0924 7.8238,-7.9462 14.762,-13.4116 6.9383,-5.4654 15.4906,-11.542 25.3563,-13.8302 9.8657,-2.2882 21.0436,-0.7878 33.7602,-0.4502 12.7165,0.3376 26.9704,-0.4876 38.3363,-1.6505 11.366,-1.1628 19.8431,-2.6632 28.3209,-5.064 8.4777,-2.4007 16.9549,-5.7016 25.4324,-9.0026"
           id="path27173" />
      </g>
      <g
         id="g27190"
         transform="matrix(0.71041035,0,0,0.71041035,-6638.1125,-2719.9775)"
         style="stroke-width:1.40764">
        <path
           id="path27184"
           style="fill:#047520;fill-opacity:1;stroke-width:3.1883;stroke-linecap:round;stroke-linejoin:round"
           d="m 9056.6047,4651.7058 c 14.063,-92.5335 72.2429,-133.7247 297.0884,-49.5147 -81.5462,214.641 -305.848,206.4585 -297.0884,49.5147 z" />
        <path
           id="path27186"
           style="fill:#519505;fill-opacity:1;stroke-width:3.1883;stroke-linecap:round;stroke-linejoin:round"
           d="m 9158.8842,4562.692 c -13.8953,0.7613 -27.9367,2.1998 -41.0672,7.0521 -13.0103,4.8298 -24.9083,13.1385 -33.3737,24.2272 -7.5581,9.8867 -12.5408,21.4891 -16.0639,33.3585 -3.4355,11.6007 -5.9341,23.5229 -5.7283,35.6461 0.3489,15.5665 3.1314,31.2716 9.6937,45.498 7.7383,16.7846 20.8902,31.0688 37.2252,39.8012 12.6053,6.8504 26.7796,10.6593 41.0007,11.7725 9.2283,0.7126 18.5723,0.379 27.7221,-0.8609 16.7317,-2.2653 33.07,-7.5342 48.2544,-14.8652 22.8994,-11.0682 43.3,-26.8549 60.7899,-45.2392 17.77,-18.7361 32.512,-40.2305 44.384,-63.1319 2.558,-4.9976 5.027,-10.0192 7.023,-15.265 3.381,-6.2177 4.15,-10.2973 3.137,-13.183 -1.765,-5.0264 -8.936,-6.4304 -17.125,-9.2 -27.371,-9.2993 -54.9213,-18.2267 -83.0841,-24.796 -21.8956,-5.1343 -44.1109,-9.0812 -66.579,-10.4022 -5.378,-0.3026 -10.8075,-0.4377 -16.2088,-0.4122 z" />
        <path
           style="fill:none;stroke:#047520;stroke-width:8.67808;stroke-linecap:round;stroke-linejoin:miter;stroke-miterlimit:4;stroke-dasharray:none;stroke-opacity:1"
           d="m 9062.7223,4688.8121 c -0.3234,-1.3304 -0.6469,-2.661 1.8531,-5.7533 2.5001,-3.0924 7.8238,-7.9462 14.762,-13.4116 6.9383,-5.4654 15.4906,-11.542 25.3563,-13.8302 9.8657,-2.2882 21.0436,-0.7878 33.7602,-0.4502 12.7165,0.3376 26.9704,-0.4876 38.3363,-1.6505 11.366,-1.1628 19.8431,-2.6632 28.3209,-5.064 8.4777,-2.4007 16.9549,-5.7016 25.4324,-9.0026"
           id="path27188" />
      </g>
      <g
         id="g27202"
         transform="matrix(-0.61523341,-0.35520517,0.35520517,-0.61523341,3727.2104,6635.8232)"
         style="stroke-width:1.40764">
        <path
           id="path27196"
           style="fill:#047520;fill-opacity:1;stroke-width:3.1883;stroke-linecap:round;stroke-linejoin:round"
           d="m 9056.6047,4651.7058 c 14.063,-92.5335 72.2429,-133.7247 297.0884,-49.5147 -81.5462,214.641 -305.848,206.4585 -297.0884,49.5147 z" />
        <path
           id="path27198"
           style="fill:#519505;fill-opacity:1;stroke-width:3.1883;stroke-linecap:round;stroke-linejoin:round"
           d="m 9158.8842,4562.692 c -13.8953,0.7613 -27.9367,2.1998 -41.0672,7.0521 -13.0103,4.8298 -24.9083,13.1385 -33.3737,24.2272 -7.5581,9.8867 -12.5408,21.4891 -16.0639,33.3585 -3.4355,11.6007 -5.9341,23.5229 -5.7283,35.6461 0.3489,15.5665 3.1314,31.2716 9.6937,45.498 7.7383,16.7846 20.8902,31.0688 37.2252,39.8012 12.6053,6.8504 26.7796,10.6593 41.0007,11.7725 9.2283,0.7126 18.5723,0.379 27.7221,-0.8609 16.7317,-2.2653 33.07,-7.5342 48.2544,-14.8652 22.8994,-11.0682 43.3,-26.8549 60.7899,-45.2392 17.77,-18.7361 32.512,-40.2305 44.384,-63.1319 2.558,-4.9976 5.027,-10.0192 7.023,-15.265 3.381,-6.2177 4.15,-10.2973 3.137,-13.183 -1.765,-5.0264 -8.936,-6.4304 -17.125,-9.2 -27.371,-9.2993 -54.9213,-18.2267 -83.0841,-24.796 -21.8956,-5.1343 -44.1109,-9.0812 -66.579,-10.4022 -5.378,-0.3026 -10.8075,-0.4377 -16.2088,-0.4122 z" />
        <path
           style="fill:none;stroke:#047520;stroke-width:8.67808;stroke-linecap:round;stroke-linejoin:miter;stroke-miterlimit:4;stroke-dasharray:none;stroke-opacity:1"
           d="m 9062.7223,4688.8121 c -0.3234,-1.3304 -0.6469,-2.661 1.8531,-5.7533 2.5001,-3.0924 7.8238,-7.9462 14.762,-13.4116 6.9383,-5.4654 15.4906,-11.542 25.3563,-13.8302 9.8657,-2.2882 21.0436,-0.7878 33.7602,-0.4502 12.7165,0.3376 26.9704,-0.4876 38.3363,-1.6505 11.366,-1.1628 19.8431,-2.6632 28.3209,-5.064 8.4777,-2.4007 16.9549,-5.7016 25.4324,-9.0026"
           id="path27200" />
      </g>
      <path
         id="path30274"
         style="stroke-width:18.265;stroke-linecap:round;stroke-linejoin:round"
         transform="rotate(-29.797482)"
         d="m -494.87979,246.85466 a 7.5846887,6.5567274 0 0 1 -7.58469,6.55673 7.5846887,6.5567274 0 0 1 -7.58469,-6.55673 7.5846887,6.5567274 0 0 1 7.58469,-6.55673 7.5846887,6.5567274 0 0 1 7.58469,6.55673 z" />
      <g
         id="g30250"
         transform="matrix(0.65979785,-0.37783129,0.37783129,0.65979785,-8201.1182,971.2393)"
         style="stroke-width:1.31523">
        <path
           id="path29214"
           style="fill:#cd0000;stroke-width:24.0227;stroke-linecap:round;stroke-linejoin:round"
           d="m 9352.6068,4592.5879 a 18.396811,18.396811 0 0 1 -18.3968,18.3968 18.396811,18.396811 0 0 1 -18.3968,-18.3968 18.396811,18.396811 0 0 1 18.3968,-18.3968 18.396811,18.396811 0 0 1 18.3968,18.3968 z" />
        <path
           style="fill:none;stroke:#000000;stroke-width:0.347989px;stroke-linecap:butt;stroke-linejoin:miter;stroke-opacity:1"
           d="m 9334.2099,4574.191 v 36.7937"
           id="path29711" />
        <path
           id="path29815"
           style="stroke-width:24.0227;stroke-linecap:round;stroke-linejoin:round"
           d="m 9341.4453,4580.0825 a 2.4804688,2.4804688 0 0 1 -2.4805,2.4805 2.4804688,2.4804688 0 0 1 -2.4804,-2.4805 2.4804688,2.4804688 0 0 1 2.4804,-2.4804 2.4804688,2.4804688 0 0 1 2.4805,2.4804 z" />
        <path
           id="circle30117"
           style="stroke-width:24.0227;stroke-linecap:round;stroke-linejoin:round"
           d="m 9341.5488,4588.5576 a 2.4804688,2.4804688 0 0 1 -2.4804,2.4805 2.4804688,2.4804688 0 0 1 -2.4805,-2.4805 2.4804688,2.4804688 0 0 1 2.4805,-2.4805 2.4804688,2.4804688 0 0 1 2.4804,2.4805 z" />
        <path
           id="circle30119"
           style="stroke-width:24.0227;stroke-linecap:round;stroke-linejoin:round"
           d="m 9341.5488,4588.5576 a 2.4804688,2.4804688 0 0 1 -2.4804,2.4805 2.4804688,2.4804688 0 0 1 -2.4805,-2.4805 2.4804688,2.4804688 0 0 1 2.4805,-2.4805 2.4804688,2.4804688 0 0 1 2.4804,2.4805 z" />
        <path
           id="circle30209"
           style="stroke-width:24.0227;stroke-linecap:round;stroke-linejoin:round"
           d="m 9348.2666,4585.5605 a 2.4804688,2.4804688 0 0 1 -2.4805,2.4805 2.4804688,2.4804688 0 0 1 -2.4804,-2.4805 2.4804688,2.4804688 0 0 1 2.4804,-2.4804 2.4804688,2.4804688 0 0 1 2.4805,2.4804 z" />
        <path
           id="circle30211"
           style="stroke-width:24.0227;stroke-linecap:round;stroke-linejoin:round"
           d="m 9350.127,4592.8989 a 2.4804688,2.4804688 0 0 1 -2.4805,2.4805 2.4804688,2.4804688 0 0 1 -2.4805,-2.4805 2.4804688,2.4804688 0 0 1 2.4805,-2.4804 2.4804688,2.4804688 0 0 1 2.4805,2.4804 z" />
        <path
           id="circle30213"
           style="stroke-width:24.0227;stroke-linecap:round;stroke-linejoin:round"
           d="m 9342.9961,4595.7925 a 2.4804688,2.4804688 0 0 1 -2.4805,2.4804 2.4804688,2.4804688 0 0 1 -2.4804,-2.4804 2.4804688,2.4804688 0 0 1 2.4804,-2.4805 2.4804688,2.4804688 0 0 1 2.4805,2.4805 z" />
        <path
           id="circle30215"
           style="stroke-width:24.0227;stroke-linecap:round;stroke-linejoin:round"
           d="m 9340.9287,4603.2339 a 2.4804688,2.4804688 0 0 1 -2.4805,2.4805 2.4804688,2.4804688 0 0 1 -2.4804,-2.4805 2.4804688,2.4804688 0 0 1 2.4804,-2.4805 2.4804688,2.4804688 0 0 1 2.4805,2.4805 z" />
        <path
           id="circle30217"
           style="stroke-width:24.0227;stroke-linecap:round;stroke-linejoin:round"
           d="m 9348.0605,4601.3735 a 2.4804688,2.4804688 0 0 1 -2.4804,2.4805 2.4804688,2.4804688 0 0 1 -2.4805,-2.4805 2.4804688,2.4804688 0 0 1 2.4805,-2.4804 2.4804688,2.4804688 0 0 1 2.4804,2.4804 z" />
        <path
           id="circle30219"
           style="stroke-width:24.0227;stroke-linecap:round;stroke-linejoin:round"
           d="m 9331.834,4579.876 a 2.4804688,2.4804688 0 0 1 -2.4805,2.4804 2.4804688,2.4804688 0 0 1 -2.4805,-2.4804 2.4804688,2.4804688 0 0 1 2.4805,-2.4805 2.4804688,2.4804688 0 0 1 2.4805,2.4805 z" />
        <path
           id="circle30221"
           style="stroke-width:24.0227;stroke-linecap:round;stroke-linejoin:round"
           d="m 9325.9424,4584.5269 a 2.4804688,2.4804688 0 0 1 -2.4805,2.4804 2.4804688,2.4804688 0 0 1 -2.4805,-2.4804 2.4804688,2.4804688 0 0 1 2.4805,-2.4805 2.4804688,2.4804688 0 0 1 2.4805,2.4805 z" />
        <path
           id="circle30223"
           style="stroke-width:24.0227;stroke-linecap:round;stroke-linejoin:round"
           d="m 9332.2471,4587.0073 a 2.4804688,2.4804688 0 0 1 -2.4805,2.4805 2.4804688,2.4804688 0 0 1 -2.4805,-2.4805 2.4804688,2.4804688 0 0 1 2.4805,-2.4804 2.4804688,2.4804688 0 0 1 2.4805,2.4804 z" />
        <path
           id="circle30225"
           style="stroke-width:24.0227;stroke-linecap:round;stroke-linejoin:round"
           d="m 9324.3916,4592.8984 a 2.4804688,2.4804688 0 0 1 -2.4805,2.4805 2.4804688,2.4804688 0 0 1 -2.4804,-2.4805 2.4804688,2.4804688 0 0 1 2.4804,-2.4804 2.4804688,2.4804688 0 0 1 2.4805,2.4804 z" />
        <path
           id="circle30227"
           style="stroke-width:24.0227;stroke-linecap:round;stroke-linejoin:round"
           d="m 9331.2129,4595.0688 a 2.4804688,2.4804688 0 0 1 -2.4805,2.4805 2.4804688,2.4804688 0 0 1 -2.4804,-2.4805 2.4804688,2.4804688 0 0 1 2.4804,-2.4804 2.4804688,2.4804688 0 0 1 2.4805,2.4804 z" />
        <path
           id="circle30229"
           style="stroke-width:24.0227;stroke-linecap:round;stroke-linejoin:round"
           d="m 9326.7686,4601.4766 a 2.4804688,2.4804688 0 0 1 -2.4805,2.4804 2.4804688,2.4804688 0 0 1 -2.4805,-2.4804 2.4804688,2.4804688 0 0 1 2.4805,-2.4805 2.4804688,2.4804688 0 0 1 2.4805,2.4805 z" />
        <path
           id="circle30231"
           style="stroke-width:24.0227;stroke-linecap:round;stroke-linejoin:round"
           d="m 9332.3496,4605.4038 a 2.4804688,2.4804688 0 0 1 -2.4805,2.4805 2.4804688,2.4804688 0 0 1 -2.4804,-2.4805 2.4804688,2.4804688 0 0 1 2.4804,-2.4805 2.4804688,2.4804688 0 0 1 2.4805,2.4805 z" />
      </g>
      <path
         style="fill:#e1e1e1;fill-opacity:1;stroke:#e8e8e8;stroke-width:0.264583px;stroke-linecap:butt;stroke-linejoin:miter;stroke-opacity:1"
         d="m 1657.7133,1256.0813 88.8834,-338.917 h -513.3638 l 88.8832,338.917 z"
         id="path30793" />
      <path
         id="path30795"
         style="fill:#047520;fill-opacity:1;stroke-width:2.265;stroke-linecap:round;stroke-linejoin:round"
         d="m 1502.6543,716.5513 c -9.9905,-65.736 -51.3221,-94.999 -211.0547,-35.175 57.9313,152.483 217.2776,146.67 211.0547,35.175 z" />
      <path
         id="path30797"
         style="fill:#519505;fill-opacity:1;stroke-width:2.265;stroke-linecap:round;stroke-linejoin:round"
         d="m 1429.9939,653.3153 c 9.8713,0.541 19.8465,1.563 29.1745,5.01 9.2427,3.431 17.6951,9.334 23.7091,17.211 5.3693,7.024 8.9091,15.266 11.4119,23.698 2.4406,8.242 4.2157,16.711 4.0695,25.324 -0.2479,11.058 -2.2246,22.215 -6.8865,32.322 -5.4974,11.924 -14.8407,22.072 -26.4452,28.275 -8.9549,4.867 -19.0245,7.573 -29.1273,8.363 -6.5559,0.507 -13.194,0.27 -19.6941,-0.611 -11.8864,-1.609 -23.4933,-5.353 -34.2804,-10.561 -16.268,-7.863 -30.7608,-19.078 -43.1858,-32.138 -12.624,-13.31 -23.0969,-28.58 -31.5309,-44.85 -1.8172,-3.55 -3.5712,-7.117 -4.9892,-10.844 -2.4019,-4.417 -2.9482,-7.315 -2.2285,-9.365 1.2539,-3.571 6.3482,-4.569 12.1658,-6.536 19.4446,-6.606 39.0166,-12.948 59.0238,-17.615 15.5548,-3.648 31.3368,-6.452 47.2984,-7.39 3.8206,-0.215 7.6777,-0.311 11.5149,-0.293 z" />
      <path
         style="fill:none;stroke:#047520;stroke-width:18.265;stroke-linecap:round;stroke-linejoin:miter;stroke-miterlimit:4;stroke-dasharray:none;stroke-opacity:1"
         d="m 1484.7738,829.9413 c 2.3864,-6.46599 4.7729,-12.932 7.141,-20.05947 2.3682,-7.12747 4.7174,-14.91456 6.0881,-24.88704 1.3707,-9.97248 1.7623,-22.12949 1.5665,-33.1465 -0.1957,-11.01701 -0.9789,-20.89401 -2.0558,-31.91151 -1.0769,-11.0175 -2.4474,-23.1735 -5.5802,-35.04551 -3.1328,-11.872 -8.0274,-23.45804 -15.3699,-35.61501 -7.3425,-12.15696 -17.1319,-24.8832 -23.5932,-35.80561 -6.4613,-10.92241 -9.5938,-20.03942 -11.8455,-31.72139 -2.2517,-11.68198 -3.6222,-25.92797 -4.0138,-41.50396 -0.3916,-15.57599 0.1958,-32.48099 1.86,-51.00099 1.6643,-18.52 4.4054,-38.654 6.755,-51.28596 2.3496,-12.63196 4.3073,-17.76 6.2654,-22.88905"
         id="path30799" />
      <path
         id="rect30801"
         style="fill:#f27180;stroke-width:2.265;stroke-linecap:round;stroke-linejoin:round"
         transform="scale(-1,1)"
         d="m -1798.2203,829.94098 h 616.6125 v 87.22301 h -616.6125 z" />
      <path
         style="fill:none;stroke:#047520;stroke-width:6.165;stroke-linecap:round;stroke-linejoin:miter;stroke-miterlimit:4;stroke-dasharray:none;stroke-opacity:1"
         d="m 1498.3083,742.9123 c 0.2297,-0.945 0.4594,-1.89001 -1.3165,-4.08711 -1.776,-2.19711 -5.5579,-5.64527 -10.487,-9.52812 -4.9291,-3.88285 -11.0044,-8.19945 -18.0133,-9.82509 -7.0089,-1.62563 -14.9497,-0.55968 -23.9837,-0.31986 -9.034,0.23982 -19.1601,-0.34649 -27.2345,-1.1725 -8.0745,-0.826 -14.0968,-1.89164 -20.1194,-3.59718 -6.0226,-1.70553 -12.0449,-4.05075 -18.0675,-6.39614"
         id="path30803" />
      <g
         id="g30811"
         transform="matrix(0.50233598,-0.50233598,-0.50233598,-0.50233598,-710.4251,7566.3172)"
         style="stroke-width:1.40764">
        <path
           id="path30805"
           style="fill:#047520;fill-opacity:1;stroke-width:3.1883;stroke-linecap:round;stroke-linejoin:round"
           d="m 9056.6047,4651.7058 c 14.063,-92.5335 72.2429,-133.7247 297.0884,-49.5147 -81.5462,214.641 -305.848,206.4585 -297.0884,49.5147 z" />
        <path
           id="path30807"
           style="fill:#519505;fill-opacity:1;stroke-width:3.1883;stroke-linecap:round;stroke-linejoin:round"
           d="m 9158.8842,4562.692 c -13.8953,0.7613 -27.9367,2.1998 -41.0672,7.0521 -13.0103,4.8298 -24.9083,13.1385 -33.3737,24.2272 -7.5581,9.8867 -12.5408,21.4891 -16.0639,33.3585 -3.4355,11.6007 -5.9341,23.5229 -5.7283,35.6461 0.3489,15.5665 3.1314,31.2716 9.6937,45.498 7.7383,16.7846 20.8902,31.0688 37.2252,39.8012 12.6053,6.8504 26.7796,10.6593 41.0007,11.7725 9.2283,0.7126 18.5723,0.379 27.7221,-0.8609 16.7317,-2.2653 33.07,-7.5342 48.2544,-14.8652 22.8994,-11.0682 43.3,-26.8549 60.7899,-45.2392 17.77,-18.7361 32.512,-40.2305 44.384,-63.1319 2.558,-4.9976 5.027,-10.0192 7.023,-15.265 3.381,-6.2177 4.15,-10.2973 3.137,-13.183 -1.765,-5.0264 -8.936,-6.4304 -17.125,-9.2 -27.371,-9.2993 -54.9213,-18.2267 -83.0841,-24.796 -21.8956,-5.1343 -44.1109,-9.0812 -66.579,-10.4022 -5.378,-0.3026 -10.8075,-0.4377 -16.2088,-0.4122 z" />
        <path
           style="fill:none;stroke:#047520;stroke-width:8.67808;stroke-linecap:round;stroke-linejoin:miter;stroke-miterlimit:4;stroke-dasharray:none;stroke-opacity:1"
           d="m 9062.7223,4688.8121 c -0.3234,-1.3304 -0.6469,-2.661 1.8531,-5.7533 2.5001,-3.0924 7.8238,-7.9462 14.762,-13.4116 6.9383,-5.4654 15.4906,-11.542 25.3563,-13.8302 9.8657,-2.2882 21.0436,-0.7878 33.7602,-0.4502 12.7165,0.3376 26.9704,-0.4876 38.3363,-1.6505 11.366,-1.1628 19.8431,-2.6632 28.3209,-5.064 8.4777,-2.4007 16.9549,-5.7016 25.4324,-9.0026"
           id="path30809" />
      </g>
      <g
         id="g30819"
         transform="matrix(-0.71041035,0,0,0.71041035,7891.5344,-2719.9775)"
         style="stroke-width:1.40764">
        <path
           id="path30813"
           style="fill:#047520;fill-opacity:1;stroke-width:3.1883;stroke-linecap:round;stroke-linejoin:round"
           d="m 9056.6047,4651.7058 c 14.063,-92.5335 72.2429,-133.7247 297.0884,-49.5147 -81.5462,214.641 -305.848,206.4585 -297.0884,49.5147 z" />
        <path
           id="path30815"
           style="fill:#519505;fill-opacity:1;stroke-width:3.1883;stroke-linecap:round;stroke-linejoin:round"
           d="m 9158.8842,4562.692 c -13.8953,0.7613 -27.9367,2.1998 -41.0672,7.0521 -13.0103,4.8298 -24.9083,13.1385 -33.3737,24.2272 -7.5581,9.8867 -12.5408,21.4891 -16.0639,33.3585 -3.4355,11.6007 -5.9341,23.5229 -5.7283,35.6461 0.3489,15.5665 3.1314,31.2716 9.6937,45.498 7.7383,16.7846 20.8902,31.0688 37.2252,39.8012 12.6053,6.8504 26.7796,10.6593 41.0007,11.7725 9.2283,0.7126 18.5723,0.379 27.7221,-0.8609 16.7317,-2.2653 33.07,-7.5342 48.2544,-14.8652 22.8994,-11.0682 43.3,-26.8549 60.7899,-45.2392 17.77,-18.7361 32.512,-40.2305 44.384,-63.1319 2.558,-4.9976 5.027,-10.0192 7.023,-15.265 3.381,-6.2177 4.15,-10.2973 3.137,-13.183 -1.765,-5.0264 -8.936,-6.4304 -17.125,-9.2 -27.371,-9.2993 -54.9213,-18.2267 -83.0841,-24.796 -21.8956,-5.1343 -44.1109,-9.0812 -66.579,-10.4022 -5.378,-0.3026 -10.8075,-0.4377 -16.2088,-0.4122 z" />
        <path
           style="fill:none;stroke:#047520;stroke-width:8.67808;stroke-linecap:round;stroke-linejoin:miter;stroke-miterlimit:4;stroke-dasharray:none;stroke-opacity:1"
           d="m 9062.7223,4688.8121 c -0.3234,-1.3304 -0.6469,-2.661 1.8531,-5.7533 2.5001,-3.0924 7.8238,-7.9462 14.762,-13.4116 6.9383,-5.4654 15.4906,-11.542 25.3563,-13.8302 9.8657,-2.2882 21.0436,-0.7878 33.7602,-0.4502 12.7165,0.3376 26.9704,-0.4876 38.3363,-1.6505 11.366,-1.1628 19.8431,-2.6632 28.3209,-5.064 8.4777,-2.4007 16.9549,-5.7016 25.4324,-9.0026"
           id="path30817" />
      </g>
      <g
         id="g30827"
         transform="matrix(0.61523341,-0.35520517,-0.35520517,-0.61523341,-2473.788,6635.8232)"
         style="stroke-width:1.40764">
        <path
           id="path30821"
           style="fill:#047520;fill-opacity:1;stroke-width:3.1883;stroke-linecap:round;stroke-linejoin:round"
           d="m 9056.6047,4651.7058 c 14.063,-92.5335 72.2429,-133.7247 297.0884,-49.5147 -81.5462,214.641 -305.848,206.4585 -297.0884,49.5147 z" />
        <path
           id="path30823"
           style="fill:#519505;fill-opacity:1;stroke-width:3.1883;stroke-linecap:round;stroke-linejoin:round"
           d="m 9158.8842,4562.692 c -13.8953,0.7613 -27.9367,2.1998 -41.0672,7.0521 -13.0103,4.8298 -24.9083,13.1385 -33.3737,24.2272 -7.5581,9.8867 -12.5408,21.4891 -16.0639,33.3585 -3.4355,11.6007 -5.9341,23.5229 -5.7283,35.6461 0.3489,15.5665 3.1314,31.2716 9.6937,45.498 7.7383,16.7846 20.8902,31.0688 37.2252,39.8012 12.6053,6.8504 26.7796,10.6593 41.0007,11.7725 9.2283,0.7126 18.5723,0.379 27.7221,-0.8609 16.7317,-2.2653 33.07,-7.5342 48.2544,-14.8652 22.8994,-11.0682 43.3,-26.8549 60.7899,-45.2392 17.77,-18.7361 32.512,-40.2305 44.384,-63.1319 2.558,-4.9976 5.027,-10.0192 7.023,-15.265 3.381,-6.2177 4.15,-10.2973 3.137,-13.183 -1.765,-5.0264 -8.936,-6.4304 -17.125,-9.2 -27.371,-9.2993 -54.9213,-18.2267 -83.0841,-24.796 -21.8956,-5.1343 -44.1109,-9.0812 -66.579,-10.4022 -5.378,-0.3026 -10.8075,-0.4377 -16.2088,-0.4122 z" />
        <path
           style="fill:none;stroke:#047520;stroke-width:8.67808;stroke-linecap:round;stroke-linejoin:miter;stroke-miterlimit:4;stroke-dasharray:none;stroke-opacity:1"
           d="m 9062.7223,4688.8121 c -0.3234,-1.3304 -0.6469,-2.661 1.8531,-5.7533 2.5001,-3.0924 7.8238,-7.9462 14.762,-13.4116 6.9383,-5.4654 15.4906,-11.542 25.3563,-13.8302 9.8657,-2.2882 21.0436,-0.7878 33.7602,-0.4502 12.7165,0.3376 26.9704,-0.4876 38.3363,-1.6505 11.366,-1.1628 19.8431,-2.6632 28.3209,-5.064 8.4777,-2.4007 16.9549,-5.7016 25.4324,-9.0026"
           id="path30825" />
      </g>
      <path
         id="rect128922"
         style="fill:#35b0ab;stroke-width:18.265;stroke-linecap:round;stroke-linejoin:round"
         d="m -1253.7457,-811.53412 h 244.7395 c 74.20574,0 133.94535,59.73961 133.94535,133.94531 0,74.20571 -59.73961,133.94532 -133.94535,133.94532 h -244.7395 c -74.2057,0 -133.9453,-59.73961 -133.9453,-133.94532 0,-74.2057 59.7396,-133.94531 133.9453,-133.94531 z" />
      <path
         id="rect129177"
         style="fill:#35b0ab;fill-opacity:1;stroke-width:18.265;stroke-linecap:round;stroke-linejoin:round"
         d="m -1098.7875,-613.0964 110.6469,28.4127 c 7.6442,82.723 13.5451,81.708 61.8166,108.421 l -1.1189,0.201 c -114.1799,0.312 -137.3197,-20.243 -171.3446,-137.0347 z" />
      <g
         aria-label="Hi!"
         transform="matrix(0.49947916,0,0,0.49947916,-6387.7437,-7944.1685)"
         id="text133064"
         style="font-size:333.333px;line-height:1.25;font-family:'Microsoft Sans Serif';-inkscape-font-specification:'Microsoft Sans Serif';white-space:pre;shape-inside:url(#rect133066);stroke-width:0.529718">
        <path
           d="m 10522.558,14669.001 h -38.899 v -101.237 h -109.863 v 101.237 h -38.737 v -233.398 h 38.737 v 98.144 h 109.863 v -98.144 h 38.899 z"
           style="font-weight:600;font-family:'Segoe UI';-inkscape-font-specification:'Segoe UI Semi-Bold';fill:#ffffff"
           id="path3002" />
        <path
           d="m 10594.987,14467.341 q -9.278,0 -15.951,-6.022 -6.51,-6.022 -6.51,-15.299 0,-9.278 6.51,-15.463 6.673,-6.184 15.951,-6.184 9.603,0 16.276,6.184 6.673,6.185 6.673,15.463 0,8.789 -6.673,15.136 -6.673,6.185 -16.276,6.185 z m 18.717,201.66 h -37.76 v -166.666 h 37.76 z"
           style="font-weight:600;font-family:'Segoe UI';-inkscape-font-specification:'Segoe UI Semi-Bold';fill:#ffffff"
           id="path3004" />
        <path
           d="m 10707.128,14435.603 -3.092,164.713 h -30.924 l -4.232,-164.713 z m -18.066,236.653 q -9.766,0 -16.601,-6.185 -6.836,-6.347 -6.836,-15.299 0,-9.277 6.836,-15.788 6.835,-6.51 16.601,-6.51 9.44,0 16.276,6.51 6.999,6.511 6.999,15.788 0,8.952 -6.999,15.299 -6.836,6.185 -16.276,6.185 z"
           style="font-weight:600;font-family:'Segoe UI';-inkscape-font-specification:'Segoe UI Semi-Bold';fill:#ffffff"
           id="path3006" />
      </g>
    </g>
  </g>
</svg>
