<?xml version="1.0" encoding="UTF-8" standalone="no"?>
<!-- Created with Inkscape (http://www.inkscape.org/) -->

<svg
   width="2505.6416mm"
   height="2726.2195mm"
   viewBox="0 0 2505.6416 2726.2195"
   version="1.1"
   id="svg2346"
   inkscape:version="1.1 (c68e22c387, 2021-05-23)"
   sodipodi:docname="CFR_About Us_2.svg"
   xmlns:inkscape="http://www.inkscape.org/namespaces/inkscape"
   xmlns:sodipodi="http://sodipodi.sourceforge.net/DTD/sodipodi-0.dtd"
   xmlns="http://www.w3.org/2000/svg"
   xmlns:svg="http://www.w3.org/2000/svg">
  <sodipodi:namedview
     id="namedview2348"
     pagecolor="#505050"
     bordercolor="#eeeeee"
     borderopacity="1"
     inkscape:pageshadow="0"
     inkscape:pageopacity="0"
     inkscape:pagecheckerboard="0"
     inkscape:document-units="mm"
     showgrid="false"
     inkscape:object-paths="true"
     fit-margin-top="0"
     fit-margin-left="0"
     fit-margin-right="0"
     fit-margin-bottom="0"
     inkscape:zoom="0.02850425"
     inkscape:cx="-8630.2919"
     inkscape:cy="4244.981"
     inkscape:window-width="1920"
     inkscape:window-height="986"
     inkscape:window-x="-11"
     inkscape:window-y="-11"
     inkscape:window-maximized="1"
     inkscape:current-layer="layer1"
     inkscape:snap-global="false" />
  <defs
     id="defs2343">
    <inkscape:path-effect
       effect="bspline"
       id="path-effect71122"
       is_visible="true"
       lpeversion="1"
       weight="33.333333"
       steps="2"
       helper_size="0"
       apply_no_weight="true"
       apply_with_weight="true"
       only_selected="false" />
    <inkscape:path-effect
       effect="bspline"
       id="path-effect71128"
       is_visible="true"
       lpeversion="1"
       weight="33.333333"
       steps="2"
       helper_size="0"
       apply_no_weight="true"
       apply_with_weight="true"
       only_selected="false" />
    <inkscape:path-effect
       effect="bspline"
       id="path-effect33469"
       is_visible="true"
       lpeversion="1"
       weight="33.333333"
       steps="2"
       helper_size="0"
       apply_no_weight="true"
       apply_with_weight="true"
       only_selected="false" />
    <inkscape:path-effect
       effect="bspline"
       id="path-effect36783"
       is_visible="true"
       lpeversion="1"
       weight="33.333333"
       steps="2"
       helper_size="0"
       apply_no_weight="true"
       apply_with_weight="true"
       only_selected="false" />
    <inkscape:path-effect
       effect="bspline"
       id="path-effect82017"
       is_visible="true"
       lpeversion="1"
       weight="33.333333"
       steps="2"
       helper_size="0"
       apply_no_weight="true"
       apply_with_weight="true"
       only_selected="false" />
    <inkscape:path-effect
       effect="bspline"
       id="path-effect82023"
       is_visible="true"
       lpeversion="1"
       weight="33.333333"
       steps="2"
       helper_size="0"
       apply_no_weight="true"
       apply_with_weight="true"
       only_selected="false" />
    <inkscape:path-effect
       effect="bspline"
       id="path-effect98258"
       is_visible="true"
       lpeversion="1"
       weight="33.333333"
       steps="2"
       helper_size="0"
       apply_no_weight="true"
       apply_with_weight="true"
       only_selected="false" />
    <inkscape:path-effect
       effect="bspline"
       id="path-effect24766"
       is_visible="true"
       lpeversion="1"
       weight="33.333333"
       steps="2"
       helper_size="0"
       apply_no_weight="true"
       apply_with_weight="true"
       only_selected="false" />
    <inkscape:path-effect
       effect="bspline"
       id="path-effect22288"
       is_visible="true"
       lpeversion="1"
       weight="33.333333"
       steps="2"
       helper_size="0"
       apply_no_weight="true"
       apply_with_weight="true"
       only_selected="false" />
    <inkscape:path-effect
       effect="bspline"
       id="path-effect27177"
       is_visible="true"
       lpeversion="1"
       weight="33.333333"
       steps="2"
       helper_size="0"
       apply_no_weight="true"
       apply_with_weight="true"
       only_selected="false" />
    <inkscape:path-effect
       effect="bspline"
       id="path-effect27194"
       is_visible="true"
       lpeversion="1"
       weight="33.333333"
       steps="2"
       helper_size="0"
       apply_no_weight="true"
       apply_with_weight="true"
       only_selected="false" />
    <inkscape:path-effect
       effect="bspline"
       id="path-effect27206"
       is_visible="true"
       lpeversion="1"
       weight="33.333333"
       steps="2"
       helper_size="0"
       apply_no_weight="true"
       apply_with_weight="true"
       only_selected="false" />
    <inkscape:path-effect
       effect="bspline"
       id="path-effect30873"
       is_visible="true"
       lpeversion="1"
       weight="33.333333"
       steps="2"
       helper_size="0"
       apply_no_weight="true"
       apply_with_weight="true"
       only_selected="false" />
    <inkscape:path-effect
       effect="bspline"
       id="path-effect30877"
       is_visible="true"
       lpeversion="1"
       weight="33.333333"
       steps="2"
       helper_size="0"
       apply_no_weight="true"
       apply_with_weight="true"
       only_selected="false" />
    <inkscape:path-effect
       effect="bspline"
       id="path-effect30881"
       is_visible="true"
       lpeversion="1"
       weight="33.333333"
       steps="2"
       helper_size="0"
       apply_no_weight="true"
       apply_with_weight="true"
       only_selected="false" />
    <inkscape:path-effect
       effect="bspline"
       id="path-effect30885"
       is_visible="true"
       lpeversion="1"
       weight="33.333333"
       steps="2"
       helper_size="0"
       apply_no_weight="true"
       apply_with_weight="true"
       only_selected="false" />
    <inkscape:path-effect
       effect="bspline"
       id="path-effect30889"
       is_visible="true"
       lpeversion="1"
       weight="33.333333"
       steps="2"
       helper_size="0"
       apply_no_weight="true"
       apply_with_weight="true"
       only_selected="false" />
    <rect
       x="10306.25"
       y="14368.75"
       width="1225"
       height="756.25"
       id="rect133066" />
    <inkscape:path-effect
       effect="bspline"
       id="path-effect221537"
       is_visible="true"
       lpeversion="1"
       weight="33.333333"
       steps="2"
       helper_size="0"
       apply_no_weight="true"
       apply_with_weight="true"
       only_selected="false" />
    <inkscape:path-effect
       effect="bspline"
       id="path-effect221545"
       is_visible="true"
       lpeversion="1"
       weight="33.333333"
       steps="2"
       helper_size="0"
       apply_no_weight="true"
       apply_with_weight="true"
       only_selected="false" />
    <inkscape:path-effect
       effect="bspline"
       id="path-effect221557"
       is_visible="true"
       lpeversion="1"
       weight="33.333333"
       steps="2"
       helper_size="0"
       apply_no_weight="true"
       apply_with_weight="true"
       only_selected="false" />
    <inkscape:path-effect
       effect="bspline"
       id="path-effect221569"
       is_visible="true"
       lpeversion="1"
       weight="33.333333"
       steps="2"
       helper_size="0"
       apply_no_weight="true"
       apply_with_weight="true"
       only_selected="false" />
    <inkscape:path-effect
       effect="bspline"
       id="path-effect221581"
       is_visible="true"
       lpeversion="1"
       weight="33.333333"
       steps="2"
       helper_size="0"
       apply_no_weight="true"
       apply_with_weight="true"
       only_selected="false" />
    <inkscape:path-effect
       effect="bspline"
       id="path-effect221629"
       is_visible="true"
       lpeversion="1"
       weight="33.333333"
       steps="2"
       helper_size="0"
       apply_no_weight="true"
       apply_with_weight="true"
       only_selected="false" />
    <inkscape:path-effect
       effect="bspline"
       id="path-effect221637"
       is_visible="true"
       lpeversion="1"
       weight="33.333333"
       steps="2"
       helper_size="0"
       apply_no_weight="true"
       apply_with_weight="true"
       only_selected="false" />
    <inkscape:path-effect
       effect="bspline"
       id="path-effect221649"
       is_visible="true"
       lpeversion="1"
       weight="33.333333"
       steps="2"
       helper_size="0"
       apply_no_weight="true"
       apply_with_weight="true"
       only_selected="false" />
    <inkscape:path-effect
       effect="bspline"
       id="path-effect221661"
       is_visible="true"
       lpeversion="1"
       weight="33.333333"
       steps="2"
       helper_size="0"
       apply_no_weight="true"
       apply_with_weight="true"
       only_selected="false" />
    <inkscape:path-effect
       effect="bspline"
       id="path-effect223811"
       is_visible="true"
       lpeversion="1"
       weight="33.333333"
       steps="2"
       helper_size="0"
       apply_no_weight="true"
       apply_with_weight="true"
       only_selected="false" />
    <inkscape:path-effect
       effect="bspline"
       id="path-effect221673"
       is_visible="true"
       lpeversion="1"
       weight="33.333333"
       steps="2"
       helper_size="0"
       apply_no_weight="true"
       apply_with_weight="true"
       only_selected="false" />
    <inkscape:path-effect
       effect="bspline"
       id="path-effect223819"
       is_visible="true"
       lpeversion="1"
       weight="33.333333"
       steps="2"
       helper_size="0"
       apply_no_weight="true"
       apply_with_weight="true"
       only_selected="false" />
    <inkscape:path-effect
       effect="bspline"
       id="path-effect223831"
       is_visible="true"
       lpeversion="1"
       weight="33.333333"
       steps="2"
       helper_size="0"
       apply_no_weight="true"
       apply_with_weight="true"
       only_selected="false" />
    <inkscape:path-effect
       effect="bspline"
       id="path-effect223843"
       is_visible="true"
       lpeversion="1"
       weight="33.333333"
       steps="2"
       helper_size="0"
       apply_no_weight="true"
       apply_with_weight="true"
       only_selected="false" />
    <inkscape:path-effect
       effect="bspline"
       id="path-effect223855"
       is_visible="true"
       lpeversion="1"
       weight="33.333333"
       steps="2"
       helper_size="0"
       apply_no_weight="true"
       apply_with_weight="true"
       only_selected="false" />
  </defs>
  <g
     inkscape:label="Layer 1"
     inkscape:groupmode="layer"
     id="layer1"
     transform="translate(-225.37618,970.69417)">
    <g
       id="g5862">
      <path
         id="path215890"
         style="fill:#f27180;fill-opacity:1;stroke:none;stroke-width:7.66502;stroke-linecap:round;stroke-linejoin:round"
         d="m 638.2148,1521.1519 c 0.021,63.9567 51.5303,115.4277 115.488,115.4057 l 814.0067,-0.293 c 63.9555,-0.02 115.4266,-51.53 115.404,-115.4872 l -0.082,-229.3144 a 177.68818,177.68818 0 0 0 177.6241,-177.7517 177.68818,177.68818 0 0 0 -177.7517,-177.6241 l -0.083,-229.3151 c -0.021,-63.9569 -51.531,-115.428 -115.488,-115.4054 l -229.3151,0.082 a 177.68818,177.68818 0 0 1 -1.5106,23.1939 177.68818,177.68818 0 0 1 -4.5268,22.7969 177.68818,177.68818 0 0 1 -7.4633,22.0127 177.68818,177.68818 0 0 1 -10.2729,20.8483 177.68818,177.68818 0 0 1 -12.9062,19.3315 177.68818,177.68818 0 0 1 -15.3195,17.4802 177.68818,177.68818 0 0 1 -17.4683,15.3315 177.68818,177.68818 0 0 1 -19.3215,12.9196 177.68818,177.68818 0 0 1 -20.8413,10.287 177.68818,177.68818 0 0 1 -22.0071,7.4795 177.68818,177.68818 0 0 1 -22.7948,4.5423 177.68818,177.68818 0 0 1 -23.1911,1.5283 177.68818,177.68818 0 0 1 -23.1932,-1.512 177.68818,177.68818 0 0 1 -22.7983,-4.5254 177.68818,177.68818 0 0 1 -22.0113,-7.4641 177.68818,177.68818 0 0 1 -20.849,-10.2722 177.68818,177.68818 0 0 1 -19.3322,-12.9055 177.68818,177.68818 0 0 1 -17.4795,-15.3194 177.68818,177.68818 0 0 1 -15.3315,-17.469 177.68818,177.68818 0 0 1 -12.9196,-19.3223 177.68818,177.68818 0 0 1 -10.2877,-20.8406 177.68818,177.68818 0 0 1 -7.4788,-22.007 177.68818,177.68818 0 0 1 -4.5431,-22.7941 177.68818,177.68818 0 0 1 -1.5282,-23.1925 l -229.3144,0.082 c -63.9577,0.021 -115.428,51.531 -115.4054,115.488 z" />
      <g
         id="g215274"
         transform="matrix(0.70521833,0,0,0.70521833,-11054.742,-4496.423)"
         style="stroke-width:1.418">
        <circle
           style="fill:#ff0000;fill-opacity:1;stroke:none;stroke-width:96.3746;stroke-linecap:round;stroke-linejoin:round;stroke-miterlimit:4;stroke-dasharray:none;stroke-opacity:1"
           id="circle215228"
           cx="7571.8096"
           cy="-18352.26"
           r="126.5827"
           transform="rotate(90)" />
        <circle
           style="fill:#ff0000;fill-opacity:1;stroke:none;stroke-width:96.3746;stroke-linecap:round;stroke-linejoin:round;stroke-miterlimit:4;stroke-dasharray:none;stroke-opacity:1"
           id="circle215230"
           cx="8513.877"
           cy="-18352.26"
           r="126.5827"
           transform="rotate(90)" />
        <path
           id="path215232"
           style="fill:#6f5980;fill-opacity:1;stroke:none;stroke-width:10.869;stroke-linecap:round;stroke-linejoin:round"
           d="m 18324.93,8696.3317 -257.692,-148.779 c 7.405,83.933 77.552,149.234 163.428,149.017 z" />
        <path
           id="path215234"
           style="fill:#634f72;fill-opacity:1;stroke:none;stroke-width:10.869;stroke-linecap:round;stroke-linejoin:round;stroke-opacity:1"
           d="m 18518.639,8695.8417 -452.338,-261.158 0.249,98.599 c 0.01,4.814 0.273,9.565 0.688,14.27 l 257.692,148.779 z" />
        <path
           id="path215236"
           style="fill:#6f5980;fill-opacity:1;stroke:none;stroke-width:10.869;stroke-linecap:round;stroke-linejoin:round"
           d="m 18065.998,8314.6737 0.303,120.009 452.338,261.159 206.655,-0.523 z" />
        <path
           id="path215238"
           style="fill:#6f5980;fill-opacity:1;stroke:none;stroke-width:10.869;stroke-linecap:round;stroke-linejoin:round"
           d="m 18206.831,8163.8217 a 251.96193,251.96193 0 0 1 -15.208,10.218 251.96193,251.96193 0 0 1 -29.522,14.652 251.96193,251.96193 0 0 1 -31.183,10.673 251.96193,251.96193 0 0 1 -32.307,6.512 251.96193,251.96193 0 0 1 -23.704,1.613 l 844.096,487.339 206.655,-0.522 z" />
        <path
           id="path215240"
           style="fill:#6f5980;fill-opacity:1;stroke:none;stroke-width:10.869;stroke-linecap:round;stroke-linejoin:round"
           d="m 18313.976,7993.5197 a 251.96193,251.96193 0 0 1 -5.343,27.231 251.96193,251.96193 0 0 1 -10.517,31.234 251.96193,251.96193 0 0 1 -14.502,29.597 251.96193,251.96193 0 0 1 -6.84,10.293 l 1042.594,601.943 65.556,-0.166 c 34.293,-0.09 66.023,-10.621 92.224,-28.575 z" />
        <path
           id="path215242"
           style="fill:#6f5980;fill-opacity:1;stroke:none;stroke-width:10.869;stroke-linecap:round;stroke-linejoin:round"
           d="m 18064.233,7617.1677 0.221,87.023 a 251.96193,251.96193 0 0 1 32.893,2.074 251.96193,251.96193 0 0 1 32.34,6.347 251.96193,251.96193 0 0 1 31.237,10.517 251.96193,251.96193 0 0 1 29.595,14.503 251.96193,251.96193 0 0 1 27.451,18.24 251.96193,251.96193 0 0 1 24.834,21.669 251.96193,251.96193 0 0 1 21.793,24.722 251.96193,251.96193 0 0 1 18.38,27.359 251.96193,251.96193 0 0 1 14.651,29.522 251.96193,251.96193 0 0 1 5.381,15.716 l 1234.749,712.883 c 6.787,-18.084 10.507,-37.69 10.455,-58.207 l -0.141,-55.673 z" />
        <path
           id="path215244"
           style="fill:#6f5980;fill-opacity:1;stroke:none;stroke-width:10.869;stroke-linecap:round;stroke-linejoin:round"
           d="m 18063.646,7384.6667 0.303,120.01 1483.838,856.694 -0.303,-120.01 z" />
        <path
           id="path215246"
           style="fill:#6f5980;fill-opacity:1;stroke:none;stroke-width:10.869;stroke-linecap:round;stroke-linejoin:round"
           d="m 18182.531,7221.1407 c -38.059,10.745 -70.416,34.783 -91.708,66.888 l 1456.376,840.84 -0.303,-120.011 z" />
        <path
           id="path215248"
           style="fill:#6f5980;fill-opacity:1;stroke:none;stroke-width:10.869;stroke-linecap:round;stroke-linejoin:round"
           d="m 18552.868,7202.7927 a 251.96192,251.96192 0 0 0 -0.78,11.293 l -186.406,0.471 1180.929,681.809 -0.303,-120.009 z" />
        <path
           id="path215250"
           style="fill:#6f5980;fill-opacity:1;stroke:none;stroke-width:10.869;stroke-linecap:round;stroke-linejoin:round"
           d="m 18641.13,7021.5877 a 251.96192,251.96192 0 0 0 -63.912,82.936 l 968.806,559.34 -0.304,-120.01 z" />
        <path
           id="path215252"
           style="fill:#6f5980;fill-opacity:1;stroke:none;stroke-width:10.869;stroke-linecap:round;stroke-linejoin:round"
           d="m 19045.863,7142.9337 a 251.96192,251.96192 0 0 0 -242.45,-181.445 251.96192,251.96192 0 0 0 -58.515,7.682 z" />
        <path
           id="path215254"
           style="fill:#6f5980;fill-opacity:1;stroke:none;stroke-width:10.869;stroke-linecap:round;stroke-linejoin:round"
           d="m 19373.064,7212.0087 -206.654,0.523 379.025,218.83 -0.141,-56.084 c -0.07,-26.75 -6.524,-51.921 -17.865,-74.146 z" />
        <path
           id="path215256"
           style="fill:#634f72;fill-opacity:1;stroke:none;stroke-width:10.869;stroke-linecap:round;stroke-linejoin:round"
           d="m 19373.064,7212.0087 154.365,89.123 c -27.106,-53.126 -82.311,-89.305 -146.251,-89.143 z" />
        <path
           id="path215258"
           style="fill:#634f72;fill-opacity:1;stroke:none;stroke-width:10.869;stroke-linecap:round;stroke-linejoin:round"
           d="m 19545.435,7431.3617 -379.025,-218.83 -110.399,0.279 a 251.96192,251.96192 0 0 0 -10.148,-69.877 l -300.965,-173.763 a 251.96192,251.96192 0 0 0 -103.768,52.417 l 904.59,522.266 z" />
        <path
           id="path215260"
           style="fill:#634f72;fill-opacity:1;stroke:none;stroke-width:10.869;stroke-linecap:round;stroke-linejoin:round"
           d="m 19546.024,7663.8647 -968.806,-559.34 a 251.96192,251.96192 0 0 0 -24.35,98.268 l 993.44,573.564 z" />
        <path
           id="path215262"
           style="fill:#634f72;fill-opacity:1;stroke:none;stroke-width:10.869;stroke-linecap:round;stroke-linejoin:round"
           d="m 19546.611,7896.3667 -1180.929,-681.81 -138.762,0.351 c -15.413,0.04 -30.281,2.25 -44.389,6.233 l 1364.365,787.717 z" />
        <path
           id="path215264"
           style="fill:#634f72;fill-opacity:1;stroke:none;stroke-width:10.869;stroke-linecap:round;stroke-linejoin:round"
           d="m 19547.199,8128.8687 -1456.376,-840.84 c -17.259,26.022 -27.276,57.296 -27.191,90.996 l 0.01,5.642 1483.838,856.694 z" />
        <path
           id="path215266"
           style="fill:#634f72;fill-opacity:1;stroke:none;stroke-width:10.869;stroke-linecap:round;stroke-linejoin:round"
           d="m 19547.787,8361.3707 -1483.838,-856.694 0.284,112.491 1483.839,856.695 z" />
        <path
           id="path215268"
           style="fill:#634f72;fill-opacity:1;stroke:none;stroke-width:10.869;stroke-linecap:round;stroke-linejoin:round"
           d="m 19537.758,8587.7427 -1234.749,-712.883 a 251.96193,251.96193 0 0 1 5.294,15.465 251.96193,251.96193 0 0 1 6.51,32.31 251.96193,251.96193 0 0 1 2.239,32.882 251.96193,251.96193 0 0 1 -2.073,32.892 251.96193,251.96193 0 0 1 -1.003,5.111 l 1163.172,671.557 c 27.412,-18.785 48.741,-45.709 60.61,-77.334 z" />
        <path
           id="path215270"
           style="fill:#634f72;fill-opacity:1;stroke:none;stroke-width:10.869;stroke-linecap:round;stroke-linejoin:round"
           d="m 19319.368,8693.8177 -1042.594,-601.943 a 251.96193,251.96193 0 0 1 -11.4,17.158 251.96193,251.96193 0 0 1 -21.669,24.835 251.96193,251.96193 0 0 1 -24.724,21.791 251.96193,251.96193 0 0 1 -12.15,8.163 l 918.827,530.485 z" />
        <path
           id="path215272"
           style="fill:#634f72;fill-opacity:1;stroke:none;stroke-width:10.869;stroke-linecap:round;stroke-linejoin:round"
           d="m 18919.003,8694.8287 -844.096,-487.339 a 251.96194,251.96194 0 0 1 -9.179,0.625 l 0.27,106.559 659.296,380.645 z" />
      </g>
      <g
         id="g215370"
         transform="matrix(0.70521833,0,0,0.70521833,-9035.4313,-6980.9006)"
         style="stroke-width:1.418">
        <circle
           style="fill:#ff0000;fill-opacity:1;stroke:none;stroke-width:96.3746;stroke-linecap:round;stroke-linejoin:round;stroke-miterlimit:4;stroke-dasharray:none;stroke-opacity:1"
           id="circle215324"
           cx="-13080.864"
           cy="11548.584"
           r="126.5827"
           transform="rotate(-105)" />
        <circle
           style="fill:#ff0000;fill-opacity:1;stroke:none;stroke-width:96.3746;stroke-linecap:round;stroke-linejoin:round;stroke-miterlimit:4;stroke-dasharray:none;stroke-opacity:1"
           id="circle215326"
           cx="-12138.798"
           cy="11548.584"
           r="126.5827"
           transform="rotate(-105)" />
        <path
           id="path215328"
           style="fill:#35b0ab;fill-opacity:0.956863;stroke:none;stroke-width:10.869;stroke-linecap:round;stroke-linejoin:round"
           d="m 14276.002,8552.8716 287.419,77.0139 c -28.877,-79.1565 -113.535,-124.0771 -196.428,-101.6411 z" />
        <path
           id="path215330"
           style="fill:#2d9e98;fill-opacity:0.956863;stroke:none;stroke-width:10.869;stroke-linecap:round;stroke-linejoin:round;stroke-opacity:1"
           d="m 14089.021,8603.4805 504.517,135.1855 -25.76,-95.1748 c -1.255,-4.6474 -2.739,-9.1684 -4.357,-13.6057 l -287.419,-77.0139 z" />
        <path
           id="path215332"
           style="fill:#35b0ab;fill-opacity:0.956863;stroke:none;stroke-width:10.869;stroke-linecap:round;stroke-linejoin:round"
           d="m 14624.892,8854.5084 -31.354,-115.8414 -504.517,-135.1865 -199.479,53.9915 z" />
        <path
           id="path215334"
           style="fill:#35b0ab;fill-opacity:0.956863;stroke:none;stroke-width:10.869;stroke-linecap:round;stroke-linejoin:round"
           d="m 14527.901,9036.6705 a 251.96193,251.96193 0 0 1 12.045,-13.806 251.96193,251.96193 0 0 1 24.724,-21.7936 251.96193,251.96193 0 0 1 27.358,-18.38 251.96193,251.96193 0 0 1 29.521,-14.6518 251.96193,251.96193 0 0 1 22.479,-7.6931 l -941.467,-252.2652 -199.479,53.9905 z" />
        <path
           id="path215336"
           style="fill:#34b1ab;fill-opacity:0.956863;stroke:none;stroke-width:10.869;stroke-linecap:round;stroke-linejoin:round"
           d="m 14468.484,9228.9008 a 251.96193,251.96193 0 0 1 -1.887,-27.686 251.96193,251.96193 0 0 1 2.075,-32.8918 251.96193,251.96193 0 0 1 6.348,-32.3419 251.96193,251.96193 0 0 1 3.942,-11.7126 l -1162.863,-311.589 -63.279,17.1275 c -33.101,8.9626 -61.024,27.3471 -81.686,51.4706 z" />
        <path
           id="path215338"
           style="fill:#34b1ab;fill-opacity:0.956863;stroke:none;stroke-width:10.869;stroke-linecap:round;stroke-linejoin:round"
           d="m 14807.124,9527.7906 -22.736,-84.0005 a 251.96193,251.96193 0 0 1 -32.309,6.51 251.96193,251.96193 0 0 1 -32.881,2.2394 251.96193,251.96193 0 0 1 -32.895,-2.0739 251.96193,251.96193 0 0 1 -32.34,-6.349 251.96193,251.96193 0 0 1 -31.236,-10.5137 251.96193,251.96193 0 0 1 -29.596,-14.5031 251.96193,251.96193 0 0 1 -27.449,-18.2392 251.96193,251.96193 0 0 1 -24.835,-21.6697 251.96193,251.96193 0 0 1 -21.793,-24.7241 251.96193,251.96193 0 0 1 -9.265,-13.7878 l -1377.184,-369.0154 c -1.875,19.2244 -0.394,39.1251 4.966,58.9296 l 14.546,53.7394 z" />
        <path
           id="path215340"
           style="fill:#34b1ab;fill-opacity:0.956863;stroke:none;stroke-width:10.869;stroke-linecap:round;stroke-linejoin:round"
           d="m 14867.867,9752.2174 -31.353,-115.8423 -1655.007,-443.4573 31.354,115.8423 z" />
        <path
           id="path215342"
           style="fill:#34b1ab;fill-opacity:0.956863;stroke:none;stroke-width:10.869;stroke-linecap:round;stroke-linejoin:round"
           d="m 14795.357,9940.9411 c 33.981,-20.2293 59.014,-51.8228 71.271,-88.3446 l -1624.377,-435.2512 31.354,115.8433 z" />
        <path
           id="path215344"
           style="fill:#33b2ab;fill-opacity:0.956863;stroke:none;stroke-width:10.869;stroke-linecap:round;stroke-linejoin:round"
           d="m 14442.387,10054.514 a 251.96192,251.96192 0 0 0 -2.169,-11.11 l 179.933,-48.7003 -1317.156,-352.9299 31.354,115.8413 z" />
        <path
           id="path215346"
           style="fill:#33b2ab;fill-opacity:0.956863;stroke:none;stroke-width:10.869;stroke-linecap:round;stroke-linejoin:round"
           d="m 14404.032,10252.389 a 251.96192,251.96192 0 0 0 40.269,-96.652 l -1080.563,-289.5355 31.355,115.8421 z" />
        <path
           id="path215348"
           style="fill:#33b2ab;fill-opacity:0.956863;stroke:none;stroke-width:10.869;stroke-linecap:round;stroke-linejoin:round"
           d="m 13981.683,10239.93 a 251.96192,251.96192 0 0 0 281.15,112.512 251.96192,251.96192 0 0 0 54.533,-22.565 z" />
        <path
           id="path215350"
           style="fill:#33b2ab;fill-opacity:0.956863;stroke:none;stroke-width:10.869;stroke-linecap:round;stroke-linejoin:round"
           d="m 13647.753,10257.895 199.478,-53.992 -422.748,-113.274 14.652,54.136 c 6.991,25.821 19.74,48.464 36.447,66.996 z" />
        <path
           id="path215352"
           style="fill:#2d9e99;fill-opacity:0.956863;stroke:none;stroke-width:10.869;stroke-linecap:round;stroke-linejoin:round"
           d="m 13647.753,10257.895 -172.171,-46.134 c 39.932,44.3 102.62,64.958 164.339,48.253 z" />
        <path
           id="path215354"
           style="fill:#2d9e99;fill-opacity:0.956863;stroke:none;stroke-width:10.869;stroke-linecap:round;stroke-linejoin:round"
           d="m 13424.483,10090.629 422.748,113.274 106.565,-28.842 a 251.96192,251.96192 0 0 0 27.887,64.869 l 335.683,89.947 a 251.96192,251.96192 0 0 0 86.666,-77.488 l -1008.939,-270.3454 z" />
        <path
           id="path215356"
           style="fill:#2d9e99;fill-opacity:0.956863;stroke:none;stroke-width:10.869;stroke-linecap:round;stroke-linejoin:round"
           d="m 13363.738,9866.2006 1080.563,289.5354 a 251.96192,251.96192 0 0 0 -1.914,-101.222 l -1108.038,-296.8989 z" />
        <path
           id="path215358"
           style="fill:#2d9e99;fill-opacity:0.956863;stroke:none;stroke-width:10.869;stroke-linecap:round;stroke-linejoin:round"
           d="m 13302.995,9641.7728 1317.156,352.9309 133.942,-36.2533 c 14.878,-4.0278 28.667,-10.0106 41.264,-17.5093 l -1521.752,-407.7525 z" />
        <path
           id="path215360"
           style="fill:#2d9e99;fill-opacity:0.956863;stroke:none;stroke-width:10.869;stroke-linecap:round;stroke-linejoin:round"
           d="m 13242.251,9417.3453 1624.377,435.2512 c 9.936,-29.6023 11.517,-62.4032 2.713,-94.9329 l -1.47,-5.4472 -1655.006,-443.4573 z" />
        <path
           id="path215362"
           style="fill:#2d9e99;fill-opacity:0.956863;stroke:none;stroke-width:10.869;stroke-linecap:round;stroke-linejoin:round"
           d="m 13181.507,9192.9178 1655.007,443.4573 -29.39,-108.5845 -1655.007,-443.458 z" />
        <path
           id="path215364"
           style="fill:#2d9e99;fill-opacity:0.956863;stroke:none;stroke-width:10.869;stroke-linecap:round;stroke-linejoin:round"
           d="m 13132.605,8971.6636 1377.184,369.0154 a 251.96193,251.96193 0 0 1 -9.116,-13.5678 251.96193,251.96193 0 0 1 -14.651,-29.5242 251.96193,251.96193 0 0 1 -10.673,-31.182 251.96193,251.96193 0 0 1 -6.511,-32.3078 251.96193,251.96193 0 0 1 -0.354,-5.1964 l -1297.35,-347.6232 c -21.616,25.2397 -35.249,56.7666 -38.529,90.386 z" />
        <path
           id="path215366"
           style="fill:#2d9e98;fill-opacity:0.956863;stroke:none;stroke-width:10.869;stroke-linecap:round;stroke-linejoin:round"
           d="m 13316.099,8812.6795 1162.863,311.589 a 251.96193,251.96193 0 0 1 6.571,-19.5239 251.96193,251.96193 0 0 1 14.503,-29.5971 251.96193,251.96193 0 0 1 18.242,-27.4475 251.96193,251.96193 0 0 1 9.623,-11.0295 l -1024.819,-274.5992 z" />
        <path
           id="path215368"
           style="fill:#2d9e98;fill-opacity:0.956863;stroke:none;stroke-width:10.869;stroke-linecap:round;stroke-linejoin:round"
           d="m 13702.561,8708.0808 941.467,252.2652 a 251.96194,251.96194 0 0 1 8.704,-2.9794 l -27.84,-102.8582 -735.35,-197.0364 z" />
      </g>
      <path
         style="fill:none;stroke:#671818;stroke-width:54.5;stroke-linecap:round;stroke-linejoin:miter;stroke-miterlimit:4;stroke-dasharray:none;stroke-opacity:1"
         d="M 828.3205,1681.8936 1150.7541,219.2152"
         id="path215372" />
      <path
         style="fill:none;stroke:#671818;stroke-width:54.5;stroke-linecap:round;stroke-linejoin:miter;stroke-miterlimit:4;stroke-dasharray:none;stroke-opacity:1"
         d="M 1313.3295,233.2631 1254.869,1712.2566"
         id="path215374" />
      <path
         style="fill:none;stroke:#671818;stroke-width:26;stroke-linecap:butt;stroke-linejoin:miter;stroke-miterlimit:4;stroke-dasharray:none;stroke-opacity:1"
         d="m 1130.3317,297.2624 178.7474,25.4386"
         id="path215376" />
      <path
         style="fill:none;stroke:#671818;stroke-width:26;stroke-linecap:butt;stroke-linejoin:miter;stroke-miterlimit:4;stroke-dasharray:none;stroke-opacity:1"
         d="m 1086.0454,456.22 215.9294,40.7045"
         id="path215378" />
      <path
         style="fill:none;stroke:#000000;stroke-width:26;stroke-linecap:butt;stroke-linejoin:miter;stroke-miterlimit:4;stroke-dasharray:none;stroke-opacity:1"
         d="m 1056.4565,620.8836 236.7157,56.5691"
         id="path215380" />
      <path
         style="fill:none;stroke:#671818;stroke-width:26;stroke-linecap:butt;stroke-linejoin:miter;stroke-miterlimit:4;stroke-dasharray:none;stroke-opacity:1"
         d="m 1010.0884,792.4032 283.0838,56.5691"
         id="path215382" />
      <path
         style="fill:none;stroke:#671818;stroke-width:26;stroke-linecap:butt;stroke-linejoin:miter;stroke-miterlimit:4;stroke-dasharray:none;stroke-opacity:1"
         d="m 993.7055,967.2248 289.6275,56.569"
         id="path215384" />
      <path
         style="fill:none;stroke:#671818;stroke-width:26;stroke-linecap:butt;stroke-linejoin:miter;stroke-miterlimit:4;stroke-dasharray:none;stroke-opacity:1"
         d="m 951.9079,1150.2896 325.112,56.569"
         id="path215386" />
      <path
         style="fill:none;stroke:#671818;stroke-width:26;stroke-linecap:butt;stroke-linejoin:miter;stroke-miterlimit:4;stroke-dasharray:none;stroke-opacity:1"
         d="m 913.9679,1328.4065 356.6627,56.5684"
         id="path215388" />
      <path
         style="fill:none;stroke:#671818;stroke-width:26;stroke-linecap:butt;stroke-linejoin:miter;stroke-miterlimit:4;stroke-dasharray:none;stroke-opacity:1"
         d="m 860.8586,1521.3663 410.1056,56.5683"
         id="path215390" />
      <circle
         style="fill:#e8b29d;fill-opacity:1;stroke:none;stroke-width:0.264999;stroke-linecap:round;stroke-linejoin:round;stroke-miterlimit:4;stroke-dasharray:none"
         id="circle215392"
         cx="1060.0248"
         cy="386.71848"
         r="112.14761"
         transform="rotate(0.04392443)" />
      <rect
         style="fill:#dbdbdb;fill-opacity:1;stroke:none;stroke-width:0.264999;stroke-linecap:round;stroke-linejoin:round;stroke-miterlimit:4;stroke-dasharray:none"
         id="rect215394"
         width="299.70862"
         height="396.50165"
         x="913.0863"
         y="543.9812"
         rx="92.604172"
         ry="92.604164"
         transform="rotate(0.04392443)" />
      <rect
         style="fill:#000000;fill-opacity:1;stroke:none;stroke-width:0.264999;stroke-linecap:round;stroke-linejoin:round;stroke-miterlimit:4;stroke-dasharray:none"
         id="rect215396"
         width="293.87769"
         height="396.50165"
         x="913.0863"
         y="543.9812"
         rx="92.604164"
         ry="92.604164"
         transform="rotate(0.04392443)" />
      <path
         id="path215398"
         style="fill:#35b0ab;fill-opacity:1;stroke-width:0.264999;stroke-linecap:round;stroke-linejoin:round"
         d="m 1115.2032,544.8156 c 1.2839,0.2255 1.7784,0.089 3.7746,0.064 1.6409,-0.021 4.8068,0.08 5.8757,0.1158 2.6105,0.087 5.2164,0.3626 7.7675,0.6711 13.4935,1.6318 26.2069,4.3798 35.7429,12.9072 l 0.5644,2.2602 -1.5967,0.97 c -2.5675,-2.4838 -13.9265,-7.9211 -16.5577,-9.4065 -8.4289,-3.6071 -17.2082,-5.2544 -26.3439,-6.7973 -2.8503,-0.4814 -6.5324,0 -9.2268,-0.7843 z"
         sodipodi:nodetypes="csssccccsc" />
      <circle
         style="fill:#e8b29d;fill-opacity:1;stroke:none;stroke-width:0.264999;stroke-linecap:round;stroke-linejoin:round;stroke-miterlimit:4;stroke-dasharray:none"
         id="circle215400"
         r="112.14761"
         cy="386.71848"
         cx="1060.0248"
         transform="rotate(0.04392443)" />
      <path
         id="path215402"
         style="fill:#000000;fill-opacity:1;stroke:none;stroke-width:0.264999;stroke-linecap:round;stroke-linejoin:round;stroke-miterlimit:4;stroke-dasharray:none"
         d="m 980.7147,466.9478 c 17.983,-36.3399 27.1629,-76.6001 27.2397,-120.9146 44.421,1.5627 87.5303,-10.5451 128.9901,-39.8244 -20.8166,-19.768 -48.4217,-30.8011 -77.129,-30.8251 -29.744,-0.021 -58.2778,11.7708 -79.3258,32.7863 -21.0479,21.0155 -32.885,49.5317 -32.9083,79.275 0.021,29.8547 11.9471,58.4683 33.1333,79.5028 z"
         sodipodi:nodetypes="ccccscc" />
      <rect
         style="fill:#000000;fill-opacity:1;stroke:none;stroke-width:0.264999;stroke-linecap:round;stroke-linejoin:round;stroke-miterlimit:4;stroke-dasharray:none"
         id="rect215404"
         width="105.98255"
         height="430.80588"
         x="945.63293"
         y="911.39697"
         transform="matrix(0.99999965,8.3807922e-4,-7.0126448e-4,0.99999975,0,0)" />
      <rect
         style="fill:#000000;fill-opacity:1;stroke:none;stroke-width:0.264999;stroke-linecap:round;stroke-linejoin:round;stroke-miterlimit:4;stroke-dasharray:none"
         id="rect215406"
         width="105.98255"
         height="217.89417"
         x="-290.91483"
         y="1335.0347"
         transform="rotate(-60.052514)" />
      <rect
         style="fill:#000000;fill-opacity:1;stroke:none;stroke-width:0.264999;stroke-linecap:round;stroke-linejoin:round;stroke-miterlimit:4;stroke-dasharray:none"
         id="rect215408"
         width="105.98254"
         height="258.25415"
         x="1148.1636"
         y="934.67322"
         transform="matrix(0.9999998,6.2563183e-4,-9.393946e-4,0.99999956,0,0)" />
      <rect
         style="fill:#000000;fill-opacity:1;stroke:none;stroke-width:0.265295;stroke-linecap:round;stroke-linejoin:round;stroke-miterlimit:4;stroke-dasharray:none"
         id="rect215410"
         width="107.05984"
         height="446.97418"
         x="-979.2702"
         y="735.34338"
         transform="matrix(-0.29200078,-0.95641808,0.97378198,-0.22748332,0,0)"
         ry="31.315342"
         rx="31.282867" />
      <path
         id="path215888"
         style="fill:#c06d85;fill-opacity:1;stroke:none;stroke-width:7.66502;stroke-linecap:round;stroke-linejoin:round"
         d="m 2730.7252,-339.6584 c -0.021,-63.9569 -51.5303,-115.428 -115.4879,-115.4047 l -814.0067,0.292 c -63.9556,0.021 -115.4267,51.5303 -115.4041,115.4872 l 0.082,229.3144 a 177.68818,177.68818 0 0 0 -177.624,177.7517 177.68818,177.68818 0 0 0 177.7517,177.6248 l 0.083,229.3151 c 0.021,63.957 51.531,115.4281 115.4879,115.4055 l 229.3152,-0.083 a 177.68818,177.68818 0 0 1 1.5106,-23.194 177.68818,177.68818 0 0 1 4.5268,-22.7968 177.68818,177.68818 0 0 1 7.4633,-22.0127 177.68818,177.68818 0 0 1 10.2729,-20.8484 177.68818,177.68818 0 0 1 12.9062,-19.3314 177.68818,177.68818 0 0 1 15.3195,-17.4803 177.68818,177.68818 0 0 1 17.4682,-15.3314 177.68818,177.68818 0 0 1 19.3216,-12.9189 177.68818,177.68818 0 0 1 20.8413,-10.2878 177.68818,177.68818 0 0 1 22.007,-7.4795 177.68818,177.68818 0 0 1 22.7948,-4.5423 177.68818,177.68818 0 0 1 23.1911,-1.5282 177.68818,177.68818 0 0 1 23.1932,1.512 177.68818,177.68818 0 0 1 22.7983,4.5254 177.68818,177.68818 0 0 1 22.0113,7.464 177.68818,177.68818 0 0 1 20.8491,10.2729 177.68818,177.68818 0 0 1 19.3321,12.9048 177.68818,177.68818 0 0 1 17.4796,15.3195 177.68818,177.68818 0 0 1 15.3314,17.4689 177.68818,177.68818 0 0 1 12.9196,19.3223 177.68818,177.68818 0 0 1 10.2877,20.8406 177.68818,177.68818 0 0 1 7.4789,22.007 177.68818,177.68818 0 0 1 4.543,22.7941 177.68818,177.68818 0 0 1 1.5282,23.1925 l 229.3144,-0.082 c 63.9577,-0.021 115.4281,-51.531 115.4055,-115.4879 z" />
      <path
         style="fill:#e4e4e4;fill-opacity:1;stroke:#e8e8e8;stroke-width:0.127196px;stroke-linecap:butt;stroke-linejoin:miter;stroke-opacity:1"
         d="m 1544.2111,1690.9096 42.3508,-164.3911 H 1341.957 l 42.3505,164.3911 z"
         id="path221527" />
      <path
         id="path221529"
         style="fill:#047520;fill-opacity:1;stroke-width:1.08888;stroke-linecap:round;stroke-linejoin:round"
         d="m 1470.3294,1429.2123 c -4.7602,-31.885 -24.4536,-46.079 -100.5622,-17.0615 27.6028,73.9616 103.5273,71.1421 100.5622,17.0615 z"
         sodipodi:nodetypes="ccc" />
      <path
         id="path221531"
         style="fill:#519505;fill-opacity:1;stroke-width:1.08888;stroke-linecap:round;stroke-linejoin:round"
         d="m 1435.7086,1398.5399 c 4.7034,0.2624 9.4564,0.7581 13.9009,2.4301 4.4039,1.6642 8.4313,4.5274 11.2968,8.3481 2.5584,3.407 4.2449,7.4048 5.4375,11.4947 1.1628,3.9978 2.0086,8.1056 1.939,12.2834 -0.1181,5.3636 -1.06,10.7752 -3.2812,15.6777 -2.6194,5.7837 -7.0712,10.706 -12.6006,13.7147 -4.2667,2.3608 -9.0646,3.6733 -13.8784,4.0565 -3.1237,0.2459 -6.2865,0.131 -9.3837,-0.2964 -5.6635,-0.7804 -11.194,-2.5965 -16.3337,-5.1226 -7.7513,-3.8139 -14.6568,-9.2538 -20.577,-15.5885 -6.015,-6.456 -11.0051,-13.8627 -15.0237,-21.7544 -0.8658,-1.7219 -1.7015,-3.4521 -2.3772,-5.2598 -1.1445,-2.1424 -1.4047,-3.5482 -1.0618,-4.5425 0.5974,-1.7321 3.0247,-2.2161 5.7967,-3.1702 9.2649,-3.2043 18.5904,-6.2805 28.1233,-8.5442 7.4115,-1.7694 14.9312,-3.1295 22.5365,-3.5845 1.8204,-0.1043 3.6583,-0.1509 5.4866,-0.1421 z"
         sodipodi:nodetypes="cccccccccccccscccc" />
      <path
         style="fill:none;stroke:#047520;stroke-width:8.78076;stroke-linecap:round;stroke-linejoin:miter;stroke-miterlimit:4;stroke-dasharray:none;stroke-opacity:1"
         d="m 1461.8099,1484.212 c 1.137,-3.1363 2.2741,-6.2727 3.4025,-9.7298 1.1283,-3.4572 2.2477,-7.2343 2.9008,-12.0715 0.6531,-4.8371 0.8397,-10.7338 0.7464,-16.0776 -0.093,-5.3438 -0.4665,-10.1346 -0.9796,-15.4786 -0.5131,-5.344 -1.1661,-11.2403 -2.6588,-16.9988 -1.4927,-5.7585 -3.8248,-11.3782 -7.3233,-17.2749 -3.4986,-5.8967 -8.163,-12.0696 -11.2417,-17.3675 -3.0787,-5.2979 -4.5712,-9.72 -5.644,-15.3864 -1.0729,-5.6663 -1.7259,-12.5762 -1.9125,-20.1313 -0.1865,-7.5552 0.093,-15.7549 0.8863,-24.738 0.7929,-8.9831 2.099,-18.7491 3.2185,-24.8762 1.1195,-6.127 2.0523,-8.6144 2.9853,-11.1022"
         id="path221533"
         inkscape:path-effect="#path-effect221537"
         inkscape:original-d="m 1461.8099,1484.212 c 1.137,-3.1363 2.2741,-6.2727 3.4113,-9.4094 1.1194,-3.7776 2.2389,-7.5547 3.3585,-11.3328 0.1865,-5.8962 0.3731,-11.7929 0.5598,-17.6897 -0.3733,-4.7908 -0.7465,-9.5816 -1.1196,-14.3729 -0.653,-5.8967 -1.3061,-11.793 -1.959,-17.6897 -2.3325,-5.6202 -4.6646,-11.24 -6.9969,-16.8603 -4.6647,-6.1731 -9.3292,-12.3459 -13.9937,-18.519 -1.4928,-4.4228 -2.9853,-8.8449 -4.478,-13.2676 -0.6531,-6.91 -1.306,-13.8199 -1.959,-20.73 0.2797,-8.2002 0.5596,-16.3999 0.8396,-24.6002 1.306,-9.7659 2.6121,-19.5319 3.9182,-29.2983 0.9328,-2.4878 1.8657,-4.9751 2.7987,-7.4629" />
      <rect
         style="fill:#c06d85;fill-opacity:1;stroke:none;stroke-width:1.08888;stroke-linecap:round;stroke-linejoin:round;stroke-miterlimit:4;stroke-dasharray:none;stroke-opacity:1"
         id="rect221539"
         width="293.80032"
         height="42.307331"
         x="-1611.1589"
         y="1484.2126"
         transform="scale(-1,1)" />
      <path
         style="fill:none;stroke:#047520;stroke-width:2.96378;stroke-linecap:round;stroke-linejoin:miter;stroke-miterlimit:4;stroke-dasharray:none;stroke-opacity:1"
         d="m 1468.2587,1441.9987 c 0.1094,-0.4584 0.2189,-0.9168 -0.6273,-1.9825 -0.8462,-1.0656 -2.6482,-2.7382 -4.9968,-4.6216 -2.3485,-1.8833 -5.2433,-3.9771 -8.5829,-4.7656 -3.3396,-0.7885 -7.1232,-0.2714 -11.4276,-0.1551 -4.3045,0.1164 -9.1293,-0.1681 -12.9766,-0.5687 -3.8472,-0.4007 -6.7167,-0.9176 -9.5863,-1.7448 -2.8696,-0.8273 -5.7391,-1.9648 -8.6088,-3.1025"
         id="path221541"
         inkscape:path-effect="#path-effect221545"
         inkscape:original-d="m 1468.2587,1441.9987 c 0.1094,-0.4584 0.2189,-0.9168 0.3284,-1.3756 -1.802,-1.6724 -3.6041,-3.3449 -5.406,-5.0178 -2.8951,-2.0939 -5.7901,-4.1874 -8.685,-6.2819 -3.7839,0.5176 -7.5676,1.0342 -11.3513,1.5513 -4.8252,-0.2843 -9.65,-0.5685 -14.4749,-0.8533 -2.8697,-0.5165 -5.7391,-1.0336 -8.6088,-1.5507 -2.8696,-1.1374 -5.7391,-2.2749 -8.6087,-3.4128"
         sodipodi:nodetypes="cccccccc" />
      <g
         id="g221553"
         transform="matrix(0.23935046,-0.24365698,-0.23935046,-0.24365698,415.8528,4751.6756)"
         style="stroke-width:1.40764">
        <path
           id="path221547"
           style="fill:#047520;fill-opacity:1;stroke-width:3.1883;stroke-linecap:round;stroke-linejoin:round"
           d="m 9056.6047,4651.7058 c 14.063,-92.5335 72.2429,-133.7247 297.0884,-49.5147 -81.5462,214.641 -305.848,206.4585 -297.0884,49.5147 z"
           sodipodi:nodetypes="ccc" />
        <path
           id="path221549"
           style="fill:#519505;fill-opacity:1;stroke-width:3.1883;stroke-linecap:round;stroke-linejoin:round"
           d="m 9158.8842,4562.692 c -13.8953,0.7613 -27.9367,2.1998 -41.0672,7.0521 -13.0103,4.8298 -24.9083,13.1385 -33.3737,24.2272 -7.5581,9.8867 -12.5408,21.4891 -16.0639,33.3585 -3.4355,11.6007 -5.9341,23.5229 -5.7283,35.6461 0.3489,15.5665 3.1314,31.2716 9.6937,45.498 7.7383,16.7846 20.8902,31.0688 37.2252,39.8012 12.6053,6.8504 26.7796,10.6593 41.0007,11.7725 9.2283,0.7126 18.5723,0.379 27.7221,-0.8609 16.7317,-2.2653 33.07,-7.5342 48.2544,-14.8652 22.8994,-11.0682 43.3,-26.8549 60.7899,-45.2392 17.77,-18.7361 32.512,-40.2305 44.384,-63.1319 2.558,-4.9976 5.027,-10.0192 7.023,-15.265 3.381,-6.2177 4.15,-10.2973 3.137,-13.183 -1.765,-5.0264 -8.936,-6.4304 -17.125,-9.2 -27.371,-9.2993 -54.9213,-18.2267 -83.0841,-24.796 -21.8956,-5.1343 -44.1109,-9.0812 -66.579,-10.4022 -5.378,-0.3026 -10.8075,-0.4377 -16.2088,-0.4122 z"
           sodipodi:nodetypes="cccccccccccccscccc" />
        <path
           style="fill:none;stroke:#047520;stroke-width:8.67808;stroke-linecap:round;stroke-linejoin:miter;stroke-miterlimit:4;stroke-dasharray:none;stroke-opacity:1"
           d="m 9062.7223,4688.8121 c -0.3234,-1.3304 -0.6469,-2.661 1.8531,-5.7533 2.5001,-3.0924 7.8238,-7.9462 14.762,-13.4116 6.9383,-5.4654 15.4906,-11.542 25.3563,-13.8302 9.8657,-2.2882 21.0436,-0.7878 33.7602,-0.4502 12.7165,0.3376 26.9704,-0.4876 38.3363,-1.6505 11.366,-1.1628 19.8431,-2.6632 28.3209,-5.064 8.4777,-2.4007 16.9549,-5.7016 25.4324,-9.0026"
           id="path221551"
           inkscape:path-effect="#path-effect221557"
           inkscape:original-d="m 9062.7223,4688.8121 c -0.3233,-1.3304 -0.6468,-2.661 -0.9705,-3.9919 5.3239,-4.8536 10.6476,-9.7073 15.9712,-14.5615 8.5529,-6.0767 17.1052,-12.1533 25.6577,-18.2304 11.1787,1.5008 22.3566,3.0012 33.5349,4.5014 14.2548,-0.825 28.5087,-1.6503 42.7629,-2.4758 8.4777,-1.5002 16.9549,-3.0005 25.4324,-4.5012 8.478,-3.3008 16.9552,-6.6017 25.4326,-9.903"
           sodipodi:nodetypes="cccccccc" />
      </g>
      <g
         id="g221565"
         transform="matrix(-0.33849267,0,0,0.344583,4514.47,-237.6685)"
         style="stroke-width:1.40764">
        <path
           id="path221559"
           style="fill:#047520;fill-opacity:1;stroke-width:3.1883;stroke-linecap:round;stroke-linejoin:round"
           d="m 9056.6047,4651.7058 c 14.063,-92.5335 72.2429,-133.7247 297.0884,-49.5147 -81.5462,214.641 -305.848,206.4585 -297.0884,49.5147 z"
           sodipodi:nodetypes="ccc" />
        <path
           id="path221561"
           style="fill:#519505;fill-opacity:1;stroke-width:3.1883;stroke-linecap:round;stroke-linejoin:round"
           d="m 9158.8842,4562.692 c -13.8953,0.7613 -27.9367,2.1998 -41.0672,7.0521 -13.0103,4.8298 -24.9083,13.1385 -33.3737,24.2272 -7.5581,9.8867 -12.5408,21.4891 -16.0639,33.3585 -3.4355,11.6007 -5.9341,23.5229 -5.7283,35.6461 0.3489,15.5665 3.1314,31.2716 9.6937,45.498 7.7383,16.7846 20.8902,31.0688 37.2252,39.8012 12.6053,6.8504 26.7796,10.6593 41.0007,11.7725 9.2283,0.7126 18.5723,0.379 27.7221,-0.8609 16.7317,-2.2653 33.07,-7.5342 48.2544,-14.8652 22.8994,-11.0682 43.3,-26.8549 60.7899,-45.2392 17.77,-18.7361 32.512,-40.2305 44.384,-63.1319 2.558,-4.9976 5.027,-10.0192 7.023,-15.265 3.381,-6.2177 4.15,-10.2973 3.137,-13.183 -1.765,-5.0264 -8.936,-6.4304 -17.125,-9.2 -27.371,-9.2993 -54.9213,-18.2267 -83.0841,-24.796 -21.8956,-5.1343 -44.1109,-9.0812 -66.579,-10.4022 -5.378,-0.3026 -10.8075,-0.4377 -16.2088,-0.4122 z"
           sodipodi:nodetypes="cccccccccccccscccc" />
        <path
           style="fill:none;stroke:#047520;stroke-width:8.67808;stroke-linecap:round;stroke-linejoin:miter;stroke-miterlimit:4;stroke-dasharray:none;stroke-opacity:1"
           d="m 9062.7223,4688.8121 c -0.3234,-1.3304 -0.6469,-2.661 1.8531,-5.7533 2.5001,-3.0924 7.8238,-7.9462 14.762,-13.4116 6.9383,-5.4654 15.4906,-11.542 25.3563,-13.8302 9.8657,-2.2882 21.0436,-0.7878 33.7602,-0.4502 12.7165,0.3376 26.9704,-0.4876 38.3363,-1.6505 11.366,-1.1628 19.8431,-2.6632 28.3209,-5.064 8.4777,-2.4007 16.9549,-5.7016 25.4324,-9.0026"
           id="path221563"
           inkscape:path-effect="#path-effect221569"
           inkscape:original-d="m 9062.7223,4688.8121 c -0.3233,-1.3304 -0.6468,-2.661 -0.9705,-3.9919 5.3239,-4.8536 10.6476,-9.7073 15.9712,-14.5615 8.5529,-6.0767 17.1052,-12.1533 25.6577,-18.2304 11.1787,1.5008 22.3566,3.0012 33.5349,4.5014 14.2548,-0.825 28.5087,-1.6503 42.7629,-2.4758 8.4777,-1.5002 16.9549,-3.0005 25.4324,-4.5012 8.478,-3.3008 16.9552,-6.6017 25.4326,-9.903"
           sodipodi:nodetypes="cccccccc" />
      </g>
      <g
         id="g221577"
         transform="matrix(0.29314325,-0.1722915,-0.16924634,-0.29841763,-424.3453,4300.3426)"
         style="stroke-width:1.40764">
        <path
           id="path221571"
           style="fill:#047520;fill-opacity:1;stroke-width:3.1883;stroke-linecap:round;stroke-linejoin:round"
           d="m 9056.6047,4651.7058 c 14.063,-92.5335 72.2429,-133.7247 297.0884,-49.5147 -81.5462,214.641 -305.848,206.4585 -297.0884,49.5147 z"
           sodipodi:nodetypes="ccc" />
        <path
           id="path221573"
           style="fill:#519505;fill-opacity:1;stroke-width:3.1883;stroke-linecap:round;stroke-linejoin:round"
           d="m 9158.8842,4562.692 c -13.8953,0.7613 -27.9367,2.1998 -41.0672,7.0521 -13.0103,4.8298 -24.9083,13.1385 -33.3737,24.2272 -7.5581,9.8867 -12.5408,21.4891 -16.0639,33.3585 -3.4355,11.6007 -5.9341,23.5229 -5.7283,35.6461 0.3489,15.5665 3.1314,31.2716 9.6937,45.498 7.7383,16.7846 20.8902,31.0688 37.2252,39.8012 12.6053,6.8504 26.7796,10.6593 41.0007,11.7725 9.2283,0.7126 18.5723,0.379 27.7221,-0.8609 16.7317,-2.2653 33.07,-7.5342 48.2544,-14.8652 22.8994,-11.0682 43.3,-26.8549 60.7899,-45.2392 17.77,-18.7361 32.512,-40.2305 44.384,-63.1319 2.558,-4.9976 5.027,-10.0192 7.023,-15.265 3.381,-6.2177 4.15,-10.2973 3.137,-13.183 -1.765,-5.0264 -8.936,-6.4304 -17.125,-9.2 -27.371,-9.2993 -54.9213,-18.2267 -83.0841,-24.796 -21.8956,-5.1343 -44.1109,-9.0812 -66.579,-10.4022 -5.378,-0.3026 -10.8075,-0.4377 -16.2088,-0.4122 z"
           sodipodi:nodetypes="cccccccccccccscccc" />
        <path
           style="fill:none;stroke:#047520;stroke-width:8.67808;stroke-linecap:round;stroke-linejoin:miter;stroke-miterlimit:4;stroke-dasharray:none;stroke-opacity:1"
           d="m 9062.7223,4688.8121 c -0.3234,-1.3304 -0.6469,-2.661 1.8531,-5.7533 2.5001,-3.0924 7.8238,-7.9462 14.762,-13.4116 6.9383,-5.4654 15.4906,-11.542 25.3563,-13.8302 9.8657,-2.2882 21.0436,-0.7878 33.7602,-0.4502 12.7165,0.3376 26.9704,-0.4876 38.3363,-1.6505 11.366,-1.1628 19.8431,-2.6632 28.3209,-5.064 8.4777,-2.4007 16.9549,-5.7016 25.4324,-9.0026"
           id="path221575"
           inkscape:path-effect="#path-effect221581"
           inkscape:original-d="m 9062.7223,4688.8121 c -0.3233,-1.3304 -0.6468,-2.661 -0.9705,-3.9919 5.3239,-4.8536 10.6476,-9.7073 15.9712,-14.5615 8.5529,-6.0767 17.1052,-12.1533 25.6577,-18.2304 11.1787,1.5008 22.3566,3.0012 33.5349,4.5014 14.2548,-0.825 28.5087,-1.6503 42.7629,-2.4758 8.4777,-1.5002 16.9549,-3.0005 25.4324,-4.5012 8.478,-3.3008 16.9552,-6.6017 25.4326,-9.903"
           sodipodi:nodetypes="cccccccc" />
      </g>
      <path
         style="fill:#e4e4e4;fill-opacity:1;stroke:#e8e8e8;stroke-width:0.127196px;stroke-linecap:butt;stroke-linejoin:miter;stroke-opacity:1"
         d="m 1919.2141,1690.4536 42.3508,-164.391 H 1716.96 l 42.3505,164.391 z"
         id="path223801" />
      <path
         style="fill:#cdcdcd;fill-opacity:1;stroke:#e8e8e8;stroke-width:0.127196px;stroke-linecap:butt;stroke-linejoin:miter;stroke-opacity:1"
         d="m 1722.195,1755.4616 42.3508,-164.391 h -244.6049 l 42.3505,164.391 z"
         id="path221619" />
      <path
         id="path221621"
         style="fill:#047520;fill-opacity:1;stroke-width:1.08888;stroke-linecap:round;stroke-linejoin:round"
         d="m 1648.3133,1493.7647 c -4.7602,-31.885 -24.4536,-46.079 -100.5622,-17.0615 27.6028,73.9614 103.5273,71.1421 100.5622,17.0615 z"
         sodipodi:nodetypes="ccc" />
      <path
         id="path221623"
         style="fill:#519505;fill-opacity:1;stroke-width:1.08888;stroke-linecap:round;stroke-linejoin:round"
         d="m 1613.6925,1463.0923 c 4.7034,0.2624 9.4564,0.7581 13.9009,2.4301 4.4039,1.6642 8.4313,4.5274 11.2968,8.3481 2.5584,3.407 4.2449,7.4048 5.4375,11.4947 1.1628,3.9978 2.0086,8.1056 1.939,12.2834 -0.1181,5.3636 -1.06,10.7752 -3.2812,15.6777 -2.6194,5.7837 -7.0712,10.706 -12.6006,13.7147 -4.2667,2.3608 -9.0646,3.6733 -13.8784,4.0565 -3.1237,0.2459 -6.2865,0.131 -9.3837,-0.2964 -5.6635,-0.7804 -11.194,-2.5965 -16.3337,-5.1226 -7.7513,-3.8139 -14.6568,-9.2538 -20.577,-15.5885 -6.015,-6.456 -11.0051,-13.8627 -15.0237,-21.7544 -0.8658,-1.7219 -1.7015,-3.4521 -2.3772,-5.2598 -1.1445,-2.1424 -1.4047,-3.5482 -1.0618,-4.5425 0.5974,-1.7321 3.0247,-2.2161 5.7967,-3.1702 9.2649,-3.2043 18.5904,-6.2805 28.1233,-8.5442 7.4115,-1.7694 14.9312,-3.1295 22.5365,-3.5845 1.8204,-0.1043 3.6583,-0.1509 5.4866,-0.1421 z"
         sodipodi:nodetypes="cccccccccccccscccc" />
      <path
         style="fill:none;stroke:#047520;stroke-width:8.78076;stroke-linecap:round;stroke-linejoin:miter;stroke-miterlimit:4;stroke-dasharray:none;stroke-opacity:1"
         d="m 1639.7938,1548.7646 c 1.1371,-3.1365 2.2741,-6.2729 3.4025,-9.73 1.1283,-3.4572 2.2477,-7.2343 2.9008,-12.0715 0.6531,-4.8371 0.8397,-10.7338 0.7464,-16.0776 -0.093,-5.3438 -0.4665,-10.1346 -0.9796,-15.4786 -0.5131,-5.344 -1.1661,-11.2403 -2.6588,-16.9988 -1.4927,-5.7585 -3.8248,-11.3782 -7.3233,-17.2749 -3.4986,-5.8967 -8.163,-12.0696 -11.2417,-17.3675 -3.0787,-5.2979 -4.5712,-9.72 -5.644,-15.3864 -1.0729,-5.6663 -1.7259,-12.5762 -1.9125,-20.1313 -0.1865,-7.5552 0.093,-15.7549 0.8863,-24.738 0.7929,-8.9831 2.099,-18.7491 3.2185,-24.8762 1.1195,-6.127 2.0523,-8.6144 2.9853,-11.1022"
         id="path221625"
         inkscape:path-effect="#path-effect221629"
         inkscape:original-d="m 1639.7938,1548.7646 c 1.137,-3.1365 2.2741,-6.2729 3.4113,-9.4096 1.1194,-3.7776 2.2389,-7.5547 3.3585,-11.3328 0.1865,-5.8962 0.3731,-11.7929 0.5598,-17.6897 -0.3733,-4.7908 -0.7465,-9.5816 -1.1196,-14.3729 -0.653,-5.8967 -1.3061,-11.793 -1.959,-17.6897 -2.3325,-5.6202 -4.6646,-11.24 -6.9969,-16.8603 -4.6647,-6.1731 -9.3292,-12.3459 -13.9937,-18.519 -1.4928,-4.4228 -2.9853,-8.8449 -4.478,-13.2676 -0.6531,-6.91 -1.306,-13.8199 -1.959,-20.73 0.2797,-8.2002 0.5596,-16.3999 0.8396,-24.6002 1.306,-9.7659 2.6121,-19.5319 3.9182,-29.2983 0.9328,-2.4878 1.8657,-4.9751 2.7987,-7.4629" />
      <path
         id="path223803"
         style="fill:#047520;fill-opacity:1;stroke-width:1.08888;stroke-linecap:round;stroke-linejoin:round"
         d="m 1845.3324,1428.7565 c -4.7602,-31.885 -24.4536,-46.079 -100.5622,-17.0615 27.6028,73.9616 103.5273,71.1426 100.5622,17.0615 z"
         sodipodi:nodetypes="ccc" />
      <rect
         style="fill:#f27180;fill-opacity:1;stroke:none;stroke-width:1.08888;stroke-linecap:round;stroke-linejoin:round;stroke-miterlimit:4;stroke-dasharray:none;stroke-opacity:1"
         id="rect221631"
         width="293.80032"
         height="42.307331"
         x="-1789.1428"
         y="1548.7654"
         transform="scale(-1,1)" />
      <path
         style="fill:none;stroke:#047520;stroke-width:2.96378;stroke-linecap:round;stroke-linejoin:miter;stroke-miterlimit:4;stroke-dasharray:none;stroke-opacity:1"
         d="m 1646.2426,1506.5511 c 0.1094,-0.4584 0.2189,-0.9168 -0.6273,-1.9825 -0.8462,-1.0656 -2.6482,-2.7382 -4.9968,-4.6216 -2.3485,-1.8833 -5.2433,-3.9771 -8.5829,-4.7656 -3.3396,-0.7885 -7.1232,-0.2714 -11.4276,-0.1551 -4.3045,0.1164 -9.1293,-0.1681 -12.9766,-0.5687 -3.8472,-0.4007 -6.7167,-0.9176 -9.5863,-1.7448 -2.8696,-0.8273 -5.7391,-1.9648 -8.6088,-3.1025"
         id="path221633"
         inkscape:path-effect="#path-effect221637"
         inkscape:original-d="m 1646.2426,1506.5511 c 0.1094,-0.4584 0.2189,-0.9168 0.3284,-1.3756 -1.802,-1.6724 -3.6041,-3.3449 -5.406,-5.0178 -2.8951,-2.0939 -5.7901,-4.1874 -8.685,-6.2819 -3.7839,0.5176 -7.5676,1.0342 -11.3513,1.5513 -4.8252,-0.2843 -9.65,-0.5685 -14.4749,-0.8533 -2.8697,-0.5165 -5.7391,-1.0336 -8.6088,-1.5507 -2.8696,-1.1374 -5.7391,-2.2749 -8.6087,-3.4128"
         sodipodi:nodetypes="cccccccc" />
      <path
         id="path223805"
         style="fill:#519505;fill-opacity:1;stroke-width:1.08888;stroke-linecap:round;stroke-linejoin:round"
         d="m 1810.7116,1398.0841 c 4.7034,0.2624 9.4564,0.7581 13.9009,2.4301 4.4039,1.6642 8.4313,4.5274 11.2968,8.3481 2.5584,3.407 4.2449,7.4048 5.4375,11.4947 1.1628,3.9978 2.0086,8.1056 1.939,12.2834 -0.1181,5.3636 -1.06,10.7752 -3.2812,15.6777 -2.6194,5.7837 -7.0712,10.706 -12.6006,13.7147 -4.2667,2.3608 -9.0646,3.6733 -13.8784,4.0565 -3.1237,0.2459 -6.2865,0.131 -9.3837,-0.2964 -5.6635,-0.7804 -11.194,-2.5965 -16.3337,-5.1226 -7.7513,-3.8139 -14.6568,-9.2538 -20.577,-15.5885 -6.015,-6.456 -11.0051,-13.8627 -15.0237,-21.7544 -0.8658,-1.7219 -1.7015,-3.4521 -2.3772,-5.2598 -1.1445,-2.1424 -1.4047,-3.5482 -1.0618,-4.5425 0.5974,-1.7321 3.0247,-2.2161 5.7967,-3.1702 9.2649,-3.2043 18.5904,-6.2805 28.1233,-8.5442 7.4115,-1.7694 14.9312,-3.1295 22.5365,-3.5845 1.8204,-0.1043 3.6583,-0.1509 5.4866,-0.1421 z"
         sodipodi:nodetypes="cccccccccccccscccc" />
      <rect
         style="fill:#35b0ab;fill-opacity:1;stroke:none;stroke-width:1.08888;stroke-linecap:round;stroke-linejoin:round;stroke-miterlimit:4;stroke-dasharray:none;stroke-opacity:1"
         id="rect223813"
         width="293.80032"
         height="42.307331"
         x="-1986.1624"
         y="1483.7576"
         transform="scale(-1,1)" />
      <g
         id="g221645"
         transform="matrix(0.23935046,-0.24365698,-0.23935046,-0.24365698,593.8367,4816.2276)"
         style="stroke-width:1.40764">
        <path
           id="path221639"
           style="fill:#047520;fill-opacity:1;stroke-width:3.1883;stroke-linecap:round;stroke-linejoin:round"
           d="m 9056.6047,4651.7058 c 14.063,-92.5335 72.2429,-133.7247 297.0884,-49.5147 -81.5462,214.641 -305.848,206.4585 -297.0884,49.5147 z"
           sodipodi:nodetypes="ccc" />
        <path
           id="path221641"
           style="fill:#519505;fill-opacity:1;stroke-width:3.1883;stroke-linecap:round;stroke-linejoin:round"
           d="m 9158.8842,4562.692 c -13.8953,0.7613 -27.9367,2.1998 -41.0672,7.0521 -13.0103,4.8298 -24.9083,13.1385 -33.3737,24.2272 -7.5581,9.8867 -12.5408,21.4891 -16.0639,33.3585 -3.4355,11.6007 -5.9341,23.5229 -5.7283,35.6461 0.3489,15.5665 3.1314,31.2716 9.6937,45.498 7.7383,16.7846 20.8902,31.0688 37.2252,39.8012 12.6053,6.8504 26.7796,10.6593 41.0007,11.7725 9.2283,0.7126 18.5723,0.379 27.7221,-0.8609 16.7317,-2.2653 33.07,-7.5342 48.2544,-14.8652 22.8994,-11.0682 43.3,-26.8549 60.7899,-45.2392 17.77,-18.7361 32.512,-40.2305 44.384,-63.1319 2.558,-4.9976 5.027,-10.0192 7.023,-15.265 3.381,-6.2177 4.15,-10.2973 3.137,-13.183 -1.765,-5.0264 -8.936,-6.4304 -17.125,-9.2 -27.371,-9.2993 -54.9213,-18.2267 -83.0841,-24.796 -21.8956,-5.1343 -44.1109,-9.0812 -66.579,-10.4022 -5.378,-0.3026 -10.8075,-0.4377 -16.2088,-0.4122 z"
           sodipodi:nodetypes="cccccccccccccscccc" />
        <path
           style="fill:none;stroke:#047520;stroke-width:8.67808;stroke-linecap:round;stroke-linejoin:miter;stroke-miterlimit:4;stroke-dasharray:none;stroke-opacity:1"
           d="m 9062.7223,4688.8121 c -0.3234,-1.3304 -0.6469,-2.661 1.8531,-5.7533 2.5001,-3.0924 7.8238,-7.9462 14.762,-13.4116 6.9383,-5.4654 15.4906,-11.542 25.3563,-13.8302 9.8657,-2.2882 21.0436,-0.7878 33.7602,-0.4502 12.7165,0.3376 26.9704,-0.4876 38.3363,-1.6505 11.366,-1.1628 19.8431,-2.6632 28.3209,-5.064 8.4777,-2.4007 16.9549,-5.7016 25.4324,-9.0026"
           id="path221643"
           inkscape:path-effect="#path-effect221649"
           inkscape:original-d="m 9062.7223,4688.8121 c -0.3233,-1.3304 -0.6468,-2.661 -0.9705,-3.9919 5.3239,-4.8536 10.6476,-9.7073 15.9712,-14.5615 8.5529,-6.0767 17.1052,-12.1533 25.6577,-18.2304 11.1787,1.5008 22.3566,3.0012 33.5349,4.5014 14.2548,-0.825 28.5087,-1.6503 42.7629,-2.4758 8.4777,-1.5002 16.9549,-3.0005 25.4324,-4.5012 8.478,-3.3008 16.9552,-6.6017 25.4326,-9.903"
           sodipodi:nodetypes="cccccccc" />
      </g>
      <g
         id="g221657"
         transform="matrix(-0.33849267,0,0,0.344583,4692.4539,-173.1161)"
         style="stroke-width:1.40764">
        <path
           id="path221651"
           style="fill:#047520;fill-opacity:1;stroke-width:3.1883;stroke-linecap:round;stroke-linejoin:round"
           d="m 9056.6047,4651.7058 c 14.063,-92.5335 72.2429,-133.7247 297.0884,-49.5147 -81.5462,214.641 -305.848,206.4585 -297.0884,49.5147 z"
           sodipodi:nodetypes="ccc" />
        <path
           id="path221653"
           style="fill:#519505;fill-opacity:1;stroke-width:3.1883;stroke-linecap:round;stroke-linejoin:round"
           d="m 9158.8842,4562.692 c -13.8953,0.7613 -27.9367,2.1998 -41.0672,7.0521 -13.0103,4.8298 -24.9083,13.1385 -33.3737,24.2272 -7.5581,9.8867 -12.5408,21.4891 -16.0639,33.3585 -3.4355,11.6007 -5.9341,23.5229 -5.7283,35.6461 0.3489,15.5665 3.1314,31.2716 9.6937,45.498 7.7383,16.7846 20.8902,31.0688 37.2252,39.8012 12.6053,6.8504 26.7796,10.6593 41.0007,11.7725 9.2283,0.7126 18.5723,0.379 27.7221,-0.8609 16.7317,-2.2653 33.07,-7.5342 48.2544,-14.8652 22.8994,-11.0682 43.3,-26.8549 60.7899,-45.2392 17.77,-18.7361 32.512,-40.2305 44.384,-63.1319 2.558,-4.9976 5.027,-10.0192 7.023,-15.265 3.381,-6.2177 4.15,-10.2973 3.137,-13.183 -1.765,-5.0264 -8.936,-6.4304 -17.125,-9.2 -27.371,-9.2993 -54.9213,-18.2267 -83.0841,-24.796 -21.8956,-5.1343 -44.1109,-9.0812 -66.579,-10.4022 -5.378,-0.3026 -10.8075,-0.4377 -16.2088,-0.4122 z"
           sodipodi:nodetypes="cccccccccccccscccc" />
        <path
           style="fill:none;stroke:#047520;stroke-width:8.67808;stroke-linecap:round;stroke-linejoin:miter;stroke-miterlimit:4;stroke-dasharray:none;stroke-opacity:1"
           d="m 9062.7223,4688.8121 c -0.3234,-1.3304 -0.6469,-2.661 1.8531,-5.7533 2.5001,-3.0924 7.8238,-7.9462 14.762,-13.4116 6.9383,-5.4654 15.4906,-11.542 25.3563,-13.8302 9.8657,-2.2882 21.0436,-0.7878 33.7602,-0.4502 12.7165,0.3376 26.9704,-0.4876 38.3363,-1.6505 11.366,-1.1628 19.8431,-2.6632 28.3209,-5.064 8.4777,-2.4007 16.9549,-5.7016 25.4324,-9.0026"
           id="path221655"
           inkscape:path-effect="#path-effect221661"
           inkscape:original-d="m 9062.7223,4688.8121 c -0.3233,-1.3304 -0.6468,-2.661 -0.9705,-3.9919 5.3239,-4.8536 10.6476,-9.7073 15.9712,-14.5615 8.5529,-6.0767 17.1052,-12.1533 25.6577,-18.2304 11.1787,1.5008 22.3566,3.0012 33.5349,4.5014 14.2548,-0.825 28.5087,-1.6503 42.7629,-2.4758 8.4777,-1.5002 16.9549,-3.0005 25.4324,-4.5012 8.478,-3.3008 16.9552,-6.6017 25.4326,-9.903"
           sodipodi:nodetypes="cccccccc" />
      </g>
      <path
         style="fill:none;stroke:#047520;stroke-width:8.78076;stroke-linecap:round;stroke-linejoin:miter;stroke-miterlimit:4;stroke-dasharray:none;stroke-opacity:1"
         d="m 1836.8129,1483.7566 c 1.1372,-3.1369 2.2741,-6.273 3.4024,-9.7302 1.1284,-3.4572 2.2477,-7.2343 2.9009,-12.0715 0.6531,-4.8371 0.8397,-10.7338 0.7464,-16.0776 -0.093,-5.3438 -0.4665,-10.1346 -0.9796,-15.4786 -0.5131,-5.344 -1.1661,-11.2403 -2.6588,-16.9988 -1.4927,-5.7585 -3.8248,-11.3782 -7.3233,-17.2749 -3.4986,-5.8967 -8.163,-12.0696 -11.2417,-17.3675 -3.0787,-5.2979 -4.5712,-9.72 -5.644,-15.3864 -1.0729,-5.6663 -1.7259,-12.5762 -1.9125,-20.1313 -0.1865,-7.5552 0.093,-15.7549 0.8863,-24.738 0.7929,-8.9831 2.099,-18.7491 3.2185,-24.8762 1.1195,-6.127 2.0523,-8.6144 2.9853,-11.1022"
         id="path223807"
         inkscape:path-effect="#path-effect223811"
         inkscape:original-d="m 1836.8129,1483.7566 c 1.137,-3.137 2.2741,-6.273 3.4113,-9.41 1.1194,-3.7774 2.2389,-7.5545 3.3585,-11.3326 0.1865,-5.8962 0.3731,-11.7929 0.5598,-17.6897 -0.3733,-4.7908 -0.7465,-9.5816 -1.1196,-14.3729 -0.653,-5.8967 -1.3061,-11.793 -1.959,-17.6897 -2.3325,-5.6202 -4.6646,-11.24 -6.9969,-16.8603 -4.6647,-6.1731 -9.3292,-12.3459 -13.9937,-18.519 -1.4928,-4.4228 -2.9853,-8.8449 -4.478,-13.2676 -0.6531,-6.91 -1.306,-13.8199 -1.959,-20.73 0.2797,-8.2002 0.5596,-16.3999 0.8396,-24.6002 1.306,-9.7659 2.6121,-19.5319 3.9182,-29.2983 0.9328,-2.4878 1.8657,-4.9751 2.7987,-7.4629" />
      <g
         id="g221669"
         transform="matrix(0.29314325,-0.1722915,-0.16924634,-0.29841763,-246.3614,4364.8946)"
         style="stroke-width:1.40764">
        <path
           id="path221663"
           style="fill:#047520;fill-opacity:1;stroke-width:3.1883;stroke-linecap:round;stroke-linejoin:round"
           d="m 9056.6047,4651.7058 c 14.063,-92.5335 72.2429,-133.7247 297.0884,-49.5147 -81.5462,214.641 -305.848,206.4585 -297.0884,49.5147 z"
           sodipodi:nodetypes="ccc" />
        <path
           id="path221665"
           style="fill:#519505;fill-opacity:1;stroke-width:3.1883;stroke-linecap:round;stroke-linejoin:round"
           d="m 9158.8842,4562.692 c -13.8953,0.7613 -27.9367,2.1998 -41.0672,7.0521 -13.0103,4.8298 -24.9083,13.1385 -33.3737,24.2272 -7.5581,9.8867 -12.5408,21.4891 -16.0639,33.3585 -3.4355,11.6007 -5.9341,23.5229 -5.7283,35.6461 0.3489,15.5665 3.1314,31.2716 9.6937,45.498 7.7383,16.7846 20.8902,31.0688 37.2252,39.8012 12.6053,6.8504 26.7796,10.6593 41.0007,11.7725 9.2283,0.7126 18.5723,0.379 27.7221,-0.8609 16.7317,-2.2653 33.07,-7.5342 48.2544,-14.8652 22.8994,-11.0682 43.3,-26.8549 60.7899,-45.2392 17.77,-18.7361 32.512,-40.2305 44.384,-63.1319 2.558,-4.9976 5.027,-10.0192 7.023,-15.265 3.381,-6.2177 4.15,-10.2973 3.137,-13.183 -1.765,-5.0264 -8.936,-6.4304 -17.125,-9.2 -27.371,-9.2993 -54.9213,-18.2267 -83.0841,-24.796 -21.8956,-5.1343 -44.1109,-9.0812 -66.579,-10.4022 -5.378,-0.3026 -10.8075,-0.4377 -16.2088,-0.4122 z"
           sodipodi:nodetypes="cccccccccccccscccc" />
        <path
           style="fill:none;stroke:#047520;stroke-width:8.67808;stroke-linecap:round;stroke-linejoin:miter;stroke-miterlimit:4;stroke-dasharray:none;stroke-opacity:1"
           d="m 9062.7223,4688.8121 c -0.3234,-1.3304 -0.6469,-2.661 1.8531,-5.7533 2.5001,-3.0924 7.8238,-7.9462 14.762,-13.4116 6.9383,-5.4654 15.4906,-11.542 25.3563,-13.8302 9.8657,-2.2882 21.0436,-0.7878 33.7602,-0.4502 12.7165,0.3376 26.9704,-0.4876 38.3363,-1.6505 11.366,-1.1628 19.8431,-2.6632 28.3209,-5.064 8.4777,-2.4007 16.9549,-5.7016 25.4324,-9.0026"
           id="path221667"
           inkscape:path-effect="#path-effect221673"
           inkscape:original-d="m 9062.7223,4688.8121 c -0.3233,-1.3304 -0.6468,-2.661 -0.9705,-3.9919 5.3239,-4.8536 10.6476,-9.7073 15.9712,-14.5615 8.5529,-6.0767 17.1052,-12.1533 25.6577,-18.2304 11.1787,1.5008 22.3566,3.0012 33.5349,4.5014 14.2548,-0.825 28.5087,-1.6503 42.7629,-2.4758 8.4777,-1.5002 16.9549,-3.0005 25.4324,-4.5012 8.478,-3.3008 16.9552,-6.6017 25.4326,-9.903"
           sodipodi:nodetypes="cccccccc" />
      </g>
      <path
         style="fill:none;stroke:#047520;stroke-width:2.96378;stroke-linecap:round;stroke-linejoin:miter;stroke-miterlimit:4;stroke-dasharray:none;stroke-opacity:1"
         d="m 1843.2617,1441.5429 c 0.1094,-0.4584 0.2189,-0.9168 -0.6273,-1.9825 -0.8462,-1.0656 -2.6482,-2.7382 -4.9968,-4.6216 -2.3485,-1.8833 -5.2433,-3.9771 -8.5829,-4.7656 -3.3396,-0.7885 -7.1232,-0.2714 -11.4276,-0.1551 -4.3045,0.1164 -9.1293,-0.1681 -12.9766,-0.5687 -3.8472,-0.4007 -6.7167,-0.9176 -9.5863,-1.7448 -2.8696,-0.8273 -5.7391,-1.9648 -8.6088,-3.1025"
         id="path223815"
         inkscape:path-effect="#path-effect223819"
         inkscape:original-d="m 1843.2617,1441.5429 c 0.1094,-0.4584 0.2189,-0.9168 0.3284,-1.3756 -1.802,-1.6724 -3.6041,-3.3449 -5.406,-5.0178 -2.8951,-2.0939 -5.7901,-4.1874 -8.685,-6.2819 -3.7839,0.5176 -7.5676,1.0342 -11.3513,1.5513 -4.8252,-0.2843 -9.65,-0.5685 -14.4749,-0.8533 -2.8697,-0.5165 -5.7391,-1.0336 -8.6088,-1.5507 -2.8696,-1.1374 -5.7391,-2.2749 -8.6087,-3.4128"
         sodipodi:nodetypes="cccccccc" />
      <g
         id="g223827"
         transform="matrix(0.23935046,-0.24365698,-0.23935046,-0.24365698,790.8558,4751.2196)"
         style="stroke-width:1.40764">
        <path
           id="path223821"
           style="fill:#047520;fill-opacity:1;stroke-width:3.1883;stroke-linecap:round;stroke-linejoin:round"
           d="m 9056.6047,4651.7058 c 14.063,-92.5335 72.2429,-133.7247 297.0884,-49.5147 -81.5462,214.641 -305.848,206.4585 -297.0884,49.5147 z"
           sodipodi:nodetypes="ccc" />
        <path
           id="path223823"
           style="fill:#519505;fill-opacity:1;stroke-width:3.1883;stroke-linecap:round;stroke-linejoin:round"
           d="m 9158.8842,4562.692 c -13.8953,0.7613 -27.9367,2.1998 -41.0672,7.0521 -13.0103,4.8298 -24.9083,13.1385 -33.3737,24.2272 -7.5581,9.8867 -12.5408,21.4891 -16.0639,33.3585 -3.4355,11.6007 -5.9341,23.5229 -5.7283,35.6461 0.3489,15.5665 3.1314,31.2716 9.6937,45.498 7.7383,16.7846 20.8902,31.0688 37.2252,39.8012 12.6053,6.8504 26.7796,10.6593 41.0007,11.7725 9.2283,0.7126 18.5723,0.379 27.7221,-0.8609 16.7317,-2.2653 33.07,-7.5342 48.2544,-14.8652 22.8994,-11.0682 43.3,-26.8549 60.7899,-45.2392 17.77,-18.7361 32.512,-40.2305 44.384,-63.1319 2.558,-4.9976 5.027,-10.0192 7.023,-15.265 3.381,-6.2177 4.15,-10.2973 3.137,-13.183 -1.765,-5.0264 -8.936,-6.4304 -17.125,-9.2 -27.371,-9.2993 -54.9213,-18.2267 -83.0841,-24.796 -21.8956,-5.1343 -44.1109,-9.0812 -66.579,-10.4022 -5.378,-0.3026 -10.8075,-0.4377 -16.2088,-0.4122 z"
           sodipodi:nodetypes="cccccccccccccscccc" />
        <path
           style="fill:none;stroke:#047520;stroke-width:8.67808;stroke-linecap:round;stroke-linejoin:miter;stroke-miterlimit:4;stroke-dasharray:none;stroke-opacity:1"
           d="m 9062.7223,4688.8121 c -0.3234,-1.3304 -0.6469,-2.661 1.8531,-5.7533 2.5001,-3.0924 7.8238,-7.9462 14.762,-13.4116 6.9383,-5.4654 15.4906,-11.542 25.3563,-13.8302 9.8657,-2.2882 21.0436,-0.7878 33.7602,-0.4502 12.7165,0.3376 26.9704,-0.4876 38.3363,-1.6505 11.366,-1.1628 19.8431,-2.6632 28.3209,-5.064 8.4777,-2.4007 16.9549,-5.7016 25.4324,-9.0026"
           id="path223825"
           inkscape:path-effect="#path-effect223831"
           inkscape:original-d="m 9062.7223,4688.8121 c -0.3233,-1.3304 -0.6468,-2.661 -0.9705,-3.9919 5.3239,-4.8536 10.6476,-9.7073 15.9712,-14.5615 8.5529,-6.0767 17.1052,-12.1533 25.6577,-18.2304 11.1787,1.5008 22.3566,3.0012 33.5349,4.5014 14.2548,-0.825 28.5087,-1.6503 42.7629,-2.4758 8.4777,-1.5002 16.9549,-3.0005 25.4324,-4.5012 8.478,-3.3008 16.9552,-6.6017 25.4326,-9.903"
           sodipodi:nodetypes="cccccccc" />
      </g>
      <g
         id="g223839"
         transform="matrix(-0.33849267,0,0,0.344583,4889.4735,-238.1243)"
         style="stroke-width:1.40764">
        <path
           id="path223833"
           style="fill:#047520;fill-opacity:1;stroke-width:3.1883;stroke-linecap:round;stroke-linejoin:round"
           d="m 9056.6047,4651.7058 c 14.063,-92.5335 72.2429,-133.7247 297.0884,-49.5147 -81.5462,214.641 -305.848,206.4585 -297.0884,49.5147 z"
           sodipodi:nodetypes="ccc" />
        <path
           id="path223835"
           style="fill:#519505;fill-opacity:1;stroke-width:3.1883;stroke-linecap:round;stroke-linejoin:round"
           d="m 9158.8842,4562.692 c -13.8953,0.7613 -27.9367,2.1998 -41.0672,7.0521 -13.0103,4.8298 -24.9083,13.1385 -33.3737,24.2272 -7.5581,9.8867 -12.5408,21.4891 -16.0639,33.3585 -3.4355,11.6007 -5.9341,23.5229 -5.7283,35.6461 0.3489,15.5665 3.1314,31.2716 9.6937,45.498 7.7383,16.7846 20.8902,31.0688 37.2252,39.8012 12.6053,6.8504 26.7796,10.6593 41.0007,11.7725 9.2283,0.7126 18.5723,0.379 27.7221,-0.8609 16.7317,-2.2653 33.07,-7.5342 48.2544,-14.8652 22.8994,-11.0682 43.3,-26.8549 60.7899,-45.2392 17.77,-18.7361 32.512,-40.2305 44.384,-63.1319 2.558,-4.9976 5.027,-10.0192 7.023,-15.265 3.381,-6.2177 4.15,-10.2973 3.137,-13.183 -1.765,-5.0264 -8.936,-6.4304 -17.125,-9.2 -27.371,-9.2993 -54.9213,-18.2267 -83.0841,-24.796 -21.8956,-5.1343 -44.1109,-9.0812 -66.579,-10.4022 -5.378,-0.3026 -10.8075,-0.4377 -16.2088,-0.4122 z"
           sodipodi:nodetypes="cccccccccccccscccc" />
        <path
           style="fill:none;stroke:#047520;stroke-width:8.67808;stroke-linecap:round;stroke-linejoin:miter;stroke-miterlimit:4;stroke-dasharray:none;stroke-opacity:1"
           d="m 9062.7223,4688.8121 c -0.3234,-1.3304 -0.6469,-2.661 1.8531,-5.7533 2.5001,-3.0924 7.8238,-7.9462 14.762,-13.4116 6.9383,-5.4654 15.4906,-11.542 25.3563,-13.8302 9.8657,-2.2882 21.0436,-0.7878 33.7602,-0.4502 12.7165,0.3376 26.9704,-0.4876 38.3363,-1.6505 11.366,-1.1628 19.8431,-2.6632 28.3209,-5.064 8.4777,-2.4007 16.9549,-5.7016 25.4324,-9.0026"
           id="path223837"
           inkscape:path-effect="#path-effect223843"
           inkscape:original-d="m 9062.7223,4688.8121 c -0.3233,-1.3304 -0.6468,-2.661 -0.9705,-3.9919 5.3239,-4.8536 10.6476,-9.7073 15.9712,-14.5615 8.5529,-6.0767 17.1052,-12.1533 25.6577,-18.2304 11.1787,1.5008 22.3566,3.0012 33.5349,4.5014 14.2548,-0.825 28.5087,-1.6503 42.7629,-2.4758 8.4777,-1.5002 16.9549,-3.0005 25.4324,-4.5012 8.478,-3.3008 16.9552,-6.6017 25.4326,-9.903"
           sodipodi:nodetypes="cccccccc" />
      </g>
      <g
         id="g223851"
         transform="matrix(0.29314325,-0.1722915,-0.16924634,-0.29841763,-49.3423,4299.8866)"
         style="stroke-width:1.40764">
        <path
           id="path223845"
           style="fill:#047520;fill-opacity:1;stroke-width:3.1883;stroke-linecap:round;stroke-linejoin:round"
           d="m 9056.6047,4651.7058 c 14.063,-92.5335 72.2429,-133.7247 297.0884,-49.5147 -81.5462,214.641 -305.848,206.4585 -297.0884,49.5147 z"
           sodipodi:nodetypes="ccc" />
        <path
           id="path223847"
           style="fill:#519505;fill-opacity:1;stroke-width:3.1883;stroke-linecap:round;stroke-linejoin:round"
           d="m 9158.8842,4562.692 c -13.8953,0.7613 -27.9367,2.1998 -41.0672,7.0521 -13.0103,4.8298 -24.9083,13.1385 -33.3737,24.2272 -7.5581,9.8867 -12.5408,21.4891 -16.0639,33.3585 -3.4355,11.6007 -5.9341,23.5229 -5.7283,35.6461 0.3489,15.5665 3.1314,31.2716 9.6937,45.498 7.7383,16.7846 20.8902,31.0688 37.2252,39.8012 12.6053,6.8504 26.7796,10.6593 41.0007,11.7725 9.2283,0.7126 18.5723,0.379 27.7221,-0.8609 16.7317,-2.2653 33.07,-7.5342 48.2544,-14.8652 22.8994,-11.0682 43.3,-26.8549 60.7899,-45.2392 17.77,-18.7361 32.512,-40.2305 44.384,-63.1319 2.558,-4.9976 5.027,-10.0192 7.023,-15.265 3.381,-6.2177 4.15,-10.2973 3.137,-13.183 -1.765,-5.0264 -8.936,-6.4304 -17.125,-9.2 -27.371,-9.2993 -54.9213,-18.2267 -83.0841,-24.796 -21.8956,-5.1343 -44.1109,-9.0812 -66.579,-10.4022 -5.378,-0.3026 -10.8075,-0.4377 -16.2088,-0.4122 z"
           sodipodi:nodetypes="cccccccccccccscccc" />
        <path
           style="fill:none;stroke:#047520;stroke-width:8.67808;stroke-linecap:round;stroke-linejoin:miter;stroke-miterlimit:4;stroke-dasharray:none;stroke-opacity:1"
           d="m 9062.7223,4688.8121 c -0.3234,-1.3304 -0.6469,-2.661 1.8531,-5.7533 2.5001,-3.0924 7.8238,-7.9462 14.762,-13.4116 6.9383,-5.4654 15.4906,-11.542 25.3563,-13.8302 9.8657,-2.2882 21.0436,-0.7878 33.7602,-0.4502 12.7165,0.3376 26.9704,-0.4876 38.3363,-1.6505 11.366,-1.1628 19.8431,-2.6632 28.3209,-5.064 8.4777,-2.4007 16.9549,-5.7016 25.4324,-9.0026"
           id="path223849"
           inkscape:path-effect="#path-effect223855"
           inkscape:original-d="m 9062.7223,4688.8121 c -0.3233,-1.3304 -0.6468,-2.661 -0.9705,-3.9919 5.3239,-4.8536 10.6476,-9.7073 15.9712,-14.5615 8.5529,-6.0767 17.1052,-12.1533 25.6577,-18.2304 11.1787,1.5008 22.3566,3.0012 33.5349,4.5014 14.2548,-0.825 28.5087,-1.6503 42.7629,-2.4758 8.4777,-1.5002 16.9549,-3.0005 25.4324,-4.5012 8.478,-3.3008 16.9552,-6.6017 25.4326,-9.903"
           sodipodi:nodetypes="cccccccc" />
      </g>
    </g>
  </g>
</svg>
