
<svg xmlns="http://www.w3.org/2000/svg" version="1.1" xmlns:xlink="http://www.w3.org/1999/xlink" preserveAspectRatio="none" x="0px" y="0px" width="334px" height="133px" viewBox="0 0 334 133">
<defs>
<g id="Layer0_0_FILL">
<path fill="#FFFFFF" stroke="none" d="
M 332.45 3.95
L 332.45 0 318.85 0
Q 313.95 4.7 310.4 10.25 306.75 4.5 302 0
L 194.9 0 194.9 9.8
Q 194.9 12 196.5 13.8 197.75 15.2 199.9 16.4 204.55 19 211.05 19.15
L 207.4 19.15
Q 201.2 19 196.8 14.6 196.4 14.2 196.05 13.8 192.35 9.6 192.25 3.95
L 192.25 0 61.3 0 61.3 27.4
Q 61.3 31.25 66.3 34 70.95 36.6 77.45 36.75
L 73.8 36.75
Q 67.6 36.6 63.2 32.2 58.75 27.75 58.65 21.55
L 58.65 0 0 0 0 26 4.3 73.1
Q 4.65 77 9.9 79.25 14.75 81.4 21.25 80.95
L 17.6 81.3
Q 11.45 81.75 6.65 77.75 1.8 73.75 1.05 67.55
L 0 56.1 0 132.75 75.5 112.5
Q 81.4 110.75 84.5 105.4 87.65 99.9 86.15 93.95
L 81.2 75.45 127.05 71.25
Q 133.25 70.6 137.2 65.8 141.25 61 140.8 54.8
L 139.15 36.75 167.95 36.75 257.5 54.45
Q 263.6 55.5 268.8 52.1 274 48.6 275.3 42.5
L 279.95 19.15 317.3 19.15
Q 323.5 19 327.9 14.6 328.3 14.2 328.65 13.8 332.35 9.6 332.45 3.95
M 253.75 23.2
L 258.15 24.05
Q 255.95 25.95 254.9 29.45 255.4 28.6 256.35 28 258 26.9 260 27.25 261.95 27.65 263 29.35 264.15 31 263.75 32.95 263.5 34.15 262.7 35.1 262.3 35.6 261.7 36.05
L 252 43 246.05 32.95
Q 245.3 31.85 245.25 30.6 245.15 30 245.3 29.3 245.7 27.35 247.35 26.25 249.05 25.1 251 25.5 252.85 25.85 253.95 27.55 254.5 28.35 254.9 29.45 255.1 26.15 253.75 23.2
M 185.65 14.4
Q 185.65 15.65 185.05 16.7 184.75 17.3 184.25 17.8
L 176.1 26.55 168.3 17.8
Q 167.35 16.9 167.05 15.7 166.85 15.1 166.85 14.4 166.85 14.1 166.9 13.8 167.05 12.2 168.3 11 169.7 9.55 171.7 9.55 173.6 9.55 175 11 175.25 11.25 175.5 11.55 175.9 12.05 176.3 12.7 176.1 11.05 175.5 9.6 174.9 8.1 173.95 6.75
L 178.4 6.75
Q 176.65 9.05 176.3 12.7 176.65 11.75 177.45 11 178.85 9.55 180.85 9.55 182.85 9.55 184.25 11 185.45 12.2 185.65 13.8 185.65 14.1 185.65 14.4
M 125.4 45.5
Q 126.9 46.8 127.1 48.8 127.3 50.8 126 52.3 124.75 53.9 122.75 54.05 122.45 54.1 122.1 54.1 123.15 55.25 123.3 56.8 123.35 57.25 123.3 57.7 123.15 59.1 122.15 60.3 120.9 61.9 118.95 62.1 117 62.25 115.4 60.95 114.25 59.95 113.85 58.55 113.75 58.1 113.7 57.65 113.55 56.05 114.4 54.75 114 54.85 113.55 54.9 111.55 55.1 110 53.75 108.5 52.5 108.3 50.5 108.1 48.5 109.4 46.95 110.65 45.45 112.65 45.25 114.65 45.1 116.2 46.35 116.95 47 117.65 47.95 116.9 44.7 114.75 42.25
L 119.15 41.85
Q 117.65 44.3 117.65 47.95 117.95 46.95 118.65 46.15 119.85 44.6 121.85 44.4 123.85 44.25 125.4 45.5
M 56.75 91.95
Q 59.1 88.7 59.35 88.4 60.9 85.8 62 83 64.1 84.85 66.7 86.25 67.4 86.65 70.7 88.05 72.9 89 73.9 89.9 75.3 91.1 75.85 93.1 76.5 95.2 76 97.1 75.4 98.95 74 100.05 72.6 101.2 70.7 101.25 68.7 101.4 66.65 100.3 65.4 102.3 63.65 103.15 61.95 104.05 60.15 103.75 58.35 103.5 57.05 102.2 55.65 100.8 55.1 98.7 54.6 96.65 55.1 95 55.4 93.75 56.75 91.95 Z"/>

<path fill="#F67280" stroke="none" d="
M 59.35 88.4
Q 59.1 88.7 56.75 91.95 55.4 93.75 55.1 95 54.6 96.65 55.1 98.7 55.65 100.8 57.05 102.2 58.35 103.5 60.15 103.75 61.95 104.05 63.65 103.15 65.4 102.3 66.65 100.3 68.7 101.4 70.7 101.25 72.6 101.2 74 100.05 75.4 98.95 76 97.1 76.5 95.2 75.85 93.1 75.3 91.1 73.9 89.9 72.9 89 70.7 88.05 67.4 86.65 66.7 86.25 64.1 84.85 62 83 60.9 85.8 59.35 88.4 Z"/>

<path fill="#252525" stroke="none" d="
M 117.65 47.95
Q 117.65 44.3 119.15 41.85
L 114.75 42.25
Q 116.9 44.7 117.65 47.95
M 127.1 48.8
Q 126.9 46.8 125.4 45.5 123.85 44.25 121.85 44.4 119.85 44.6 118.65 46.15 117.95 46.95 117.65 47.95 116.95 47 116.2 46.35 114.65 45.1 112.65 45.25 110.65 45.45 109.4 46.95 108.1 48.5 108.3 50.5 108.5 52.5 110 53.75 111.55 55.1 113.55 54.9 114 54.85 114.4 54.75 113.55 56.05 113.7 57.65 113.75 58.1 113.85 58.55 114.25 59.95 115.4 60.95 117 62.25 118.95 62.1 120.9 61.9 122.15 60.3 123.15 59.1 123.3 57.7 123.35 57.25 123.3 56.8 123.15 55.25 122.1 54.1 122.45 54.1 122.75 54.05 124.75 53.9 126 52.3 127.3 50.8 127.1 48.8
M 173.95 6.75
Q 174.9 8.1 175.5 9.6 176.1 11.05 176.3 12.7 176.65 9.05 178.4 6.75
L 173.95 6.75
M 185.05 16.7
Q 185.65 15.65 185.65 14.4 185.65 14.1 185.65 13.8 185.45 12.2 184.25 11 182.85 9.55 180.85 9.55 178.85 9.55 177.45 11 176.65 11.75 176.3 12.7 175.9 12.05 175.5 11.55 175.25 11.25 175 11 173.6 9.55 171.7 9.55 169.7 9.55 168.3 11 167.05 12.2 166.9 13.8 166.85 14.1 166.85 14.4 166.85 15.1 167.05 15.7 167.35 16.9 168.3 17.8
L 176.1 26.55 184.25 17.8
Q 184.75 17.3 185.05 16.7
M 256.35 28
Q 255.4 28.6 254.9 29.45 254.5 28.35 253.95 27.55 252.85 25.85 251 25.5 249.05 25.1 247.35 26.25 245.7 27.35 245.3 29.3 245.15 30 245.25 30.6 245.3 31.85 246.05 32.95
L 252 43 261.7 36.05
Q 262.3 35.6 262.7 35.1 263.5 34.15 263.75 32.95 264.15 31 263 29.35 261.95 27.65 260 27.25 258 26.9 256.35 28
M 258.15 24.05
L 253.75 23.2
Q 255.1 26.15 254.9 29.45 255.95 25.95 258.15 24.05 Z"/>
</g>
</defs>

<g transform="matrix( 1, 0, 0, 1, 0,0) ">
<use xlink:href="#Layer0_0_FILL"/>
</g>
</svg>
