
<svg xmlns="http://www.w3.org/2000/svg" version="1.1" xmlns:xlink="http://www.w3.org/1999/xlink" preserveAspectRatio="none" x="0px" y="0px" width="100px" height="100px" viewBox="0 0 100 100">
<defs>
<g id="Layer0_0_FILL">
<path fill="#004C65" stroke="none" d="
M 13.25 65.55
Q 11.5 72.5 15.05 78.75 18.65 85 25.6 86.75 32.6 88.65 38.8 85.05 45 81.45 46.9 74.5 47.6 71.95 47.55 69.55 40.9 70.9 33.85 68.95 23.6 66.25 17.55 57.9 14.5 61 13.25 65.55 Z"/>

<path fill="#35B0AB" stroke="none" d="
M 15.05 78.75
Q 11.5 72.5 13.25 65.55 14.5 61 17.55 57.9 16.55 56.5 15.7 55 13.15 50.55 12.2 45.9 3.85 51.95 1.05 62.25 -2.1 74.3 4.1 85 10.3 95.8 22.25 98.95 34.25 102.25 45.05 96 55.8 89.75 58.95 77.75 60.9 70.7 59.55 64.15 58.15 65.1 56.65 66 52.2 68.55 47.55 69.55 47.6 71.95 46.9 74.5 45 81.45 38.8 85.05 32.6 88.65 25.6 86.75 18.65 85 15.05 78.75 Z"/>

<path fill="#F67280" stroke="none" d="
M 49.4 11.05
Q 48.25 10.75 47.1 10.55 36.35 8.45 26.65 14 15.9 20.25 12.65 32.25 10.8 39.3 12.2 45.9 13.15 50.55 15.7 55 16.55 56.5 17.55 57.9 23.6 66.25 33.85 68.95 40.9 70.9 47.55 69.55 52.2 68.55 56.65 66 58.15 65.1 59.55 64.15 62.35 62.05 64.5 59.55 68.75 54.6 70.55 47.75 70.6 47.6 70.65 47.45 73.75 35.65 67.65 25.05 64.5 19.55 59.8 16 55.3 12.6 49.4 11.05
M 40.95 22.55
Q 43.5 22.45 46.2 23.2 50.15 24.25 53 26.65 55.25 28.55 56.8 31.3 60.1 37.1 58.8 43.4 58.65 43.95 58.5 44.5 56.85 50.6 51.9 54.1 51.2 54.6 50.4 55.05 46.45 57.35 42.25 57.4 39.75 57.45 37.2 56.75 32.65 55.6 29.55 52.55 27.9 50.9 26.65 48.75 24.4 44.75 24.3 40.5 24.2 38.05 24.85 35.55 26.75 28.55 33 24.95 36.8 22.7 40.95 22.55 Z"/>

<path fill="#3D2451" stroke="none" d="
M 46.2 23.2
Q 43.5 22.45 40.95 22.55 36.8 22.7 33 24.95 26.75 28.55 24.85 35.55 24.2 38.05 24.3 40.5 24.4 44.75 26.65 48.75 27.9 50.9 29.55 52.55 32.65 55.6 37.2 56.75 39.75 57.45 42.25 57.4 46.45 57.35 50.4 55.05 51.2 54.6 51.9 54.1 56.85 50.6 58.5 44.5 58.65 43.95 58.8 43.4 60.1 37.1 56.8 31.3 55.25 28.55 53 26.65 50.15 24.25 46.2 23.2
M 86.85 34.55
Q 88.75 27.65 85.15 21.35 81.6 15.1 74.55 13.25 67.55 11.35 61.35 15 60.55 15.45 59.8 16 64.5 19.55 67.65 25.05 73.75 35.65 70.65 47.45 74.85 47.35 78.75 45.1 84.95 41.5 86.85 34.55 Z"/>

<path fill="#C06C84" stroke="none" d="
M 98.9 37.8
Q 102.2 25.85 96 15.1 89.8 4.3 77.75 1.1 65.75 -2.1 55 4.05 50.35 6.75 47.1 10.55 48.25 10.75 49.4 11.05 55.3 12.6 59.8 16 60.55 15.45 61.35 15 67.55 11.35 74.55 13.25 81.6 15.1 85.15 21.35 88.75 27.65 86.85 34.55 84.95 41.5 78.75 45.1 74.85 47.35 70.65 47.45 70.6 47.6 70.55 47.75 68.75 54.6 64.5 59.55 75.25 61.7 85 56.05 95.75 49.8 98.9 37.8 Z"/>
</g>
</defs>

<g transform="matrix( 1, 0, 0, 1, 0,0) ">
<use xlink:href="#Layer0_0_FILL"/>
</g>
</svg>
