<?xml version="1.0" encoding="utf-8"?>
<!-- Generator: Adobe Illustrator 17.1.0, SVG Export Plug-In . SVG Version: 6.00 Build 0)  -->
<!DOCTYPE svg PUBLIC "-//W3C//DTD SVG 1.1//EN" "http://www.w3.org/Graphics/SVG/1.1/DTD/svg11.dtd">
<svg version="1.1" id="Layer_1" xmlns="http://www.w3.org/2000/svg" xmlns:xlink="http://www.w3.org/1999/xlink" x="0px" y="0px"
	 viewBox="0 0 124 34" enable-background="new 0 0 124 34" xml:space="preserve">
<g>
	<g>
		<ellipse fill="#FFFFFF" cx="18" cy="16.1" rx="1.7" ry="1.9"/>
		<ellipse fill="#FFFFFF" cx="11.8" cy="16.1" rx="1.7" ry="1.9"/>
		<path fill="#FFFFFF" d="M26.3,0H3.5C1.6,0,0,1.6,0,3.5v23C0,28.4,1.6,30,3.5,30h19.3l-0.9-3.1l2.2,2l2.1,1.9l3.7,3.2v-7.5v-1.7
			V3.5C29.8,1.6,28.2,0,26.3,0z M19.7,22.2c0,0-0.6-0.7-1.1-1.4c2.2-0.6,3.1-2,3.1-2c-0.7,0.5-1.4,0.8-2,1c-0.8,0.4-1.7,0.6-2.5,0.7
			c-1.6,0.3-3.1,0.2-4.4,0c-1-0.2-1.8-0.5-2.5-0.7c-0.4-0.1-0.8-0.3-1.2-0.6c-0.1,0-0.1-0.1-0.2-0.1c0,0-0.1,0-0.1,0
			c-0.3-0.2-0.5-0.3-0.5-0.3s0.8,1.4,3,2c-0.5,0.6-1.1,1.4-1.1,1.4C6.5,22.1,5,19.6,5,19.6c0-5.5,2.4-9.9,2.4-9.9
			c2.4-1.8,4.8-1.8,4.8-1.8l0.2,0.2C9.4,9,8,10.4,8,10.4s0.4-0.2,1-0.5c1.8-0.8,3.3-1,3.9-1.1c0.1,0,0.2,0,0.3,0
			c1-0.1,2.2-0.2,3.4,0c1.6,0.2,3.4,0.7,5.1,1.6c0,0-1.3-1.3-4.2-2.2l0.2-0.3c0,0,2.3-0.1,4.8,1.8c0,0,2.4,4.4,2.4,9.9
			C24.9,19.6,23.5,22.1,19.7,22.2z"/>
	</g>
	<path fill="#FFFFFF" d="M45.6,7.3h-5.7v6.4l3.8,3.4v-6.2h2c1.3,0,1.9,0.6,1.9,1.6v4.8c0,1-0.6,1.7-1.9,1.7h-5.8v3.6h5.7
		c3,0,5.9-1.5,5.9-5v-5.1C51.4,8.9,48.6,7.3,45.6,7.3z M75.3,17.6v-5.3c0-1.9,3.4-2.3,4.4-0.4l3.1-1.3c-1.2-2.7-3.5-3.5-5.3-3.5
		c-3,0-6,1.8-6,5.2v5.3c0,3.5,3,5.2,6,5.2c1.9,0,4.2-0.9,5.5-3.4l-3.3-1.6C78.7,19.9,75.3,19.4,75.3,17.6z M65,13
		c-1.2-0.3-2-0.7-2-1.4c0.1-1.8,2.8-1.8,4.4-0.1l2.5-1.9c-1.6-1.9-3.3-2.4-5.2-2.4c-2.8,0-5.5,1.6-5.5,4.6c0,2.9,2.2,4.5,4.7,4.8
		c1.2,0.2,2.6,0.7,2.6,1.5c-0.1,1.6-3.5,1.6-5-0.3L59,20c1.4,1.8,3.3,2.8,5.2,2.8c2.8,0,5.9-1.6,6-4.6C70.4,14.5,67.7,13.5,65,13z
		 M53.5,22.6h3.8V7.3h-3.8V22.6z M118.1,7.3h-5.7v6.4l3.8,3.4v-6.2h2c1.3,0,1.9,0.6,1.9,1.6v4.8c0,1-0.6,1.7-1.9,1.7h-5.8v3.6h5.7
		c3,0,5.9-1.5,5.9-5v-5.1C124,8.9,121.1,7.3,118.1,7.3z M90.2,7.1c-3.2,0-6.3,1.7-6.3,5.2v5.2c0,3.5,3.2,5.2,6.3,5.2
		c3.2,0,6.3-1.7,6.3-5.2v-5.2C96.5,8.9,93.4,7.1,90.2,7.1z M92.7,17.6c0,1.1-1.2,1.7-2.4,1.7c-1.2,0-2.5-0.5-2.5-1.7v-5.2
		c0-1.1,1.2-1.7,2.4-1.7c1.2,0,2.5,0.5,2.5,1.7V17.6z M110.3,12.4c-0.1-3.6-2.5-5-5.6-5h-6.1v15.2h3.9v-4.8h0.7l3.5,4.8h4.8
		l-4.1-5.2C109.2,16.8,110.3,15.2,110.3,12.4z M104.7,14.4h-2.3v-3.5h2.3C107.1,10.9,107.1,14.4,104.7,14.4z"/>
</g>
</svg>
