
<svg xmlns="http://www.w3.org/2000/svg" version="1.1" xmlns:xlink="http://www.w3.org/1999/xlink" preserveAspectRatio="none" x="0px" y="0px" width="285px" height="66px" viewBox="0 0 285 66">
<defs>
<g id="Layer0_0_FILL">
<path fill="#FFFFFF" stroke="none" d="
M 58.15 10
Q 53.45 5.25 47.35 2.7 41 0 34.05 0 27.1 0 20.8 2.7 14.7 5.25 9.95 10 5.25 14.7 2.7 20.8 0 27.1 0 34.05 0 39.65 1.7 44.85 3.4 49.9 6.55 54.2 9.7 58.45 13.95 61.55 18.25 64.7 23.3 66.4 24.45 66.6 25.1 66.05 25.65 65.55 25.65 64.8 25.65 64.6 25.6 62.35 25.6 60.1 25.6 58.45 20 59.45 16.9 57.75 14.9 56.6 14.15 54.45 13.75 53.4 12.8 51.95 11.6 50.15 10.65 49.6 10.15 49.35 9.75 49 9.25 48.6 9.1 48.25 8.7 47.35 10.6 47.35 12.35 47.3 14 48.7 15.05 49.6 15.85 50.85 17.85 54.2 21.2 54.5 23.45 54.75 25.75 53.65 25.95 52.1 26.6 50.9 27.15 49.8 27.95 49.1 24.7 48.75 22.3 47.95 19.4 46.95 17.35 45.25 12.45 41.1 12.45 32.3 12.45 29.6 13.35 27.2 14.25 24.95 15.95 23.15 15.4 21.8 15.25 20.05 15.05 17.1 16.25 14.1
L 16.8 14.05
Q 17.55 14 18.5 14.2 21.55 14.85 25.65 17.6 29.7 16.45 34.15 16.45 36.35 16.45 38.5 16.7 40.65 17 42.65 17.6 46.75 14.85 49.8 14.2 50.75 14 51.5 14 51.85 14.05 52.05 14.1 53.25 17.1 53.05 20.05 52.95 21.75 52.4 23.15 54.05 25 54.95 27.2 55.85 29.55 55.85 32.3 55.85 41.15 50.95 45.25 48.9 47 45.95 47.95 43.55 48.75 40.35 49.1 41.35 49.95 41.95 51.45 42.65 53.15 42.65 55.4 42.65 58.1 42.6 61.35 42.6 64.6 42.6 64.8 42.6 65.55 43.15 66.05 43.75 66.6 44.95 66.4 49.95 64.7 54.25 61.55 58.45 58.45 61.6 54.2 64.75 49.85 66.4 44.85 68.15 39.6 68.15 34.05 68.15 27.1 65.45 20.8 62.85 14.7 58.15 10 Z"/>
</g>

<g id="Layer0_1_FILL">
<path fill="#FFFFFF" stroke="none" d="
M 304.8 68.15
Q 304.8 67.6 304.4 67.15 303.95 66.75 303.4 66.75
L 286.4 66.75
Q 285.8 66.75 285.35 67.25 284.9 67.75 284.9 68.35
L 284.9 127.3
Q 284.9 129.55 287.4 129.55
L 302.7 129.55
Q 303.9 129.55 304.4 128.95 304.8 128.45 304.8 127.3
L 304.8 68.15
M 264.4 36.05
Q 256.6 34 245.4 34 227.35 34 217.4 43.45 204.5 55.7 204.5 83.95 204.5 111.75 218.85 123.2 229.2 131.45 248.2 131.45 258.55 131.45 267.7 127.9 272.3 126.15 274.8 124.35 275.25 124.1 275.25 123.3
L 275.25 77.15
Q 275.25 76.55 274.85 76.15 274.45 75.7 273.85 75.7
L 243.6 75.7
Q 243 75.7 242.6 76.15 242.15 76.55 242.15 77.15
L 242.15 91.95
Q 242.15 92.5 242.6 92.95 243 93.35 243.6 93.35
L 255.4 93.35 255.4 111.75
Q 252.75 112.65 245.4 112.65 236.7 112.65 231.8 107.75 224.7 100.6 224.7 82.9 224.7 64.95 232.45 57.9 238.05 52.85 249.1 52.85 255.65 52.85 260.6 53.85 262.15 54.2 266.5 55.5 267.15 55.7 267.7 55.2 268.2 54.75 268.2 54.1
L 271.6 39.8
Q 271.6 39.1 271.05 38.7 269 37.25 264.4 36.05
M 302.8 42.85
Q 299.6 39.6 295.05 39.6 290.5 39.6 287.25 42.85 284.05 46.1 284.05 50.7 284.05 55.3 287.25 58.55 290.5 61.8 295.05 61.8 299.6 61.8 302.8 58.55 306 55.3 306 50.7 306 46.1 302.8 42.85
M 354.8 67.15
Q 354.35 66.75 353.8 66.75
L 341 66.75 340.95 49.85
Q 340.95 48.9 339.9 48.9
L 322.5 48.9
Q 321.45 48.9 321.45 49.85
L 321.45 67.3 312.1 69.6
Q 311.1 69.85 311.1 70.95
L 311.1 81.9
Q 311.1 82.5 311.5 82.95 311.95 83.35 312.5 83.35
L 321.45 83.35 321.45 109.7
Q 321.45 122.7 329.5 127.85 334.85 131.25 344.45 131.25 347.2 131.25 350.8 130.5 353.35 130 354.6 129.55 355.4 129.3 355.4 128.3
L 355.45 116.2
Q 355.45 115.65 355 115.2 354.55 114.8 354 114.8 351.35 115.1 349.4 115.1 341 115.1 341 108.4
L 341 83.35 353.8 83.35
Q 354.35 83.35 354.8 82.95 355.2 82.5 355.2 81.9
L 355.2 68.15
Q 355.2 67.6 354.8 67.15
M 410.4 37.95
Q 410 38.4 410 38.95
L 410 71.9 383.4 71.9 383.4 38.95
Q 383.4 38.4 383 37.95 382.6 37.55 382 37.55
L 364.95 37.55
Q 364.4 37.55 363.95 37.95 363.55 38.4 363.55 38.95
L 363.55 128.15
Q 363.55 128.75 363.95 129.2 364.4 129.6 364.95 129.6
L 382 129.6
Q 382.6 129.6 383 129.2 383.4 128.75 383.4 128.15
L 383.4 90 410 90 409.95 128.15
Q 409.95 128.75 410.35 129.2 410.75 129.6 411.35 129.6
L 428.45 129.6
Q 429 129.6 429.45 129.2 429.85 128.75 429.85 128.15
L 429.85 38.95
Q 429.85 38.4 429.45 37.95 429 37.55 428.45 37.55
L 411.4 37.55
Q 410.8 37.55 410.4 37.95
M 495.6 67.3
Q 495.2 66.9 494.6 66.9
L 477.7 66.9
Q 477.1 66.9 476.7 67.3 476.3 67.75 476.3 68.3
L 476.3 112.05
Q 475.25 112.85 473.4 113.65 469.7 115.2 465.9 115.2 461.5 115.2 459.75 113.05 458.2 111.1 458.2 106.45
L 458.2 68.3
Q 458.2 67.75 457.8 67.3 457.35 66.9 456.75 66.9
L 439.6 66.9
Q 439.05 66.9 438.6 67.3 438.2 67.75 438.2 68.3
L 438.2 109.35
Q 438.2 121.75 444.85 127 450.4 131.4 461.7 131.4 468.65 131.4 475.95 128.35 479.6 126.8 481.85 125.25
L 482.45 128.9
Q 482.9 129.65 483.7 129.65
L 494.6 129.6
Q 495.2 129.6 495.6 129.2 496 128.75 496 128.2
L 496 68.3
Q 496 67.75 495.6 67.3
M 506.2 37.55
Q 505.6 37.55 505.2 37.95 504.8 38.4 504.8 38.95
L 504.8 128.15
Q 504.8 128.75 505.2 129.2 505.6 129.6 506.2 129.6
L 518.05 129.6
Q 518.8 129.6 519.3 128.8 519.6 128.35 520 124.7
L 525.15 128.05
Q 531.95 131.35 540.25 131.35 552.6 131.35 558.25 123.95 564.65 115.65 564.65 95.95 564.65 64.9 540.85 64.9 534.8 64.9 529.15 67.05
L 524.7 69.15 524.7 38.95
Q 524.7 38.4 524.3 37.95 523.85 37.55 523.3 37.55
L 506.2 37.55
M 526.9 82.8
Q 530.05 81.5 533.05 81.2 538.55 80.7 541.3 83.45 545 87.15 545 97.05 545 108.25 542.65 111.95 540.45 115.35 534.15 115.15 530.5 115.05 527.05 113.65
L 524.3 112.3 524.3 84.05 526.9 82.8 Z"/>
</g>
</defs>

<g transform="matrix( 1, 0, 0, 1, 0,0) ">
<use xlink:href="#Layer0_0_FILL"/>
</g>

<g transform="matrix( 0.54736328125, 0, 0, 0.54736328125, -24.2,-11.1) ">
<use xlink:href="#Layer0_1_FILL"/>
</g>
</svg>
