
<svg xmlns="http://www.w3.org/2000/svg" version="1.1" xmlns:xlink="http://www.w3.org/1999/xlink" preserveAspectRatio="none" x="0px" y="0px" width="553px" height="192px" viewBox="0 0 553 192">
<defs>
<g id="Layer0_0_FILL">
<path fill="#4B8BFF" stroke="none" d="
M 192.15 96.05
Q 192.15 76.5 184.6 58.7 177.3 41.45 164 28.15 150.75 14.85 133.5 7.55 115.65 0 96.1 0 76.55 0 58.7 7.55 41.45 14.85 28.15 28.15 14.85 41.45 7.55 58.7 0 76.5 0 96.05 0 115.6 7.55 133.45 14.85 150.7 28.15 164 41.45 177.25 58.7 184.55 76.55 192.1 96.1 192.1 115.65 192.1 133.5 184.55 150.7 177.25 164 164 177.3 150.7 184.6 133.45 192.15 115.6 192.15 96.05
M 101.95 65.9
Q 108.9 65.85 113.8 70.7 118.7 75.55 118.7 82.5
L 118.7 123.15
Q 118.7 124.4 117.8 125.3 116.9 126.2 115.65 126.2
L 56.3 126.2
Q 49.4 126.2 44.5 121.35 39.6 116.45 39.55 109.6
L 39.55 68.95
Q 39.6 67.65 40.5 66.8 41.35 65.95 42.65 65.9
L 101.95 65.9
M 122.45 84.8
L 146.95 66.95
Q 148.6 65.55 149.65 66 150.7 66.45 150.7 68.8
L 150.7 123.35
Q 150.7 125.85 149.5 126.15 148.45 126.4 146.95 125.2
L 122.45 107.3 122.45 84.8 Z"/>

<path fill="#FFFFFF" stroke="none" d="
M 146.95 66.95
L 122.45 84.8 122.45 107.3 146.95 125.2
Q 148.45 126.4 149.5 126.15 150.7 125.85 150.7 123.35
L 150.7 68.8
Q 150.7 66.45 149.65 66 148.6 65.55 146.95 66.95
M 113.8 70.7
Q 108.9 65.85 101.95 65.9
L 42.65 65.9
Q 41.35 65.95 40.5 66.8 39.6 67.65 39.55 68.95
L 39.55 109.6
Q 39.6 116.45 44.5 121.35 49.4 126.2 56.3 126.2
L 115.65 126.2
Q 116.9 126.2 117.8 125.3 118.7 124.4 118.7 123.15
L 118.7 82.5
Q 118.7 75.55 113.8 70.7
M 289.9 69.65
Q 289.75 65.1 286.55 61.85 283.35 58.65 278.75 58.55
L 218.5 58.35 218.7 62.1
Q 218.9 66.6 222.1 69.8 225.3 73.05 229.8 73.2
L 267.5 73.4 222.3 118.65 222.5 122.4
Q 222.65 126.9 225.85 130.15 229.05 133.4 233.6 133.5
L 293.85 133.7 293.65 129.95
Q 293.25 125.25 290.2 122.2 287.15 119.1 282.55 118.85
L 244.85 118.65 290.1 73.45 289.9 69.65
M 354.35 69.4
Q 349.15 64.2 342.4 61.35 335.4 58.4 327.75 58.4
L 327.7 58.4
Q 320.05 58.4 313.05 61.35 306.25 64.2 301.05 69.4 295.85 74.6 293 81.35 290.05 88.35 290.05 96 290.05 103.65 293 110.7 295.85 117.4 301.05 122.65 306.25 127.85 313.05 130.7 320.05 133.7 327.7 133.7 335.35 133.7 342.35 130.7 349.1 127.85 354.35 122.65 359.55 117.45 362.4 110.7 365.4 103.7 365.4 96.05 365.4 88.4 362.4 81.4 359.55 74.65 354.35 69.4
M 327.65 73.4
Q 337 73.4 343.65 80.05
L 343.7 80.05
Q 350.35 86.65 350.3 96.05 350.3 105.4 343.65 112 337.05 118.6 327.65 118.6 318.3 118.55 311.7 112 305.15 105.4 305.15 96.05 305.15 86.7 311.7 80.05 318.3 73.45 327.65 73.4
M 421.25 61.25
Q 414.3 58.4 406.8 58.4 399.3 58.4 392.4 61.25 385.5 64.1 380.15 69.4 374.75 74.85 371.9 81.9 369.15 88.7 369.15 96.05 369.15 103.45 371.95 110.2 374.8 117.25 380.2 122.65 385.65 128.1 392.7 130.9 399.5 133.7 406.85 133.7 414.25 133.7 421.05 130.9 428.05 128.05 433.45 122.6 438.9 117.2 441.75 110.2 444.55 103.4 444.5 96.05 444.5 88.65 441.75 81.85 438.85 74.85 433.45 69.4 428.15 64.1 421.25 61.25
M 406.8 73.4
Q 416.15 73.4 422.8 80.05 429.45 86.65 429.45 96.05 429.4 105.4 422.8 112 416.15 118.6 406.8 118.6 397.45 118.55 390.8 112 384.25 105.4 384.25 96.05 384.25 86.7 390.8 80.05 397.45 73.45 406.8 73.4
M 523.6 58.4
Q 517.1 58.4 511.2 61.05 505.3 63.7 501 68.6 493.5 60.05 482.2 58.6 470.95 57.2 461.55 63.55 459.5 61.25 455.25 59.75 451.45 58.4 448.3 58.4
L 448.3 133.7 452.05 133.5
Q 456.8 133.2 459.85 130.15 463 127.1 463.15 122.4
L 463.55 88.55
Q 463.55 84.6 465.45 81 468.55 75.6 474.55 74 480.6 72.35 486 75.5 489.5 77.5 491.5 80.95
L 491.45 80.95
Q 493.3 84.5 493.3 88.5
L 493.7 122.4
Q 493.9 126.95 497.1 130.15 500.25 133.35 504.8 133.5
L 508.55 133.7 508.75 88.55
Q 508.75 84.5 510.6 80.9 513.75 75.55 519.8 73.95 525.85 72.35 531.2 75.5 534.7 77.5 536.7 80.95 538.55 84.55 538.55 88.5
L 538.9 122.4
Q 539.1 126.9 542.3 130.15 545.45 133.35 550 133.5
L 553.75 133.7 553.75 88.55
Q 553.75 82.4 551.35 76.8 549.1 71.4 544.9 67.2 540.75 63.05 535.3 60.75 529.7 58.4 523.6 58.4 Z"/>
</g>
</defs>

<g transform="matrix( 1, 0, 0, 1, 0,0) ">
<use xlink:href="#Layer0_0_FILL"/>
</g>
</svg>
